<?xml version="1.0" encoding="UTF-8" standalone="no"?>
<!-- Created with Inkscape (http://www.inkscape.org/) -->

<svg
   width="42.19669mm"
   height="4.7230325mm"
   viewBox="0 0 42.19669 4.7230325"
   version="1.1"
   id="svg1"
   xml:space="preserve"
   xmlns:inkscape="http://www.inkscape.org/namespaces/inkscape"
   xmlns:sodipodi="http://sodipodi.sourceforge.net/DTD/sodipodi-0.dtd"
   xmlns="http://www.w3.org/2000/svg"
   xmlns:svg="http://www.w3.org/2000/svg"><sodipodi:namedview
     id="namedview1"
     pagecolor="#ffffff"
     bordercolor="#666666"
     borderopacity="1.0"
     inkscape:showpageshadow="2"
     inkscape:pageopacity="0.0"
     inkscape:pagecheckerboard="0"
     inkscape:deskcolor="#d1d1d1"
     inkscape:document-units="mm" /><defs
     id="defs1" /><g
     inkscape:label="Warstwa 1"
     inkscape:groupmode="layer"
     id="layer1"
     transform="translate(-89.634829,-153.77735)"><path
       style="fill:#000000"
       d="m 113.07143,158.11406 c -0.52983,-0.2763 -0.85839,-0.31738 -1.0451,-0.13066 -0.55676,0.55675 -0.76445,0.24939 -0.60711,-0.8985 0.16504,-1.20412 1.16119,-2.53334 1.89854,-2.53334 0.41243,0 0.92332,0.79089 0.92332,1.42936 0,0.2232 -0.32742,0.58092 -0.7276,0.79493 l -0.72761,0.3891 0.8599,0.30669 c 0.47294,0.16868 0.8599,0.47363 0.8599,0.67768 0,0.47947 -0.46932,0.46793 -1.43424,-0.0353 z m 0.3759,-2.23958 c 0,-0.14552 -0.11203,-0.26459 -0.24897,-0.26459 -0.13693,0 -0.32255,0.11907 -0.41249,0.26459 -0.0899,0.14552 0.0221,0.26458 0.24897,0.26458 0.22687,0 0.41249,-0.11906 0.41249,-0.26458 z m -23.377851,2.17779 c -0.0898,-0.1453 0.0125,-0.84358 0.227341,-1.55172 0.214838,-0.70814 0.391903,-1.3173 0.393478,-1.35368 0.0016,-0.0364 -0.235261,-0.0661 -0.526302,-0.0661 -0.291042,0 -0.529167,-0.17441 -0.529167,-0.38757 0,-0.60301 0.957941,-0.97139 2.297008,-0.88333 1.466497,0.0964 2.028523,0.7012 1.351112,1.45385 -0.399299,0.44364 -0.392709,0.5252 0.09046,1.11942 0.51817,0.63727 0.518175,0.64388 8.57e-4,1.1612 -0.575319,0.57532 -3.02998,0.95261 -3.304788,0.50797 z m 2.479947,-1.25679 c 0.406228,-0.48947 -0.122941,-0.75308 -0.792462,-0.39476 -0.701488,0.37542 -0.712511,1.05823 -0.01414,0.8756 0.286275,-0.0749 0.649244,-0.29124 0.806598,-0.48084 z m -0.401056,-1.97934 c 0.08994,-0.14552 -0.08163,-0.26458 -0.38126,-0.26458 -0.299629,0 -0.544781,0.11906 -0.544781,0.26458 0,0.14552 0.171567,0.26459 0.38126,0.26459 0.209693,0 0.454845,-0.11907 0.544781,-0.26459 z m 2.344412,3.04212 c -0.08389,-0.21861 -0.06238,-0.72462 0.04779,-1.12448 0.11017,-0.39986 0.212307,-0.95927 0.226972,-1.24313 0.02786,-0.53927 0.769923,-0.86533 2.077186,-0.91272 1.11445,-0.0404 0.90715,0.67213 -0.264585,0.90939 -0.895934,0.18141 -0.929922,0.21706 -0.350345,0.36747 0.78277,0.20315 1.04228,0.79808 0.372394,0.85374 -0.266788,0.0222 -0.65391,0.0524 -0.86027,0.0673 -0.20636,0.0148 -0.430699,0.19347 -0.49853,0.39696 -0.09634,0.28903 0.08602,0.33602 0.833373,0.21474 1.002703,-0.16272 1.575403,0.22302 0.934153,0.62918 -0.617841,0.39134 -2.348967,0.28243 -2.518134,-0.15841 z m 3.873294,0.0586 c 0,-0.18638 0.38199,-0.48305 0.84885,-0.65928 0.927174,-0.34996 0.786124,-0.7494 -0.31698,-0.89768 -0.94,-0.12635 -0.98854,-0.90263 -0.0853,-1.36423 0.86524,-0.44218 5.951074,-0.48112 6.168024,-0.0472 0.0728,0.14553 -0.22568,0.29974 -0.66319,0.34269 -0.66328,0.0651 -0.87579,0.27229 -1.27873,1.24651 -0.26579,0.64261 -0.40682,1.29208 -0.31339,1.44324 0.0934,0.15117 -0.003,0.27486 -0.21431,0.27486 -0.57553,0 -0.68623,-0.57406 -0.31754,-1.64653 l 0.33006,-0.96008 -1.30193,-0.17906 c -1.486364,-0.20443 -1.778704,-0.0684 -1.16726,0.54301 0.5987,0.5987 0.53359,1.3452 -0.159674,1.83078 -0.71218,0.49883 -1.52863,0.53782 -1.52863,0.073 z m 9.141924,0.008 c -0.4429,-1.43764 -0.42126,-1.83271 0.10793,-1.9711 0.58087,-0.1519 0.7017,-0.47726 0.27515,-0.74088 -0.93252,-0.57633 1.09897,-1.60768 2.77921,-1.41095 1.18049,0.13822 1.07855,0.65921 -0.16152,0.82554 -1.57389,0.21111 -2.20988,1.24687 -0.7656,1.24687 1.21578,0 1.01222,0.71032 -0.26542,0.92618 -0.82436,0.13927 -1.09467,0.32039 -1.21931,0.81701 -0.17131,0.68255 -0.58291,0.85112 -0.75044,0.30733 z m 7.88585,-0.0694 c -0.18796,-0.4898 0.0956,-2.49814 0.42807,-3.03179 0.54625,-0.87682 0.7413,0.26738 0.39336,2.30744 -0.19484,1.14234 -0.54316,1.44951 -0.82143,0.72435 z m 2.11769,0.003 c -0.0839,-0.21861 -0.0624,-0.72462 0.0478,-1.12448 0.11017,-0.39986 0.21231,-0.95927 0.22697,-1.24313 0.0279,-0.53927 0.76993,-0.86533 2.07719,-0.91272 1.11445,-0.0404 0.90714,0.67213 -0.26459,0.90939 -0.89593,0.18141 -0.92992,0.21706 -0.35034,0.36747 0.78277,0.20315 1.04228,0.79808 0.37239,0.85374 -0.26678,0.0222 -0.65391,0.0524 -0.86027,0.0673 -0.20636,0.0148 -0.4307,0.19347 -0.49853,0.39696 -0.0963,0.28903 0.086,0.33602 0.83338,0.21474 1.0027,-0.16272 1.5754,0.22302 0.93415,0.62918 -0.61784,0.39134 -2.34897,0.28243 -2.51813,-0.15841 z m 3.66424,0.0675 c -0.26163,-0.31525 -0.19115,-0.68153 0.36485,-1.89599 0.75362,-1.64613 1.28786,-1.80664 1.31996,-0.39656 0.022,0.96732 0.4444,1.37529 0.60669,0.58597 0.23094,-1.12317 0.58747,-1.74937 0.84779,-1.48905 0.38161,0.38161 -2.5e-4,2.38987 -0.58528,3.07809 l -0.49287,0.5798 -0.50075,-0.58952 -0.50074,-0.58952 -0.36768,0.55376 c -0.3187,0.47999 -0.41089,0.50171 -0.69197,0.16302 z m 3.99778,-1.39881 c 0.0604,-0.95083 0.17493,-1.79391 0.25454,-1.87352 0.0796,-0.0796 0.42283,-7.3e-4 0.76272,0.17528 1.88792,0.97766 2.07798,2.08552 0.49622,2.89247 -1.57001,0.80096 -1.63684,0.74822 -1.51348,-1.19423 z m 1.95831,-0.2124 c -0.0481,-0.14437 -0.34886,-0.43603 -0.66831,-0.64814 -0.56189,-0.37308 -0.58081,-0.35461 -0.58081,0.567 0,0.92273 0.021,0.94308 0.66831,0.64814 0.36757,-0.16748 0.62893,-0.42263 0.58081,-0.567 z m 1.39671,1.68014 c 0,-0.14356 0.42529,-0.43873 0.94509,-0.65591 1.00978,-0.42192 1.00854,-0.93514 -0.002,-0.93514 -0.71461,0 -1.26074,-0.54395 -0.98845,-0.98451 0.49517,-0.80121 3.05031,-1.16387 3.3163,-0.4707 0.12027,0.31343 -0.0782,0.39688 -0.94385,0.39688 h -1.09615 l 0.57528,0.61237 c 0.71219,0.75808 0.72095,1.09406 0.0461,1.76888 -0.54418,0.54417 -1.85209,0.73352 -1.85209,0.26813 z"
       id="path1" /></g></svg>
