<?xml version="1.0" encoding="UTF-8" standalone="no"?>
<!-- Created with Inkscape (http://www.inkscape.org/) -->

<svg
   width="608.18567mm"
   height="102.65834mm"
   viewBox="0 0 608.18567 102.65834"
   version="1.1"
   id="svg1"
   xml:space="preserve"
   xmlns:inkscape="http://www.inkscape.org/namespaces/inkscape"
   xmlns:sodipodi="http://sodipodi.sourceforge.net/DTD/sodipodi-0.dtd"
   xmlns="http://www.w3.org/2000/svg"
   xmlns:svg="http://www.w3.org/2000/svg"><sodipodi:namedview
     id="namedview1"
     pagecolor="#ffffff"
     bordercolor="#666666"
     borderopacity="1.0"
     inkscape:showpageshadow="2"
     inkscape:pageopacity="0.0"
     inkscape:pagecheckerboard="0"
     inkscape:deskcolor="#d1d1d1"
     inkscape:document-units="mm"
     showguides="false" /><defs
     id="defs1" /><path
     style="fill:#e21236"
     d="M 15.015395,76.995177 5.3697428e-6,51.332027 14.851465,25.666017 C 23.019775,11.549707 29.780605,3.68013e-5 29.875545,8.68013e-5 c 0.0949,5e-5 6.92767,11.5484901987 15.18387,25.6632101987 l 15.01126,25.66311 -14.849,25.66596 c -8.16694,14.11629 -14.92592,25.665973 -15.01994,25.665973 -0.094,0 -6.92788,-11.548423 -15.18634,-25.663163 z m 28.6588,25.293233 c 0,-0.15223 24.21555,-42.094163 25.02994,-43.352473 l 0.64215,-0.99218 h 7.93374 c 4.36356,0 7.93375,0.10394 7.93375,0.23099 0,0.12704 -5.7019,10.09853 -12.6709,22.15885 l -12.6709,21.927863 -8.09889,0.07 c -4.45439,0.0385 -8.09889,0.0191 -8.09889,-0.043 z m 30.01105,-1.41601 C 83.322785,84.403177 102.14496,51.356347 102.06451,51.045797 101.97791,50.711617 75.148375,3.9700868 73.257875,0.8598968 L 72.735205,-3.1987003e-6 80.892715,0.0124968 l 8.15752,0.0125 14.684375,25.5468202 c 8.07641,14.05074 14.65126,25.66379 14.61078,25.80676 -0.0405,0.14297 -6.64845,11.67733 -14.68437,25.63192 l -14.610785,25.371973 -8.12763,0.006 -8.12763,0.006 z m -4.16466,-55.827083 c -0.0627,-0.10914 -5.90379,-10.22388 -12.9802,-22.4772 -7.0764,-12.25331 -12.86619,-22.3438602 -12.86619,-22.4234302 0,-0.0796 3.61844,-0.1446899987003 8.04098,-0.1446899987003 h 8.04098 L 72.749545,22.488067 c 7.14637,12.36844 12.9934,22.54828 12.9934,22.62188 0,0.21691 -16.09746,0.15278 -16.22236,-0.0646 z"
     id="path94"
     sodipodi:nodetypes="scssscssssscssscssscsscccsssccccsssscssss" /><path
     style="display:inline;fill:#202428"
     d="m 274.81547,79.879897 c -7.56837,-0.79806 -13.68026,-4.16838 -17.12635,-9.44409 -2.26369,-3.46555 -3.14201,-6.74315 -3.14201,-11.72496 0,-5.2735 1.13565,-9.22739 3.69851,-12.87677 4.37013,-6.22283 12.23502,-9.31458 21.02221,-8.26399 11.60449,1.38742 18.14178,9.3443 18.14178,22.08133 0,1.35373 -0.0742,2.83233 -0.16489,3.28578 l -0.16489,0.82446 -13.6435,0.0685 -13.64349,0.0685 0.82558,0.94023 c 3.11354,3.54587 11.64305,4.23485 18.70818,1.51118 1.1569,-0.446 2.14417,-0.70377 2.19392,-0.57282 0.0498,0.13094 1.02569,2.26214 2.16873,4.73599 l 2.07825,4.49792 -0.56801,0.46821 c -1.07546,0.88652 -5.33491,2.83298 -7.61222,3.47861 -3.88479,1.10137 -8.15009,1.40924 -12.7718,0.9219 z m 8.23861,-26.05892 c -0.22111,-1.96163 -1.45268,-4.06408 -2.90755,-4.96356 -1.4541,-0.899 -4.10297,-1.22157 -5.94298,-0.7237 -2.37519,0.64266 -4.58397,3.24605 -5.01355,5.90923 l -0.16004,0.99219 h 7.08048 7.08049 z m -147.56947,-3.68113 v -28.7073 h 7.01146 7.01145 v 10.71563 c 0,5.89359 0.0735,10.71563 0.16342,10.71563 0.0899,0 0.65543,-0.49266 1.25677,-1.0948 2.92051,-2.92438 6.28918,-4.25507 10.88294,-4.29897 1.66281,-0.0159 3.53421,0.12639 4.36562,0.3319 4.92405,1.21718 8.41208,4.65452 9.98141,9.83636 0.37858,1.25005 0.45,3.43521 0.53366,16.32603 l 0.0966,14.88281 h -7.02562 -7.02561 l -0.0115,-12.10469 c -0.006,-6.65758 -0.11176,-12.62358 -0.23429,-13.25778 -0.29291,-1.51619 -0.97963,-2.41535 -2.41551,-3.16276 -0.97367,-0.50682 -1.49265,-0.59609 -3.02721,-0.52072 -2.35639,0.11574 -4.36437,1.01633 -6.19046,2.77644 l -1.35017,1.3014 v 12.48405 12.48406 h -7.01145 -7.01146 z m 49.74166,8.59896 v -20.10834 h 7.01146 7.01146 v 20.10834 20.10833 h -7.01146 -7.01146 z m 36.0246,19.64531 c -0.78141,-1.49544 -16.71001,-38.99176 -16.71001,-39.33578 0,-0.37093 0.84128,-0.41787 7.48891,-0.41787 h 7.4889 l 4.46061,11.84011 c 2.45333,6.51205 4.53296,11.92597 4.62139,12.03092 0.0884,0.10495 2.19539,-5.19333 4.68213,-11.77396 l 4.52133,-11.96478 7.59793,-0.0702 c 6.67225,-0.0617 7.58741,-0.0214 7.51159,0.33055 -0.0475,0.22043 -3.89633,9.2678 -8.553,20.10527 l -8.46667,19.70449 -7.20058,0.007 c -6.59343,0.007 -7.22099,-0.0319 -7.44253,-0.45587 z m -31.28079,-44.33316 c -4.82148,-1.36536 -7.14167,-5.85846 -5.12011,-9.9152 2.4337,-4.88381 10.15353,-5.70583 13.86686,-1.47658 1.20658,1.37422 1.62376,2.53213 1.62376,4.50681 0,2.13801 -0.6932,3.65988 -2.31886,5.09084 -1.97873,1.74174 -5.48091,2.52213 -8.05165,1.79413 z"
     id="path93"
     sodipodi:nodetypes="ssssssscccsssscsssssssscccsccccsssssssccccssssccccccccccccccccsscsssccssccccssssss" /><path
     style="fill:#1b1b1b"
     d="m 431.81795,95.020097 v -1.88676 h 1.80406 c 2.55087,0 4.26503,-0.5751 5.55294,-1.863 2.1515,-2.15151 2.02566,-0.47396 2.10804,-28.10106 l 0.0732,-24.54011 h 1.98809 1.98808 l -0.079,24.54011 -0.079,24.5401 -0.58811,1.7363 c -0.7048,2.08079 -2.29123,4.38185 -3.68413,5.34369 -2.04528,1.41234 -3.48879,1.86421 -6.37224,1.99473 l -2.71198,0.12277 z M 314.34294,67.336457 v -28.70729 h 1.97841 1.97841 l 0.0721,4.82865 0.0721,4.82864 0.77522,-1.32291 c 2.24768,-3.83566 6.84046,-7.19945 11.634,-8.52085 2.32418,-0.64069 7.87678,-0.62771 10.34494,0.0242 11.52664,3.0444 18.21239,14.51847 15.2344,26.14524 -1.88579,7.36256 -7.80419,13.26501 -15.2344,15.19335 -2.80529,0.72805 -7.81873,0.67221 -10.56836,-0.11771 -4.54759,-1.30645 -8.33998,-4.00141 -10.89659,-7.74336 l -1.28922,-1.88694 -0.0686,12.99315 -0.0686,12.99316 h -1.98188 -1.98188 z m 26.85521,8.4776 c 3.06429,-1.02977 4.76522,-2.0872 7.04338,-4.37869 5.29168,-5.32267 6.52426,-13.3961 3.11005,-20.37078 -1.99256,-4.07046 -6.13806,-7.51803 -10.6826,-8.88409 -2.47942,-0.7453 -7.35349,-0.6909 -9.92187,0.11074 -3.13389,0.97814 -4.95233,2.07718 -7.28669,4.40397 -1.67386,1.66845 -2.36176,2.59979 -3.22723,4.36938 -4.56302,9.32981 -0.54168,20.48762 8.74505,24.26444 3.95954,1.6103 8.35257,1.78467 12.21991,0.48503 z m 64.29376,4.24173 c -6.66042,-1.32022 -12.23503,-5.53214 -15.08354,-11.39641 -1.73788,-3.57782 -2.09037,-5.18041 -2.09499,-9.525 -0.005,-4.31652 0.33537,-5.84478 2.11884,-9.525 2.63721,-5.44194 7.31378,-9.2684 13.47219,-11.02322 1.73314,-0.49385 2.76386,-0.60294 5.68854,-0.60208 4.35734,10e-4 5.95131,0.37431 9.78958,2.291 6.04923,3.02076 10.07944,8.49834 11.26814,15.31487 1.60573,9.20799 -3.01712,18.32527 -11.38854,22.46074 -1.46175,0.7221 -3.43163,1.49536 -4.37751,1.71836 -2.49784,0.58888 -7.15168,0.73095 -9.39271,0.28674 z m 9.525,-4.22556 c 1.16416,-0.37595 2.72319,-1.03366 3.46449,-1.4616 3.40343,-1.9647 6.35875,-5.70234 7.66683,-9.69634 0.67587,-2.06365 0.77319,-2.74826 0.76843,-5.40562 -0.009,-5.25929 -1.45809,-8.95599 -4.87355,-12.43626 -3.54011,-3.60728 -7.28156,-5.15704 -12.45016,-5.15704 -5.14257,0 -8.88662,1.54449 -12.4424,5.13273 -8.64795,8.72688 -5.63756,23.93384 5.64644,28.52293 3.91934,1.59395 8.28192,1.77288 12.21992,0.5012 z m 57.47645,4.20216 c -10.87772,-2.06204 -17.7316,-11.05073 -17.04431,-22.35317 0.72985,-12.00232 10.16107,-20.4647 22.00952,-19.74857 5.34151,0.32285 9.00175,1.91006 12.59362,5.46102 4.1061,4.05935 6.12185,8.67656 6.49741,14.88282 l 0.17212,2.84427 h -18.70554 -18.70554 l 0.16592,0.99218 c 1.13454,6.78462 5.25338,11.65277 11.62644,13.74155 1.83122,0.60018 2.59391,0.69812 5.56182,0.71415 3.86016,0.0209 5.69762,-0.35827 8.58246,-1.77081 1.62565,-0.79599 4.32327,-3.13047 5.46385,-4.72833 l 0.50578,-0.70855 1.63462,0.95311 1.63463,0.95311 -0.76279,1.10867 c -1.17865,1.71311 -4.23152,4.38372 -6.24406,5.46222 -4.14505,2.22129 -10.18479,3.10647 -14.98595,2.19633 z m 20.0056,-23.60999 c -0.25207,-1.78788 -1.14435,-4.83556 -1.78706,-6.10388 -3.75407,-7.40832 -12.25063,-10.60619 -20.48781,-7.71105 -5.60735,1.97082 -9.77293,7.2666 -10.76255,13.68264 l -0.17344,1.12448 h 16.67538 16.67537 z m 28.35128,23.62941 c -8.40291,-1.63585 -14.77027,-7.75823 -16.66377,-16.02264 -0.76683,-3.3469 -0.42809,-9.3077 0.69916,-12.30312 0.68062,-1.80863 2.20909,-4.5814 3.32453,-6.031 2.52709,-3.28415 7.0716,-6.15685 11.44946,-7.2375 2.65053,-0.65428 8.37145,-0.65068 10.84791,0.007 2.78297,0.73887 6.3547,2.64263 8.29695,4.42235 1.58884,1.45589 3.8811,4.49726 3.86867,5.13296 -0.007,0.38061 -3.00469,2.08499 -3.11016,1.7686 -0.0481,-0.14441 -0.44992,-0.8097 -0.89286,-1.47841 -1.83555,-2.77118 -5.72423,-5.41957 -9.22093,-6.27993 -0.85682,-0.21082 -2.76078,-0.34712 -4.63021,-0.33148 -2.68102,0.0224 -3.51315,0.13697 -5.34842,0.73615 -7.84559,2.56143 -12.6697,10.30422 -11.70571,18.78792 0.68428,6.02212 4.05241,10.91884 9.28787,13.50309 3.91451,1.93221 7.71497,2.45366 11.71184,1.60692 4.17856,-0.88522 8.44018,-3.71217 10.45168,-6.93313 l 0.69449,-1.11207 1.64552,0.92733 1.64552,0.92733 -0.44727,0.71391 c -3.68856,5.88742 -9.6619,9.20756 -17.00948,9.4543 -1.90683,0.064 -3.73411,-0.0324 -4.89479,-0.25839 z m 69.28942,0.13544 c -4.74063,-0.75893 -8.8195,-3.291 -10.94144,-6.7922 -1.04895,-1.73074 -0.99328,-1.90703 0.95096,-3.01167 l 1.35519,-0.76997 0.49076,1.08832 c 1.02318,2.26899 3.80477,4.42411 6.95901,5.3917 3.30241,1.01304 8.27014,0.64231 11.23227,-0.83824 2.86641,-1.4327 3.99211,-3.1766 4.00145,-6.19893 0.005,-1.68361 -0.10161,-2.16765 -0.70474,-3.19357 -1.30876,-2.22619 -3.27758,-3.18388 -10.82823,-5.26717 -7.67855,-2.11858 -10.58815,-3.79046 -12.11666,-6.96235 -3.11595,-6.46604 1.18158,-13.71791 9.12685,-15.40111 5.1129,-1.08316 10.70781,0.23223 14.25008,3.35026 1.0991,0.96746 3.05696,3.6108 3.05696,4.12724 0,0.1896 -1.85389,1.36213 -2.94201,1.86073 -0.0931,0.0427 -0.47471,-0.44354 -0.84797,-1.08046 -2.19712,-3.7491 -7.22549,-5.63497 -12.44974,-4.66921 -4.36884,0.80763 -7.2988,3.72982 -7.30562,7.28626 -0.008,4.27768 2.41685,6.08863 11.15085,8.32717 5.78233,1.48201 8.74808,2.73081 10.65098,4.48485 3.08047,2.83947 3.85388,7.73171 1.84808,11.68998 -1.39193,2.74683 -4.78486,5.2254 -8.43895,6.16474 -1.89623,0.48746 -6.60523,0.71666 -8.49808,0.41363 z m -26.5505,-0.70664 c -2.96066,-0.79566 -5.01792,-2.77112 -6.02159,-5.78218 -0.39083,-1.17249 -0.45644,-3.14546 -0.53929,-16.2177 l -0.0943,-14.88281 h -4.48196 -4.48196 v -1.98437 -1.98438 h 4.49221 4.4922 l 0.0719,-5.07768 0.0719,-5.07769 1.5875,-0.47497 c 0.87312,-0.26123 1.73633,-0.47659 1.91823,-0.47856 0.2542,-0.003 0.33073,1.28212 0.33073,5.55265 v 5.55625 h 6.08541 6.08542 v 1.98438 1.98437 h -6.09781 -6.09781 l 0.0785,14.75052 c 0.0771,14.47606 0.0892,14.77355 0.65047,15.98807 1.11254,2.40732 3.52371,3.23711 8.56771,2.94851 l 2.8989,-0.16586 v 1.72336 1.72336 l -1.38906,0.16685 c -2.37892,0.28574 -6.61481,0.15433 -8.12723,-0.25212 z M 367.25962,59.134377 v -20.50521 h 1.97748 1.97748 l 0.073,4.02331 0.073,4.02331 1.0552,-1.80539 c 1.99457,-3.41261 5.27073,-5.66327 9.28493,-6.37857 3.45085,-0.61491 3.28591,-0.68607 3.28591,1.41766 v 1.80948 l -2.28327,0.33969 c -4.49333,0.6685 -8.16726,3.27343 -9.93569,7.04472 -1.44249,3.07621 -1.52975,4.09404 -1.53477,17.90235 l -0.005,12.63386 h -1.98438 -1.98437 z m 74.66491,-31.00197 c -1.04442,-0.51472 -1.63991,-1.5598 -1.63991,-2.87802 0,-0.7454 0.20517,-1.17081 0.89958,-1.86522 1.33461,-1.3346 3.04183,-1.32028 4.32594,0.0363 1.43264,1.5135 1.06715,3.82455 -0.75376,4.76618 -0.95406,0.49337 -1.74409,0.47684 -2.83185,-0.0592 z"
     id="path92" /></svg>
