<?xml version="1.0" encoding="UTF-8" standalone="no"?>
<!-- Created with Inkscape (http://www.inkscape.org/) -->

<svg
   width="136.42857mm"
   height="47.236717mm"
   viewBox="0 0 136.42857 47.236717"
   version="1.1"
   id="svg1"
   xml:space="preserve"
   xmlns:inkscape="http://www.inkscape.org/namespaces/inkscape"
   xmlns:sodipodi="http://sodipodi.sourceforge.net/DTD/sodipodi-0.dtd"
   xmlns="http://www.w3.org/2000/svg"
   xmlns:svg="http://www.w3.org/2000/svg"><sodipodi:namedview
     id="namedview1"
     pagecolor="#ffffff"
     bordercolor="#666666"
     borderopacity="1.0"
     inkscape:showpageshadow="2"
     inkscape:pageopacity="0.0"
     inkscape:pagecheckerboard="0"
     inkscape:deskcolor="#d1d1d1"
     inkscape:document-units="mm"
     showguides="false" /><defs
     id="defs1" /><g
     inkscape:label="Warstwa 1"
     inkscape:groupmode="layer"
     id="layer1"
     transform="translate(-24.25532,-238.20936)"><path
       style="display:inline;fill:#000000;fill-opacity:1;stroke:none;stroke-opacity:1"
       d="m 96.75581,285.33684 c -0.49331,-0.0604 -1.19747,-0.4155 -1.57762,-0.79565 -0.614171,-0.61417 -0.681171,-0.87037 -0.635021,-2.42831 0.0645,-2.17888 0.38965,-2.979 1.390401,-3.42198 0.68834,-0.30469 0.78721,-0.48453 0.78721,-1.43197 0,-0.59593 0.11142,-1.44915 0.2476,-1.89605 0.242,-0.79415 0.98413,-3.86159 1.25279,-5.17816 0.0742,-0.3638 0.48274,-1.79255 0.90779,-3.175 0.42505,-1.38245 0.90213,-2.98979 1.06019,-3.57187 0.15805,-0.58209 0.39483,-1.26508 0.52616,-1.51777 0.13134,-0.25268 0.2388,-0.66003 0.2388,-0.90521 0,-0.24517 0.18731,-0.65275 0.41625,-0.90572 0.39348,-0.4348 0.27089,-0.45194 -2.24186,-0.31348 -2.55681,0.14089 -2.6773,0.12276 -3.16184,-0.47562 -0.37085,-0.45798 -0.46823,-0.88681 -0.36914,-1.62558 0.17117,-1.27614 -0.0945,-1.2752 -1.787733,0.006 -1.840386,1.39293 -3.285005,1.72419 -5.952552,1.36496 -2.020641,-0.27212 -2.170436,-0.34025 -3.301897,-1.5017 l -1.185231,-1.21665 -0.173431,0.84798 c -0.211065,1.03199 -0.894694,1.5926 -1.955771,1.60382 -0.437523,0.005 -1.191619,0.12202 -1.675769,0.26088 -1.023168,0.29344 -3.18244,-0.0326 -3.487761,-0.5266 -0.154344,-0.24973 -0.39758,-0.19216 -0.999772,0.23664 -0.582963,0.41511 -1.187598,0.56666 -2.2607,0.56666 -0.805693,0 -1.53848,-0.11906 -1.628417,-0.26458 -0.08994,-0.14552 -0.684253,-0.26458 -1.320702,-0.26458 -1.299835,0 -1.631486,-0.45726 -1.329358,-1.83284 0.255709,-1.16424 -0.217147,-1.17687 -1.461891,-0.0391 -1.448854,1.32438 -3.651355,2.40106 -4.9117,2.40106 -0.542943,0 -1.742455,-0.13152 -2.665581,-0.29228 -1.456807,-0.25369 -1.794887,-0.42836 -2.560595,-1.32291 -1.005511,-1.17472 -1.492881,-1.30863 -1.492881,-0.41019 0,0.34125 -0.208359,0.80202 -0.463021,1.02393 -0.617974,0.5385 -4.496176,1.00145 -8.389271,1.00145 -2.603501,0 -3.181521,-0.0733 -3.447671,-0.43729 -0.35657,-0.48764 -0.929203,-0.27841 -0.929203,0.33952 0,1.01399 -2.088207,1.68624 -5.229317,1.68347 -2.018855,-0.002 -2.05483,-0.0137 -2.642037,-0.87627 -0.327421,-0.48095 -0.595312,-1.07545 -0.595312,-1.32111 0,-0.91204 -0.748173,-0.44111 -0.920597,0.57946 -0.100946,0.59749 -0.443057,1.2606 -0.819019,1.5875 -0.57983,0.50415 -0.964982,0.56139 -3.777639,0.56139 -3.783897,0 -4.146457,-0.21225 -3.927334,-2.29919 0.155549,-1.48146 0.398599,-2.64378 0.708734,-3.38935 0.121066,-0.29104 0.363901,-1.12448 0.539633,-1.85208 0.291568,-1.20722 0.492172,-1.93415 1.058696,-3.83646 0.108344,-0.3638 0.343431,-1.19724 0.522415,-1.85209 0.178985,-0.65484 0.421656,-1.42875 0.539269,-1.71979 0.385679,-0.95439 0.587354,-2.09417 0.619878,-3.50331 0.02641,-1.14441 0.157099,-1.50263 0.748063,-2.05052 0.393831,-0.36513 0.889924,-0.66388 1.10243,-0.66388 0.212506,0 0.426061,-0.0903 0.474568,-0.20067 0.04851,-0.11037 0.823912,-0.58911 1.723122,-1.06387 1.476732,-0.77968 1.743558,-0.83879 2.757605,-0.61095 1.204589,0.27065 1.452336,0.54873 2.129548,2.39029 0.478822,1.30206 0.932817,1.64892 1.173128,0.89627 0.434691,-1.36144 1.035063,-2.50052 1.595389,-3.02692 0.59082,-0.55505 0.703958,-0.56875 2.105515,-0.2551 1.98665,0.44459 4.095692,1.34286 4.74347,2.0203 0.513739,0.53727 0.648736,0.54615 4.630208,0.30447 5.148747,-0.31252 6.422571,-0.32397 7.044779,-0.0633 0.272715,0.11424 1.568119,0.18334 2.878674,0.15356 2.238605,-0.0509 2.420716,-0.0138 3.008817,0.61218 0.548837,0.58421 0.603216,0.82306 0.441207,1.93787 -0.171727,1.18168 -0.155905,1.23414 0.223913,0.74236 0.224784,-0.29104 0.412484,-0.74535 0.417112,-1.00958 0.0094,-0.53908 0.456082,-1.46026 0.945152,-1.94933 0.358054,-0.35805 1.913579,-0.41929 10.014873,-0.39428 6.118754,0.0189 7.508591,0.2671 8.62681,1.54068 0.41272,0.47007 0.863023,1.05591 1.000674,1.30188 0.226242,0.40427 0.323632,0.38219 1.014235,-0.22991 1.740642,-1.54279 2.11761,-1.83916 2.748336,-2.16076 1.033119,-0.52678 3.04288,-0.7281 5.226129,-0.52351 1.972231,0.18481 2.017611,0.20601 3.399831,1.58823 l 1.40092,1.40092 0.87354,-0.78497 c 1.96929,-1.76964 2.92329,-2.13947 5.57345,-2.1606 6.15131,-0.049 9.53918,0.0788 9.89403,0.37326 0.2903,0.24094 0.50143,0.18454 0.97514,-0.26048 0.53669,-0.5042 0.90733,-0.56801 3.29953,-0.56801 1.57827,0 2.69493,0.10713 2.69493,0.25855 0,0.15937 1.83713,0.25279 4.7892,0.24355 4.49719,-0.0141 4.82492,0.0186 5.37487,0.5352 0.71779,0.67434 0.9041,0.67659 1.74218,0.021 0.45487,-0.35581 1.08037,-0.51924 2.0028,-0.52329 1.10627,-0.005 1.44246,0.1104 1.91823,0.65759 0.31729,0.36491 0.57688,0.9532 0.57688,1.3073 0,0.35411 0.11907,0.71742 0.26459,0.80736 0.14552,0.0899 0.26458,0.45415 0.26458,0.80936 0,1.01853 0.3735,0.79767 1.59244,-0.94166 0.91661,-1.30793 1.34752,-1.84582 2.17139,-2.71049 0.6903,-0.72448 0.79209,-0.7491 2.38125,-0.57587 0.91307,0.0995 1.86066,0.28437 2.10575,0.41075 0.2451,0.12638 0.67313,0.22978 0.95119,0.22978 0.77023,0 1.38131,0.85783 1.38131,1.93906 0,1.23087 0.24614,1.22584 1.02068,-0.0208 1.1335,-1.82444 1.59736,-2.00923 5.09835,-2.03107 3.87943,-0.0242 4.02398,0.0856 3.80587,2.89097 -0.0792,1.01864 -0.24388,4.53099 -0.36596,7.8052 -0.12209,3.27422 -0.30504,6.14475 -0.40657,6.37895 -0.20016,0.46171 -0.84092,0.82456 -2.24654,1.27216 -1.08357,0.34505 -4.25999,0.38242 -4.25999,0.0501 0,-0.52582 -0.8687,-0.51791 -1.58878,0.0145 -0.69529,0.51405 -0.98937,0.55196 -3.18044,0.41001 -1.37483,-0.0891 -2.59572,-0.30566 -2.83566,-0.50304 -0.27426,-0.22562 -1.26024,-0.35347 -2.82438,-0.36623 -2.35233,-0.0192 -5.1195,-0.36938 -6.04106,-0.76452 -0.30999,-0.13292 -0.46576,-0.0799 -0.47133,0.16051 -0.005,0.19747 -0.30526,0.57523 -0.66819,0.83948 -0.56932,0.41452 -1.0311,0.46165 -3.36512,0.34342 -1.48789,-0.0754 -2.94338,-0.15994 -3.23442,-0.18794 -0.29104,-0.028 -2.4693,0.0955 -4.84059,0.27449 -3.84603,0.29029 -4.38052,0.28014 -4.95162,-0.0941 -0.46601,-0.30534 -1.29581,-0.41948 -3.04967,-0.41948 -1.81165,0 -2.51006,-0.1006 -2.81492,-0.40547 -0.36423,-0.36423 -0.47361,-0.33732 -1.07552,0.26459 -0.51227,0.51227 -0.94191,0.67004 -1.82459,0.67004 -0.635,0 -1.15455,-0.11129 -1.15455,-0.24732 0,-0.13603 -0.88856,-0.39664 -1.97459,-0.57912 -1.20338,-0.2022 -2.00425,-0.46846 -2.05052,-0.6817 -0.0517,-0.23809 -0.47889,-0.0627 -1.33684,0.54895 l -1.26092,0.89887 2.803,0.10376 c 2.56654,0.095 2.84238,0.15596 3.26971,0.72248 0.39188,0.51953 0.4273,0.83553 0.22092,1.97103 -0.13519,0.74377 -0.4736,1.82381 -0.75202,2.40009 -0.27843,0.57627 -0.50624,1.20562 -0.50624,1.39854 0,0.19293 -0.10517,0.55752 -0.23371,0.8102 -0.4257,0.83684 -1.56303,3.96884 -1.80017,4.95735 -0.0698,0.29104 -0.22406,0.76729 -0.34275,1.05833 -0.34349,0.84229 -0.72475,2.01618 -1.10608,3.40554 -0.19456,0.70887 -0.59187,1.5456 -0.88291,1.85939 -0.44551,0.48033 -0.51564,0.86326 -0.44363,2.42217 0.0847,1.83444 0.0756,1.86294 -0.98523,3.0681 -1.64351,1.86712 -2.60748,2.21078 -5.28298,1.88338 z m 3.41171,-2.59127 c 1.53968,-1.4751 1.46602,-3.27349 -0.14659,-3.57905 -1.12428,-0.21302 -2.1083,0.18899 -3.02882,1.2374 -0.90519,1.03095 -1.04857,2.19493 -0.35572,2.88779 0.67255,0.67254 2.56453,0.37992 3.53113,-0.54614 z m 2.42067,-7.40147 c 1.85177,-5.46982 3.80226,-10.96753 4.85775,-13.69219 0.16271,-0.42002 -0.0424,-0.46302 -2.20846,-0.46302 h -2.38783 l -0.66189,2.05052 c -1.21417,3.76144 -3.6149,12.50887 -3.6149,13.17143 0,0.34073 0.31085,0.39901 1.78374,0.33441 l 1.78373,-0.0782 z M 30.403186,259.06697 c 0.123813,-0.11377 0.436859,-0.9628 0.695658,-1.88674 1.24536,-4.44605 1.735994,-6.04129 1.857352,-6.03899 0.07276,10e-4 0.834995,1.73715 1.693855,3.85727 l 1.561564,3.85476 1.87802,-0.1818 c 1.03291,-0.1 1.954191,-0.25909 2.047291,-0.35355 0.0931,-0.0945 0.429028,-1.30283 0.746508,-2.68528 0.806391,-3.51138 1.725435,-6.75631 2.939321,-10.37807 0.57183,-1.70612 1.03969,-3.20821 1.03969,-3.33799 0,-0.22054 -2.802615,-1.36519 -3.342595,-1.36519 -0.383703,0 -1.839036,3.91624 -2.84895,7.66641 l -0.60389,2.24246 -1.651351,-4.95444 c -0.908243,-2.72494 -1.703632,-4.95443 -1.76753,-4.95443 -0.0639,0 -1.070739,0.47994 -2.237422,1.06654 -2.118869,1.06534 -2.121057,1.06753 -1.954618,1.95473 0.122767,0.6544 -0.187505,2.07884 -1.1788,5.41176 -0.739984,2.48797 -1.650017,5.68624 -2.022296,7.10726 -0.37228,1.42101 -0.740731,2.80028 -0.81878,3.06504 -0.131401,0.44573 0.0019,0.46789 1.799975,0.29924 1.068036,-0.10017 2.043185,-0.27522 2.166998,-0.38899 z m 69.664654,-1.68678 c 1.7892,-0.47639 4.02559,-1.70754 4.65348,-2.56178 0.95152,-1.29452 1.04837,-2.52225 0.42198,-5.34943 -0.67729,-3.057 -0.57938,-3.28109 1.54334,-3.5325 l 1.33497,-0.1581 0.435,-1.37998 c 0.23925,-0.75899 0.435,-1.45881 0.435,-1.55516 0,-0.35513 -3.20024,-0.16134 -4.29413,0.26003 -1.53609,0.59172 -3.325,2.35119 -3.66164,3.6014 -0.21688,0.80543 -0.16338,1.38456 0.27088,2.93217 0.96047,3.4229 0.75474,3.99261 -1.63619,4.5311 -1.45828,0.32843 -1.51516,0.40743 -1.86406,2.58918 -0.14282,0.89304 -0.10085,0.99187 0.42,0.98904 0.31828,-0.002 1.19189,-0.16641 1.94137,-0.36597 z m -51.236645,-0.28725 c 4.515053,-0.24481 4.420463,-0.21019 4.889606,-1.78996 0.220145,-0.74131 0.36567,-1.38243 0.323389,-1.42471 -0.04228,-0.0423 -1.191833,0.0385 -2.554562,0.17947 -1.362729,0.14098 -2.528123,0.2059 -2.589765,0.14426 -0.06164,-0.0616 0.0501,-0.68626 0.248309,-1.38804 0.337051,-1.19336 0.428389,-1.28804 1.410766,-1.46236 0.57771,-0.10251 1.660577,-0.19324 2.406372,-0.20163 1.278079,-0.0144 1.364756,-0.0591 1.508566,-0.77813 0.08392,-0.41959 0.234655,-1.08991 0.334973,-1.48961 l 0.182398,-0.72673 -2.313004,0.19267 -2.313004,0.19267 0.193344,-0.88587 c 0.432639,-1.98228 0.340862,-1.92089 3.301879,-2.20879 l 2.72119,-0.26458 0.346606,-1.18008 c 0.190634,-0.64904 0.3015,-1.22518 0.246369,-1.28031 -0.05513,-0.0551 -1.973436,0.0294 -4.262901,0.18789 -2.289465,0.15846 -4.444786,0.28812 -4.789604,0.28812 -0.632442,0 -0.863963,0.35769 -1.241601,1.91823 -0.149435,0.61752 -0.09255,0.7276 0.375963,0.7276 0.402466,0 0.514267,0.12546 0.412635,0.46303 -0.538201,1.78762 -2.806674,10.55739 -2.806674,10.85042 0,0.22016 0.182881,0.31205 0.463021,0.23265 0.254662,-0.0722 1.83224,-0.20547 3.505729,-0.29621 z m 76.508305,-0.0338 2.55728,-0.1785 0.17022,-0.90735 c 0.0936,-0.49905 0.23551,-1.0775 0.3153,-1.28544 0.10658,-0.27773 -0.0731,-0.37809 -0.67697,-0.37809 -0.45213,0 -0.82206,-0.0901 -0.82206,-0.20029 0,-0.11016 0.41672,-1.84031 0.92605,-3.84478 0.50932,-2.00448 0.92604,-3.74259 0.92604,-3.86248 0,-0.11989 -0.38696,-0.34211 -0.8599,-0.49383 -0.80911,-0.25956 -0.76224,-0.2794 0.79375,-0.33593 0.90951,-0.033 1.79255,-0.075 1.96233,-0.0932 0.44325,-0.0475 1.14013,-2.26196 0.81435,-2.58775 -0.16223,-0.16223 -1.46987,-0.18861 -3.49062,-0.0704 -3.55278,0.20781 -3.47425,0.16239 -3.894,2.25215 -0.12739,0.63422 -0.078,0.67664 0.66143,0.56811 l 0.7991,-0.11728 -0.52756,1.68085 c -0.29015,0.92446 -0.86594,2.99053 -1.27953,4.59126 -0.69847,2.70332 -0.80077,2.91637 -1.43764,2.99415 -0.75182,0.0918 -1.05219,0.51007 -1.3451,1.87303 l -0.19308,0.89842 1.02167,-0.16209 c 0.56192,-0.0891 2.17245,-0.24241 3.57894,-0.34059 z m 9.84192,-3.0843 c 0.43732,-1.71218 0.86939,-3.02187 0.96015,-2.91042 0.0908,0.11145 0.57281,1.24443 1.07121,2.51774 0.4984,1.2733 0.96776,2.31499 1.04303,2.31485 0.0753,-1.4e-4 1.07781,-1.19076 2.2279,-2.64583 1.15008,-1.45507 2.11686,-2.64559 2.14841,-2.64559 0.0315,0 -0.28361,1.2204 -0.70034,2.71198 -0.41674,1.49159 -0.75845,2.83246 -0.75936,2.97972 -10e-4,0.16534 0.58019,0.21593 1.51971,0.13229 l 1.52135,-0.13544 0.83534,-2.64584 c 0.45944,-1.45521 1.2138,-4.01505 1.67636,-5.68854 0.46256,-1.67349 1.07524,-3.44716 1.3615,-3.9415 0.28626,-0.49433 0.42487,-0.977 0.30801,-1.07261 -0.2445,-0.20004 -2.76696,-0.86138 -2.85712,-0.74908 -0.033,0.0411 -1.34181,1.80106 -2.90855,3.91111 -1.56674,2.11005 -2.92273,3.86472 -3.01333,3.89926 -0.0906,0.0345 -0.62814,-1.45374 -1.19456,-3.30729 -0.56641,-1.85355 -1.11292,-3.46417 -1.21447,-3.57915 -0.10154,-0.11499 -0.85655,0.17687 -1.67779,0.64856 -1.33397,0.7662 -1.48795,0.94362 -1.4443,1.66427 0.0269,0.44365 -0.40185,2.47351 -0.95272,4.51081 -1.62174,5.99775 -1.94208,7.26101 -1.86169,7.3414 0.0418,0.0418 0.76009,0.0145 1.5961,-0.0608 l 1.52003,-0.13686 z m 15.40968,3.0469 c 0.0788,-0.25466 0.31398,-0.85563 0.52258,-1.3355 0.37724,-0.86778 0.38817,-0.87205 2.03121,-0.79375 l 1.65192,0.0787 -0.0865,1.21607 -0.0865,1.21608 1.5619,-0.38157 1.5619,-0.38157 0.32014,-5.63868 c 0.17607,-3.10127 0.39194,-6.245 0.47971,-6.98607 l 0.15958,-1.34739 h -1.98883 c -1.27073,0 -2.08629,0.11942 -2.25874,0.33073 -0.31636,0.38766 -6.15486,12.03816 -6.76222,13.49375 l -0.414,0.99219 h 1.5823 c 1.27598,0 1.61005,-0.0896 1.72561,-0.46302 z m 1.97015,-4.82865 c 0.008,-0.0728 0.66762,-1.38244 1.46681,-2.91041 1.02594,-1.96148 1.41083,-2.51563 1.30935,-1.88516 -0.079,0.49113 -0.14372,1.75957 -0.14372,2.81874 v 1.92576 l -1.32308,0.0917 c -0.7277,0.0504 -1.31691,0.0322 -1.30936,-0.0406 z m -89.262243,4.45723 c 1.732834,-0.64834 3.919426,-2.63948 4.80515,-4.37564 0.527525,-1.03404 2.687454,-8.46063 2.687454,-9.24041 0,-0.30946 -0.270798,-0.35043 -1.389062,-0.21013 -0.763985,0.0958 -1.460626,0.24878 -1.548092,0.33984 -0.08747,0.0911 -0.551946,1.53479 -1.03218,3.20828 -1.720857,5.99675 -2.238567,7.06609 -3.717574,7.67871 -1.026006,0.42499 -1.942568,0.15918 -2.321898,-0.67336 -0.467457,-1.02595 -0.401202,-1.49502 0.858699,-6.07931 0.639896,-2.32833 1.131803,-4.26611 1.093127,-4.30618 -0.03868,-0.0401 -0.718291,0.003 -1.510254,0.0964 l -1.439934,0.16924 -0.588916,2.28486 c -1.413028,5.48224 -1.747679,9.1664 -0.937677,10.32284 0.50261,0.71757 1.777527,1.32962 2.800399,1.34438 0.394723,0.006 1.403064,-0.24608 2.240758,-0.5595 z m 10.861124,-1.28082 c 0.352791,-0.94509 0.688458,-1.76537 0.745925,-1.82283 0.275536,-0.27554 2.095727,1.49619 2.471661,2.40585 l 0.425352,1.02924 1.5875,-0.17514 c 0.873125,-0.0963 1.631558,-0.21574 1.685406,-0.26536 0.05385,-0.0496 0.01404,-0.54223 -0.08847,-1.09472 -0.131734,-0.71002 -0.549828,-1.35603 -1.426064,-2.20344 l -1.239689,-1.19891 1.063574,-0.50729 c 2.599082,-1.23966 5.258385,-5.01567 4.703888,-6.67916 -0.364155,-1.09246 -1.387644,-1.67855 -3.358016,-1.92291 -1.582922,-0.1963 -6.948522,0.0935 -7.246434,0.39146 -0.06016,0.0602 -0.170429,0.65104 -0.24505,1.31307 -0.130905,1.16139 -0.110889,1.20369 0.569503,1.20369 0.588667,0 0.664644,0.0765 0.459851,0.46303 -0.222934,0.42075 -2.495336,7.03808 -3.366204,9.80252 l -0.358317,1.13742 1.487072,-0.0791 1.487071,-0.0791 z m 1.92418,-5.22697 c 5.68e-4,-0.10914 0.218905,-0.96928 0.485194,-1.91142 0.48163,-1.70403 0.481278,-1.7154 -0.06718,-2.17401 -0.536265,-0.44842 -0.507932,-0.46117 1.03616,-0.46621 2.041679,-0.007 2.721478,0.18604 2.925674,0.8294 0.389688,1.2278 -0.80049,2.60761 -2.997174,3.4747 -1.279523,0.50507 -1.384114,0.52379 -1.382674,0.24754 z m 15.598118,6.19958 c 3.32384,-1.56129 6.082231,-6.34355 5.341711,-9.26099 -0.24035,-0.9469 -0.21135,-1.1204 0.2401,-1.43661 0.46368,-0.32477 0.47767,-0.42883 0.14438,-1.07336 -0.65176,-1.26036 -1.34411,-1.67623 -3.047851,-1.83071 -2.086333,-0.18919 -3.674453,0.40516 -5.404079,2.02243 -2.663267,2.49028 -4.012161,5.45946 -3.824968,8.41952 0.227925,3.60414 2.880614,4.88366 6.550707,3.15972 z m -2.935986,-2.53901 c -1.424009,-1.15497 -0.272952,-5.45664 1.936745,-7.23789 1.217038,-0.98106 2.900136,-1.06925 3.765291,-0.19728 l 0.55251,0.55686 -0.58951,0.45132 c -0.422045,0.32311 -0.544729,0.62073 -0.431881,1.04771 0.433111,1.63873 -1.163819,4.62495 -2.918569,5.45763 -1.164685,0.55268 -1.552773,0.53954 -2.314586,-0.0784 z m 22.264147,2.29256 c 0.15802,-0.61846 0.49548,-1.83886 0.74993,-2.71198 l 0.46262,-1.5875 1.83996,0.0927 c 1.01198,0.051 1.87436,0.12505 1.91641,0.16464 0.042,0.0396 -0.16632,0.948 -0.46302,2.01869 -0.75788,2.7349 -0.78623,2.65836 0.95025,2.56587 l 1.48971,-0.0794 1.13699,-4.49792 c 0.62534,-2.47385 1.50145,-5.62901 1.94691,-7.01146 0.44547,-1.38244 0.81126,-2.5433 0.81289,-2.57968 0.002,-0.0364 -0.70612,-0.0661 -1.57276,-0.0661 h -1.57572 l -1.00397,3.16906 -1.00397,3.16906 -1.68451,0.006 c -1.61923,0.006 -1.67828,-0.0171 -1.52399,-0.58937 0.85329,-3.16466 1.26558,-5.00768 1.14679,-5.12646 -0.0785,-0.0785 -0.78527,-0.0624 -1.57064,0.0357 l -1.42793,0.17841 -0.95878,2.95227 c -0.52732,1.62375 -1.39043,4.55961 -1.91802,6.52414 -0.52759,1.96453 -1.01943,3.78024 -1.09298,4.0349 -0.11684,0.40456 0.0677,0.46302 1.4614,0.46302 h 1.59514 z m -60.724186,26.20491 c -1.025449,-0.5881 -1.111106,-0.9398 -0.75041,-3.0812 0.318368,-1.89009 0.508085,-2.70702 1.13039,-4.86746 1.149906,-3.99212 1.404914,-4.92092 1.526383,-5.55949 0.07646,-0.40196 0.244357,-0.79594 0.3731,-0.87551 0.128743,-0.0796 0.237152,-0.40553 0.240909,-0.72437 0.0074,-0.63028 1.110281,-4.03396 1.401411,-4.32509 0.09859,-0.0986 0.179258,-0.3889 0.179258,-0.64512 0,-0.25623 0.275875,-0.68287 0.613055,-0.94809 0.510797,-0.40179 1.110449,-0.48223 3.595004,-0.48223 2.817043,0 3.010016,0.0346 3.48948,0.62647 0.4171,0.51485 0.577981,0.568 0.902913,0.29833 0.21746,-0.18047 0.395381,-0.47845 0.395381,-0.66218 0,-0.18373 0.293467,-0.52634 0.652149,-0.76135 0.504646,-0.33066 1.339066,-0.42731 3.689164,-0.42731 2.838428,0 3.063946,0.0385 3.448892,0.58804 0.226533,0.32342 0.411878,0.93595 0.411878,1.36118 v 0.77313 l 1.785937,-0.17229 c 0.982266,-0.0948 3.601287,-0.24967 5.820047,-0.34423 3.90975,-0.16664 4.049363,-0.15435 4.528951,0.39861 0.523841,0.604 2.238099,0.80974 2.549439,0.30598 0.08994,-0.14552 0.911948,-0.26459 1.826691,-0.26459 1.327151,0 1.759922,0.10691 2.142059,0.52917 0.489498,0.54089 1.076783,0.69365 1.234722,0.32117 0.04851,-0.11439 0.475511,-0.47995 0.948897,-0.81234 0.798662,-0.56078 0.965538,-0.58258 2.315105,-0.30241 0.799921,0.16606 1.454401,0.41255 1.454401,0.54776 0,0.1352 0.14381,0.24582 0.31957,0.24582 0.17577,0 0.75443,0.42463 1.28592,0.94361 l 0.96634,0.94361 -0.37397,1.10691 c -0.20569,0.6088 -0.57599,1.26046 -0.8229,1.44813 -0.2469,0.18766 -1.49071,1.30579 -2.764021,2.48472 -1.848811,1.71177 -2.315106,2.29271 -2.315106,2.88431 0,0.40745 0.119063,0.8144 0.264584,0.90434 0.14552,0.0899 0.264583,0.44712 0.264583,0.79375 0,0.34662 0.119062,0.70381 0.264583,0.79375 0.145521,0.0899 0.264584,0.44712 0.264584,0.79375 0,0.34662 0.119062,0.70381 0.264583,0.79375 0.440349,0.27214 0.295089,2.06339 -0.238247,2.93802 -0.49431,0.81063 -1.355157,1.16302 -2.841124,1.16302 -0.347587,0 -0.84896,0.13551 -1.114164,0.30113 -0.748622,0.46752 -2.840231,0.0494 -3.611624,-0.72201 l -0.651562,-0.65156 -0.837964,0.8008 c -0.695594,0.66475 -1.054694,0.8008 -2.113592,0.8008 -0.785193,0 -1.637846,-0.20344 -2.217764,-0.52916 -1.032979,-0.58019 -1.859913,-0.68002 -2.121873,-0.25616 -0.108501,0.17556 -2.239112,0.26332 -5.968937,0.24588 -4.941203,-0.0231 -5.861695,0.0344 -6.215388,0.38805 -0.675075,0.67508 -1.659951,0.78201 -4.334253,0.4706 -2.240506,-0.2609 -2.597144,-0.37625 -3.153367,-1.01992 -0.602957,-0.69774 -0.641236,-0.70648 -0.992188,-0.22653 -0.200769,0.27457 -0.365035,0.67169 -0.365035,0.8825 0,0.81941 -0.877108,1.08624 -3.571875,1.08662 -1.5067,2.1e-4 -2.873659,-0.13029 -3.174999,-0.30311 z m 5.198424,-3.01447 c 0.101468,-0.59679 0.498584,-2.11484 0.88248,-3.37343 l 0.697993,-2.28837 1.108468,0.002 c 0.609657,10e-4 1.718223,0.0756 2.463479,0.16512 l 1.355011,0.16281 -0.637748,2.28228 c -0.350761,1.25526 -0.708879,2.61656 -0.795816,3.02511 l -0.158069,0.74283 1.954347,-0.18189 c 2.003257,-0.18645 2.340121,-0.37511 2.34717,-1.31455 0.0063,-0.8368 2.192783,-8.83402 3.538241,-12.94125 0.665121,-2.03039 1.18382,-3.71308 1.152665,-3.73931 -0.03116,-0.0262 -0.9582,0.0122 -2.060098,0.0854 l -2.003452,0.13307 -0.811832,2.28333 c -0.446507,1.25583 -1.022321,3.02747 -1.279584,3.93697 l -0.467753,1.65365 h -2.074776 c -1.661341,0 -2.074776,-0.0785 -2.074776,-0.39409 0,-0.21675 0.357188,-1.66615 0.79375,-3.22089 0.436563,-1.55474 0.79375,-2.98996 0.79375,-3.18937 0,-0.28084 -0.432088,-0.34506 -1.916539,-0.28485 l -1.916539,0.0777 -0.740453,2.24896 c -0.688743,2.0919 -3.855362,12.97037 -4.258505,14.6295 l -0.179536,0.73887 2.051817,-0.0774 2.051818,-0.0774 z m 29.798469,-3.09941 c 0.644771,-0.70075 1.207285,-1.23653 1.25003,-1.19063 0.04275,0.0459 0.33196,0.94186 0.6427,1.99103 0.310739,1.04917 0.675353,1.97579 0.810254,2.05917 0.329214,0.20346 3.707412,-0.43018 3.707412,-0.69539 0,-0.11498 -0.220043,-0.77901 -0.488986,-1.47562 -0.735461,-1.90499 -1.467075,-4.9796 -1.29291,-5.43347 0.08464,-0.22056 1.442922,-1.56208 3.018412,-2.98115 1.57549,-1.41908 2.899831,-2.67011 2.942991,-2.78008 0.0704,-0.17927 -1.536471,-1.31666 -1.860086,-1.31666 -0.07241,0 -1.129923,0.89233 -2.35002,1.98295 -1.220097,1.09062 -2.280503,1.98359 -2.356457,1.98437 -0.07595,7.9e-4 -0.289692,-0.7977 -0.474972,-1.77441 -0.185281,-0.97671 -0.384702,-1.82367 -0.443158,-1.88213 -0.225276,-0.22527 -3.838793,1.04461 -3.84286,1.35048 -0.0024,0.17771 0.254753,1.65776 0.571371,3.289 l 0.575669,2.96589 -2.076864,2.32578 c -1.142276,1.27918 -2.365001,2.64363 -2.717167,3.03212 l -0.640302,0.70634 1.021316,0.53955 1.021315,0.53955 0.905,-0.98131 c 0.49775,-0.53972 1.432541,-1.55464 2.077312,-2.25538 z m -9.620896,2.50213 1.563499,-0.16972 0.483637,-1.42651 0.483637,-1.4265 -2.898491,0.1834 -2.898491,0.18341 0.374074,-1.24295 c 0.205741,-0.68363 0.475319,-1.3442 0.599064,-1.46795 0.123744,-0.12374 1.315542,-0.3024 2.64844,-0.39701 l 2.42345,-0.17202 0.408529,-1.19897 c 0.22469,-0.65943 0.408528,-1.31444 0.408528,-1.45558 0,-0.15818 -0.913392,-0.19743 -2.38125,-0.10234 -2.657974,0.17221 -2.66668,0.16499 -2.007017,-1.66275 0.386153,-1.06993 1.084957,-1.28251 4.300858,-1.30836 l 1.896965,-0.0152 0.445096,-1.34006 c 0.244802,-0.73703 0.394777,-1.39037 0.333278,-1.45187 -0.110526,-0.11053 -10.332325,0.39965 -10.458402,0.52198 -0.0359,0.0348 -0.232603,0.61935 -0.437127,1.29893 -0.351623,1.16836 -0.344471,1.2356 0.13141,1.2356 0.2768,0 0.503273,0.0758 0.503273,0.1685 0,0.0927 -0.491571,1.72977 -1.09238,3.63802 -0.600809,1.90824 -1.363455,4.45179 -1.69477,5.65234 l -0.602391,2.18281 2.951541,-0.0287 c 1.623348,-0.0158 3.655116,-0.10509 4.51504,-0.19843 z"
       id="path32" /><path
       style="display:none;fill:#ffffff;fill-opacity:1;stroke:none;stroke-opacity:1"
       d="m 100.16752,282.74557 c 1.53968,-1.4751 1.46602,-3.27349 -0.14659,-3.57905 -1.12428,-0.21302 -2.1083,0.18899 -3.02882,1.2374 -0.90519,1.03095 -1.04857,2.19493 -0.35572,2.88779 0.67255,0.67254 2.56453,0.37992 3.53113,-0.54614 z m 2.42067,-7.40147 c 1.85177,-5.46982 3.80226,-10.96753 4.85775,-13.69219 0.16271,-0.42002 -0.0424,-0.46302 -2.20846,-0.46302 h -2.38783 l -0.66189,2.05052 c -1.21417,3.76144 -3.6149,12.50887 -3.6149,13.17143 0,0.34073 0.31085,0.39901 1.78374,0.33441 l 1.78373,-0.0782 z M 30.403186,259.06697 c 0.123813,-0.11377 0.436859,-0.9628 0.695658,-1.88674 1.24536,-4.44605 1.735994,-6.04129 1.857352,-6.03899 0.07276,10e-4 0.834995,1.73715 1.693855,3.85727 l 1.561564,3.85476 1.87802,-0.1818 c 1.03291,-0.1 1.954191,-0.25909 2.047291,-0.35355 0.0931,-0.0945 0.429028,-1.30283 0.746508,-2.68528 0.806391,-3.51138 1.725435,-6.75631 2.939321,-10.37807 0.57183,-1.70612 1.03969,-3.20821 1.03969,-3.33799 0,-0.22054 -2.802615,-1.36519 -3.342595,-1.36519 -0.383703,0 -1.839036,3.91624 -2.84895,7.66641 l -0.60389,2.24246 -1.651351,-4.95444 c -0.908243,-2.72494 -1.703632,-4.95443 -1.76753,-4.95443 -0.0639,0 -1.070739,0.47994 -2.237422,1.06654 -2.118869,1.06534 -2.121057,1.06753 -1.954618,1.95473 0.122767,0.6544 -0.187505,2.07884 -1.1788,5.41176 -0.739984,2.48797 -1.650017,5.68624 -2.022296,7.10726 -0.37228,1.42101 -0.740731,2.80028 -0.81878,3.06504 -0.131401,0.44573 0.0019,0.46789 1.799975,0.29924 1.068036,-0.10017 2.043185,-0.27522 2.166998,-0.38899 z m 69.664654,-1.68678 c 1.7892,-0.47639 4.02559,-1.70754 4.65348,-2.56178 0.95152,-1.29452 1.04837,-2.52225 0.42198,-5.34943 -0.67729,-3.057 -0.57938,-3.28109 1.54334,-3.5325 l 1.33497,-0.1581 0.435,-1.37998 c 0.23925,-0.75899 0.435,-1.45881 0.435,-1.55516 0,-0.35513 -3.20024,-0.16134 -4.29413,0.26003 -1.53609,0.59172 -3.325,2.35119 -3.66164,3.6014 -0.21688,0.80543 -0.16338,1.38456 0.27088,2.93217 0.96047,3.4229 0.75474,3.99261 -1.63619,4.5311 -1.45828,0.32843 -1.51516,0.40743 -1.86406,2.58918 -0.14282,0.89304 -0.10085,0.99187 0.42,0.98904 0.31828,-0.002 1.19189,-0.16641 1.94137,-0.36597 z m -51.236645,-0.28725 c 4.515053,-0.24481 4.420463,-0.21019 4.889606,-1.78996 0.220145,-0.74131 0.36567,-1.38243 0.323389,-1.42471 -0.04228,-0.0423 -1.191833,0.0385 -2.554562,0.17947 -1.362729,0.14098 -2.528123,0.2059 -2.589765,0.14426 -0.06164,-0.0616 0.0501,-0.68626 0.248309,-1.38804 0.337051,-1.19336 0.428389,-1.28804 1.410766,-1.46236 0.57771,-0.10251 1.660577,-0.19324 2.406372,-0.20163 1.278079,-0.0144 1.364756,-0.0591 1.508566,-0.77813 0.08392,-0.41959 0.234655,-1.08991 0.334973,-1.48961 l 0.182398,-0.72673 -2.313004,0.19267 -2.313004,0.19267 0.193344,-0.88587 c 0.432639,-1.98228 0.340862,-1.92089 3.301879,-2.20879 l 2.72119,-0.26458 0.346606,-1.18008 c 0.190634,-0.64904 0.3015,-1.22518 0.246369,-1.28031 -0.05513,-0.0551 -1.973436,0.0294 -4.262901,0.18789 -2.289465,0.15846 -4.444786,0.28812 -4.789604,0.28812 -0.632442,0 -0.863963,0.35769 -1.241601,1.91823 -0.149435,0.61752 -0.09255,0.7276 0.375963,0.7276 0.402466,0 0.514267,0.12546 0.412635,0.46303 -0.538201,1.78762 -2.806674,10.55739 -2.806674,10.85042 0,0.22016 0.182881,0.31205 0.463021,0.23265 0.254662,-0.0722 1.83224,-0.20547 3.505729,-0.29621 z m 76.508305,-0.0338 2.55728,-0.1785 0.17022,-0.90735 c 0.0936,-0.49905 0.23551,-1.0775 0.3153,-1.28544 0.10658,-0.27773 -0.0731,-0.37809 -0.67697,-0.37809 -0.45213,0 -0.82206,-0.0901 -0.82206,-0.20029 0,-0.11016 0.41672,-1.84031 0.92605,-3.84478 0.50932,-2.00448 0.92604,-3.74259 0.92604,-3.86248 0,-0.11989 -0.38696,-0.34211 -0.8599,-0.49383 -0.80911,-0.25956 -0.76224,-0.2794 0.79375,-0.33593 0.90951,-0.033 1.79255,-0.075 1.96233,-0.0932 0.44325,-0.0475 1.14013,-2.26196 0.81435,-2.58775 -0.16223,-0.16223 -1.46987,-0.18861 -3.49062,-0.0704 -3.55278,0.20781 -3.47425,0.16239 -3.894,2.25215 -0.12739,0.63422 -0.078,0.67664 0.66143,0.56811 l 0.7991,-0.11728 -0.52756,1.68085 c -0.29015,0.92446 -0.86594,2.99053 -1.27953,4.59126 -0.69847,2.70332 -0.80077,2.91637 -1.43764,2.99415 -0.75182,0.0918 -1.05219,0.51007 -1.3451,1.87303 l -0.19308,0.89842 1.02167,-0.16209 c 0.56192,-0.0891 2.17245,-0.24241 3.57894,-0.34059 z m 9.84192,-3.0843 c 0.43732,-1.71218 0.86939,-3.02187 0.96015,-2.91042 0.0908,0.11145 0.57281,1.24443 1.07121,2.51774 0.4984,1.2733 0.96776,2.31499 1.04303,2.31485 0.0753,-1.4e-4 1.07781,-1.19076 2.2279,-2.64583 1.15008,-1.45507 2.11686,-2.64559 2.14841,-2.64559 0.0315,0 -0.28361,1.2204 -0.70034,2.71198 -0.41674,1.49159 -0.75845,2.83246 -0.75936,2.97972 -10e-4,0.16534 0.58019,0.21593 1.51971,0.13229 l 1.52135,-0.13544 0.83534,-2.64584 c 0.45944,-1.45521 1.2138,-4.01505 1.67636,-5.68854 0.46256,-1.67349 1.07524,-3.44716 1.3615,-3.9415 0.28626,-0.49433 0.42487,-0.977 0.30801,-1.07261 -0.2445,-0.20004 -2.76696,-0.86138 -2.85712,-0.74908 -0.033,0.0411 -1.34181,1.80106 -2.90855,3.91111 -1.56674,2.11005 -2.92273,3.86472 -3.01333,3.89926 -0.0906,0.0345 -0.62814,-1.45374 -1.19456,-3.30729 -0.56641,-1.85355 -1.11292,-3.46417 -1.21447,-3.57915 -0.10154,-0.11499 -0.85655,0.17687 -1.67779,0.64856 -1.33397,0.7662 -1.48795,0.94362 -1.4443,1.66427 0.0269,0.44365 -0.40185,2.47351 -0.95272,4.51081 -1.62174,5.99775 -1.94208,7.26101 -1.86169,7.3414 0.0418,0.0418 0.76009,0.0145 1.5961,-0.0608 l 1.52003,-0.13686 z m 15.40968,3.0469 c 0.0788,-0.25466 0.31398,-0.85563 0.52258,-1.3355 0.37724,-0.86778 0.38817,-0.87205 2.03121,-0.79375 l 1.65192,0.0787 -0.0865,1.21607 -0.0865,1.21608 1.5619,-0.38157 1.5619,-0.38157 0.32014,-5.63868 c 0.17607,-3.10127 0.39194,-6.245 0.47971,-6.98607 l 0.15958,-1.34739 h -1.98883 c -1.27073,0 -2.08629,0.11942 -2.25874,0.33073 -0.31636,0.38766 -6.15486,12.03816 -6.76222,13.49375 l -0.414,0.99219 h 1.5823 c 1.27598,0 1.61005,-0.0896 1.72561,-0.46302 z m 1.97015,-4.82865 c 0.008,-0.0728 0.66762,-1.38244 1.46681,-2.91041 1.02594,-1.96148 1.41083,-2.51563 1.30935,-1.88516 -0.079,0.49113 -0.14372,1.75957 -0.14372,2.81874 v 1.92576 l -1.32308,0.0917 c -0.7277,0.0504 -1.31691,0.0322 -1.30936,-0.0406 z m -89.262243,4.45723 c 1.732834,-0.64834 3.919426,-2.63948 4.80515,-4.37564 0.527525,-1.03404 2.687454,-8.46063 2.687454,-9.24041 0,-0.30946 -0.270798,-0.35043 -1.389062,-0.21013 -0.763985,0.0958 -1.460626,0.24878 -1.548092,0.33984 -0.08747,0.0911 -0.551946,1.53479 -1.03218,3.20828 -1.720857,5.99675 -2.238567,7.06609 -3.717574,7.67871 -1.026006,0.42499 -1.942568,0.15918 -2.321898,-0.67336 -0.467457,-1.02595 -0.401202,-1.49502 0.858699,-6.07931 0.639896,-2.32833 1.131803,-4.26611 1.093127,-4.30618 -0.03868,-0.0401 -0.718291,0.003 -1.510254,0.0964 l -1.439934,0.16924 -0.588916,2.28486 c -1.413028,5.48224 -1.747679,9.1664 -0.937677,10.32284 0.50261,0.71757 1.777527,1.32962 2.800399,1.34438 0.394723,0.006 1.403064,-0.24608 2.240758,-0.5595 z m 10.861124,-1.28082 c 0.352791,-0.94509 0.688458,-1.76537 0.745925,-1.82283 0.275536,-0.27554 2.095727,1.49619 2.471661,2.40585 l 0.425352,1.02924 1.5875,-0.17514 c 0.873125,-0.0963 1.631558,-0.21574 1.685406,-0.26536 0.05385,-0.0496 0.01404,-0.54223 -0.08847,-1.09472 -0.131734,-0.71002 -0.549828,-1.35603 -1.426064,-2.20344 l -1.239689,-1.19891 1.063574,-0.50729 c 2.599082,-1.23966 5.258385,-5.01567 4.703888,-6.67916 -0.364155,-1.09246 -1.387644,-1.67855 -3.358016,-1.92291 -1.582922,-0.1963 -6.948522,0.0935 -7.246434,0.39146 -0.06016,0.0602 -0.170429,0.65104 -0.24505,1.31307 -0.130905,1.16139 -0.110889,1.20369 0.569503,1.20369 0.588667,0 0.664644,0.0765 0.459851,0.46303 -0.222934,0.42075 -2.495336,7.03808 -3.366204,9.80252 l -0.358317,1.13742 1.487072,-0.0791 1.487071,-0.0791 z m 1.92418,-5.22697 c 5.68e-4,-0.10914 0.218905,-0.96928 0.485194,-1.91142 0.48163,-1.70403 0.481278,-1.7154 -0.06718,-2.17401 -0.536265,-0.44842 -0.507932,-0.46117 1.03616,-0.46621 2.041679,-0.007 2.721478,0.18604 2.925674,0.8294 0.389688,1.2278 -0.80049,2.60761 -2.997174,3.4747 -1.279523,0.50507 -1.384114,0.52379 -1.382674,0.24754 z m 15.598118,6.19958 c 3.32384,-1.56129 6.082231,-6.34355 5.341711,-9.26099 -0.24035,-0.9469 -0.21135,-1.1204 0.2401,-1.43661 0.46368,-0.32477 0.47767,-0.42883 0.14438,-1.07336 -0.65176,-1.26036 -1.34411,-1.67623 -3.047851,-1.83071 -2.086333,-0.18919 -3.674453,0.40516 -5.404079,2.02243 -2.663267,2.49028 -4.012161,5.45946 -3.824968,8.41952 0.227925,3.60414 2.880614,4.88366 6.550707,3.15972 z m -2.935986,-2.53901 c -1.424009,-1.15497 -0.272952,-5.45664 1.936745,-7.23789 1.217038,-0.98106 2.900136,-1.06925 3.765291,-0.19728 l 0.55251,0.55686 -0.58951,0.45132 c -0.422045,0.32311 -0.544729,0.62073 -0.431881,1.04771 0.433111,1.63873 -1.163819,4.62495 -2.918569,5.45763 -1.164685,0.55268 -1.552773,0.53954 -2.314586,-0.0784 z m 22.264147,2.29256 c 0.15802,-0.61846 0.49548,-1.83886 0.74993,-2.71198 l 0.46262,-1.5875 1.83996,0.0927 c 1.01198,0.051 1.87436,0.12505 1.91641,0.16464 0.042,0.0396 -0.16632,0.948 -0.46302,2.01869 -0.75788,2.7349 -0.78623,2.65836 0.95025,2.56587 l 1.48971,-0.0794 1.13699,-4.49792 c 0.62534,-2.47385 1.50145,-5.62901 1.94691,-7.01146 0.44547,-1.38244 0.81126,-2.5433 0.81289,-2.57968 0.002,-0.0364 -0.70612,-0.0661 -1.57276,-0.0661 h -1.57572 l -1.00397,3.16906 -1.00397,3.16906 -1.68451,0.006 c -1.61923,0.006 -1.67828,-0.0171 -1.52399,-0.58937 0.85329,-3.16466 1.26558,-5.00768 1.14679,-5.12646 -0.0785,-0.0785 -0.78527,-0.0624 -1.57064,0.0357 l -1.42793,0.17841 -0.95878,2.95227 c -0.52732,1.62375 -1.39043,4.55961 -1.91802,6.52414 -0.52759,1.96453 -1.01943,3.78024 -1.09298,4.0349 -0.11684,0.40456 0.0677,0.46302 1.4614,0.46302 h 1.59514 z M 55.484828,279.2861 c 0.101468,-0.59679 0.498584,-2.11484 0.88248,-3.37343 l 0.697993,-2.28837 1.108468,0.002 c 0.609657,10e-4 1.718223,0.0756 2.463479,0.16512 l 1.355011,0.16281 -0.637748,2.28228 c -0.350761,1.25526 -0.708879,2.61656 -0.795816,3.02511 l -0.158069,0.74283 1.954347,-0.18189 c 2.003257,-0.18645 2.340121,-0.37511 2.34717,-1.31455 0.0063,-0.8368 2.192783,-8.83402 3.538241,-12.94125 0.665121,-2.03039 1.18382,-3.71308 1.152665,-3.73931 -0.03116,-0.0262 -0.9582,0.0122 -2.060098,0.0854 l -2.003452,0.13307 -0.811832,2.28333 c -0.446507,1.25583 -1.022321,3.02747 -1.279584,3.93697 l -0.467753,1.65365 h -2.074776 c -1.661341,0 -2.074776,-0.0785 -2.074776,-0.39409 0,-0.21675 0.357188,-1.66615 0.79375,-3.22089 0.436563,-1.55474 0.79375,-2.98996 0.79375,-3.18937 0,-0.28084 -0.432088,-0.34506 -1.916539,-0.28485 l -1.916539,0.0777 -0.740453,2.24896 c -0.688743,2.0919 -3.855362,12.97037 -4.258505,14.6295 l -0.179536,0.73887 2.051817,-0.0774 2.051818,-0.0774 z m 29.798469,-3.09941 c 0.644771,-0.70075 1.207285,-1.23653 1.25003,-1.19063 0.04275,0.0459 0.33196,0.94186 0.6427,1.99103 0.310739,1.04917 0.675353,1.97579 0.810254,2.05917 0.329214,0.20346 3.707412,-0.43018 3.707412,-0.69539 0,-0.11498 -0.220043,-0.77901 -0.488986,-1.47562 -0.735461,-1.90499 -1.467075,-4.9796 -1.29291,-5.43347 0.08464,-0.22056 1.442922,-1.56208 3.018412,-2.98115 1.57549,-1.41908 2.899831,-2.67011 2.942991,-2.78008 0.0704,-0.17927 -1.536471,-1.31666 -1.860086,-1.31666 -0.07241,0 -1.129923,0.89233 -2.35002,1.98295 -1.220097,1.09062 -2.280503,1.98359 -2.356457,1.98437 -0.07595,7.9e-4 -0.289692,-0.7977 -0.474972,-1.77441 -0.185281,-0.97671 -0.384702,-1.82367 -0.443158,-1.88213 -0.225276,-0.22527 -3.838793,1.04461 -3.84286,1.35048 -0.0024,0.17771 0.254753,1.65776 0.571371,3.289 l 0.575669,2.96589 -2.076864,2.32578 c -1.142276,1.27918 -2.365001,2.64363 -2.717167,3.03212 l -0.640302,0.70634 1.021316,0.53955 1.021315,0.53955 0.905,-0.98131 c 0.49775,-0.53972 1.432541,-1.55464 2.077312,-2.25538 z m -9.620896,2.50213 1.563499,-0.16972 0.483637,-1.42651 0.483637,-1.4265 -2.898491,0.1834 -2.898491,0.18341 0.374074,-1.24295 c 0.205741,-0.68363 0.475319,-1.3442 0.599064,-1.46795 0.123744,-0.12374 1.315542,-0.3024 2.64844,-0.39701 l 2.42345,-0.17202 0.408529,-1.19897 c 0.22469,-0.65943 0.408528,-1.31444 0.408528,-1.45558 0,-0.15818 -0.913392,-0.19743 -2.38125,-0.10234 -2.657974,0.17221 -2.66668,0.16499 -2.007017,-1.66275 0.386153,-1.06993 1.084957,-1.28251 4.300858,-1.30836 l 1.896965,-0.0152 0.445096,-1.34006 c 0.244802,-0.73703 0.394777,-1.39037 0.333278,-1.45187 -0.110526,-0.11053 -10.332325,0.39965 -10.458402,0.52198 -0.0359,0.0348 -0.232603,0.61935 -0.437127,1.29893 -0.351623,1.16836 -0.344471,1.2356 0.13141,1.2356 0.2768,0 0.503273,0.0758 0.503273,0.1685 0,0.0927 -0.491571,1.72977 -1.09238,3.63802 -0.600809,1.90824 -1.363455,4.45179 -1.69477,5.65234 l -0.602391,2.18281 2.951541,-0.0287 c 1.623348,-0.0158 3.655116,-0.10509 4.51504,-0.19843 z"
       id="path33"
       sodipodi:nodetypes="sssssssscssscssscscssssssscssssssssssssscssssssscssssssssssscccsscssssssssssccssssssssssssscssssccscssssssssscsssssssssssssscscsscccccsscssscsccssssccssssscssssssccsscssssscsssscsssssssscccsssscssssssssssscsscsssccsscsssscsscscccccsscsssscsssccscsscssssscsscssssscsscccssssssssssssssssscsscccssccccccssscssssscsssssssscscc" /></g></svg>
