<?xml version="1.0" encoding="UTF-8" standalone="no"?>
<!-- Created with Inkscape (http://www.inkscape.org/) -->

<svg
   width="91.713898mm"
   height="26.458334mm"
   viewBox="0 0 91.713898 26.458334"
   version="1.1"
   id="svg1"
   xml:space="preserve"
   xmlns:inkscape="http://www.inkscape.org/namespaces/inkscape"
   xmlns:sodipodi="http://sodipodi.sourceforge.net/DTD/sodipodi-0.dtd"
   xmlns="http://www.w3.org/2000/svg"
   xmlns:svg="http://www.w3.org/2000/svg"><sodipodi:namedview
     id="namedview1"
     pagecolor="#ffffff"
     bordercolor="#666666"
     borderopacity="1.0"
     inkscape:showpageshadow="2"
     inkscape:pageopacity="0.0"
     inkscape:pagecheckerboard="0"
     inkscape:deskcolor="#d1d1d1"
     inkscape:document-units="mm"
     showguides="false" /><defs
     id="defs1" /><path
     style="fill:#a0d443"
     d="M 25.135421,13.229167 V -3.9147839e-7 h 0.661459 0.661458 V 13.229167 26.458334 H 25.79688 25.135421 Z M 5.672977,23.844166 C 3.995765,23.632259 3.119045,23.066749 2.524135,21.813071 2.086942,20.891754 2.077229,19.834346 2.496265,18.779408 2.601612,18.514195 2.391104,18.21987 1.88023,17.918089 1.007926,17.402806 2.0426149e-6,15.549074 2.0426149e-6,14.460051 2.0426149e-6,13.604153 0.64240204,11.982867 1.245652,11.316282 1.624266,10.897919 1.638403,10.627755 1.360584,9.1199746 1.139882,7.9221786 1.126432,7.2463066 1.316244,6.8916436 c 0.453958,-0.848229 3.375442,-2.098886 5.562927,-2.381432 1.091406,-0.140971 2.888462,-0.37552 3.993457,-0.521219 1.104995,-0.1457 2.950464,-0.565526 4.101042,-0.932948 2.37935,-0.759813 3.462148,-0.831652 4.680145,-0.310506 2.266899,0.969941 3.377574,3.558785 2.547892,5.938813 -0.244551,0.701518 -0.204402,0.943052 0.266745,1.6047154 1.176978,1.652914 1.034182,3.712278 -0.359905,5.190441 -0.782157,0.829327 -0.872171,1.06893 -0.748361,1.992002 0.129791,0.967669 0.05057,1.138101 -1.018576,2.191199 -1.131824,1.11484 -1.294202,1.178471 -6.847856,2.683472 -6.710736,1.818561 -6.143459,1.709906 -7.820777,1.497985 z m 12.003896,-4.066561 c 0.06615,-0.344079 -0.08588,-0.463021 -0.591843,-0.463021 -0.636099,0 -0.680749,-0.08262 -0.679186,-1.256771 0.0015,-1.128632 0.08554,-1.304509 0.824242,-1.724986 0.804503,-0.457931 0.820257,-0.504533 0.717279,-2.121763 -0.127874,-2.008232 -1.134824,-4.2497374 -1.96222,-4.3679714 -0.524885,-0.07501 -0.550256,0.03479 -0.529167,2.2900794 0.01928,2.061272 -0.05515,2.473785 -0.573161,3.176923 -0.741264,1.006172 -0.741761,0.99995 0.09668,1.210385 0.609695,0.153024 0.672626,0.270499 0.529167,0.987798 -0.08955,0.447765 -0.162824,1.037361 -0.162824,1.310212 0,0.429948 -0.211667,0.496094 -1.5875,0.496094 h -1.5875 v -1.719791 c 0,-1.374796 0.08203,-1.719792 0.408901,-1.719792 0.224896,0 0.701146,-0.292245 1.058334,-0.649432 0.564751,-0.564752 0.649431,-0.888861 0.649431,-2.485672 0,-2.269546 -0.820762,-5.0573274 -1.817322,-6.1726714 -0.625603,-0.700171 -0.80972,-0.775067 -1.282866,-0.521847 -0.774559,0.414532 -1.614127,2.282295 -2.102597,4.6775894 -0.565616,2.773591 -0.305243,3.99552 1.036376,4.863711 0.958837,0.620485 0.991409,0.692263 0.991409,2.184734 v 1.543171 H 9.392713 7.672921 v -1.347687 c 0,-1.125171 0.08737,-1.370534 0.529167,-1.486067 0.655142,-0.171323 0.654669,-0.192922 -0.02434,-1.111327 -0.444787,-0.601606 -0.54767,-1.106195 -0.523803,-2.568974 0.01634,-1.001176 0.05705,-2.058387 0.09048,-2.349359 0.04274,-0.37198 -0.117692,-0.5544044 -0.540392,-0.6144824 -0.499582,-0.071 -0.710305,0.152929 -1.246962,1.3251434 -0.355184,0.775823 -0.724402,2.079469 -0.820486,2.89699 -0.152513,1.297645 -0.103359,1.55774 0.387066,2.048166 0.30897,0.30897 0.740358,0.561764 0.958639,0.561764 0.299861,0 0.396875,0.323379 0.396875,1.322917 0,1.234722 -0.0441,1.322916 -0.661458,1.322916 -0.625889,0 -0.886196,0.480819 -0.480139,0.886876 0.09973,0.09973 2.806837,0.149335 6.015801,0.110243 5.313497,-0.06473 5.84243,-0.112422 5.923498,-0.534098 z"
     id="path88"
     sodipodi:nodetypes="cccccccccssssssssssssssssssssssssssssssscssssssssscccssssssssssssssss"
     inkscape:export-filename="drtrading.svg"
     inkscape:export-xdpi="300"
     inkscape:export-ydpi="300" /><path
     style="fill:#2c292a"
     d="m 86.809311,16.863284 c -0.94425,-0.485623 -1.241,-1.098398 -0.94186,-1.944893 0.38984,-1.103122 0.75062,-1.01861 1.40545,0.329225 0.40246,0.828397 0.6862,1.144945 0.86553,0.965615 0.19399,-0.193981 1.24178,-3.643991 1.2862,-4.235011 0.002,-0.03317 -0.55455,0.294246 -1.23789,0.727604 -1.37132,0.869669 -2.1341,0.995533 -2.36628,0.390456 -0.41808,-1.089482 1.23374,-3.4233764 3.09491,-4.3728714 1.19921,-0.611795 2.9878,-0.456258 2.78227,0.24195 -0.0692,0.23504 -0.37417,1.4168814 -0.67773,2.6263144 -1.31237,5.228718 -2.18055,6.315661 -4.2106,5.271611 z m 1.85657,-5.189304 c 0.75977,-0.598245 1.97491,-2.6781504 1.56466,-2.6781504 -0.81778,0 -2.10496,1.3277484 -2.50086,2.5796884 -0.22946,0.725606 0.0962,0.759859 0.9362,0.09846 z m -37.33063,2.360298 c -0.55705,-1.040854 0.62453,-4.8799954 2.38,-7.7329974 0.45072,-0.732506 0.78143,-1.369882 0.73492,-1.416391 -0.30351,-0.303512 -4.79887,-0.405733 -6.08658,-0.138405 -2.6463,0.549368 -3.67532,1.9596 -2.04505,2.802645 0.98636,0.510067 0.95374,1.278034 -0.0593,1.39566 -0.86459,0.10039 -1.54468,-0.7619 -1.54468,-1.958509 0,-1.198346 1.84984,-2.848265 3.84302,-3.427699 1.25654,-0.365285 2.16931,-0.405524 5.5766,-0.245836 4.07994,0.191213 4.55461,0.334277 3.75664,1.132251 -0.17463,0.174625 -0.70167,0.3175 -1.17121,0.3175 -0.75269,0 -0.94762,0.16436 -1.64741,1.389062 -0.90262,1.579666 -2.15555,5.1275424 -2.15555,6.1037604 0,0.358955 0.15703,0.712904 0.34895,0.786553 0.47245,0.181293 2.89089,-0.692783 3.89489,-1.407691 0.92284,-0.657122 1.35905,-0.51038 0.68778,0.23137 -0.53069,0.586407 -4.18666,2.340322 -5.37024,2.576322 -0.68365,0.136316 -0.89135,0.06224 -1.1428,-0.407595 z M 39.687505,13.361459 c -0.259672,-0.312885 -0.260989,-0.479278 -0.0062,-0.786249 0.177733,-0.214156 0.418119,-0.810446 0.534189,-1.325089 0.167008,-0.740491 0.120147,-0.990422 -0.224609,-1.197931 -0.396724,-0.2387894 -0.38976,-0.2976944 0.07794,-0.6592874 0.6247,-0.48297 1.386846,-0.515854 1.537606,-0.06634 0.061,0.181901 0.0176,0.7474484 -0.0964,1.2567714 l -0.20735,0.926042 0.50947,-0.661459 c 0.28021,-0.363802 0.51212,-1.0245994 0.51535,-1.4684374 0.007,-0.904555 0.41538,-1.441979 1.09682,-1.441979 0.38009,0 0.45029,0.24079 0.42203,1.447705 -0.0337,1.4407394 -0.3189,1.8643034 -1.06293,1.5787934 -0.20475,-0.07857 -0.5992,0.325915 -0.97567,1.000491 -0.58919,1.05572 -1.23527,1.76569 -1.624778,1.785429 -0.09132,0.0046 -0.31426,-0.170179 -0.495417,-0.38846 z m 19.310466,-0.005 c -0.27097,-0.326496 -0.25776,-0.487721 0.0704,-0.859896 0.22217,-0.251932 0.484,-0.835027 0.58184,-1.295768 0.1383,-0.651313 0.0713,-0.901476 -0.30129,-1.124285 -0.45778,-0.2737854 -0.45564,-0.3047394 0.0481,-0.6936294 0.28999,-0.22388 0.76624,-0.372796 1.05833,-0.330924 0.44459,0.06373 0.51977,0.2485 0.46158,1.1344654 -0.065,0.989773 -0.0436,1.025062 0.33073,0.544743 0.22013,-0.282475 0.40024,-0.9033644 0.40024,-1.3797544 0,-0.58556 0.16579,-0.954893 0.51177,-1.140055 0.91915,-0.491913 1.05377,-0.322131 0.98915,1.247462 -0.0584,1.4189564 -0.10622,1.5217044 -0.71014,1.5265574 -0.47625,0.0038 -0.80276,0.282009 -1.2346,1.051862 -0.5507,0.981757 -1.2771,1.72106 -1.69102,1.72106 -0.0999,0 -0.33169,-0.180827 -0.51511,-0.401838 z m 8.35908,-0.271788 c -0.093,-0.370494 -0.0989,-0.787213 -0.0131,-0.926042 0.25643,-0.414905 -0.14437,-0.287233 -0.8563,0.272769 -0.7304,0.574532 -2.40941,1.12389 -2.76441,0.90449 -0.33834,-0.209105 -0.26773,-1.106255 0.14999,-1.905834 0.8089,-1.5483734 3.1974,-3.2254254 4.59598,-3.2270184 1.14402,-0.0013 1.27228,0.427436 0.74994,2.5068604 -0.23513,0.93607 -0.42751,2.004897 -0.42751,2.375173 0,0.966708 -1.19198,0.966377 -1.43462,-3.98e-4 z m -0.38557,-1.883292 c 0.38134,-0.412706 0.90105,-1.077796 1.15491,-1.4779784 0.42294,-0.666732 0.42498,-0.727604 0.0244,-0.727604 -0.60156,0 -2.79868,2.3112074 -2.79868,2.9440084 0,0.640873 0.59604,0.369084 1.61939,-0.738426 z m 8.97956,2.056937 c -0.42318,-0.79071 0.85062,-4.0900574 1.73456,-4.4928084 0.36078,-0.164383 0.7099,-0.298878 0.77581,-0.298878 0.27895,0 0.0828,0.887359 -0.40932,1.8520844 -0.29105,0.570488 -0.52917,1.28958 -0.52917,1.597982 0,0.494272 0.1013,0.53848 0.8547,0.373005 0.78937,-0.173374 0.8256,-0.152648 0.4739,0.271124 -0.20945,0.252366 -0.62383,0.549609 -0.92085,0.660539 -1.50355,0.561532 -1.69695,0.565142 -1.97963,0.03695 z M 30.98612,13.132861 c -0.556403,-0.670424 -0.113383,-2.304885 1.444604,-5.3296704 l 1.425993,-2.768524 -0.666124,-0.167186 c -0.699276,-0.175507 -3.15092,-0.0024 -4.456475,0.314657 -1.291413,0.313627 -0.562489,-0.327939 1.102686,-0.970534 4.928945,-1.90209 10.344098,1.016427 9.066826,4.8866 -0.362406,1.0981004 -2.30932,2.9309464 -3.846334,3.6209824 -1.603396,0.719838 -3.644923,0.927279 -4.071176,0.413675 z m 5.438756,-1.91113 c 1.761205,-1.3287724 1.655199,-3.5236054 -0.240001,-4.9691444 -0.502119,-0.382985 -0.979689,-0.696336 -1.061266,-0.696336 -0.295345,0 -1.490892,2.307022 -2.039539,3.935656 -0.595529,1.7678014 -0.536184,2.5828424 0.199721,2.7429434 0.724318,0.157581 2.235379,-0.329794 3.141085,-1.013119 z m 34.130685,2.095631 c -0.35271,-0.352708 -0.16199,-1.828359 0.34344,-2.657293 0.28481,-0.467119 1.02851,-1.1765414 1.65265,-1.5764954 0.62415,-0.399953 1.17659,-0.754079 1.22766,-0.786946 0.30561,-0.196689 -1.23391,-2.230085 -2.03511,-2.687964 l -0.95878,-0.547943 0.78773,-0.299497 c 1.53212,-0.582509 3.1003,0.696698 3.60438,2.94018 0.56277,2.5047104 -1.46032,5.7923474 -3.5644,5.7923474 -0.48465,0 -0.96056,-0.07937 -1.05757,-0.176389 z m 2.87231,-1.515418 c 0.49933,-0.762077 0.82954,-2.5415274 0.47162,-2.5415274 -0.57476,0 -1.93282,1.9397734 -1.93282,2.7607314 0,0.641937 0.99474,0.49271 1.4612,-0.219204 z m 6.21172,1.401799 c 0,-0.501328 0.84333,-3.2491614 1.23053,-4.0094724 0.34175,-0.671042 1.0984,-0.956305 1.49216,-0.562551 0.0908,0.09078 -0.068,0.621817 -0.35278,1.180085 -0.78856,1.5457094 -0.63216,1.5545934 0.69331,0.03938 0.72657,-0.830575 1.42946,-1.384518 1.75681,-1.384518 0.51067,0 0.53307,0.09755 0.34922,1.521355 -0.10804,0.8367444 -0.214,1.8571514 -0.23545,2.2675694 -0.0416,0.795931 -0.7477,1.378181 -1.378,1.136313 -0.48402,-0.185737 -0.48271,-0.865705 0.004,-2.246138 0.21183,-0.600379 0.29432,-1.091599 0.18332,-1.091599 -0.11099,0 -0.77005,0.773907 -1.46457,1.719792 -0.79386,1.081186 -1.45142,1.719792 -1.77082,1.719792 -0.27944,0 -0.50806,-0.130504 -0.50806,-0.290008 z m -2.38125,-5.3509524 c 0,-0.564829 0.72972,-1.238207 1.34181,-1.238207 1.00302,0 0.50487,1.181378 -0.61686,1.462914 -0.55469,0.139218 -0.72495,0.08644 -0.72495,-0.224707 z"
     id="path87"
     inkscape:label="path87"
     sodipodi:nodetypes="sssscssssssssssscsssssssssssssssscccsssssccscscssccccsscssssssscsscccssssssscccsssccssscsssssssscssssssssssssssssscsssssssscsscssssscsssccssss" /><text
     xml:space="preserve"
     style="font-style:normal;font-variant:normal;font-weight:normal;font-stretch:normal;font-size:6.39773px;line-height:1.25;font-family:Calibri;-inkscape-font-specification:Calibri;letter-spacing:1.13212px;word-spacing:1.13212px;stroke-width:0.149947"
     x="51.336754"
     y="18.26647"
     id="text89"
     transform="scale(0.78707918,1.2705202)"><tspan
       sodipodi:role="line"
       id="tspan89"
       style="font-style:normal;font-variant:normal;font-weight:normal;font-stretch:normal;font-size:6.39773px;font-family:Calibri;-inkscape-font-specification:Calibri;letter-spacing:1.13213px;word-spacing:1.13213px;stroke-width:0.149947"
       x="51.336754"
       y="18.26647">DOM I OGRÓD</tspan></text></svg>
