<?xml version="1.0" encoding="UTF-8" standalone="no"?>
<!-- Created with Inkscape (http://www.inkscape.org/) -->

<svg
   width="114.14784mm"
   height="26.466215mm"
   viewBox="0 0 114.14784 26.466215"
   version="1.1"
   id="svg1"
   xml:space="preserve"
   xmlns:inkscape="http://www.inkscape.org/namespaces/inkscape"
   xmlns:sodipodi="http://sodipodi.sourceforge.net/DTD/sodipodi-0.dtd"
   xmlns="http://www.w3.org/2000/svg"
   xmlns:svg="http://www.w3.org/2000/svg"><sodipodi:namedview
     id="namedview1"
     pagecolor="#ffffff"
     bordercolor="#666666"
     borderopacity="1.0"
     inkscape:showpageshadow="2"
     inkscape:pageopacity="0.0"
     inkscape:pagecheckerboard="0"
     inkscape:deskcolor="#d1d1d1"
     inkscape:document-units="mm"
     showguides="false" /><defs
     id="defs1" /><path
     style="fill:#ec2129"
     d="m 15.352194,23.160282 -3.298023,-3.30596 1.972455,-1.9857 c 1.084849,-1.09214 2.096979,-1.98571 2.249175,-1.98571 0.152197,0 1.345802,1.07599 2.652456,2.39109 2.278994,2.29372 2.418829,2.38799 3.434067,2.3151 l 1.058333,-0.076 0.06933,-9.98802 0.06933,-9.98802043 h 2.907235 2.907235 V 13.501642 26.466222 h -5.361783 -5.361783 z m 12.635307,-9.72476 c 0.06061,-10.1791904 0.02072,-11.5755304 -0.330729,-11.5755304 -0.350143,0 -0.399656,1.37675 -0.399656,11.1125004 v 11.1125 H 23.359483 19.46185 l -2.406949,-2.39694 c -1.964163,-1.95599 -2.463095,-2.32928 -2.712155,-2.02919 -0.245146,0.29539 0.208562,0.87252 2.305588,2.93281 l 2.610794,2.56506 4.329723,-0.0728 4.329723,-0.0728 z m -2.317886,-1.12448 c 0,-9.1134304 -0.0508,-10.4510504 -0.396875,-10.4510504 -0.345815,0 -0.396875,1.29352 -0.396875,10.0541704 v 10.05417 h -2.177286 -2.177286 l -2.177601,-2.16629 c -1.80092,-1.79157 -2.208763,-2.08508 -2.357747,-1.69684 -0.135447,0.35297 0.336315,0.98897 1.901284,2.56317 l 2.08143,2.09371 h 2.850478 2.850478 z m -25.60095473,0.7276 0.06866,-12.89844043 7.14375003,-0.0701 L 14.424821,1.5663078e-6 18.124109,3.7067716 l 3.699288,3.70677 -2.10661,2.11904 -2.10661,2.1190404 -2.919735,-2.9114504 -2.919735,-2.91146 H 9.1321153 6.4935233 l 4.2255737,4.2317804 4.225575,4.23177 -2.106286,2.11872 -2.106286,2.11871 -2.3208267,-2.31008 -2.320828,-2.31007 v 6.01375 6.01376 H 3.0452233 -1.7329953e-6 Z m 2.31762203,0.46302 V 2.3891616 h 5.618075 5.6180747 l 2.820096,2.81135 c 1.807051,1.80145 2.935696,2.73991 3.141902,2.61247 0.215384,-0.13312 -0.714441,-1.23785 -2.811639,-3.34052 l -3.133446,-3.14163 H 7.6159383 1.5925323 V 12.972492 c 0,10.17176 0.05011,11.64167 0.396875,11.64167 0.346478,0 0.396875,-1.41111 0.396875,-11.1125 z m 2.116666,4.10104 c 0,-3.8563 0.042,-7.01146 0.09333,-7.01146 0.05133,0 1.383924,1.30969 2.96132,2.91042 2.7006167,2.74057 3.3420407,3.21245 3.6622947,2.69427 0.07347,-0.11889 -1.5863737,-1.93305 -3.6885517,-4.03148 L 3.7092003,8.3491316 v 8.1325204 c 0,7.05251 0.05271,8.13251 0.396875,8.13251 0.342794,0 0.396875,-0.95544 0.396875,-7.01146 z m 8.3043217,-2.99408 c 0.07341,-0.11877 -1.765034,-2.11168 -4.0854267,-4.42867 C 5.3083903,6.7715016 4.5029483,5.8277416 4.5029483,5.2365316 v -0.7307 h 4.030163 4.0301617 l 2.556194,2.5466 c 1.63056,1.62444 2.6725,2.47472 2.877382,2.3481 0.215189,-0.133 -0.581631,-1.10441 -2.414441,-2.94348 l -2.73563,-2.74497 h -4.5687897 -4.56879 v 1.28859 1.28858 l 4.207573,4.2676704 c 2.3141647,2.34721 4.3311997,4.26766 4.4823017,4.26766 0.151101,0 0.33479,-0.0972 0.408197,-0.21596 z m 21.593596,-0.71008 V 9.0037416 h 5.87453 5.87453 l -1.026054,1.0507804 -1.026053,1.05077 -3.327123,0.0737 -3.327122,0.0737 v 0.79375 0.79375 l 3.653835,0.13229 3.653834,0.1323 -0.878029,0.84993 c -0.861293,0.83374 -0.930937,0.85139 -3.653834,0.92604 l -2.775806,0.0761 -0.07774,1.91823 -0.07774,1.91823 h -1.443611 -1.443617 z m 12.964583,0 V 9.0037416 h 1.455209 1.455208 v 4.8948004 4.89479 h -1.455208 -1.455209 z m 9.789584,1.05833 v -3.83646 h -1.56009 c -1.45463,0 -1.6156,-0.0632 -2.38125,-0.93525 -0.45164,-0.5143804 -0.82116,-0.9906304 -0.82116,-1.0583304 0,-0.0677 2.88166,-0.12309 6.4037,-0.12309 h 6.403691 l -1.03343,1.0583404 c -0.94861,0.97146 -1.14848,1.05833 -2.434951,1.05833 h -1.40151 v 3.83646 3.83646 h -1.5875 -1.5875 z m 16.668751,-1.05833 V 9.0037416 l 1.12448,0.0119 c 1.03753,0.011 1.39045,0.2352 4.56406,2.8992404 l 3.43959,2.88731 0.0748,-2.89924 0.0748,-2.8992404 h 1.44654 1.44654 v 4.8948004 4.89479 h -1.16356 c -1.08815,0 -1.38401,-0.1819 -4.56406,-2.80604 l -3.40048,-2.80604 -0.0751,2.80604 -0.0751,2.80604 h -1.44625 -1.44626 z m 14.2875,0 V 9.0037416 h 5.87453 5.87453 l -1.03343,1.0583404 -1.03344,1.05833 h -3.25359 -3.2536 v 0.92604 0.92604 h 3.62378 3.62378 l -0.89756,0.92605 -0.89755,0.92604 h -2.72623 -2.72622 v 0.92604 0.92604 h 4.15474 4.15474 l -1.03344,1.05833 -1.03343,1.05834 h -4.70881 -4.7088 z m 17.991666,1.05833 v -3.83646 h -1.53381 c -1.4408,0 -1.59646,-0.0642 -2.56723,-1.05833 l -1.03344,-1.0583404 h 6.58969 6.58968 l -1.03343,1.0583404 c -0.97078,0.99416 -1.12643,1.05833 -2.56724,1.05833 h -1.53381 v 3.83646 3.83646 h -1.4552 -1.45521 z m -43.656246,0.27971 c 0,-0.0644 0.24988,-0.5407 0.5553,-1.05834 l 0.5553,-0.94116 h 3.94261 c 2.16844,0 3.94262,0.0555 3.94262,0.12331 0,0.0678 -0.20065,0.54408 -0.44588,1.05834 l -0.44588,0.93501 h -4.05204 c -2.22862,0 -4.05203,-0.0527 -4.05203,-0.11716 z"
     id="path67" /></svg>
