<svg width="140" height="32" viewBox="0 0 140 32" fill="none" xmlns="http://www.w3.org/2000/svg">
    <g clip-path="url(#a)">
        <path d="M121.195 26.407h-7.618v-8.801h7.618c2.735 0 4.706 1.886 4.706 4.425 0 2.54-1.971 4.443-4.706 4.376zm5.493-11.374a8.45 8.45 0 0 0 3.655-6.958c0-4.62-3.856-8.072-9.108-8.072h-7.658v4.978h7.344c2.467 0 4.284 1.606 4.284 3.844 0 2.318-1.787 4.084-4.284 4.084h-7.344V4.981h-4.994v26.407h12.897c5.409 0 9.673-3.857 9.673-8.795 0-3.345-1.65-6.218-4.465-7.56zM9.985 7.189H4.99v24.209h4.994V7.189zM28.093 6.633c-3.23 0-5.981 1.235-7.836 3.285V7.185h-4.984v24.203h4.978V18.435c0-4.278 2.704-7.336 6.507-7.336 3.645 0 5.56 2.342 5.56 6.734v13.555h4.977V16.819c0-5.964-3.535-10.182-9.202-10.182M53.482 27.236c-4.566 0-7.903-3.382-7.903-7.945 0-4.562 3.347-7.941 7.903-7.941 4.555 0 7.936 3.409 7.936 7.941 0 4.533-3.367 7.945-7.936 7.945zm7.591-17.823a12.262 12.262 0 0 0-7.983-2.816c-7.324 0-12.592 5.405-12.592 12.711S45.767 32.02 53.09 32.02a12.225 12.225 0 0 0 7.983-2.847v2.215h4.978V.013h-4.978v9.4zM76.336 0h-4.994v4.991h4.994V0z" fill="#232533"/>
        <path d="M4.994 0H0v4.991h4.994V0z" fill="#AEABFF"/>
        <path d="M76.336 7.189h-4.994v24.209h4.994V7.189zM84.996 16.94c.816-3.59 3.544-5.847 7.29-5.847 3.682 0 6.466 2.17 7.364 5.847H84.996zm7.293-10.343c-7.096 0-12.448 5.449-12.448 12.711 0 7.263 5.355 12.695 12.448 12.695 5.41 0 9.831-3.1 11.759-8.212h-5.242c-1.282 2.208-3.625 3.546-6.52 3.546-3.963 0-6.792-2.412-7.414-6.336h19.664c.062-.543.096-1.09.101-1.636 0-7.045-4.937-12.752-12.351-12.752M140 .013h-4.994v31.385H140V.013z" fill="#232533"/>
    </g>
    <defs>
        <clipPath id="a">
            <path fill="#fff" d="M0 0h140v32H0z"/>
        </clipPath>
    </defs>
</svg>
