<?xml version="1.0" encoding="UTF-8"?>
<!-- Created with Inkscape (http://www.inkscape.org/) -->
<svg width="336.02mm" height="187.48mm" version="1.1" viewBox="0 0 336.02 187.48" xml:space="preserve" xmlns="http://www.w3.org/2000/svg"><path d="m23.944 27.265h94.949c0.77486 0 1.3987 0.62381 1.3987 1.3987v88.662c0 0.77487-0.62381 1.3987-1.3987 1.3987h-94.949c-0.77487 0-1.3987-0.62381-1.3987-1.3987v-88.662c0-0.77487 0.62381-1.3987 1.3987-1.3987z" fill="#fff" stroke-linecap="square" stroke-width="1.155"/><path d="m75.497 145.76c0.94265-0.18217 3.0733-0.0835 3.3264 0.15398 0.06063 0.0569-0.89187 0.0897-2.1167 0.073-1.7651-0.0241-2.016-0.0712-1.2098-0.22699zm3.9438 0.075c0.25466-0.0666 0.67138-0.0666 0.92604 0 0.25466 0.0666 0.0463 0.121-0.46302 0.121-0.50932 0-0.71768-0.0545-0.46302-0.121zm16.474-0.0674c0.29321-0.11895 1.0076-0.1251 1.5875-0.0137 0.99113 0.19047 0.95914 0.20344-0.5331 0.21628-1.0693 9e-3 -1.4135-0.057-1.0544-0.20262zm-30.762-0.20428c0.40018-0.0606 1.055-0.0606 1.4552 0 0.40018 0.0606 0.07276 0.11023-0.7276 0.11023s-1.1278-0.0496-0.7276-0.11023zm36.513 7e-3c0.25466-0.0666 0.67138-0.0666 0.92604 0s0.0463 0.121-0.46302 0.121-0.71768-0.0544-0.46302-0.121zm-42.33-0.27206c0.40218-0.0608 0.9975-0.0592 1.3229 4e-3 0.32542 0.0628-0.0036 0.11256-0.73124 0.11057-0.7276-2e-3 -0.99386-0.0534-0.59168-0.11418zm45.774 7e-3c0.25743-0.0671 0.61462-0.0627 0.79375 0.01 0.17913 0.0725-0.0315 0.12736-0.46806 0.12197-0.43656-5e-3 -0.58312-0.0647-0.32569-0.13177zm-49.614-0.25682c0.1819-0.0734 0.47956-0.0734 0.66146 0 0.1819 0.0734 0.03307 0.13345-0.33073 0.13345-0.3638 0-0.51263-0.06-0.33073-0.13345zm52.139-6e-3c0.191-0.0764 0.4192-0.067 0.50712 0.0209 0.0879 0.0879-0.0684 0.15046-0.34727 0.13897-0.30822-0.0127-0.37092-0.0754-0.15985-0.15985zm-55.05-0.25859c0.1819-0.0734 0.47956-0.0734 0.66146 0s0.03307 0.13346-0.33073 0.13346c-0.3638 0-0.51263-0.0601-0.33073-0.13346zm-2.6293-0.27009c0.191-0.0764 0.4192-0.067 0.50712 0.0209 0.08792 0.0879-0.06835 0.15045-0.34727 0.13896-0.30822-0.0127-0.37092-0.0754-0.15985-0.15985zm61.383 0c0.19099-0.0764 0.4192-0.067 0.50712 0.0209 0.0879 0.0879-0.0683 0.15045-0.34727 0.13896-0.30822-0.0127-0.37092-0.0754-0.15985-0.15985zm-63.517-0.25907c0.1819-0.0734 0.47956-0.0734 0.66146 0s0.03307 0.13345-0.33073 0.13345c-0.3638 0-0.51263-0.0601-0.33073-0.13345zm64.823 0c0.1819-0.0734 0.47955-0.0734 0.66146 0 0.1819 0.0734 0.0331 0.13345-0.33073 0.13345-0.36381 0-0.51263-0.0601-0.33073-0.13345zm-68.527-0.52917c0.1819-0.0734 0.47956-0.0734 0.66146 0s0.03307 0.13345-0.33073 0.13345c-0.3638 0-0.51263-0.0601-0.33073-0.13345zm-1.571-0.27009c0.191-0.0764 0.4192-0.067 0.50712 0.0209 0.08792 0.0879-0.06835 0.15046-0.34726 0.13897-0.30822-0.0127-0.37092-0.0754-0.15985-0.15985zm-1.5875-0.26459c0.191-0.0764 0.4192-0.067 0.50712 0.0209 0.08792 0.0879-0.06835 0.15045-0.34726 0.13896-0.30822-0.0127-0.37092-0.0754-0.15985-0.15985zm-2.6458-0.52916c0.191-0.0764 0.4192-0.067 0.50712 0.0209 0.08792 0.0879-0.06835 0.15046-0.34727 0.13897-0.30822-0.0127-0.37092-0.0754-0.15985-0.15985zm-4.5779-1.1465c0.0914-0.14789 0.27702-0.2004 0.41249-0.11667 0.36699 0.22681 0.29856 0.38557-0.16619 0.38557-0.22687 0-0.3377-0.121-0.2463-0.2689zm96.57-3.9644c0.26339-0.29104 0.53842-0.52917 0.61118-0.52917 0.0728 0-0.0832 0.23813-0.3466 0.52917-0.26339 0.29104-0.53842 0.52917-0.61118 0.52917-0.0728 0 0.0832-0.23813 0.3466-0.52917zm-110.61-1.2052c-0.49319-0.39513-0.48994-0.40001 0.08172-0.12298 0.32742 0.15866 0.59531 0.34383 0.59531 0.41147 0 0.20246-0.13722 0.14399-0.67703-0.28849zm-1.8521-1.0583c-0.49319-0.39513-0.48994-0.40002 0.08172-0.12299 0.32742 0.15867 0.59531 0.34383 0.59531 0.41147 0 0.20247-0.13722 0.144-0.67704-0.28848zm-6.4867-4.814-0.64143-0.72761 0.7276 0.64143c0.68006 0.59952 0.84894 0.81378 0.64143 0.81378-0.04739 0-0.37482-0.32742-0.7276-0.7276zm111.41-0.52243c-5.4018-0.16172-13.449-0.65403-16.404-1.0036-6.3445-0.75044-7.8106-0.95068-8.599-1.1745-0.43656-0.12394-1.8058-0.36858-3.0427-0.54365s-2.4871-0.4165-2.7781-0.53651c-0.48998-0.20203-0.86178-0.28146-3.2436-0.69291-0.47429-0.0819-0.9278-0.25488-1.0078-0.38432-0.08-0.12945-0.54812-0.23535-1.0403-0.23535s-0.9684-0.11907-1.0583-0.26459c-0.08994-0.14552-0.44855-0.26458-0.79692-0.26458-0.34837 0-0.96642-0.13389-1.3734-0.29753-1.5635-0.62859-1.8142-0.7208-2.3276-0.85632-1.1213-0.29599-3.5457-1.1999-4.9895-1.8603-0.82967-0.3795-1.6003-0.69-1.7125-0.69-0.3777 0-1.6283-0.65958-1.6303-0.85989-0.0011-0.10914-0.19224-0.19844-0.42468-0.19844-0.55902 0-4.3467-1.9567-6.2436-3.2255-0.82876-0.55432-1.6239-1.0078-1.767-1.0078-0.14311 0-0.41753-0.15335-0.60983-0.34077-0.1923-0.18742-0.79231-0.54839-1.3334-0.80216-0.54106-0.25376-1.0768-0.61241-1.1906-0.79699s-0.6236-0.62512-1.1329-0.97899c-1.0378-0.72102-2.2144-1.7022-3.0285-2.5253-0.29887-0.3022-0.90058-0.75874-1.3371-1.0145-0.43656-0.25579-0.99897-0.74114-1.2498-1.0786-0.38878-0.52301-0.399-0.63539-0.06932-0.7619 0.22076-0.0847 0.3597-0.0105 0.32375 0.17281-0.03464 0.17667 0.19289 0.31305 0.50561 0.30307 0.39503-0.0126 0.52308 0.10044 0.41952 0.37033-0.11868 0.30928 0.0081 0.35179 0.62204 0.20854 0.48182-0.11243 0.639-0.0917 0.41896 0.0554-0.46611 0.31149 1.6068 1.164 2.2398 0.92113 0.28261-0.10845 0.3838-0.0679 0.27396 0.10985-0.21659 0.35045 0.47447 0.63977 1.0242 0.4288 0.25946-0.0996 0.37971-0.0244 0.33073 0.20674-0.05475 0.25838 0.18446 0.35049 0.82887 0.31918 0.59043-0.0287 0.77949 0.0341 0.54297 0.18026-0.50493 0.31207 0.83143 0.63492 1.6079 0.38846 0.43082-0.13673 0.5279-0.098 0.37483 0.14971-0.15796 0.25558 0.0054 0.29347 0.69447 0.161 0.67207-0.1292 0.80019-0.10211 0.50416 0.10662-0.2917 0.20567-0.08134 0.23649 0.79375 0.1163 0.75714-0.104 1.0621-0.0749 0.83771 0.0798-0.63018 0.43461 0.35796 0.5818 3.8803 0.578 3.5573-4e-3 4.6414-0.15133 4.3677-0.59422-0.10962-0.17736 0.08247-0.21003 0.54798-0.0932 0.90689 0.22762 2.5865-0.0734 2.3694-0.42466-0.09958-0.16112 0.04714-0.19719 0.37669-0.0926 0.75884 0.24085 2.0755-0.10616 1.6021-0.42225-0.22886-0.15281-0.09436-0.17684 0.37687-0.0673 0.77401 0.17989 2.3938-0.33378 2.1739-0.68943-0.07111-0.11506 0.12761-0.14202 0.44161-0.0599 0.42532 0.11123 0.51619 0.0608 0.35636-0.19784-0.14271-0.23091-0.11147-0.28344 0.09329-0.15689 0.43269 0.26741 1.4064-0.0863 1.1921-0.43301-0.10596-0.17144-0.05344-0.21004 0.13082-0.0962 0.40177 0.24831 1.4136-0.0746 1.2192-0.38909-0.08261-0.13367 0.05389-0.16431 0.30414-0.0683 0.30597 0.11741 0.39225 0.0743 0.26458-0.13229-0.12766-0.20657-0.04138-0.24971 0.26458-0.13229 0.30597 0.11741 0.39225 0.0743 0.26458-0.1323-0.12766-0.20656-0.04139-0.2497 0.26458-0.13229 0.30597 0.11741 0.39225 0.0743 0.26458-0.13229-0.12766-0.20656-0.04139-0.2497 0.26458-0.13229 0.30597 0.11741 0.39225 0.0743 0.26458-0.13229-0.12766-0.20657-0.04138-0.24971 0.26458-0.13229 0.30597 0.11741 0.39225 0.0743 0.26458-0.1323-0.12275-0.19861-0.04841-0.2524 0.21115-0.15279 0.23959 0.0919 0.68784-0.14853 1.1154-0.59835 0.39312-0.41363 0.61919-0.58778 0.50237-0.387-0.14629 0.25143-0.098 0.32349 0.15516 0.23151 0.20216-0.0735 0.34246-0.25349 0.31179-0.40008-0.03067-0.14659 0.14792-0.25077 0.39688-0.23151 0.27508 0.0213 0.41805-0.12067 0.36445-0.36185-0.04851-0.21828-7.48e-4 -0.30943 0.10613-0.20255 0.10688 0.10688 0.36376-0.0122 0.57084-0.26459 0.20708-0.2524 0.30112-0.31008 0.20898-0.12818-0.24778 0.48916 0.27072 0.40145 0.6912-0.11693 0.30927-0.38127 0.30801-0.41445-0.0085-0.2237-0.24691 0.1488-0.31065 0.12533-0.18996-0.07 0.0999-0.16165 0.34438-0.23146 0.54328-0.15513 0.1989 0.0763 0.45161-7e-3 0.56157-0.18473 0.13872-0.22445 0.08615-0.25749-0.17168-0.10791-0.2165 0.1256-0.28099 0.11646-0.1545-0.0219 0.11941-0.13062 0.41676-0.239 0.66078-0.24086 0.24401-2e-3 0.44664-0.18197 0.45028-0.40025 0.0036-0.21828 0.19643-0.36554 0.42841-0.32724s0.57131-0.11052 0.75406-0.33072c0.18275-0.22021 0.24359-0.40037 0.13519-0.40037s-0.04995-0.17729 0.12987-0.39396c0.17983-0.21668 0.42107-0.3358 0.5361-0.26471 0.11503 0.0711 0.73464-0.3767 1.3769-0.9951 0.64228-0.6184 0.8621-0.88622 0.48848-0.59519l-0.6793 0.52917 0.63377-0.71944c0.34858-0.3957 0.71962-0.6664 0.82454-0.60156 0.23712 0.14655 1.0762-0.75584 1.1488-1.2355 0.085-0.56128 0.45228-1.0363 0.68846-0.89033 0.3124 0.19308 0.88346-0.57854 0.67627-0.91378-0.0961-0.1555-0.0171-0.25001 0.17566-0.21002 0.19271 0.04 0.33463-0.13099 0.31537-0.37995-0.0193-0.24895 0.0998-0.42754 0.26459-0.39687 0.16478 0.0307 0.28384-0.14792 0.26458-0.39688-0.0193-0.24895 0.0998-0.42754 0.26458-0.39687 0.16479 0.0307 0.28328-0.15131 0.26333-0.4044-0.02-0.2531 0.0569-0.40261 0.17072-0.33225 0.11384 0.0704 0.27763-0.0562 0.36397-0.28118 0.0889-0.23164 0.0448-0.33979-0.10154-0.24932-0.14639 0.0905-0.19043-0.0177-0.10154-0.24932 0.0863-0.225 0.2511-0.35093 0.36612-0.27984 0.11503 0.0711 0.27978-0.0548 0.36612-0.27985 0.10319-0.26888 0.0447-0.35232-0.17071-0.24344-0.18023 0.0911-0.13865 8e-3 0.0924-0.1847 0.23106-0.19269 0.36444-0.51575 0.29641-0.71791-0.0832-0.24707-0.011-0.29789 0.22017-0.15503 0.24911 0.15396 0.29586 0.0874 0.16965-0.2415-0.096-0.25025-0.0654-0.38675 0.0683-0.30414 0.28354 0.17523 0.64885-0.79894 0.43149-1.1506-0.0813-0.13158 0.0437-0.31272 0.27772-0.40254 0.28567-0.10962 0.38471-0.37705 0.30129-0.81347-0.0684-0.35758-0.031-0.5925 0.083-0.52203 0.30627 0.18929 0.57222-0.85418 0.37559-1.4737-0.11675-0.36783-0.0601-0.51299 0.18061-0.46302 0.24974 0.0518 0.34561-0.25175 0.33311-1.0548-0.01-0.62018 0.0702-0.98561 0.17748-0.81205 0.11633 0.18824 0.25552-0.0507 0.34496-0.59218 0.0825-0.49925 0.26852-1.6221 0.41346-2.4952 0.29149-1.7559 0.35203-8.9265 0.0893-10.574-0.13862-0.86902-0.20563-0.95969-0.39111-0.52916-0.14068 0.32654-0.16769 0.0514-0.0727-0.74069 0.18075-1.5072-0.0651-2.5803-0.46183-2.0159-0.18096 0.25743-0.21007 0.15029-0.0983-0.36192 0.21472-0.98426-0.0948-2.2321-0.43284-1.7449-0.17031 0.24546-0.19497 0.17117-0.0795-0.23944 0.20134-0.71578-0.0737-1.7214-0.41339-1.5115-0.13338 0.0824-0.16914-0.0413-0.0795-0.27497 0.205-0.53424-0.68231-2.5541-1.0281-2.3404-0.15347 0.0948-0.18436-0.0675-0.0771-0.40538 0.12303-0.38764 0.0498-0.61316-0.23472-0.72232-0.22748-0.0873-0.35436-0.25456-0.28197-0.3717 0.21506-0.34796-0.16672-1.0659-0.46785-0.87979-0.1596 0.0986-0.19948 0.045-0.0937-0.12604 0.22572-0.36523-0.56636-1.9722-0.87737-1.7799-0.1229 0.076-0.20712-0.069-0.18717-0.32208 0.02-0.25309-0.10827-0.43184-0.28494-0.3972-0.17666 0.0346-0.25784-0.10215-0.1804-0.30397 0.0774-0.20181-5e-3 -0.45691-0.18269-0.56687-0.22445-0.13872-0.25749-0.0862-0.10791 0.17167 0.1256 0.2165 0.11646 0.28099-0.0219 0.1545-0.13062-0.11941-0.239-0.41707-0.24086-0.66146-2e-3 -0.24439-0.1522-0.41458-0.3341-0.3782-0.1819 0.0364-0.31663-0.0231-0.2994-0.13229 0.0813-0.51492-0.0928-0.85438-0.86394-1.6839-0.45794-0.49266-0.6663-0.65762-0.46303-0.36658 0.33953 0.48612 0.33217 0.49983-0.09052 0.16846-0.25306-0.19839-0.3891-0.4756-0.30231-0.61603 0.21081-0.3411-4.2811-4.8146-4.6225-4.6036-0.14686 0.0908-0.35317 0.0256-0.45847-0.14475-0.13112-0.21215-0.07434-0.23878 0.18016-0.0845 0.20438 0.12391-0.01344-0.1626-0.48406-0.6367-0.47062-0.4741-1.0875-0.87946-1.3708-0.9008-0.2833-0.0213-0.49356-0.16291-0.46725-0.3146 0.02631-0.15169-0.15212-0.27733-0.39651-0.27918-0.24439-2e-3 -0.54205-0.11024-0.66146-0.24086-0.12649-0.13835-0.062-0.14749 0.1545-0.0219 0.25782 0.14958 0.31039 0.11654 0.17168-0.10791-0.10996-0.17792-0.36506-0.26014-0.56687-0.18269-0.20182 0.0774-0.3386-4e-3 -0.30397-0.1804 0.03463-0.17667-0.14411-0.30489-0.3972-0.28494-0.2617 0.0206-0.38562-0.0844-0.28733-0.2434 0.10747-0.17389 0.0075-0.21623-0.26426-0.11194-0.2695 0.10342-0.41296 0.0446-0.37413-0.15347 0.03463-0.17667-0.14411-0.30489-0.3972-0.28494-0.2617 0.0206-0.38562-0.0844-0.28732-0.2434 0.10877-0.17599 0.0045-0.21508-0.28117-0.10545-0.26968 0.10349-0.38839 0.068-0.29237-0.0873 0.15335-0.24813 0.03857-0.30594-0.72948-0.36738-0.1819-0.0145-0.5501-0.24583-0.81821-0.51394-0.27681-0.27681-0.70576-0.4304-0.99255-0.35541-0.30053 0.0786-0.43793 0.0234-0.33928-0.13617 0.10514-0.17013-0.05202-0.19913-0.42964-0.0793-0.3738 0.11864-0.53442 0.0903-0.43153-0.0762 0.21438-0.34687-0.50375-0.61585-1.0671-0.39968-0.32009 0.12283-0.38102 0.0731-0.22321-0.18227 0.16284-0.26349 0.07445-0.31393-0.35384-0.20193-0.36583 0.0957-0.50839 0.0481-0.39688-0.1323 0.11152-0.18043-0.03104-0.22795-0.39688-0.13229-0.314 0.0821-0.50634 0.0448-0.42743-0.0829 0.20252-0.32769-1.0472-0.59673-1.7443-0.3755-0.386 0.12251-0.52216 0.0887-0.40515-0.10064 0.2497-0.40403-0.97984-0.65817-2.3053-0.47648-0.65348 0.0896-0.8984 0.066-0.59398-0.0571 1.0895-0.44063-6.6286-0.76935-8.9732-0.38218-0.87024 0.1437-0.95953 0.21099-0.52917 0.39879 0.33278 0.14522 0.04514 0.17758-0.8052 0.0906-0.92646-0.0948-1.204-0.0567-0.92604 0.12709 0.28148 0.18613 0.1349 0.21206-0.50416 0.0892-0.6646-0.12776-0.84971-0.0902-0.70544 0.14327 0.14068 0.22763 9e-3 0.26966-0.46893 0.1497-0.79878-0.20048-1.8318 0.0816-1.6104 0.43982 0.09697 0.15689-0.12186 0.18582-0.56479 0.0746-0.47836-0.12007-0.66484-0.0872-0.55097 0.097 0.10924 0.17675-0.03645 0.22395-0.39878 0.1292-0.36583-0.0957-0.50839-0.0481-0.39688 0.13229 0.11152 0.18044-0.03104 0.22796-0.39688 0.13229-0.36583-0.0957-0.50839-0.0481-0.39688 0.13229 0.11152 0.18044-0.03104 0.22796-0.39688 0.13229-0.38832-0.10154-0.51097-0.0523-0.3835 0.15394 0.12535 0.20282 0.03707 0.24554-0.26661 0.12901-0.30597-0.11741-0.39225-0.0743-0.26458 0.13229 0.12377 0.20026 0.0471 0.25189-0.22118 0.14895-0.22642-0.0869-0.41062-0.0192-0.41062 0.15093 0 0.16968-0.10832 0.24156-0.24071 0.15974-0.33987-0.21005-1.109 0.12472-0.93466 0.40682 0.07948 0.1286-0.05979 0.15542-0.30951 0.0596-0.30597-0.11742-0.39225-0.0743-0.26458 0.13229 0.12161 0.19676 0.04982 0.25294-0.2005 0.15688-0.52412-0.20112-1.5507 0.37195-1.3239 0.73902 0.10896 0.17629 0.05942 0.2173-0.12488 0.1034-0.168-0.10383-0.30546-0.0428-0.30546 0.13551 0 0.17836-0.07752 0.24677-0.17228 0.15202-0.09475-0.0948-0.34171 0.0342-0.54879 0.28663-0.20708 0.2524-0.29158 0.29463-0.18777 0.0939 0.1263-0.24428 0.06714-0.32087-0.17882-0.23151-0.20216 0.0735-0.33484 0.27634-0.29486 0.45086 0.03999 0.17453-0.05455 0.23868-0.21007 0.14256-0.3707-0.2291-1.6468 0.61105-1.4389 0.94736 0.08821 0.14274 0.06224 0.24247-0.05772 0.22163-0.53348-0.0927-0.89741 0.0464-0.74914 0.28633 0.08891 0.14385 0.0058 0.20175-0.18466 0.12866-0.1905-0.0731-0.4656 0.13658-0.61145 0.46605-0.14583 0.32942-0.45006 0.5691-0.67608 0.53261-0.22602-0.0365-0.76072 0.32027-1.1882 0.79279l-0.77729 0.85912 1.5875-1.321-0.63377 0.71945c-0.34858 0.3957-0.73256 0.6584-0.8533 0.58378-0.26717-0.16512-2.6456 2.268-2.4796 2.5366 0.06477 0.1048-0.14732 0.41481-0.47131 0.68892l-0.58907 0.49838 0.51247-0.66146c0.30519-0.39391 0.16999-0.31793-0.33426 0.18787-0.4657 0.46712-0.81537 0.99854-0.77705 1.1809 0.03832 0.18239-0.19985 0.45421-0.52927 0.60404-0.32942 0.14984-0.53914 0.42827-0.46605 0.61874 0.07309 0.19047 0.01519 0.27357-0.12866 0.18467-0.2354-0.14549-0.37582 0.20424-0.29288 0.72947 0.01723 0.10914-0.1175 0.16868-0.2994 0.1323-0.1819-0.0364-0.31497 0.13754-0.29571 0.38649 0.01926 0.24896-0.0998 0.42755-0.26458 0.39688-0.16478-0.0307-0.28328 0.15131-0.26333 0.4044 0.01995 0.2531-0.06337 0.39859-0.18516 0.32332-0.27615-0.17067-0.85373 0.86293-0.65862 1.1786 0.07865 0.12726-0.04725 0.3044-0.2798 0.39364-0.23922 0.0918-0.35758 0.33223-0.27259 0.55371 0.08648 0.22536 0.01392 0.36475-0.17099 0.3285-0.17793-0.0349-0.31247 0.19671-0.30161 0.51919 0.01078 0.32018-0.06604 0.52923-0.17071 0.46454-0.25028-0.15469-0.55489 0.65154-0.36329 0.96155 0.08182 0.13239 0.02641 0.24071-0.12313 0.24071-0.14954 0-0.19587 0.19812-0.10294 0.44028 0.1085 0.28274 0.06501 0.37604-0.12155 0.26074-0.3506-0.21668-0.70689 0.75301-0.43708 1.1896 0.11388 0.18427 0.07528 0.23678-0.09616 0.13082-0.36757-0.22717-0.65717 0.66832-0.41784 1.292 0.1361 0.35466 0.09287 0.42169-0.16797 0.26048-0.26349-0.16284-0.31393-0.0745-0.20193 0.35384 0.09556 0.36541 0.04807 0.50835-0.13192 0.39711-0.18939-0.11705-0.22465 0.12039-0.10799 0.72724 0.10956 0.56985 0.08594 0.76533-0.06424 0.53182-0.38585-0.59992-0.95529 2.4609-0.93009 4.9994 0.01412 1.4227-0.04728 1.9573-0.16713 1.4552-0.1715-0.71849-0.19343-0.68085-0.23131 0.39687l-0.04185 1.1906-0.51862-1.0394c-0.28524-0.57169-0.51862-1.261-0.51862-1.5319 0-0.27085-0.23812-0.95922-0.52917-1.5297-0.29104-0.57049-0.52917-1.2745-0.52917-1.5645s-0.13389-0.86028-0.29753-1.2673-0.3928-0.97818-0.50924-1.2692c-0.11644-0.29104-0.27193-0.82682-0.34552-1.1906-0.0736-0.3638-0.25366-1.0782-0.40014-1.5875-0.14648-0.50932-0.46682-1.7-0.71186-2.6458-0.24505-0.94589-0.5502-1.9265-0.67812-2.1792-0.12792-0.25268-0.23258-0.8112-0.23258-1.2412s-0.11906-0.85531-0.26458-0.94525c-0.14552-0.0899-0.26458-0.52963-0.26458-0.9771 0-0.44748-0.12849-1.3036-0.28553-1.9026-0.64847-2.4733-1.3149-5.6887-1.8168-8.7656-0.11901-0.72965-0.40905-2.0787-0.64455-2.9979-0.23549-0.91922-0.42817-2.1458-0.42817-2.7257s-0.11257-1.2647-0.25016-1.5218c-0.13759-0.25709-0.32115-1.172-0.40791-2.0331-0.17535-1.7405-0.38681-3.2137-1.0222-7.1219-0.50676-3.1171-1.2186-8.0272-1.5152-10.451-0.11572-0.94589-0.34013-2.7318-0.49869-3.9688-0.15855-1.2369-0.3614-3.0824-0.45077-4.101-0.08936-1.0185-0.26994-1.9216-0.40128-2.0068-0.33361-0.21633 4.0381-2.2082 6.8966-3.1424 5.069-1.6565 10.806-2.5939 21.93-3.5833 11.55-1.0273 17.938-1.2634 30.091-1.1122 11.007 0.13695 15.157 0.40096 21.543 1.3706 10.185 1.5464 18.269 4.3401 24.357 8.4174 2.6816 1.796 6.5202 5.6719 8.1794 8.2589 6.327 9.8651 9.775 36.156 9.1858 70.041-0.31189 17.937-1.2666 26.841-3.76 35.067-0.9793 3.2308-2.3086 6.4043-2.8133 6.7162-0.27577 0.17043-8.2152 0.19103-13.432 0.0349zm-113.13-1.1974-0.7771-0.85989 0.8599 0.7771c0.80154 0.72437 0.98151 0.94269 0.7771 0.94269-0.04553 0-0.43249-0.38695-0.8599-0.8599zm-4.5754-6.4823c-0.28871-0.6747-0.28218-0.69026 0.08982-0.21401 0.22065 0.28247 0.40117 0.6099 0.40117 0.7276 0 0.40215-0.17948 0.21441-0.491-0.51359zm-3.1923-9.7455c0.0127-0.30823 0.07539-0.37092 0.15985-0.15986 0.07643 0.191 0.06703 0.4192-0.02089 0.50712-0.08792 0.0879-0.15045-0.0683-0.13896-0.34726zm66.853-0.55006c0.1819-0.0734 0.47956-0.0734 0.66146 0s0.03307 0.13345-0.33073 0.13345c-0.3638 0-0.51263-0.0601-0.33073-0.13345zm3.3123-8e-3c0.25743-0.0671 0.61462-0.0627 0.79375 0.01 0.17913 0.0725-0.03149 0.12736-0.46806 0.12197-0.43656-5e-3 -0.58312-0.0647-0.32569-0.13177zm-70.673-2.1979c0-0.3638 0.06005-0.51263 0.13345-0.33073 0.0734 0.1819 0.0734 0.47956 0 0.66146s-0.13345 0.0331-0.13345-0.33073zm-0.30636-1.8521c0-0.29104 0.04564-0.52917 0.10143-0.52917 0.05579 0 0.1637 0.23813 0.23981 0.52917 0.07611 0.29104 0.03046 0.52916-0.10143 0.52916-0.1319 0-0.23981-0.23812-0.23981-0.52916zm-0.22281-2.1167c0-0.3638 0.06005-0.51263 0.13345-0.33073 0.0734 0.1819 0.0734 0.47956 0 0.66146s-0.13345 0.0331-0.13345-0.33073zm-0.25478-1.9844c0.0054-0.43657 0.06469-0.58313 0.13177-0.3257 0.06708 0.25743 0.06267 0.61462-0.0098 0.79375-0.07248 0.17913-0.12736-0.0315-0.12197-0.46805zm-0.2441-3.8365c0-0.65485 0.0516-0.92274 0.11466-0.59532 0.06306 0.32743 0.06306 0.8632 0 1.1906s-0.11466 0.0595-0.11466-0.5953zm-0.31576-5.2255c0.01149-1.1278 0.0636-1.9315 0.1158-1.7859 0.207 0.57704 0.26859 3.8365 0.07249 3.8365-0.11505 0-0.19978-0.92274-0.1883-2.0505zm-0.02089-13.957c0-1.431 0.07484-2.5269 0.16631-2.4354 0.18593 0.18592 0.14381 4.727-0.0456 4.9164-0.06639 0.0664-0.12071-1.0501-0.12071-2.481zm107.73 0.13229c0-0.3638 0.0601-0.51263 0.13346-0.33073 0.0734 0.1819 0.0734 0.47956 0 0.66146s-0.13346 0.0331-0.13346-0.33073zm-73.28-3.5719c0.0054-0.43656 0.06469-0.58312 0.13177-0.32569 0.06708 0.25743 0.06267 0.61462-0.0098 0.79375-0.07248 0.17913-0.12736-0.0315-0.12197-0.46806zm-34.179-3.2854c-0.0022-0.78824 0.05924-1.3699 0.13659-1.2925 0.24215 0.24215 0.30198 2.0412 0.07953 2.3916-0.12161 0.19157-0.2138-0.27725-0.21612-1.0991zm107.72-2.4033c0-0.3638 0.06-0.51263 0.13345-0.33073 0.0734 0.1819 0.0734 0.47956 0 0.66146s-0.13345 0.0331-0.13345-0.33073zm-73.31-1.4773c0.01269-0.30822 0.07539-0.37092 0.15985-0.15985 0.07643 0.191 0.06703 0.4192-0.02089 0.50712-0.08792 0.0879-0.15045-0.0683-0.13896-0.34727zm-34.085-0.7717c0.0029-0.58208 0.05712-0.78905 0.1204-0.45993 0.06329 0.32912 0.06088 0.80537-0.0053 1.0583-0.06622 0.25296-0.118-0.0163-0.11507-0.5984zm34.35-0.8158c0.0127-0.30822 0.07539-0.37092 0.15985-0.15985 0.07643 0.191 0.06703 0.4192-0.02089 0.50712-0.08792 0.0879-0.15045-0.0684-0.13896-0.34727zm-34.091-2.7561c0-0.50933 0.05445-0.71768 0.121-0.46302s0.06655 0.67138 0 0.92604-0.121 0.0463-0.121-0.46302zm0.25478-3.3073c0.0054-0.43657 0.06469-0.58313 0.13177-0.3257 0.06708 0.25743 0.06267 0.61462-0.0098 0.79375-0.07248 0.17913-0.12736-0.0315-0.12197-0.46805zm0.27973-2.6458c0.0029-0.58208 0.05712-0.78905 0.1204-0.45993 0.06329 0.32912 0.06088 0.80537-0.0053 1.0583-0.06622 0.25296-0.118-0.0163-0.11507-0.5984zm0.23964-3.0427c0-0.3638 0.06005-0.51263 0.13345-0.33072 0.0734 0.1819 0.0734 0.47955 0 0.66145s-0.13345 0.0331-0.13345-0.33073zm0.28419-2.3812c0-0.50932 0.05445-0.71768 0.121-0.46302 0.06655 0.25467 0.06655 0.67138 0 0.92605-0.06655 0.25466-0.121 0.0463-0.121-0.46303zm0.2032-2.6458c0-0.29104 0.10792-0.52917 0.23981-0.52917s0.17754 0.23813 0.10143 0.52917c-0.07611 0.29104-0.18402 0.52917-0.23981 0.52917-0.05579 0-0.10143-0.23813-0.10143-0.52917zm0.32597-2.3812c0-0.50932 0.05445-0.71768 0.121-0.46302s0.06655 0.67138 0 0.92604-0.121 0.0463-0.121-0.46302zm94.782-0.59531-1.313-1.3891 1.3891 1.313c0.76398 0.72213 1.3891 1.3472 1.3891 1.3891 0 0.19743-0.24512-0.0222-1.4652-1.313zm-94.537-1.7859c0-0.3638 0.06005-0.51263 0.13345-0.33073 0.0734 0.1819 0.0734 0.47956 0 0.66146s-0.13345 0.0331-0.13345-0.33073zm0.50599-4.1516c-0.01023-0.31883 0.10047-0.65328 0.24599-0.74322 0.31294-0.19341 0.31294 0.0655 0 0.79375-0.21923 0.51018-0.22806 0.50837-0.24599-0.0505zm0.33729-1.813c-0.08617-0.22456-0.09755-0.46741-0.0253-0.53967 0.07226-0.0723 0.19488 0.11148 0.2725 0.40829 0.16488 0.63048-0.01832 0.72784-0.2472 0.13138zm0.21506-1.7084c0-0.36381 0.06005-0.51264 0.13345-0.33073 0.0734 0.1819 0.0734 0.47955 0 0.66145-0.0734 0.18191-0.13345 0.0331-0.13345-0.33072zm0.26458-1.5875c0-0.36381 0.06005-0.51264 0.13345-0.33073 0.0734 0.1819 0.0734 0.47955 0 0.66145-0.0734 0.18191-0.13345 0.0331-0.13345-0.33072zm65.376 0.34678c0.25466-0.0666 0.67138-0.0666 0.92604 0s0.0463 0.121-0.46302 0.121c-0.50932 0-0.71768-0.0545-0.46302-0.121zm3.9738-9.7e-4c0.25743-0.0671 0.61462-0.0627 0.79375 0.01 0.17913 0.0725-0.03149 0.12736-0.46806 0.12197-0.43656-5e-3 -0.58312-0.0647-0.32569-0.13178zm-69.107-2.0877c0.0127-0.30822 0.07539-0.37091 0.15985-0.15985 0.07643 0.191 0.06703 0.4192-0.02089 0.50712-0.08792 0.0879-0.15045-0.0683-0.13896-0.34727zm0.2437-1.3009c0-0.21828 0.11533-0.39688 0.25628-0.39688 0.14095 0 0.18775 0.1786 0.10398 0.39688-0.08376 0.21828-0.19909 0.39687-0.25628 0.39687-0.05719 0-0.10398-0.17859-0.10398-0.39687zm1.0792-4.52c0.0127-0.30822 0.07539-0.37092 0.15985-0.15985 0.07643 0.191 0.06703 0.4192-0.02089 0.50712-0.08792 0.0879-0.15045-0.0683-0.13896-0.34727zm0.26458-1.0583c0.0127-0.30823 0.07539-0.37092 0.15985-0.15985 0.07643 0.19099 0.06703 0.4192-0.02089 0.50711-0.08792 0.0879-0.15045-0.0684-0.13896-0.34726zm0.2437-0.88838c0-0.13693 0.1177-0.32171 0.26155-0.41062 0.14998-0.0927 0.19434 0.0135 0.10398 0.24897-0.17589 0.45837-0.36554 0.54224-0.36554 0.16165zm0.28723-0.94166c0.02755-0.50118 0.46851-1.3451 0.48387-0.92604 8e-3 0.21828-0.10087 0.57547-0.24194 0.79375s-0.24994 0.27781-0.24194 0.13229zm1.9787-5.5015c0.09936-0.26094 0.2473-0.40778 0.32877-0.32632 0.08146 0.0815 1.68e-4 0.29496-0.18065 0.47443-0.26131 0.25936-0.2917 0.22897-0.14811-0.14811zm4.084-7.1661c0-0.0549 0.20836-0.2633 0.46302-0.46302 0.41964-0.32911 0.429-0.31975 0.09989 0.0999-0.34564 0.44073-0.56292 0.58089-0.56292 0.36313zm2.3702-2.6121c0.64876-0.69123 1.2143-1.2568 1.2568-1.2568 0.19867 0-0.01138 0.23755-1.1796 1.334l-1.2568 1.1796z" fill="#e74b26"/><path d="m78.724 145.81c-0.07638-0.0764-2.0651-0.11555-4.4194-0.087-6.8361 0.0828-18.563-0.53625-24.828-1.3106-6.2115-0.7678-14.567-2.3544-15.21-2.8881-0.17403-0.14443-0.37328-0.20574-0.44278-0.13624-0.16452 0.16452-3.4866-0.75669-6.1749-1.7123-11.29-4.013-18.813-10.013-22.734-18.13-1.5551-3.2195-3.0944-8.7855-3.447-12.464-0.07124-0.74318-0.2445-1.6537-0.38504-2.0233-0.14054-0.36964-0.2015-0.72609-0.13548-0.79211 0.06602-0.066 0.0038-0.94147-0.13832-1.9454-0.56982-4.026-0.81704-18.429-0.46276-26.961 0.24908-5.9982 0.45146-9.5519 0.70065-12.303 0.63157-6.9729 0.82453-8.9764 1.0702-11.112 0.14229-1.2369 0.32086-2.9038 0.39682-3.7042 0.07597-0.80036 0.19152-1.8719 0.25678-2.3812 0.06526-0.50932 0.19001-1.6812 0.27723-2.6043 0.08721-0.92302 0.26268-1.952 0.38992-2.2867 0.12724-0.33467 0.16086-0.87801 0.07472-1.2074-0.1014-0.38774-0.05733-0.53757 0.12496-0.42491 0.17003 0.10508 0.23736-0.01 0.16994-0.28935-0.0614-0.25487 0.12555-1.7731 0.41546-3.3738 0.28991-1.6007 0.59373-3.3271 0.67515-3.8364 0.08143-0.50933 0.44766-1.9976 0.81386-3.3073 0.3662-1.3097 0.7156-2.5598 0.77646-2.7781 0.06085-0.21828 0.22732-0.81359 0.36993-1.3229 1.4125-5.0446 4.4415-10.447 7.8691-14.034 1.8279-1.9132 5.1799-4.4864 5.8444-4.4864 0.14319 0 0.33158 0.8632 0.41864 1.9182 0.08706 1.055 0.2889 2.9303 0.44855 4.1672 0.15964 1.2369 0.38494 3.0229 0.50067 3.9688 0.29655 2.4239 1.0084 7.334 1.5152 10.451 0.63538 3.9082 0.84683 5.3815 1.0222 7.1219 0.08676 0.86113 0.27032 1.776 0.40791 2.0331 0.13759 0.25709 0.25016 0.94189 0.25016 1.5218s0.19268 1.8064 0.42817 2.7257 0.52554 2.2683 0.64455 2.9979c0.50187 3.077 1.1683 6.2923 1.8168 8.7656 0.15704 0.59897 0.28553 1.4551 0.28553 1.9026 0 0.44747 0.11906 0.88716 0.26458 0.9771 0.14552 0.0899 0.26458 0.5153 0.26458 0.94525s0.10466 0.98847 0.23258 1.2412c0.12792 0.25269 0.43308 1.2333 0.67812 2.1792 0.24504 0.94588 0.56538 2.1365 0.71186 2.6458 0.14648 0.50932 0.32654 1.2237 0.40014 1.5875 0.0736 0.3638 0.22908 0.89958 0.34552 1.1906 0.11644 0.29105 0.3456 0.86219 0.50924 1.2692s0.29753 0.97732 0.29753 1.2673c0 0.28999 0.23812 0.99402 0.52917 1.5645 0.29104 0.57048 0.52917 1.2589 0.52917 1.5297 0 0.27086 0.22879 0.96021 0.50842 1.5319l0.50842 1.0394 0.10681-1.1906c0.05875-0.65484 0.12979 0 0.15788 1.4552 0.19929 10.324 3.5266 18.139 10.875 25.54 3.462 3.487 7.0933 6.1812 10.995 8.1573 1.4552 0.73707 2.5488 1.3445 2.4303 1.3499-0.26706 0.0121-2.9102-1.0985-3.0918-1.2992-0.25476-0.2816-1.3754-0.84336-1.4779-0.74086-0.14103 0.14104 1.4843 1.7853 1.7648 1.7853 0.12324 0 0.56616 0.32742 0.98426 0.7276 1.2001 1.1487 2.2258 2.008 3.2268 2.7035 0.50932 0.35387 1.0191 0.79441 1.1329 0.97899s0.64956 0.54323 1.1906 0.79699c0.54106 0.25377 1.1411 0.61474 1.3334 0.80216 0.1923 0.18742 0.46672 0.34077 0.60983 0.34077 0.14311 0 0.93828 0.45353 1.767 1.0078 1.8969 1.2687 5.6846 3.2255 6.2436 3.2255 0.23244 0 0.42355 0.0893 0.42468 0.19844 0.0021 0.20031 1.2526 0.85989 1.6303 0.85989 0.1122 0 0.88282 0.3105 1.7125 0.69 1.4438 0.6604 3.8682 1.5643 4.9895 1.8603 0.51339 0.13552 0.76402 0.22773 2.3276 0.85632 0.40703 0.16364 1.0251 0.29753 1.3734 0.29753 0.34837 0 0.70698 0.11906 0.79692 0.26458 0.08994 0.14552 0.56619 0.26459 1.0583 0.26459s0.96027 0.1059 1.0403 0.23535c0.08 0.12944 0.53351 0.30238 1.0078 0.38432 2.3818 0.41145 2.7536 0.49088 3.2436 0.69291 0.29104 0.12001 1.5412 0.36144 2.7781 0.53651s2.6061 0.41971 3.0427 0.54365c0.79071 0.22447 2.3159 0.43256 8.599 1.1731 4.9883 0.58798 12.98 0.95814 21.893 1.0141 4.4016 0.0276 8.0032 0.0758 8.0036 0.107s-0.559 0.98371-1.2432 2.1167c-1.522 2.5202-4.5056 5.5161-6.9248 6.9533-6.1835 3.6736-16.233 6.0019-28.344 6.5665-4.6671 0.21759-20.83 0.29793-21.023 0.1045zm-11.958-33.595c-0.168-0.10691 1.6433-0.19438 4.025-0.19438s4.1266 0.0809 3.8773 0.17984c-0.61672 0.24476-7.5206 0.25746-7.9024 0.0145zm-2.4727-0.59126c-0.52376-0.16774-0.5513-0.21183-0.13229-0.21183 0.29104 0 0.82682 0.0953 1.1906 0.21183 0.52376 0.16774 0.5513 0.21184 0.13229 0.21184-0.29104 0-0.82682-0.0953-1.1906-0.21184zm11.906 0c0.3638-0.11651 0.95912-0.21183 1.3229-0.21183h0.66146l-0.66146 0.21183c-0.3638 0.11651-0.95912 0.21184-1.3229 0.21184h-0.66146zm-14.42-0.52497c-0.29104-0.12352-0.75457-0.29685-1.0301-0.3852-0.27549-0.0883-0.44904-0.21247-0.38566-0.27584 0.06338-0.0634 0.82456 0.10715 1.6915 0.37896 0.93306 0.29254 1.3064 0.49674 0.91483 0.50043-0.3638 3e-3 -0.89958-0.0948-1.1906-0.21835zm18.124-0.31145c2.6587-0.8075 5.7237-2.0192 7.9908-3.1591 1.1348-0.57059 2.0634-0.9779 2.0634-0.90514 0 0.44194-7.0843 3.5392-9.7363 4.2568-2.0705 0.56021-2.3128 0.41342-0.31782-0.19251zm-20.638-0.75108c-0.21828-0.14106-0.27781-0.25648-0.13229-0.25648s0.44318 0.11542 0.66146 0.25648c0.21828 0.14107 0.27781 0.25648 0.13229 0.25648s-0.44318-0.11541-0.66146-0.25648zm31.353-3.8643c0.95379-0.73511 1.6066-0.94244 0.79375-0.25208-0.43656 0.37077-0.91281 0.67094-1.0583 0.66703-0.14552-4e-3 -0.02646-0.19063 0.26458-0.41495zm1.8653-1.1083c0.13824-0.11552 1.1947-0.91782 2.3477-1.7829 2.8146-2.1118 5.858-5.2194 7.5644-7.7239 1.5467-2.2702 2.0912-2.9351 1.5763-1.9248-1.4559 2.8562-5.6819 7.4564-9.3245 10.15-1.1091 0.82025-2.1063 1.4914-2.2159 1.4914-0.10961 0-0.08618-0.0945 0.05206-0.21002zm11.761-12.474c0-0.13693 0.1177-0.32171 0.26155-0.41062 0.14998-0.0927 0.19434 0.0135 0.10398 0.24897-0.17589 0.45837-0.36553 0.54223-0.36553 0.16165zm0.94701-1.8677c0.0964-0.3638 0.27637-0.84005 0.39986-1.0583 0.19959-0.35278 0.22439-0.35278 0.22321 0-7.4e-4 0.21828-0.18068 0.69453-0.39987 1.0583l-0.39854 0.66146zm0.77771-2.1167c0.45041-1.4679 0.88466-2.491 0.89848-2.1167 0.0185 0.50156-0.60282 2.3047-0.88724 2.5747-0.11781 0.11186-0.12287-0.0943-0.0112-0.45808zm0.98859-3.175c0.0769-0.3638 0.32963-1.5544 0.56162-2.6458 0.232-1.0914 0.52601-3.2345 0.65337-4.7625 0.23004-2.7598 0.23177-2.7651 0.26368-0.79375 0.0312 1.9294-0.46174 5.5966-0.98763 7.3471-0.14289 0.47564-0.25756 0.93204-0.25482 1.0142 3e-3 0.0822-0.0807 0.22882-0.18553 0.32583-0.10478 0.097-0.12759-0.12126-0.0507-0.48507zm1.3064-11.774c-0.0306-0.87313-0.11219-2.2424-0.18143-3.0427-0.12163-1.406-0.11675-1.4194 0.14437-0.39688 0.14864 0.58209 0.23028 1.9513 0.18143 3.0427-0.0847 1.8918-0.0914 1.9103-0.14437 0.39688zm-73.837-2.6458c-0.01084-0.58208 0.09757-1.5941 0.24091-2.249 0.48407-2.2114 1.1293-4.5062 1.2368-4.3987 0.05875 0.0588-0.09337 0.86413-0.33804 1.7897-0.24468 0.9256-0.59676 2.6354-0.7824 3.7996-0.23879 1.4974-0.3433 1.807-0.35725 1.0583zm73.16-3.1359c-0.11085-0.56057-0.14012-1.0806-0.0651-1.1557 0.20044-0.20044 0.49089 1.1265 0.37013 1.691-0.0625 0.292-0.18348 0.0797-0.30508-0.53528zm-1.1734-4.2066c-0.48051-1.4914-0.93317-2.8902-1.0059-3.1085-0.0727-0.21828 0.0474-0.0992 0.26692 0.26458 0.48997 0.8119 1.815 4.9492 1.6977 5.3008-0.0468 0.14015-0.47819-0.96543-0.95871-2.4568zm-70.392 0.0665c0-0.21828 0.22046-0.87312 0.48992-1.4552 0.26946-0.58209 0.48992-0.87974 0.48992-0.66146s-0.22046 0.87312-0.48992 1.4552c-0.26946 0.58208-0.48992 0.87974-0.48992 0.66145zm1.2837-3.2661c0-0.34167 1.121-2.5622 1.3716-2.7172 0.13853-0.0856-0.06821 0.48145-0.45943 1.2601-0.74779 1.4884-0.91222 1.7511-0.91222 1.457zm67.618-0.8897c-0.14359-0.37709-0.1132-0.40748 0.14811-0.14811 0.18082 0.17947 0.26211 0.39297 0.18065 0.47443-0.0815 0.0815-0.22941-0.0654-0.32876-0.32632zm-1.0747-1.9851c-3.162-6.0842-9.6464-12.531-15.411-15.322-0.63466-0.30724-1.0936-0.61894-1.0199-0.69267 0.16769-0.16769 2.7866 1.2864 4.4582 2.4753 0.69156 0.49187 1.3199 0.8943 1.3962 0.8943 0.33587 0 5.6973 5.1632 7.0077 6.7486 1.811 2.1911 4.7007 6.8912 4.4134 7.1784-0.0646 0.0646-0.44477-0.51252-0.84488-1.2824zm-64.956-0.35377c0-0.33391 2.4756-4.0628 2.7066-4.077 0.1062-7e-3 -0.4084 0.90961-1.1436 2.0358-1.48 2.2671-1.5631 2.3756-1.5631 2.0412zm3.1942-4.7502c1.0882-1.5247 4.842-5.3167 6.1985-6.2617 0.43656-0.30411 0.05434 0.12246-0.84938 0.94792-0.90372 0.82547-2.562 2.4778-3.685 3.6719-1.123 1.1941-1.8719 1.9329-1.6642 1.6419zm7.125-6.9432c2.6e-4 -0.1103 0.28347-0.37914 0.62935-0.59743 0.34588-0.21828 1.1308-0.73289 1.7443-1.1436 0.61349-0.41069 1.1652-0.697 1.2259-0.63624 0.06076 0.0608-0.7244 0.66561-1.7448 1.3441-1.0204 0.67852-1.855 1.1434-1.8548 1.0331zm4.6338-2.9852c0.18501-0.29936 3.0586-1.6492 3.2031-1.5047 0.04572 0.0457-0.69608 0.46737-1.6484 0.93699-0.95236 0.46963-1.652 0.72508-1.5547 0.56767zm32.011-1.5664c-0.58208-0.27544-0.96521-0.51044-0.8514-0.52222 0.31071-0.0322 2.042 0.72337 2.042 0.89112 0 0.19656 0.01252 0.20044-1.1906-0.3689zm-28.107-0.30312c0.61325-0.35703 3.369-1.3031 3.7405-1.284 0.26685 0.0137-3.779 1.5595-4.0763 1.5575-0.07276-4.9e-4 0.07837-0.12354 0.33585-0.27345zm26.122-0.5051c-0.21828-0.14107-0.27781-0.25649-0.13229-0.25649s0.44318 0.11542 0.66146 0.25649c0.21828 0.14106 0.27781 0.25648 0.13229 0.25648s-0.44318-0.11542-0.66146-0.25648zm-2.6458-0.79375c-0.80036-0.26251-1.2171-0.48887-0.92604-0.50302 0.29104-0.0142 1.1245 0.20674 1.8521 0.49085 1.6513 0.64482 1.0278 0.65301-0.92604 0.0122zm-19.05-0.26459c0.21828-0.14106 0.69453-0.24643 1.0583-0.23416l0.66146 0.0223-0.66146 0.21184c-0.3638 0.11651-0.84005 0.22188-1.0583 0.23416-0.35278 0.0198-0.35278-6e-3 0-0.23416zm2.3812-0.52916c0.90466-0.28973 1.6003-0.28973 0.92604 0-0.29104 0.12506-0.76729 0.22389-1.0583 0.21961-0.42539-6e-3 -0.39945-0.0493 0.13229-0.21961zm12.965-0.0655c-0.65484-0.14967-3.3916-0.28457-6.0817-0.29978-2.6901-0.0152-4.5356-0.10377-4.101-0.19677 2.1125-0.45213 10.94-0.0196 12.035 0.58974 0.54878 0.30532-0.29393 0.26291-1.8521-0.0932z" fill="#cb4827"/><path d="m82.52 187.21c-0.52605-0.1969-1.3213-0.61781-1.7673-0.93536-0.80368-0.57227-1.9065-2.0928-1.9065-2.6286 0-0.15314 0.75169-0.35894 1.6704-0.45732 1.5196-0.16274 1.7618-0.11687 2.6828 0.5081 2.2322 1.5148 4.3781 0.27579 4.3781-2.5279v-1.0733l-0.8951 0.78591c-3.2044 2.8135-8.3653-0.49688-8.3653-5.3658 0-4.9931 5.4676-8.3464 8.5626-5.2514l0.69781 0.69781v-0.69754c0-0.68781 0.02606-0.69754 1.8683-0.69754h1.8683l-0.16482 13.669-0.80074 1.2943c-1.148 1.8556-2.7916 2.8051-5.0812 2.9354-1.1034 0.0628-2.1582-0.0355-2.7474-0.25609zm4.1579-9.5466c0.77846-0.77846 0.89958-1.0743 0.89958-2.197 0-1.1358-0.11555-1.4095-0.92709-2.196-1.6121-1.5625-3.8404-0.98688-4.5655 1.1793-0.70562 2.1078 0.58372 4.1134 2.6443 4.1134 0.84033 0 1.2281-0.17903 1.9487-0.89959zm-61.674 4.6352c-4.2291-1.0875-6.4766-5.61-4.6566-9.3697 1.0548-2.179 3.7439-3.8909 6.1118-3.8909 2.3385 0 5.026 1.6651 6.1629 3.8184 0.87608 1.6593 0.81317 4.3907-0.1384 6.0094-0.80604 1.3711-2.0396 2.5147-3.2681 3.0295-1.0797 0.45252-3.2222 0.65764-4.2116 0.40321zm2.9925-3.5644c2.3156-1.285 2.0784-5.1281-0.37987-6.1553-1.2172-0.5086-2.2646-0.27637-3.2649 0.72388-2.6183 2.6184 0.45658 7.2006 3.6448 5.4314zm11.426 3.5503c-2.4734-0.75238-3.8634-2.3532-4.4966-5.1787-1.2062-5.3822 4.6212-10.235 8.3545-6.9567l0.90639 0.79582v-0.68887c0-0.67667 0.03289-0.68887 1.857-0.68887h1.857l-0.07102 6.1516-0.07102 6.1516-3.5719 0.1564v-1.4461l-0.7276 0.67496c-1.1718 1.087-2.6266 1.4578-4.0366 1.0289zm3.8731-4.1372c0.78058-0.82766 0.89114-1.1186 0.89114-2.3456 0-1.5747-0.55922-2.5233-1.8948-3.2139-2.2286-1.1525-4.5304 1.592-3.6894 4.399 0.40217 1.3423 1.3967 2.1053 2.7443 2.1053 0.86991 0 1.2157-0.16765 1.9487-0.94488zm19.34 4.0334c-2.5518-0.79375-4.2321-3.3164-4.2602-6.3958-0.01286-1.4124 0.12614-2.1464 0.58554-3.092 1.6519-3.4002 5.4823-4.6377 7.8689-2.5422l0.90464 0.79429v-6.934h3.4396v17.992h-1.7198c-1.6879 0-1.7198-0.0131-1.7198-0.70758v-0.70758l-0.59892 0.56266c-0.6913 0.64944-2.3422 1.391-3.0306 1.3613-0.25934-0.0112-0.92057-0.16001-1.4694-0.33073zm4.1641-4.0234c0.84617-0.84617 0.93486-1.0746 0.93486-2.4077 0-1.3171-0.09346-1.5663-0.88399-2.3568-1.5665-1.5666-3.1123-1.4307-4.3317 0.38072-0.68981 1.0247-0.77331 2.2875-0.23626 3.5728 0.48124 1.1518 1.3631 1.7459 2.5915 1.7459 0.78116 0 1.1883-0.19768 1.9255-0.93486zm30.79 4.0618c-2.4295-0.64696-4.2846-3.357-4.3087-6.2944-0.01867-2.2777 0.63181-3.9153 2.0887-5.2582 2.1617-1.9926 4.7116-2.137 6.5622-0.37151l0.72761 0.69413v-0.71096c0-0.69864 0.0298-0.71096 1.7198-0.71096h1.7198v12.435h-1.7198c-1.6581 0-1.7198-0.0238-1.7198-0.66146 0-0.73348-0.38535-0.88872-0.62912-0.25345-0.18521 0.48265-2.1856 1.4417-2.9428 1.4109-0.29104-0.0119-0.96513-0.13763-1.498-0.27953zm3.6896-3.5398c1.4819-1.038 1.8437-3.5598 0.72174-5.0307-0.78036-1.0231-2.1532-1.5622-3.0737-1.207-2.3213 0.89585-2.8161 4.5654-0.82651 6.1304 0.79952 0.62891 2.3586 0.68152 3.1784 0.10727zm45.088 3.3661c-1.4906-0.53139-2.7696-1.568-3.3828-2.7416-0.20529-0.39296-0.37326-0.77043-0.37326-0.83884 0-0.0684 0.77044-0.20688 1.7121-0.30772 1.5944-0.17075 1.7686-0.13582 2.5338 0.50811 0.97249 0.8183 2.868 0.96816 3.4454 0.2724 0.59298-0.71449-0.0568-1.2431-2.4247-1.9724-3.4572-1.0648-4.4729-1.9965-4.4729-4.103 0-3.4907 6.1477-5.1072 9.3584-2.4607 1.0073 0.83031 1.8994 2.2233 1.5547 2.4276-0.10861 0.0644-0.81387 0.20018-1.5672 0.30177-1.1785 0.15893-1.4822 0.10158-2.1752-0.41072-0.93916-0.69435-2.2539-0.77496-2.8538-0.17498-0.70464 0.70463-0.20161 1.2045 1.822 1.8107 1.062 0.31811 2.3821 0.80432 2.9335 1.0805 1.8815 0.9423 2.5808 3.1627 1.5358 4.8764-1.0982 1.801-4.9839 2.6815-7.6459 1.7325zm18.734 0.17714c-0.50932-0.14386-1.2641-0.5796-1.6773-0.96833-1.3328-1.2539-1.5852-2.0511-1.7109-5.4031-0.11492-3.064-0.12567-3.1089-0.74545-3.1089-0.59221 0-0.62885-0.0925-0.62885-1.5875 0-1.5169 0.0294-1.5875 0.66146-1.5875 0.62538 0 0.66146-0.0794 0.66146-1.4552v-1.4552h3.7042v2.9104h2.6458v3.146l-2.5136 0.1612-0.0761 2.614c-0.0932 3.2015 0.20221 3.7329 1.9649 3.5342 1.0839-0.12217 1.0981-0.11269 1.2545 0.83286 0.31259 1.8898 0.23959 2.1012-0.82816 2.3977-1.1626 0.32288-1.4723 0.31936-2.712-0.0308zm24.034-3e-3c-2.0521-0.54648-3.8808-2.8494-4.3118-5.4301-0.55895-3.3467 1.8513-7.1064 4.8842-7.6188 1.4544-0.24573 2.5304 0.0476 3.5911 0.97886l0.90639 0.79582v-0.68887c0-0.67145 0.0435-0.68887 1.7198-0.68887h1.7198v12.435h-1.7198c-1.688 0-1.7198-0.0131-1.7198-0.70758v-0.70758l-0.59893 0.56266c-0.69736 0.65513-2.3502 1.3938-3.0306 1.3543-0.25933-0.015-0.90748-0.14344-1.4403-0.28534zm4.1787-4.0718c0.76818-0.81451 0.89114-1.1283 0.89114-2.2743 0-1.5276-0.63844-2.6356-1.8923-3.2839-2.231-1.1537-4.5334 1.5888-3.6919 4.3977 0.40217 1.3423 1.3968 2.1053 2.7443 2.1053 0.8699 0 1.2157-0.16765 1.9487-0.94488zm11.21 4.2094c-1.6203-0.62785-2.2069-1.0749-2.8533-2.1744-0.65043-1.1064-0.72749-1.5172-0.81259-4.3312-0.0931-3.0771-0.10049-3.1089-0.72761-3.1089-0.598 0-0.63359-0.0892-0.63359-1.5875 0-1.5169 0.0294-1.5875 0.66146-1.5875 0.62538 0 0.66146-0.0794 0.66146-1.4552v-1.4552h3.7042v2.8814l2.5135 0.1612 0.0794 1.5214 0.0794 1.5214h-2.6722v2.7371c0 2.3908 0.0662 2.797 0.52323 3.2106 0.38708 0.35031 0.79237 0.43742 1.5576 0.33478 1.0176-0.13649 1.037-0.12311 1.1936 0.82426 0.24784 1.4986 0.19592 2.0852-0.19796 2.2363-0.65334 0.25071-2.6706 0.42865-3.0765 0.27137zm13.939-0.19786c-2.3859-0.87543-3.0775-2.3189-3.0855-6.4401l-6e-3 -2.9766h-0.66146c-0.63206 0-0.66145-0.0706-0.66145-1.5875 0-1.5169 0.0294-1.5875 0.66145-1.5875 0.62538 0 0.66146-0.0794 0.66146-1.4552v-1.4552h3.7042v2.9104h2.3812v3.175h-2.3812v2.878c0 3.3091 0.1388 3.5597 1.9011 3.4325 1.1333-0.0818 1.1345-0.081 1.3212 0.97098 0.37044 2.0881 0.37259 2.085-1.6671 2.3533-0.7081 0.0931-1.5508 8e-3 -2.168-0.21814zm42 0.13961c-1.9219-0.49625-4.3456-2.5389-4.3456-3.6624 0-0.1691 0.75416-0.37621 1.7635-0.48431 1.4058-0.15055 1.8217-0.10992 2.0505 0.20031 0.73744 0.99995 2.7774 1.3398 3.7422 0.62339 0.85105-0.63197 0.16985-1.2648-2.0443-1.8991-3.3248-0.95253-4.3284-1.6803-4.7217-3.4239-0.78763-3.4923 4.4488-5.8722 8.44-3.836 1.0601 0.54083 2.7906 2.5264 2.5464 2.9216-0.066 0.10683-0.78117 0.27193-1.5892 0.36691-1.2637 0.14851-1.5799 0.0908-2.2607-0.41249-1.0066-0.74424-2.5513-0.7845-3.0665-0.0799-0.66888 0.91476-0.3039 1.1583 3.1698 2.1149 1.0627 0.29267 1.8918 0.74722 2.6458 1.4505 1.0042 0.93675 1.0981 1.1371 1.0981 2.3449 0 1.5592-0.67629 2.4672-2.4228 3.2527-1.2585 0.56607-3.8074 0.83237-5.0056 0.52298zm12.769-0.14999c-2.3316-0.83154-2.9202-1.993-3.0913-6.099l-0.13229-3.175-0.74024-0.0849c-0.72457-0.0831-0.73858-0.11677-0.66146-1.5875 0.0745-1.4198 0.11884-1.5072 0.80639-1.5863 0.69421-0.0799 0.7276-0.14971 0.7276-1.5214v-1.4376h3.7042v2.9104h2.3812v3.175h-2.3812v2.878c0 3.2981 0.15589 3.5884 1.8408 3.4277l1.057-0.1008 0.29405 1.4164c0.16173 0.77904 0.23355 1.4769 0.15961 1.5509-0.17038 0.17037-2.031 0.60644-2.5576 0.59941-0.21828-3e-3 -0.85124-0.16735-1.4066-0.36541zm10.592 0.10438c-3.2112-0.7878-5.1995-3.2693-5.2111-6.5038-0.0177-4.9355 5.351-8.1786 9.7899-5.914 1.3087 0.66764 2.9996 2.622 3.3868 3.9145 0.72373 2.4156 2e-3 5.104-1.8393 6.8507-1.549 1.4694-4.0848 2.1535-6.1264 1.6527zm3.1924-3.5736c2.0799-1.4568 1.6995-5.1239-0.63258-6.0983-3.2473-1.3568-5.7436 3.5126-2.9889 5.8305 0.949 0.79853 2.681 0.92662 3.6215 0.26784zm39.993 3.507c-0.66376-0.18761-1.5781-0.60548-2.0319-0.9286-0.81537-0.58059-1.9207-2.0991-1.9207-2.6387 0-0.15314 0.75649-0.35945 1.6811-0.45847 1.5752-0.16869 1.7244-0.13671 2.3692 0.50811 0.53605 0.53605 0.94976 0.68814 1.8719 0.68814 1.1985 0 2.134-0.55602 1.9436-1.1552-0.0524-0.16501-1.1591-0.66218-2.4592-1.1048-2.8443-0.96835-3.3513-1.2347-4.0562-2.1308-1.3508-1.7172-0.81936-3.8541 1.2618-5.0737 1.0492-0.6149 1.5176-0.71571 3.339-0.71858 1.8365-3e-3 2.2828 0.0932 3.3523 0.72191 1.119 0.65781 2.3381 2.106 2.3381 2.7775 0 0.14593-0.71316 0.34601-1.5848 0.44462-1.3578 0.15363-1.664 0.10552-2.1378-0.33589-1.1112-1.0353-3.2889-0.79638-3.2889 0.3608 0 0.42945 0.44831 0.67081 2.4506 1.3194 1.3478 0.43657 2.8618 1.123 3.3643 1.5254 1.6426 1.3153 1.7508 3.6613 0.23117 5.013-1.3681 1.2169-4.5985 1.7867-6.7238 1.186zm-194.58-0.41315c-1.2515-0.56998-2.8684-2.2812-3.4336-3.6338-0.54743-1.3102-0.50352-3.6952 0.0922-5.0065 1.1008-2.4233 3.4431-3.926 6.1195-3.926 2.9288 0 5.3697 1.8202 6.2028 4.6255 0.53242 1.7929 0.52518 1.8857-0.20056 2.5675-0.57323 0.53852-0.86914 0.57529-4.6302 0.57529-4.4374 0-4.743 0.13655-3.2038 1.4317 1.1227 0.9447 2.8006 0.94874 3.9169 9e-3 0.82692-0.69581 0.90884-0.70073 3.5336-0.21244 0.70259 0.13071 0.71255 0.1567 0.33766 0.88165-0.54388 1.0518-2.4397 2.6057-3.5579 2.9163-1.5062 0.41842-3.9975 0.30839-5.1767-0.22862zm5.1594-7.5173c0-0.65009-0.8246-1.507-1.6655-1.7307-1.0688-0.28439-2.2984 0.0429-2.8986 0.77149-0.92837 1.1271-0.65937 1.2973 2.0505 1.2973 1.8633 0 2.5135-0.0874 2.5135-0.33801zm89.805 7.6356c-3.0604-1.3326-4.7294-4.938-3.7693-8.1425 0.39721-1.3258 2.0848-3.2478 3.4914-3.9764 1.4962-0.77502 4.121-0.78071 5.5902-0.0121 1.9109 0.99965 3.3307 2.8821 3.7137 4.9234 0.15584 0.83073 0.0855 1.1061-0.42032 1.6445-0.59305 0.63127-0.70401 0.64667-4.6624 0.64667-2.72 0-4.0549 0.0938-4.0549 0.28493 0 0.15672 0.34803 0.63297 0.7734 1.0583 1.0474 1.0474 2.7783 1.0902 3.9576 0.0978 0.82692-0.69581 0.90884-0.70073 3.5336-0.21244 0.69759 0.12978 0.71025 0.16116 0.34786 0.86195-0.57178 1.1057-2.3684 2.603-3.5005 2.9174-1.3877 0.38535-4.0154 0.3372-5.0002-0.0916zm4.9154-7.7065c0-0.22489-0.29225-0.70114-0.64944-1.0583-0.93619-0.93619-2.7191-0.91288-3.6801 0.0481-1.2274 1.2274-0.98198 1.4191 1.816 1.4191 2.0907 0 2.5135-0.0688 2.5135-0.40891zm80.129 7.4162c-1.5616-0.8133-2.7769-2.2779-3.2747-3.9464-0.49061-1.6444-0.48731-2.1055 0.0275-3.8391 0.59122-1.9908 2.4371-3.7992 4.4859-4.3948 2.8133-0.81784 5.8014 0.33542 7.3472 2.8356 1.0709 1.7321 1.2324 3.2245 0.44021 4.0678-0.59808 0.63662-0.70076 0.65095-4.6665 0.65095-2.72 0-4.0549 0.0938-4.0549 0.28493 0 0.15672 0.34803 0.63297 0.7734 1.0583 1.0447 1.0447 2.7784 1.09 3.9511 0.10332 0.75688-0.63688 0.87765-0.657 2.4366-0.40594 0.90213 0.14529 1.7054 0.32936 1.7851 0.40905 0.0797 0.0797-0.206 0.64415-0.63487 1.2544-1.7434 2.4805-5.8044 3.3864-8.6161 1.922zm5.5964-7.2922c0-0.15672-0.34803-0.63297-0.7734-1.0583-0.62504-0.62505-1.0012-0.7734-1.9608-0.7734-1.0012 0-1.2949 0.12771-1.8724 0.81405-0.37674 0.44773-0.68498 0.92398-0.68498 1.0583 0 0.13436 1.1906 0.24429 2.6458 0.24429 1.7135 0 2.6458-0.10041 2.6458-0.28494zm-315.65-1.2802v-9.0182l4.6964 1e-3c2.583 8.1e-4 5.1513 0.1278 5.7073 0.28219 3.2491 0.90222 4.7173 4.9565 2.4501 6.7656l-0.88137 0.70326 1.3557 0.68782c3.8666 1.9617 3.5128 6.9555-0.6281 8.866-1.0659 0.49178-1.7936 0.55881-6.9453 0.63969l-5.7547 0.0904zm11.401 4.5124c0.72903-0.9014 0.64976-2.0014-0.19195-2.6635-0.61991-0.48762-1.0596-0.54837-3.9688-0.54837h-3.2716v4.0108l3.4636-0.0872c3.2689-0.0823 3.492-0.12228 3.9688-0.71179zm-2.0273-7.3318c0.49204-0.49203 0.54781-1.7276 0.09827-2.1771-0.20375-0.20375-1.2465-0.3175-2.9104-0.3175h-2.5929v2.9104h2.4946c1.9151 0 2.5912-0.0966 2.9104-0.41578zm38.516 5.5872v-6.2298h1.8521c1.8314 0 1.8521 8e-3 1.8521 0.70758v0.70758l0.59531-0.55766c0.66472-0.62268 1.8205-1.1221 2.5969-1.1221 0.45369 0 0.51194 0.19568 0.51194 1.7198v1.7198l-0.8599 9.9e-4c-1.1012 1e-3 -2.5247 0.86623-2.7064 1.6444-0.07751 0.33194-0.17 2.1513-0.20554 4.0431l-0.06462 3.4396-3.5719 0.1564zm58.473 0v-6.2298h1.8521c1.8244 0 1.8521 0.0104 1.8521 0.69714v0.69714l0.5202-0.66132c1.1775-1.4969 3.2854-1.592 4.7598-0.21472l0.81996 0.76596 0.67982-0.63003c2.1202-1.9649 5.4411-1.2742 6.7614 1.4063 0.56941 1.1561 0.61408 1.574 0.61408 5.7447v4.4979l-3.5719 0.1564v-4.2161c0-3.635-0.0638-4.2899-0.46303-4.7516-0.71562-0.82763-1.4748-0.93058-2.267-0.30742-0.69501 0.54669-0.69671 0.55734-0.76918 4.8333l-0.0726 4.2854-3.5719 0.1564-4e-3 -4.047c-4e-3 -4.311-0.19251-5.1448-1.2495-5.531-0.44739-0.16346-0.77042-0.0629-1.3229 0.41169-0.72883 0.62611-0.73138 0.64032-0.86328 4.8189l-0.13229 4.1909-3.5719 0.1564zm62.177-2.7902v-8.9958h3.4396v3.3073c0 1.819 0.0721 3.3073 0.16024 3.3073 0.0881 0 0.50836-0.29292 0.93383-0.65093 2.1045-1.7708 5.6036-0.7045 6.8753 2.0952 0.4084 0.8991 0.48663 1.7746 0.49151 5.501l6e-3 4.4318h-3.4396v-3.7127c0-4.2422-0.27046-5.2668-1.5278-5.7876-0.67169-0.27822-0.93191-0.26234-1.6318 0.0996-1.5863 0.8203-1.8655 1.6822-1.8666 5.7627l-9.9e-4 3.638h-3.4396zm68.174 8.8194c-0.097-0.097-0.17639-3.4308-0.17639-7.4083v-7.232h-1.5875v-3.175h5.2917v17.992h-1.6757c-0.92163 0-1.7551-0.0794-1.8521-0.17639zm6.8792 0c-0.097-0.097-0.17639-3.4308-0.17639-7.4083v-7.232h-1.5875v-3.175h5.2917v17.992h-1.6757c-0.92163 0-1.7551-0.0794-1.8521-0.17639zm48.242-6.0413v-6.2177h1.7198c1.658 0 1.7198 0.0238 1.7198 0.66146 0 0.70497 0.3821 0.89717 0.60886 0.30626 0.17011-0.44331 1.7964-1.2323 2.54-1.2323 0.50591 0 0.55533 0.14993 0.55533 1.685v1.685l-1.1245 0.15079c-0.80596 0.10808-1.3306 0.38144-1.8521 0.96505-0.72025 0.80603-0.72761 0.85169-0.72761 4.5143v3.7h-3.4396zm8.8499 5.8807c-0.0711-0.18534-0.0971-2.9536-0.0578-6.1516l0.0715-5.8146 3.5719-0.1564v12.46h-1.7282c-1.1555 0-1.7709-0.11166-1.8574-0.33699zm0.54187-14.81c-1.0172-0.87497-1.0293-2.1577-0.0284-3.0186 0.92702-0.79739 1.8704-0.78691 2.6872 0.0298 1.8494 1.8494-0.67911 4.6916-2.6588 2.9888zm-102.22-21.564c-0.81813-0.68888-1.7821-6.5332-3.4151-20.704l-0.19818-1.7198-0.83083 1.4552c-1.7571 3.0776-5.3942 6.6145-9.1149 8.8637-8.0739 4.8809-13.259 3.6903-15.683-3.6008-0.99549-2.9952-1.3169-5.7232-1.3215-11.216-5e-3 -5.9179 0.57334-10.268 2.2265-16.747 2.2619-8.8656 4.8184-15.084 8.409-20.453 2.2127-3.3091 5.2814-6.349 7.378-7.3088 1.9078-0.87342 3.8314-0.76475 5.2207 0.29492 2.417 1.8435 4.2738 7.1773 5.2888 15.192 0.46802 3.6958 0.29963 4.4487-1.1641 5.2057-1.0387 0.53713-1.2454 0.51155-2.0051-0.24808-0.5782-0.5782-0.64954-0.87565-0.65049-2.712-2e-3 -4.8335-1.5119-10.798-3.175-12.547-1.4905-1.5668-2.7884-1.2842-5.2723 1.1482-6.9858 6.8406-13.098 27.262-12.195 40.741 0.28304 4.2205 0.83207 6.5978 1.9555 8.4675 1.1044 1.8379 2.1923 2.4512 4.2473 2.3943 2.6215-0.0727 4.9899-1.4169 8.2351-4.6739 3.0685-3.0797 4.8225-5.5957 6.1207-8.7798l0.91843-2.2527-0.2312-4.0766c-0.12716-2.2421-0.30918-4.1546-0.4045-4.2499-0.4932-0.4932-9.6649 2.468-12.944 4.1791-1.7607 0.91884-2.2133 1.0549-2.8124 0.84551-0.55689-0.1946-0.73304-0.44781-0.80037-1.1505-0.17096-1.7842 0.50544-2.3432 5.378-4.4441 7.7648-3.348 17.267-5.5679 22.719-5.3073 2.0667 0.0988 2.42 0.18807 2.851 0.7203 0.59736 0.73771 0.62699 1.6369 0.0883 2.6787l-0.40367 0.78061-2.5729 6e-3c-2.276 6e-3 -3.0826 0.10197-5.5494 0.66217-0.587 0.13331-0.59532 0.19447-0.59532 4.3788 0 2.9692 0.2021 5.848 0.67299 9.5861 0.72567 5.7607 2.3478 17.727 2.7937 20.61 0.23344 1.5089 0.2071 1.915-0.17663 2.7236-0.40233 0.84785-1.5129 1.7208-2.1892 1.7208-0.13663 0-0.49586-0.20836-0.7983-0.46302zm31.758-10.988c-1.442-0.67795-2.7184-5.1132-3.2085-11.149-0.1521-1.873-0.27654-3.4662-0.27654-3.5404 0-0.0742-0.46995 0.59222-1.0443 1.4809-3.4453 5.3306-10.628 6.1921-14.805 1.7758-2.3015-2.4334-3.0003-5.0812-2.2846-8.656 1.0693-5.341 5.0563-10.544 9.9797-13.024 2.1816-1.0987 4.9926-1.6263 6.7118-1.2596 1.4149 0.30176 1.3439 0.40734 1.5397-2.2906 0.16505-2.2742 0.58739-3.0504 1.8945-3.4818 0.82555-0.27245 1.0225-0.25042 1.4825 0.16592 0.51933 0.46998 0.52669 0.68942 0.34939 10.411-0.18668 10.235 0.0209 15.402 0.82017 20.413 0.61875 3.879 1.0626 5.1771 1.9085 5.5812 0.86705 0.41426 1.0609 1.312 0.47603 2.2046-0.81307 1.2409-2.4614 1.8779-3.5432 1.3693zm-9.9521-13.811c2.5688-1.5053 4.5622-4.6955 5.2808-8.4509 0.70422-3.6806 0.40864-6.4535-0.79896-7.4953-0.54281-0.46828-1.0146-0.59531-2.2109-0.59531-2.0965 0-3.9487 0.95925-6.158 3.1893-2.3804 2.4028-3.6993 5.043-3.8733 7.7536-0.15505 2.4161 0.17998 3.4842 1.4959 4.7692 1.8842 1.8399 4.0506 2.1268 6.2644 0.8295zm21.129 10.253c-0.2516-0.2516-0.70659-0.99574-1.0111-1.6536-0.52952-1.1441-0.55445-1.6284-0.57215-11.118-0.0102-5.457-0.15553-11.47-0.32301-13.361-0.16748-1.8918-0.30798-4.4933-0.31222-5.7811-8e-3 -2.3144 3e-3 -2.352 0.89186-3.2412 0.9782-0.9782 1.9876-1.1683 2.5574-0.48176 0.23619 0.28459 0.41624 1.9086 0.56466 5.0932 0.11984 2.5715 0.36566 6.5152 0.54626 8.7638l0.32837 4.0884 0.48316-2.3246c1.1726-5.6415 3.3903-11.179 5.3362-13.323 0.8334-0.91849 1.2892-1.1967 2.1447-1.3091 0.60137-0.079 1.3392-7e-3 1.6528 0.16043 1.2795 0.68477 2.1573 3.6419 3.6161 12.182 0.98749 5.7811 2.1505 10.84 2.8912 12.577l0.45133 1.0583 0.79572-0.92605c1.3311-1.5491 3.81-7.0004 4.993-10.98 0.60561-2.0373 1.4478-4.8571 1.8715-6.2662 0.91617-3.0467 1.7314-4.1849 2.9975-4.1849 0.98237 0 1.5302 0.4982 2.1322 1.9389 0.58934 1.4105 1.5926 5.8134 2.2411 9.8351 0.67367 4.1778 1.2967 6.8622 2.3701 10.212 0.76392 2.3841 2.0859 4.7368 2.6616 4.7368 0.14087 0 0.435-0.34591 0.65363-0.76868 0.21863-0.42278 0.58738-0.95856 0.81944-1.1906 0.47909-0.47908 2.1134-0.57007 2.3838-0.13271 0.31871 0.51568 0.16186 2.2962-0.27704 3.145-0.60661 1.1731-2.3989 2.8937-3.4882 3.3489-3.4543 1.4433-6.2749-3.9193-8.6996-16.54-0.53715-2.7958-1.0322-5.0278-1.1-4.96-0.0678 0.0679-0.57578 1.4721-1.1287 3.1205-1.7816 5.3112-3.8476 9.2636-6.1454 11.756-1.3808 1.498-2.2494 1.9567-3.7031 1.9554-3.3418-3e-3 -4.6486-3.1015-6.8134-16.156-1.0614-6.4008-1.3722-8.0091-1.5965-8.2627-0.20372-0.23035-1.3144 2.1037-2.1433 4.5039-0.69679 2.0178-2.5315 11.976-3.0356 16.476-0.68392 6.1058-1.7037 8.4667-3.657 8.4667-0.51893 0-1.1191-0.19936-1.3772-0.45744zm78.996-0.6106c-3.6994-0.8788-8.0675-4.139-10.101-7.5393l-0.83257-1.392-1.6278 1.2476c-5.4511 4.178-11.225 6.4793-15.039 5.9942-2.9939-0.38078-4.9808-1.9707-6.1833-4.9478-0.87757-2.1726-1.1365-3.849-1.1348-7.346 3e-3 -6.851 1.8814-13.682 4.6508-16.918 1.2562-1.4676 2.15-1.8979 3.9422-1.8979 2.7148 0 4.7887 1.505 6.1982 4.4979 0.61844 1.3132 0.68531 1.765 0.68531 4.6302 0 2.94-0.0564 3.2971-0.76187 4.8245-1.5026 3.2531-4.5859 5.298-8.3807 5.5581l-2.1022 0.14409v0.80474c0 2.4753 1.6079 5.4381 3.3452 6.164 2.8741 1.2009 7.7527-0.57647 12.99-4.7324 1.7359-1.3775 1.9212-1.6148 1.9212-2.4605 0-1.6338 1.1394-3.0264 2.4761-3.0264 0.57334 0 1.4926 1.049 1.4926 1.7032 0 0.34334 0.53287 1.6887 1.1842 2.9897 0.97059 1.9389 1.579 2.7442 3.3734 4.4656 2.9351 2.8156 4.1684 3.4092 7.0841 3.4092 1.9914 0 2.3946-0.0856 3.5204-0.74736 3.1387-1.8449 2.1594-3.675-4.5569-8.5153-3.8277-2.7585-7.4512-5.8902-8.6814-7.5031-1.0586-1.3879-1.1483-2.9167-0.31606-5.3872 1.4518-4.3097 4.8376-7.3083 8.7743-7.771 2.909-0.3419 5.275 0.92234 6.4505 3.4468 0.89694 1.9262 0.8306 2.9137-0.26968 4.0139-1.3839 1.3839-1.8085 1.2214-3.4332-1.3131-1.2093-1.8865-1.6114-2.1599-3.1088-2.1132-2.1048 0.0656-4.3746 1.8904-5.0165 4.033-0.64965 2.1683 0.0973 3.1103 5.9745 7.5348 7.1799 5.4051 10.19 8.7343 10.186 11.265-5e-3 3.3039-2.7154 5.926-7.0892 6.8589-1.5948 0.34016-4.2374 0.35182-5.6142 0.0248zm-25.643-17.92c1.927-1.0067 2.6293-2.3392 2.6293-4.9889 0-4.6647-2.669-7.557-4.7866-5.187-0.92249 1.0324-2.2104 4.9732-2.6483 8.1033-0.38286 2.7368-0.34396 2.7937 1.9146 2.7998 1.12 3e-3 1.8396-0.17798 2.891-0.72727zm-225.31-16.495c-5.8755-0.84668-11.977-3.9709-15.691-8.0346-1.881-2.0582-2.8256-3.4777-4.0443-6.0786-1.6149-3.4461-2.1798-6.205-2.1696-10.597 0.03518-15.163 8.4524-24.855 22.879-26.345 5.8333-0.60247 10.735 0.64121 15.681 3.9789 5.6669 3.824 9.4956 9.6552 11.038 16.81 0.56758 2.6338 0.41591 8.5397-0.29557 11.509-1.2944 5.4025-3.6639 9.8014-6.8873 12.786-5.2171 4.8302-12.902 7.0674-20.51 5.9711zm216.98-27.089c-1.172-1.2646-2.1518-5.5696-2.7404-12.041l-0.20455-2.249-0.57995 1.0928c-0.83439 1.5723-2.6557 3.2875-4.4609 4.2009-1.4272 0.72218-1.7968 0.79167-4.2104 0.79149-2.3562-1.9e-4 -2.7906-0.0772-3.9688-0.70383-4.5788-2.4353-6.148-7.1308-4.2586-12.743l0.60779-1.8053-1.2173 0.14867c-7.2182 0.88154-10.237 1.2673-11.187 1.4296l-1.1291 0.19276 0.0792 5.4178c0.11182 7.6475 0.43335 8.6808 2.3904 7.6824 1.1956-0.60996 2.41-0.70554 2.8882-0.22733 0.46951 0.46951 0.38524 1.9296-0.14552 2.5212-0.82092 0.9149-3.1409 2.6926-3.8814 2.9741-1.7138 0.65159-3.3443-0.5783-4.1273-3.1131-0.57184-1.8514-1.1737-7.3191-0.967-8.7851 0.0718-0.50932 0.052-2.0117-0.044-3.3387l-0.17459-2.4127-2.3812 0.56321c-1.3097 0.30977-2.6559 0.52311-2.9915 0.47408-0.87613-0.12796-1.2713-1.1357-0.84704-2.16 0.49068-1.1846 1.4441-1.7185 3.9474-2.2106 1.224-0.2406 2.2487-0.46786 2.2771-0.50503 0.0284-0.0372-0.0444-6.1398-0.16185-13.561-0.16065-10.154-0.31469-14.083-0.62245-15.875-0.73867-4.3009-0.46244-7.7832 0.71882-9.062 1.1803-1.2778 2.2933-0.32191 2.9409 2.5258 0.82154 3.6124 1.0002 8.4838 0.80977 22.08-0.10139 7.2397-0.13103 13.163-0.0659 13.163 0.0652 0 2.0744-0.28742 4.465-0.63871 7.1125-1.0452 10.529-1.3625 11.065-1.0277 0.39503 0.2467 0.64105 0.0917 1.575-0.99263 3.268-3.7939 8.0793-6.0746 12-5.6883l1.7988 0.17725v-1.9613c0-1.6004 0.11041-2.1251 0.60011-2.8518 0.76551-1.136 2.1315-1.5967 2.7876-0.94027 0.40947 0.40967 0.44913 1.5761 0.45349 13.338 5e-3 13.349 0.0508 14.091 1.2267 19.827 0.52384 2.5556 0.60399 2.7346 1.4475 3.2322 0.60467 0.35677 0.89294 0.72428 0.89294 1.1384 0 2.047-3.237 3.3982-4.6048 1.9222zm-9.324-13.323c1.5662-0.83427 3.2106-2.6315 4.0316-4.4063 1.9512-4.218 2.1836-10.141 0.45128-11.504-1.077-0.84716-3.2987-0.73432-5.3077 0.26958-3.3899 1.694-6.6722 6.4238-6.8959 9.9371-0.1531 2.4045 0.11239 3.4275 1.2027 4.6343 1.9789 2.1904 3.8403 2.4958 6.518 1.0694zm-104.35 12.246c-0.22624-0.2726-0.45632-2.1864-0.67595-5.6224-0.18314-2.865-0.41508-6.4767-0.51543-8.026l-0.18246-2.8168-1.0142-0.39838c-1.0257-0.4029-2.0934-1.7399-2.0953-2.6238-1e-3 -0.59922 0.79607-1.0015 1.9851-1.0015h0.96255l-0.1573-2.9766c-0.24527-4.6413-0.90072-20.394-1.0957-26.334-0.16165-4.9239-0.13731-5.4085 0.29575-5.887 1.036-1.1448 2.4579-0.45882 2.9168 1.4072l0.18151 0.73803 1.5479-1.4765c0.85136-0.81206 2.2363-1.799 3.0776-2.1932 1.3639-0.63908 1.8307-0.71589 4.3077-0.70882 2.4968 7e-3 2.9662 0.089 4.6352 0.80852 4.4726 1.9282 8.0495 5.296 11.196 10.542 2.1026 3.5055 3.1124 7.2252 2.8323 10.434-0.23035 2.6388-1.2337 5.6789-2.5512 7.73-1.5952 2.4834-5.7619 6.475-8.3082 7.959-3.8972 2.2713-8.8031 3.9832-12.622 4.4044l-1.6646 0.18361v7.276c0 7.1852-8e-3 7.2868-0.61333 8.1359-0.68402 0.959-1.842 1.1707-2.443 0.44664zm7.7666-20.125c8.5847-1.94 15.565-8.666 16.477-15.877 0.21297-1.6834-0.42142-4.995-1.3691-7.1468-1.8961-4.3053-5.5188-8.3352-9.0715-10.091-1.8252-0.90206-2.1732-0.98251-4.2507-0.98251-1.9972 0-2.4093 0.0862-3.5124 0.73463-1.4199 0.83468-2.3605 2.2414-3.1859 4.7649-0.91217 2.7889-0.92075 14.159-0.0202 26.713l0.16607 2.3151h1.4312c0.78713 0 2.2881-0.19366 3.3355-0.43035zm118.27 17.033c-0.50989-0.56219-0.55693-1.1327-0.84533-10.253-0.16797-5.3115-0.47821-12.515-0.68944-16.007-0.21122-3.4925-0.51995-10.602-0.68606-15.799-0.29175-9.1283-0.28479-9.4786 0.20505-10.317 0.27889-0.47752 0.81147-0.97526 1.1835-1.1061 0.87598-0.30806 1.9665-0.0282 2.1953 0.56344 0.099 0.25591 0.28832 4.2158 0.42071 8.7997 0.13238 4.5839 0.36301 10.537 0.51251 13.229 0.34801 6.2669 0.72649 15.64 0.95111 23.555l0.17666 6.2244-0.71796 0.85324c-0.86786 1.0314-1.9141 1.1311-2.7061 0.25793zm-71.202-0.53185c-0.26411-0.31824-2.3687-13.776-3.1131-19.907-0.19436-1.6007-0.43633-4.7177-0.53771-6.9265l-0.18433-4.0161 0.81255-0.81255c1.0105-1.0105 2.2448-1.1062 2.8011-0.21723 0.24618 0.39336 0.43377 1.8519 0.553 4.2995 0.24842 5.0998 1.0638 12.054 1.3339 11.377 2.7264-6.8346 6.0159-10.286 10.49-11.007 1.7811-0.28685 3.5144 0.0405 3.7723 0.7124 0.56714 1.478-0.32135 2.5632-2.5801 3.1516-0.83043 0.2163-1.9624 0.62415-2.5156 0.90634-1.2698 0.64778-3.6542 3.2136-4.5842 4.933-1.5935 2.9459-3.0709 10.492-2.7739 14.169 0.145 1.7951-0.0963 2.5265-1.102 3.3402-0.52921 0.42821-2.0154 0.42653-2.3716-3e-3zm-22.278-5.7261c-1.1527-0.2438-2.3801-0.87705-2.9464-1.5202-2.418-2.746-2.317-7.8197 0.30323-15.24 0.5781-1.6372 1.0521-3.236 1.0534-3.5529 3e-3 -0.79185 1.1338-1.6117 2.5066-1.8176 1.3852-0.20772 4.8858 0.61217 6.9808 1.635 3.0576 1.4928 5.7296 5.0709 6.0411 8.0898 0.44328 4.295-3.6558 10.017-8.4554 11.803-1.6157 0.60129-4.1653 0.88155-5.4834 0.60277zm5.9531-4.9909c1.4045-0.72513 2.8889-2.2992 3.5516-3.7662 0.65648-1.4533 0.71219-3.6781 0.12319-4.9193-0.92825-1.9562-3.9049-3.5761-6.6967-3.6445-1.3429-0.0329-1.4658 0.0178-1.9253 0.7952-0.72162 1.2206-1.2704 4.5242-1.2704 7.6472 0 2.9235 0.25049 3.8621 1.1547 4.3266 0.87188 0.44796 3.8443 0.19026 5.063-0.43895z" fill="#5d5e5f"/></svg>
