<?xml version="1.0" encoding="UTF-8"?>
<!-- Created with Inkscape (http://www.inkscape.org/) -->
<svg width="222.19mm" height="55.205mm" version="1.1" viewBox="0 0 222.19 55.205" xml:space="preserve" xmlns="http://www.w3.org/2000/svg"><path d="m24.746 55.079c0.32912-0.0633 0.80537-0.0609 1.0583 5e-3 0.25296 0.0662-0.01631 0.11801-0.5984 0.11507-0.58208-3e-3 -0.78905-0.0571-0.45994-0.12041zm4.6271 5e-3c0.25466-0.0665 0.67138-0.0665 0.92604 0 0.25466 0.0666 0.0463 0.121-0.46302 0.121-0.50932 0-0.71768-0.0545-0.46302-0.121zm-6.7469-0.25743c0.1819-0.0734 0.47956-0.0734 0.66146 0s0.03307 0.13345-0.33073 0.13345c-0.3638 0-0.51263-0.06-0.33073-0.13345zm9.277-6e-3c0.191-0.0764 0.4192-0.067 0.50712 0.0209 0.08792 0.0879-0.06835 0.15045-0.34727 0.13896-0.30822-0.0127-0.37092-0.0754-0.15985-0.15985zm2.1325-0.81145c-0.32911-0.41964-0.31975-0.429 0.0999-0.0999 0.25466 0.19972 0.46302 0.40808 0.46302 0.46302 0 0.21776-0.21727 0.0776-0.56292-0.36313zm104.74-0.10884c-0.67149-0.24525-0.7276-0.37627-0.7276-1.6989 0-0.78824 0.045-1.4332 0.1-1.4332s0.52741 0.17859 1.0498 0.39687c1.2348 0.51591 3.4256 0.50724 4.4404-0.0176 0.85747-0.44342 1.5535-1.7564 1.5535-2.9305v-0.71608l-0.59531 0.54223c-0.94745 0.86296-1.6649 1.1375-2.9723 1.1375-2.8024 0-4.6315-2.1943-4.6315-5.5562 0-3.6611 2.0176-6.0824 5.07-6.0844 1.2297-8.1e-4 1.6482 0.12283 2.3151 0.68399 0.78338 0.65917 0.81405 0.66415 0.81405 0.13229 0-0.50384 0.15199-0.55269 1.7198-0.55269h1.7198l-1e-3 5.6224c-8.4e-4 3.1779-0.1246 6.0658-0.28467 6.6423-0.42948 1.5467-2.1581 3.2654-3.764 3.7423-1.4992 0.44521-4.6969 0.49461-5.8056 0.0897zm5.5093-7.9763c1.1868-1.0208 1.249-4.074 0.10634-5.2167-0.58883-0.58883-2.0067-0.68646-2.662-0.18329-0.94519 0.72569-1.3883 2.4616-1.0319 4.0427 0.42805 1.8988 2.1851 2.5636 3.5876 1.3573zm-105.38 7.8359c0.25743-0.0671 0.61462-0.0627 0.79375 0.01 0.17913 0.0725-0.03149 0.12736-0.46806 0.12197-0.43656-5e-3 -0.58312-0.0647-0.32569-0.13178zm-28.945-4.7776c-0.32911-0.41965-0.31975-0.429 0.099895-0.0999 0.25466 0.19972 0.46302 0.40808 0.46302 0.46302 0 0.21777-0.21727 0.0776-0.56292-0.36312zm60.561-0.21574c-1.2491-0.67776-1.5247-1.6017-1.5247-5.1122v-3.1714l-0.8599-0.0829c-0.8245-0.0795-0.86322-0.13463-0.94054-1.3397l-0.08064-1.2568h1.8811v-2.5361l1.2568-0.34885c0.69122-0.19187 1.4651-0.40904 1.7198-0.48261 0.4078-0.11781 0.46302 0.075 0.46302 1.6169v1.7506h2.6748l-0.16128 2.5135-1.2568 0.0807-1.2568 0.0806v2.6124c0 3.0519 0.28613 3.5956 1.7658 3.3555l0.88-0.1428v1.1211c0 0.61659-0.14288 1.264-0.3175 1.4386-0.44668 0.44667-3.3644 0.3802-4.2432-0.0967zm15.711-0.25594c-1.4574-1.2263-1.7161-3.4976-0.56513-4.9609 0.68142-0.86629 2.1085-1.4133 4.2991-1.6479 1.476-0.15806 1.7843-0.27394 1.7843-0.67053 0-0.26369-0.19987-0.67931-0.44416-0.9236-0.56288-0.56288-2.9732-0.43893-4.2928 0.22077-0.4953 0.24759-0.94178 0.45017-0.99219 0.45017-0.0504 0-0.09164-0.5907-0.09164-1.3127v-1.3127l1.3709-0.40713c1.9298-0.57309 4.497-0.5296 5.7172 0.0969 1.7765 0.91206 2.0279 1.6883 2.1289 6.5736l0.08891 4.2995h-1.7734c-1.749 0-1.7717-9e-3 -1.647-0.66146 0.06955-0.3638 0.02389-0.66145-0.10145-0.66145-0.12534 0-0.22789 0.10935-0.22789 0.243s-0.40101 0.49084-0.89112 0.79375c-1.3126 0.81122-3.322 0.75624-4.3626-0.11937zm5.0553-2.535c0.60935-0.73393 0.64388-2.4772 0.04451-2.2472-0.23018 0.0883-0.77138 0.1606-1.2027 0.1606-0.7723 0-2.083 0.99135-2.083 1.5755 0 0.15214 0.25053 0.52714 0.55673 0.83334 0.6819 0.6819 1.9801 0.52606 2.6844-0.32225zm68.858 2.705c-2.0264-0.93524-3.0466-2.6976-3.0369-5.2461 0.014-3.6931 2.3874-5.8955 6.3531-5.8955 2.569 0 2.9015 0.21686 2.9015 1.8922 0 1.2808-0.0282 1.3344-0.59532 1.1321-0.32742-0.11682-1.2903-0.22001-2.1398-0.2293-1.3679-0.015-1.6161 0.0664-2.171 0.71176-1.1573 1.3459-1.1758 3.261-0.0442 4.5765 0.78235 0.90954 2.656 1.172 3.9081 0.54734 0.47243-0.23569 0.90643-0.42852 0.96444-0.42852 0.058 0 0.0695 0.62219 0.0255 1.3826-0.0676 1.1686-0.18239 1.4342-0.74143 1.7159-1.0143 0.51104-4.1728 0.41844-5.424-0.15902zm10.724 0.0811c-2.0675-0.89677-3.0181-2.5558-3.0193-5.2696-1e-3 -2.634 0.98149-4.3802 3.0671-5.4497 1.0991-0.56366 3.4259-0.67498 4.6235-0.22121 1.8215 0.69014 2.9787 2.6559 2.988 5.0756l6e-3 1.5214h-3.6794c-3.4941 0-3.6727 0.0255-3.547 0.50645 0.46808 1.79 2.9855 2.3255 5.705 1.2137 0.40409-0.1652 0.46302-0.0227 0.46302 1.1201 0 1.2908-0.0145 1.3137-1.0229 1.6158-1.426 0.42724-4.4814 0.36569-5.5838-0.11249zm4.3676-6.7408c0.29394-0.47561-0.43834-1.834-1.0748-1.9937-1.0776-0.27047-1.8162 9e-3 -2.4272 0.91768-0.32996 0.49082-0.53539 0.99683-0.4565 1.1245 0.20489 0.33151 3.7505 0.2881 3.9585-0.0485zm21.125 6.6545c-1.1386-0.6943-1.4236-1.7366-1.4236-5.206v-2.9865l-0.8599-0.0829c-0.8245-0.0795-0.86321-0.13463-0.94054-1.3397l-0.0806-1.2568h1.8811v-2.5458l1.3891-0.35229c0.76398-0.19376 1.5379-0.4076 1.7198-0.4752 0.24361-0.0905 0.33073 0.33754 0.33073 1.6252v1.7481h2.6748l-0.1612 2.5135-2.5608 0.1632 0.0898 2.7727c0.0998 3.0828 0.26876 3.3905 1.7434 3.1757l0.85989-0.12525v1.278c0 1.4928-0.15624 1.5996-2.3367 1.5982-1.0069-6.7e-4 -1.7709-0.16636-2.325-0.50426zm8.9562 0.17391c-1.1653-0.37359-2.6093-2.029-2.9866-3.424-0.37312-1.3793-0.19211-3.8076 0.36399-4.883 0.59336-1.1474 1.9868-2.4181 3.0288-2.762 0.49944-0.16483 1.6559-0.25208 2.5699-0.19387 2.849 0.1814 4.3064 1.8248 4.5739 5.1577l0.13437 1.674h-7.5164l0.17311 0.59531c0.50609 1.7404 3.1038 2.2474 5.7654 1.1253 0.42995-0.18127 0.47053-0.0699 0.39688 1.0893-0.0771 1.2124-0.13853 1.3104-1.0081 1.607-1.1292 0.38509-4.3128 0.39339-5.4952 0.0143zm4.1723-7.2546c0-0.97419-0.71127-1.6753-1.6946-1.6704-0.95247 5e-3 -1.2168 0.15627-1.8264 1.047-0.80181 1.1717-0.61868 1.3302 1.5367 1.3302 1.9742 0 1.9844-4e-3 1.9844-0.70677zm-132.56 1.7651v-5.5562h3.4396v1.5346l0.91614-0.91615c0.7741-0.7741 1.0715-0.90332 1.9182-0.83344l1.0021 0.0827 0.08031 1.5535 0.08031 1.5534-0.93283-0.175c-1.1544-0.21656-2.3072 0.32627-2.7481 1.294-0.18875 0.41425-0.31609 1.9679-0.31609 3.8563v3.1626h-3.4396zm20.902 0v-5.5562h3.4396v11.112h-3.4396zm6.35 0v-5.5562h3.4396v1.6282l0.8142-0.8142c0.9737-0.9737 1.6892-1.185 3.4421-1.0166 2.6142 0.25119 3.152 1.4986 3.152 7.3109v4.0042h-3.4396v-3.6685c0-3.3107-0.0535-3.7365-0.54837-4.3656-0.31396-0.39913-0.81366-0.69714-1.169-0.69714-1.8735 0-2.2514 0.8861-2.2514 5.2785v3.4527h-3.4396zm13.494 0v-5.5562h3.7042v11.112h-3.7042zm6.35 0v-5.5562h3.7703l-0.34008 1.7004 0.9326-0.9039c0.82011-0.79489 1.1318-0.91647 2.5844-1.0081 1.4101-0.0889 1.7629-0.0165 2.4114 0.49502 1.2863 1.0146 1.4893 1.9125 1.4893 6.5873v4.2418h-3.4396v-3.8365c0-3.4837-0.0487-3.8851-0.52917-4.3656-0.71376-0.71376-1.8863-0.67624-2.5997 0.0832-0.53485 0.56931-0.57529 0.87621-0.57529 4.3656v3.7533h-3.7042zm56.621 0v-5.5562h3.4396v0.85262c0 0.84807 2e-3 0.84948 0.41294 0.26308 0.9278-1.3246 3.528-1.8187 5.152-0.97893 1.4401 0.74468 1.6847 1.6361 1.7962 6.544l0.10062 4.4318h-3.4341l-0.0986-3.812c-0.0849-3.2832-0.16807-3.8888-0.5996-4.3656-0.68385-0.75565-1.871-0.71321-2.68 0.0958-0.62787 0.62787-0.64943 0.77282-0.64943 4.3656v3.7162h-3.4396zm34.131 0v-5.5562h3.7703l-0.15875 0.79375c-0.17663 0.88317 0.22511 1.0975 0.4904 0.26168 0.21255-0.66967 1.444-1.32 2.4995-1.32h0.80689v3.1346l-1.2135-0.0459c-1.0315-0.039-1.3092 0.0654-1.8521 0.69642-0.60398 0.70209-0.63862 0.92813-0.63862 4.1672v3.4248h-3.7042zm-182.51 3.5719c0.0054-0.43656 0.06469-0.58313 0.13177-0.3257 0.06708 0.25744 0.06267 0.61462-0.0098 0.79375-0.07248 0.17914-0.12736-0.0315-0.12197-0.46805zm-7.7906-0.57211c0.1819-0.0734 0.47956-0.0734 0.66146 0 0.1819 0.0734 0.03307 0.13346-0.33073 0.13346-0.3638 0-0.51263-0.0601-0.33073-0.13346zm5.2917 0c0.1819-0.0734 0.47956-0.0734 0.66146 0s0.03307 0.13346-0.33073 0.13346c-0.3638 0-0.51263-0.0601-0.33073-0.13346zm-6.598-0.27009c0.191-0.0764 0.4192-0.067 0.50712 0.0209 0.08792 0.0879-0.06835 0.15045-0.34727 0.13896-0.30822-0.0127-0.37092-0.0754-0.15985-0.15985zm24.413 0.11177c0.06063-0.0379 0.4079-0.30582 0.7717-0.59531l0.66146-0.52635-0.50403 0.59532c-0.27722 0.32742-0.62448 0.59531-0.7717 0.59531s-0.21806-0.031-0.15743-0.069zm-41.595-1.1878c-0.32911-0.41965-0.31975-0.429 0.099895-0.0999 0.25466 0.19972 0.46302 0.40808 0.46302 0.46302 0 0.21777-0.21727 0.0776-0.56292-0.36312zm9.2604-2.9104c-0.32911-0.41964-0.31975-0.429 0.0999-0.0999 0.44073 0.34564 0.58089 0.56291 0.36313 0.56291-0.05494 0-0.2633-0.20836-0.46302-0.46302zm29.898-1.3229c-0.32911-0.41964-0.31975-0.429 0.0999-0.0999 0.25466 0.19972 0.46302 0.40808 0.46302 0.46302 0 0.21776-0.21727 0.0776-0.56292-0.36313zm-19.082 0.0232c0.1819-0.0734 0.47956-0.0734 0.66146 0 0.1819 0.0734 0.03307 0.13346-0.33073 0.13346-0.3638 0-0.51263-0.0601-0.33073-0.13346zm1.9844-7e-3c0.25466-0.0666 0.67138-0.0666 0.92604 0 0.25466 0.0666 0.0463 0.121-0.46302 0.121-0.50932 0-0.71768-0.0545-0.46302-0.121zm-1.1859-2.126c0.47555-0.0589 1.1899-0.0577 1.5875 3e-3 0.39758 0.0604 0.0085 0.10855-0.86464 0.10707-0.87312-1e-3 -1.1984-0.0509-0.72286-0.10977zm-6.8515-2.9171c-0.32911-0.41964-0.31975-0.429 0.0999-0.0999 0.25466 0.19972 0.46302 0.40807 0.46302 0.46302 0 0.21776-0.21727 0.0776-0.56292-0.36313zm78.132-0.41393c-1.1783-1.2543-0.34359-2.8272 1.5004-2.8272 1.2291 0 1.8931 0.62845 1.8931 1.7918 0 1.5718-2.2458 2.2571-3.3935 1.0354zm19.918-0.0371c-0.7308-0.7308-0.77998-0.98942-0.34524-1.8154 0.42164-0.80105 0.73774-0.96607 1.8594-0.97074 0.73885-3e-3 1.1049 0.1637 1.5214 0.69308 0.30161 0.38343 0.54837 0.84362 0.54837 1.0227 0 0.17903-0.24676 0.63922-0.54837 1.0226-0.73651 0.93633-2.1251 0.95815-3.0355 0.0477zm-79.76-2.0963c0-0.0549 0.20836-0.2633 0.46302-0.46302 0.41964-0.32911 0.429-0.31975 0.0999 0.0999-0.34564 0.44073-0.56292 0.58089-0.56292 0.36313zm-38.079-1.1128c0.0127-0.30822 0.07539-0.37092 0.15985-0.15985 0.07643 0.19099 0.06703 0.4192-0.02089 0.50712-0.08792 0.0879-0.15045-0.0683-0.13896-0.34727zm54.525-0.63941c0-0.3638 0.06005-0.51263 0.13345-0.33073 0.0734 0.1819 0.0734 0.47956 0 0.66146s-0.13345 0.0331-0.13345-0.33073zm-20.184-0.19844c-0.32911-0.41964-0.31975-0.429 0.09989-0.0999 0.25466 0.19972 0.46302 0.40808 0.46302 0.46302 0 0.21776-0.21727 0.0776-0.56292-0.36313zm11.432 0.0441c0.0127-0.30822 0.07539-0.37092 0.15985-0.15985 0.07643 0.19099 0.06703 0.4192-0.02089 0.50712-0.08792 0.0879-0.15045-0.0684-0.13896-0.34727zm-37.285-0.90399c0-0.3638 0.060053-0.51263 0.13345-0.33073 0.073399 0.1819 0.073399 0.47956 0 0.66146s-0.13345 0.0331-0.13345-0.33073zm-8.7116-0.52917c0-0.50932 0.05445-0.71768 0.121-0.46302s0.06655 0.67138 0 0.92604-0.121 0.0463-0.121-0.46302zm46.302-0.52917c0-0.50932 0.05445-0.71768 0.121-0.46302 0.06655 0.25467 0.06655 0.67138 0 0.92605-0.06655 0.25466-0.121 0.0463-0.121-0.46303zm-29.145 0.11025c0.0127-0.30823 0.07539-0.37092 0.15985-0.15985 0.07643 0.19099 0.06703 0.41919-0.02089 0.50711-0.08792 0.0879-0.15045-0.0684-0.13896-0.34726zm11.687 0.22941c0.40018-0.0606 1.055-0.0606 1.4552 0 0.40018 0.0606 0.07276 0.11023-0.7276 0.11023-0.80036 0-1.1278-0.0496-0.7276-0.11023zm8.9506-0.494c0.0127-0.30822 0.07539-0.37091 0.15985-0.15985 0.07643 0.191 0.06703 0.4192-0.02089 0.50712-0.08792 0.0879-0.15045-0.0684-0.13896-0.34727zm17.264-1.5654c0.0012-1.0186 0.049-1.4029 0.10627-0.85399 0.05728 0.54895 0.05632 1.3824-0.0021 1.8521-0.05845 0.4697-0.10531 0.0206-0.10414-0.99809zm-14.618 0.7717c0.0127-0.30822 0.07539-0.37091 0.15985-0.15985 0.07643 0.191 0.06703 0.4192-0.02089 0.50712-0.08792 0.0879-0.15045-0.0683-0.13896-0.34727zm-32.015-0.79375c0.012696-0.30822 0.075391-0.37092 0.15985-0.15985 0.07643 0.191 0.067031 0.4192-0.020888 0.50712-0.087919 0.0879-0.15045-0.0684-0.13896-0.34727zm17.379 0.2318c0.32912-0.0633 0.80537-0.0609 1.0583 5e-3 0.25296 0.0662-0.01631 0.118-0.5984 0.11506-0.58208-3e-3 -0.78906-0.0571-0.45994-0.1204zm-8.6264-1.1358c0-0.3638 0.06005-0.51263 0.13345-0.33073 0.0734 0.1819 0.0734 0.47956 0 0.66146s-0.13345 0.0331-0.13345-0.33073zm29.124-0.79375c0-0.50932 0.05445-0.71768 0.121-0.46302s0.06655 0.67138 0 0.92604-0.121 0.0463-0.121-0.46302zm-46.297-0.39687c0.0029-0.58209 0.05712-0.78906 0.1204-0.45994 0.06329 0.32912 0.06088 0.80537-0.0053 1.0583-0.06622 0.25297-0.118-0.0163-0.11507-0.59839zm40.435-0.0221c0.0127-0.30823 0.07539-0.37092 0.15985-0.15986 0.07643 0.191 0.06703 0.4192-0.02089 0.50712-0.08792 0.0879-0.15045-0.0684-0.13896-0.34726zm36.707-0.0264c0.191-0.0764 0.4192-0.067 0.50712 0.0209 0.08792 0.0879-0.06835 0.15045-0.34727 0.13896-0.30822-0.0127-0.37092-0.0754-0.15985-0.15985zm54.757-0.011c0.47554-0.0589 1.1899-0.0577 1.5875 3e-3 0.39757 0.0604 8e-3 0.10855-0.86464 0.10706-0.87312-1e-3 -1.1984-0.0509-0.72286-0.10976zm14.419 2e-3c0.40218-0.0608 0.99749-0.0592 1.3229 4e-3 0.32542 0.0628-4e-3 0.11256-0.73124 0.11057-0.7276-2e-3 -0.99386-0.0534-0.59167-0.11418zm16.533 3e-3c0.32742-0.0631 0.8632-0.0631 1.1906 0s0.0595 0.11466-0.59531 0.11466c-0.65484 0-0.92273-0.0516-0.59531-0.11466zm28.049-4e-4c0.32911-0.0633 0.80536-0.0609 1.0583 5e-3 0.25296 0.0662-0.0163 0.118-0.5984 0.11506-0.58208-3e-3 -0.78905-0.0571-0.45993-0.1204zm23.019 0c0.32911-0.0633 0.80536-0.0609 1.0583 5e-3 0.25296 0.0662-0.0163 0.118-0.5984 0.11506-0.58208-3e-3 -0.78905-0.0571-0.45993-0.1204zm-205.21-0.60664c0-0.3638 0.060053-0.51263 0.13345-0.33073 0.073399 0.1819 0.073399 0.47956 0 0.66146s-0.13345 0.0331-0.13345-0.33073zm80.392 0.26458c-0.23847-0.15411-0.2711-0.2581-0.08176-0.26053 0.17331-2e-3 0.3887 0.11501 0.47864 0.26053 0.20302 0.32849 0.11142 0.32849-0.39688 0zm40.696 0.0838c0.19099-0.0764 0.4192-0.067 0.50712 0.0209 0.0879 0.0879-0.0684 0.15045-0.34727 0.13897-0.30822-0.0127-0.37092-0.0754-0.15985-0.15986zm5.5562 0c0.19099-0.0764 0.4192-0.067 0.50712 0.0209 0.0879 0.0879-0.0684 0.15045-0.34727 0.13897-0.30822-0.0127-0.37092-0.0754-0.15985-0.15986zm8.7312 0c0.19099-0.0764 0.4192-0.067 0.50712 0.0209 0.0879 0.0879-0.0684 0.15045-0.34727 0.13897-0.30822-0.0127-0.37092-0.0754-0.15985-0.15986zm-22.85-9.3443c0-5.166 0.0354-7.2793 0.0788-4.6964 0.0433 2.583 0.0433 6.8097 0 9.3927-0.0433 2.583-0.0788 0.46963-0.0788-4.6964zm79.806 8.8415c0.0127-0.30823 0.0754-0.37092 0.15985-0.15986 0.0764 0.191 0.067 0.4192-0.0209 0.50712-0.0879 0.0879-0.15046-0.0684-0.13897-0.34726zm-73.176-0.10722c-0.0927-0.14998 0.0135-0.19433 0.24897-0.10398 0.45837 0.17589 0.54224 0.36554 0.16165 0.36554-0.13693 0-0.32171-0.1177-0.41062-0.26156zm10.47-0.42195c0.0127-0.30822 0.0754-0.37092 0.15985-0.15985 0.0764 0.19099 0.067 0.4192-0.0209 0.50712-0.0879 0.0879-0.15046-0.0683-0.13897-0.34727zm31.586-10.561c7e-5 -6.1119 0.0348-8.5744 0.0771-5.4723 0.0424 3.1021 0.0423 8.1027-1.2e-4 11.112-0.0424 3.0098-0.0771 0.47167-0.077-5.6402zm26.358 10.561c0.0127-0.30822 0.0754-0.37092 0.15985-0.15985 0.0764 0.19099 0.067 0.4192-0.0209 0.50712-0.0879 0.0879-0.15046-0.0683-0.13897-0.34727zm13.005-0.37483c0-0.50932 0.0545-0.71768 0.121-0.46302s0.0665 0.67138 0 0.92605c-0.0666 0.25466-0.121 0.0463-0.121-0.46303zm0.97692 0.0661-0.64143-0.7276 0.72761 0.64143c0.40018 0.35279 0.7276 0.68021 0.7276 0.7276 0 0.20751-0.21426 0.0386-0.81378-0.64143zm-164.27 0.0441c0.0127-0.30823 0.07539-0.37092 0.15985-0.15986 0.07643 0.191 0.06703 0.4192-0.02089 0.50712-0.08792 0.0879-0.15045-0.0684-0.13896-0.34726zm8.7312 0c0.0127-0.30823 0.07539-0.37092 0.15985-0.15986 0.07643 0.191 0.06703 0.4192-0.02089 0.50712-0.08792 0.0879-0.15045-0.0684-0.13896-0.34726zm71.647-0.30868c-0.3291-0.41965-0.31974-0.42901 0.0999-0.0999 0.44073 0.34565 0.58089 0.56292 0.36313 0.56292-0.0549 0-0.26331-0.20836-0.46303-0.46302zm-126.15-0.48507c0.0127-0.30823 0.07539-0.37092 0.15985-0.15986 0.07643 0.191 0.06703 0.4192-0.02089 0.50712-0.08792 0.0879-0.15045-0.0684-0.13896-0.34726zm166.2-0.63932c0-0.50933 0.0545-0.71768 0.121-0.46302 0.0666 0.25466 0.0666 0.67138 0 0.92604s-0.121 0.0463-0.121-0.46302zm-41.106 0.0661c-0.32911-0.41964-0.31975-0.429 0.0999-0.0999 0.44072 0.34564 0.58088 0.56291 0.36312 0.56291-0.0549 0-0.2633-0.20836-0.46302-0.46302zm75.549-4.1672c2.8e-4 -2.6194 0.0399-3.6552 0.088-2.3017 0.0481 1.3534 0.0479 3.4966-5e-4 4.7625-0.0484 1.266-0.0878 0.1586-0.0875-2.4608zm-146.4 3.9467c0.0127-0.30823 0.07539-0.37092 0.15985-0.15986 0.07643 0.191 0.06703 0.4192-0.02089 0.50712-0.08792 0.0879-0.15045-0.0683-0.13896-0.34726zm31.465 0.0544c0-0.0549 0.20836-0.2633 0.46302-0.46302 0.41964-0.32911 0.429-0.31975 0.0999 0.0999-0.34564 0.44073-0.56292 0.58088-0.56292 0.36312zm59.73-0.6045c0.1819-0.0734 0.47956-0.0734 0.66146 0s0.0331 0.13345-0.33073 0.13345c-0.3638 0-0.51263-0.06-0.33073-0.13345zm-14.006-0.27009c0.191-0.0764 0.4192-0.067 0.50712 0.0209 0.0879 0.0879-0.0683 0.15046-0.34727 0.13897-0.30822-0.0127-0.37092-0.0754-0.15985-0.15985zm3.2958-3e-3c0.25743-0.0671 0.61462-0.0627 0.79375 0.01 0.17913 0.0725-0.0315 0.12736-0.46806 0.12197-0.43656-5e-3 -0.58312-0.0647-0.32569-0.13178zm2.724-0.26825c-0.14359-0.37709-0.1132-0.40748 0.14811-0.14811 0.18082 0.17947 0.26211 0.39297 0.18065 0.47443-0.0815 0.0815-0.2294-0.0654-0.32876-0.32632zm53.792-0.0114c-0.3291-0.41965-0.31974-0.42901 0.0999-0.0999 0.44073 0.34565 0.58089 0.56292 0.36313 0.56292-0.0549 0-0.26331-0.20836-0.46303-0.46302zm-49.179-0.0505c0-0.13694 0.1177-0.32171 0.26156-0.41062 0.14998-0.0927 0.19433 0.0135 0.10398 0.24897-0.17589 0.45837-0.36554 0.54223-0.36554 0.16165zm22.427 0.0618c0.32911-0.0633 0.80536-0.0609 1.0583 5e-3 0.25296 0.0662-0.0163 0.11801-0.5984 0.11507-0.58208-3e-3 -0.78905-0.0571-0.45993-0.12041zm21.302-0.8712c0-0.65484 0.0516-0.92273 0.11466-0.59531 0.0631 0.32742 0.0631 0.8632 0 1.1906s-0.11466 0.0595-0.11466-0.59531zm-32.015-0.26458c0-0.65485 0.0516-0.92274 0.11467-0.59532 0.0631 0.32743 0.0631 0.86321 0 1.1906s-0.11467 0.0595-0.11467-0.59531zm9.4192 0.59531c-0.32911-0.41964-0.31975-0.429 0.0999-0.0999 0.44072 0.34565 0.58088 0.56292 0.36312 0.56292-0.0549 0-0.2633-0.20836-0.46302-0.46302zm-5.4638-3.9535-0.0587-4.2843-2.249-0.20256 1.1328-0.0462c0.71805-0.0293 1.1808 0.0789 1.264 0.29561 0.0721 0.18802 0.0948 2.1823 0.0504 4.4318l-0.0808 4.0899zm16.994-5.1084c0-5.0205 0.0356-7.0743 0.0791-4.5641 0.0435 2.5102 0.0435 6.6179 0 9.1281-0.0435 2.5102-0.0791 0.45641-0.0791-4.5641zm-155.16 8.6318c0-0.0549 0.20836-0.26331 0.46302-0.46303 0.41964-0.3291 0.429-0.31974 0.0999 0.0999-0.34564 0.44073-0.56292 0.58089-0.56292 0.36313zm171.23-0.42928c0-0.3638 0.0601-0.51263 0.13346-0.33073 0.0734 0.18191 0.0734 0.47956 0 0.66146s-0.13346 0.0331-0.13346-0.33073zm-27.984-3.4396c0-1.9645 0.0416-2.7682 0.0926-1.7859 0.0509 0.98227 0.0509 2.5896 0 3.5719-0.0509 0.98226-0.0926 0.17859-0.0926-1.7859zm-142.18 2.8105c0-0.0549 0.20836-0.2633 0.46302-0.46302 0.41964-0.32911 0.429-0.31975 0.0999 0.0999-0.34564 0.44073-0.56292 0.58088-0.56292 0.36312zm16.511-0.76-0.50403-0.59531 0.59531 0.50403c0.55945 0.47366 0.71576 0.68659 0.50403 0.68659-0.05021 0-0.3181-0.26789-0.59531-0.59531zm172.76-1.6536c9.6e-4 -1.1642 0.0475-1.6075 0.10337-0.9852 0.0559 0.62231 0.0551 1.5748-2e-3 2.1167-0.0568 0.54185-0.10258 0.0327-0.10162-1.1315zm6.5657 1.1906c0-0.3638 0.06-0.51263 0.13345-0.33073 0.0734 0.1819 0.0734 0.47956 0 0.66146s-0.13345 0.0331-0.13345-0.33073zm5.3319-1.4552c1e-3 -0.87312 0.0509-1.1984 0.10977-0.72286 0.0589 0.47554 0.0577 1.1899-3e-3 1.5875-0.0604 0.39757-0.10855 8e-3 -0.10707-0.86464zm-78.683 0.19844-0.64143-0.7276 0.7276 0.64143c0.40018 0.35279 0.72761 0.68021 0.72761 0.7276 0 0.20751-0.21426 0.0386-0.81378-0.64143zm9.2604 0-0.64144-0.7276 0.72761 0.64143c0.40018 0.35279 0.7276 0.68021 0.7276 0.7276 0 0.20751-0.21426 0.0386-0.81377-0.64143zm42.026 0.54047c0.32912-0.0633 0.80537-0.0609 1.0583 5e-3 0.25296 0.0662-0.0163 0.11801-0.5984 0.11507-0.58209-3e-3 -0.78906-0.0571-0.45994-0.12041zm-7.0807-0.73891c0.34178-0.3638 0.68094-0.66146 0.7537-0.66146 0.0728 0-0.14734 0.29766-0.48911 0.66146-0.34178 0.3638-0.68094 0.66146-0.7537 0.66146-0.0728 0 0.14734-0.29766 0.48911-0.66146zm-160.27-0.0576c0.40218-0.0608 0.9975-0.0592 1.3229 4e-3 0.32542 0.0628-0.0036 0.11256-0.73124 0.11057-0.7276-2e-3 -0.99386-0.0534-0.59168-0.11419zm123.76-0.73618c-0.3638-0.20797-0.53538-0.38234-0.3813-0.3875 0.15409-5e-3 0.51128 0.16543 0.79375 0.37909 0.65325 0.49409 0.44461 0.49835-0.41245 8e-3zm65.658-0.13229c0-0.3638 0.06-0.51263 0.13345-0.33073 0.0734 0.1819 0.0734 0.47956 0 0.66146s-0.13345 0.0331-0.13345-0.33073zm-204.04 0.16472c0-0.0549 0.20836-0.2633 0.46302-0.46302 0.41964-0.32911 0.429-0.31975 0.0999 0.0999-0.34564 0.44072-0.56292 0.58088-0.56292 0.36312zm54.856-1.8845c0.0012-1.0186 0.049-1.403 0.10627-0.854 0.05728 0.54895 0.05632 1.3824-0.0021 1.8521-0.05845 0.46969-0.10531 0.0206-0.10414-0.99809zm32.135 1.5244c0.76886-0.0536 1.9595-0.053 2.6458 1e-3 0.68635 0.0543 0.0573 0.0982-1.3979 0.0975-1.4552-6.9e-4 -2.0168-0.0451-1.2479-0.0987zm24.155-0.22355c0.0127-0.30823 0.0754-0.37092 0.15985-0.15986 0.0764 0.191 0.067 0.4192-0.0209 0.50712-0.0879 0.0879-0.15045-0.0683-0.13896-0.34726zm-39.931-0.37483c0-0.3638 0.06005-0.51263 0.13345-0.33073 0.0734 0.1819 0.0734 0.47956 0 0.66146s-0.13345 0.0331-0.13345-0.33073zm-43.183-0.7276-0.9118-0.99219 0.99219 0.9118c0.5457 0.50149 0.99219 0.94797 0.99219 0.99218 0 0.20205-0.2239 0.0117-1.0726-0.91179zm88.782 0.8188c2.5369-0.194 5.3653-0.20749 5.2517-0.025-0.0679 0.10914-1.5155 0.17763-3.2168 0.15221-1.7013-0.0254-2.617-0.0827-2.0349-0.12716zm9.6782-0.51012c0.0127-0.30823 0.0754-0.37092 0.15985-0.15986 0.0764 0.191 0.067 0.4192-0.0209 0.50712-0.0879 0.0879-0.15046-0.0684-0.13897-0.34726zm-111.87-0.0352c0.40018-0.0606 1.055-0.0606 1.4552 0 0.40018 0.0606 0.07276 0.11022-0.7276 0.11022s-1.1278-0.0496-0.7276-0.11022zm164.72 9e-3c0.191-0.0764 0.4192-0.067 0.50712 0.0209 0.0879 0.0879-0.0683 0.15046-0.34727 0.13897-0.30822-0.0127-0.37092-0.0754-0.15985-0.15985zm1.6371-0.23158c0.98313-0.2139 2.3321-0.25139 2.2148-0.0615-0.0711 0.1151-0.68786 0.19547-1.3705 0.17859-0.68263-0.0169-1.0626-0.0695-0.84428-0.11704zm28.067-0.27119c0.0127-0.30822 0.0754-0.37092 0.15985-0.15985 0.0764 0.19099 0.067 0.4192-0.0209 0.50712-0.0879 0.0879-0.15046-0.0684-0.13897-0.34727zm-206.53-0.63961c0.26339-0.29104 0.53842-0.52917 0.61118-0.52917 0.07276 0-0.08321 0.23813-0.3466 0.52917-0.26339 0.29104-0.53842 0.52917-0.61118 0.52917-0.07276 0 0.08321-0.23813 0.3466-0.52917zm195.92-0.13229c0.34177-0.3638 0.68094-0.66146 0.7537-0.66146 0.0728 0-0.14734 0.29766-0.48912 0.66146-0.34177 0.3638-0.68094 0.66146-0.7537 0.66146-0.0728 0 0.14735-0.29766 0.48912-0.66146zm-64.273-0.022c0.0127-0.30822 0.0754-0.37092 0.15985-0.15985 0.0764 0.19099 0.067 0.4192-0.0209 0.50712-0.0879 0.0879-0.15045-0.0684-0.13896-0.34727zm-62.95-0.37483c0-0.3638 0.06005-0.51263 0.13345-0.33073 0.0734 0.18191 0.0734 0.47956 0 0.66146s-0.13345 0.0331-0.13345-0.33073zm-45.055-0.19843c-0.32911-0.41965-0.31975-0.42901 0.0999-0.0999 0.25466 0.19972 0.46302 0.40808 0.46302 0.46302 0 0.21776-0.21727 0.0776-0.56292-0.36312zm94.721-0.26459c-0.3291-0.41964-0.31974-0.429 0.0999-0.0999 0.25466 0.19972 0.46302 0.40808 0.46302 0.46302 0 0.21776-0.21727 0.0776-0.56292-0.36313zm30.064 0.0404c1.2178-0.19793 3.2484-0.22408 3.1345-0.0404-0.0677 0.10914-0.91967 0.18223-1.8934 0.16241-0.97368-0.0198-1.5322-0.0747-1.2412-0.12204zm-90.599-0.52544c0.0127-0.30822 0.07539-0.37092 0.15985-0.15985 0.07643 0.191 0.06703 0.4192-0.02089 0.50712-0.08792 0.0879-0.15045-0.0683-0.13896-0.34727zm75.587-0.0328c0.32912-0.0633 0.80537-0.0609 1.0583 5e-3 0.25296 0.0662-0.0163 0.11801-0.5984 0.11507-0.58209-3e-3 -0.78906-0.0571-0.45994-0.12041zm42.997 4e-3c0.25744-0.0671 0.61462-0.0627 0.79375 0.01 0.17914 0.0725-0.0315 0.12737-0.46805 0.12197-0.43656-5e-3 -0.58313-0.0647-0.3257-0.13177zm1.5875 0c0.25744-0.0671 0.61462-0.0627 0.79375 0.01 0.17914 0.0725-0.0315 0.12737-0.46805 0.12197-0.43656-5e-3 -0.58313-0.0647-0.3257-0.13177zm-104.03-0.76503c0.0127-0.30822 0.07539-0.37092 0.15985-0.15985 0.07643 0.191 0.06703 0.4192-0.02089 0.50712-0.08792 0.0879-0.15045-0.0683-0.13896-0.34727zm37.021-0.50712c0.34177-0.3638 0.68094-0.66145 0.7537-0.66145 0.0728 0-0.14734 0.29765-0.48912 0.66145-0.34177 0.36381-0.68094 0.66146-0.7537 0.66146-0.0728 0 0.14735-0.29765 0.48912-0.66146zm83.924-4.6963c0.0516-4.8896 0.15119-4.3186 0.2769 1.588 0.0379 1.7829-0.0203 3.2414-0.12945 3.2411-0.10914-2.8e-4 -0.17549-2.1734-0.14745-4.8291zm-204.04 4.4642c0-0.0549 0.20836-0.2633 0.46302-0.46302 0.41964-0.32911 0.429-0.31975 0.099895 0.0999-0.34564 0.44073-0.56292 0.58089-0.56292 0.36313zm213.49-0.36313c-0.32911-0.41964-0.31975-0.429 0.0999-0.0999 0.44073 0.34564 0.58089 0.56291 0.36313 0.56291-0.0549 0-0.2633-0.20836-0.46302-0.46302zm-172.75-1.8521-1.7121-1.7859 1.7859 1.7122c1.6589 1.5903 1.9069 1.8597 1.7121 1.8597-0.04058 0-0.84426-0.80368-1.7859-1.7859zm-15.388 1.076c0.191-0.0764 0.4192-0.067 0.50712 0.0209 0.08792 0.0879-0.06835 0.15045-0.34726 0.13896-0.30822-0.0127-0.37092-0.0754-0.15985-0.15985zm-6.6311-0.25907c0.1819-0.0734 0.47956-0.0734 0.66146 0s0.03307 0.13345-0.33073 0.13345c-0.3638 0-0.51263-0.06-0.33073-0.13345zm5.0271 0c0.1819-0.0734 0.47956-0.0734 0.66146 0s0.03307 0.13345-0.33073 0.13345c-0.3638 0-0.51263-0.06-0.33073-0.13345zm135-0.0894-1.9844-0.16925 1.9026-0.0477c1.0464-0.0262 1.9762 0.0714 2.0661 0.21691 0.0899 0.14552 0.12673 0.24314 0.0818 0.21692-0.045-0.0262-0.97473-0.12383-2.0661-0.21692zm-7.9517-0.1871 1.048-0.10671 0.20142-3.2781-0.0446 3.4396-1.1264 0.0259-1.1264 0.026zm-26.494-0.25822c0.191-0.0764 0.4192-0.067 0.50712 0.0209 0.0879 0.0879-0.0684 0.15045-0.34726 0.13896-0.30823-0.0127-0.37092-0.0754-0.15986-0.15985zm2.8939 6e-3c0.18191-0.0734 0.47956-0.0734 0.66146 0s0.0331 0.13345-0.33073 0.13345c-0.3638 0-0.51263-0.0601-0.33073-0.13345zm13.775-6e-3c0.191-0.0764 0.4192-0.067 0.50712 0.0209 0.0879 0.0879-0.0684 0.15045-0.34726 0.13896-0.30823-0.0127-0.37092-0.0754-0.15986-0.15985zm3.1585 6e-3c0.1819-0.0734 0.47955-0.0734 0.66146 0 0.1819 0.0734 0.0331 0.13345-0.33073 0.13345-0.36381 0-0.51263-0.0601-0.33073-0.13345zm41.275 0c0.1819-0.0734 0.47955-0.0734 0.66146 0 0.1819 0.0734 0.0331 0.13345-0.33073 0.13345-0.36381 0-0.51263-0.0601-0.33073-0.13345zm3.7207-6e-3c0.191-0.0764 0.4192-0.067 0.50712 0.0209 0.0879 0.0879-0.0684 0.15045-0.34727 0.13896-0.30822-0.0127-0.37092-0.0754-0.15985-0.15985zm18.521 0c0.191-0.0764 0.4192-0.067 0.50712 0.0209 0.0879 0.0879-0.0683 0.15045-0.34726 0.13896-0.30823-0.0127-0.37092-0.0754-0.15986-0.15985zm2.6458 0c0.19099-0.0764 0.4192-0.067 0.50712 0.0209 0.0879 0.0879-0.0684 0.15045-0.34727 0.13896-0.30822-0.0127-0.37092-0.0754-0.15985-0.15985zm-53.398-2.2547c-0.0715-1.2667-0.0354-2.2079 0.0802-2.0916 0.11567 0.11636 0.1742 1.1528 0.13007 2.3031l-0.0802 2.0916zm-153.46 0.74806c0-0.0549 0.20836-0.2633 0.46302-0.46302 0.41964-0.3291 0.429-0.31975 0.099895 0.0999-0.34564 0.44073-0.56292 0.58089-0.56292 0.36312zm60.59-1.0412c0-0.0455 0.38695-0.43249 0.8599-0.8599l0.8599-0.77711-0.7771 0.8599c-0.72437 0.80154-0.94269 0.98151-0.94269 0.77711zm90.438-1.4209c0.191-0.0764 0.4192-0.067 0.50712 0.0209 0.0879 0.0879-0.0683 0.15045-0.34726 0.13896-0.30823-0.0127-0.37092-0.0754-0.15986-0.15985zm-145.28-1.4396c0.17948-0.18082 0.39297-0.26212 0.47443-0.18066 0.08146 0.0815-0.06538 0.22941-0.32632 0.32877-0.37708 0.14359-0.40748 0.11319-0.14811-0.14811zm84.142-0.69223c0.90951-0.0517 2.3978-0.0517 3.3073 0 0.9095 0.0517 0.16536 0.0939-1.6536 0.0939-1.819 0-2.5632-0.0423-1.6536-0.0939zm14.949-2e-3c2.4375-0.0437 6.4261-0.0437 8.8635 0 2.4375 0.0437 0.44317 0.0794-4.4318 0.0794-4.875 0-6.8692-0.0357-4.4318-0.0794zm56.885 4e-3c0.69123-0.0545 1.8223-0.0545 2.5135 0 0.69123 0.0545 0.12568 0.0991-1.2568 0.0991-1.3824 0-1.948-0.0446-1.2568-0.0991zm-93.922-0.25345c0.25743-0.0671 0.61462-0.0627 0.79375 0.01 0.17913 0.0725-0.03149 0.12736-0.46806 0.12197-0.43656-5e-3 -0.58312-0.0647-0.32569-0.13177zm2.2439 8e-3c0.1819-0.0734 0.47956-0.0734 0.66146 0s0.03307 0.13345-0.33073 0.13345c-0.3638 0-0.51263-0.06-0.33073-0.13345zm-46.286-1.3284c0.191-0.0764 0.4192-0.067 0.50712 0.0209 0.08792 0.0879-0.06835 0.15045-0.34727 0.13896-0.30822-0.0127-0.37092-0.0754-0.15985-0.15985zm-10.319-0.26458c0.191-0.0764 0.4192-0.067 0.50712 0.0209 0.08792 0.0879-0.06835 0.15045-0.34727 0.13896-0.30822-0.0127-0.37092-0.0754-0.15985-0.15985zm8.7147 6e-3c0.1819-0.0734 0.47956-0.0734 0.66146 0 0.1819 0.0734 0.03307 0.13345-0.33073 0.13345-0.3638 0-0.51263-0.0601-0.33073-0.13345zm-6.6146-0.27608c0.32742-0.0631 0.8632-0.0631 1.1906 0s0.05953 0.11466-0.59531 0.11466-0.92273-0.0516-0.59531-0.11466zm3.9718-4e-4c0.32912-0.0633 0.80537-0.0609 1.0583 5e-3 0.25296 0.0662-0.01631 0.118-0.5984 0.11506-0.58208-3e-3 -0.78906-0.0571-0.45994-0.1204z" fill="#939fad"/><path d="m36.583 53.201c-2.6588-1.2538-4.0939-3.4617-4.0985-6.3054-0.0063-3.9484 3.3172-6.9893 7.2714-6.6532 6.5367 0.55557 8.5035 9.2474 2.8431 12.565-1.5952 0.93485-4.4698 1.1231-6.016 0.39396zm-11.112-12.512c-9.0423-1.1144-13.615-10.311-9.3943-18.893 2.2191-4.5126 6.681-7.276 11.748-7.276 3.8751 0 6.7279 1.103 9.1609 3.5419 5.3981 5.4112 4.4894 16.037-1.3713 16.037-1.426 0-2.6082-0.78486-3.6799-2.443-0.55254-0.85488-1.0443-1.6735-1.0929-1.8191-0.05696-0.17087-1.1951-0.1986-3.209-0.0782l-3.1208 0.18658-1.8168 3.6077-0.99309-0.56857c-0.5462-0.31272-1.0328-0.59668-1.0813-0.63103-0.04851-0.0343 1.4398-2.8732 3.3073-6.3086 2.1773-4.0052 3.5268-6.2201 3.7614-6.1736 0.20126 0.0399 1.7007 2.451 3.332 5.358s3.2764 5.6241 3.6558 6.0381c0.87161 0.95129 1.8919 0.88843 2.6743-0.16477 0.4867-0.65513 0.55533-1.1147 0.55533-3.7182 0-2.9009-0.02338-3.018-0.99462-4.9828-1.9391-3.9229-4.9788-5.8551-9.2296-5.867-2.1132-6e-3 -2.4382 0.0684-4.2822 0.97979-8.1786 4.0421-8.3693 16.534-0.31026 20.322 3.1771 1.4935 7.023 1.2207 10.766-0.76381 0.19726-0.10458 1.0077 1.3207 1.0077 1.7722 0 0.60107-3.7284 1.7349-6.35 1.931-0.80036 0.0599-2.1696 0.0208-3.0427-0.0868zm3.5087-12.938 0.86285-2e-3 -1.0642-2.1167c-0.58533-1.1642-1.1211-2.1167-1.1906-2.1167-0.141 0-2.249 4.121-2.249 4.3966 0 0.0963 0.62508 0.0999 1.3891 8e-3 0.76398-0.0918 1.7773-0.16788 2.2519-0.16915zm57.742 0.88033c-0.65484-0.21918-2.7384-0.97787-4.6302-1.686s-4.273-1.4184-5.2917-1.5784c-4.5752-0.71881-7.8582-3.6751-8.8477-7.9673-0.38111-1.6531-0.33668-5.689 0.07976-7.2457 1.505-5.6258 6.5629-8.8878 12.481-8.0496 5.4169 0.76713 8.8372 5.2112 8.8504 11.5 0.0086 4.0786-1.9536 8.2008-4.5403 9.5384-0.41112 0.2126-0.74749 0.47832-0.74749 0.5905s1.0752 0.43178 2.3894 0.71021c1.3142 0.27844 2.5202 0.58713 2.6802 0.68597 0.19894 0.12296 0.06371 0.77402-0.42812 2.0611-0.39541 1.0348-0.73828 1.872-0.76194 1.8605-0.02366-0.0115-0.5788-0.20022-1.2336-0.4194zm-5.4749-8.1019c1.2349-0.94191 1.9329-2.1283 2.459-4.1795 0.80009-3.1194 0.06254-6.9491-1.6947-8.7994-1.0523-1.1081-1.9757-1.4979-3.5446-1.4964-3.3504 3e-3 -5.5032 2.9853-5.5032 7.6229 0 4.975 2.2303 7.888 5.8611 7.6552 1.1154-0.0715 1.731-0.27556 2.4223-0.80282zm9.5337 4.1913c0.12828-0.33429 6.3726-20.696 6.7187-21.909 0.11707-0.41017 0.52121-0.46302 3.5409-0.46302 1.8748 0 3.4087 0.0602 3.4087 0.13385 0 0.0736 1.5478 5.1285 3.4396 11.233 1.8918 6.1046 3.4396 11.168 3.4396 11.252 0 0.0842-1.217 0.11925-2.7045 0.0778l-2.7046-0.0754-1.6667-5.5562-6.6555-0.1479-0.52437 1.7937c-0.2884 0.98656-0.65627 2.2998-0.81748 2.9182l-0.29311 1.1245h-2.6639c-2.2134 0-2.6391-0.0646-2.5173-0.38208zm12.61-9.3459c0-0.11166-0.39997-1.5702-0.88882-3.2412-0.48884-1.671-1.0365-3.6632-1.217-4.4272-0.18051-0.76399-0.42187-1.3891-0.53635-1.3891s-0.28428 0.50768-0.37733 1.1282c-0.0931 0.62048-0.58282 2.6071-1.0884 4.4147-0.50556 1.8076-0.9192 3.3835-0.9192 3.502 0 0.11852 1.1311 0.21548 2.5135 0.21548s2.5135-0.0914 2.5135-0.20302z" fill="#ea5b1e"/><path d="m24.346 54.991c-4.2861-0.53524-8.1117-1.9237-11.704-4.248-8.6582-5.6017-13.476-15.575-12.44-25.753 0.66885-6.5754 3.3384-12.245 7.926-16.832 6.9418-6.9418 16.823-9.5869 26.561-7.1097 7.9094 2.0122 15.145 8.4043 18.299 16.166 1.4942 3.6771 2.0621 7.0992 1.9023 11.463-0.14816 4.0446-0.65387 6.4296-2.1007 9.9076-0.82909 1.993-3.4039 6.0961-4.3794 6.9789-0.51987 0.47048-0.53474 0.46227-0.72076-0.39784-0.46867-2.167-2.3283-4.7279-4.0977-5.6429-0.43426-0.22457-0.78956-0.45881-0.78956-0.52053 0-0.0617 0.35374-0.63638 0.78609-1.277 1.0879-1.612 2.2904-4.7252 2.6707-6.9148 0.40682-2.3417 0.17038-6.3794-0.49855-8.5142-2.0636-6.5855-7.2804-11.555-13.823-13.167-2.4454-0.60269-6.5222-0.56102-9.0786 0.0928-6.55 1.6752-11.839 6.9399-13.667 13.605-2.0745 7.5614 1.266 16.282 7.8957 20.613 3.476 2.2706 6.2748 3.0968 10.491 3.0971l2.921 2.1e-4 0.0793 1.2566c0.10936 1.7329 1.1719 3.9324 2.6048 5.3922l1.2027 1.2252-1.6788 0.28692c-2.5346 0.43318-6.2121 0.5627-8.3603 0.29444zm104.79-30.095c-2.7093-0.97158-4.1818-2.4787-4.9503-5.0664-1.3001-4.378 0.63358-9.2072 4.3361-10.829 2.5832-1.1314 5.4854-0.95106 7.7439 0.48125 0.92587 0.58718 1.3903 1.154 2.06 2.5143 0.76574 1.5554 0.86728 2.0194 0.88817 4.0587l0.0236 2.3024-10.748 0.1434 0.17809 0.58978c0.2709 0.89714 1.4224 1.9976 2.4426 2.3343 0.91765 0.30285 4.9255 0.20058 6.0401-0.15413 0.65206-0.2075 0.79919 0.0633 1.0462 1.9255l0.16892 1.2734-1.0193 0.33491c-0.5606 0.1842-2.329 0.39068-3.9297 0.45883-2.3891 0.10173-3.1558 0.0359-4.2806-0.36744zm5.563-10.045c0.22533-0.36459-0.59289-2.3077-1.1696-2.7774-0.81678-0.66533-2.6345-0.6087-3.5489 0.11057-0.66816 0.52557-1.4588 1.9309-1.4588 2.5929 0 0.31711 5.9827 0.38873 6.1773 0.0739zm8.8036 10.116c-0.71006-0.195-1.4025-0.46607-1.5389-0.60238-0.21007-0.21008 0.32444-3.0608 0.63147-3.3679 0.0481-0.0481 0.74095 0.13821 1.5398 0.41393 2.7029 0.93293 5.0243 0.50212 5.0243-0.93243 0-0.61499-1.0864-1.7238-1.6893-1.7242-0.16227-1.1e-4 -1.0105-0.33868-1.885-0.75237-2.8169-1.3326-4.0055-3.3634-3.3159-5.6651 0.47204-1.5755 1.2759-2.512 2.7784-3.2368 1.7363-0.83766 3.5697-1.0523 5.6923-0.66632 2.6587 0.48341 2.6494 0.4731 2.1512 2.3851-0.36713 1.4091-0.4879 1.5941-0.95166 1.4572-2.1307-0.62884-3.2683-0.74634-4.0582-0.41916-1.8224 0.75488-1.1278 2.1987 1.5228 3.1651 3.1867 1.162 4.5177 2.6264 4.5177 4.9709 0 2.6177-1.2294 4.2081-3.8666 5.0018-1.5335 0.46153-4.8225 0.44784-6.5526-0.0273zm17.106-0.15197c-2.0684-1.0238-2.3018-1.7389-2.4539-7.516l-0.13229-5.0271-2.249-0.1628v-3.3787l2.249-0.1628v-3.5559l2.3351-0.53714c1.2843-0.29542 2.3856-0.53714 2.4474-0.53714 0.0618 0 0.1123 1.0716 0.1123 2.3812v2.3812h3.7042v3.4154l-3.5719 0.1564v4.0588c0 3.9829 0.0121 4.0685 0.64517 4.5807 0.44666 0.36135 0.96064 0.49916 1.6705 0.44791l1.0254-0.074 0.11458 1.7841c0.11027 1.717 0.0891 1.7938-0.56326 2.0418-1.2344 0.46931-4.1094 0.30969-5.3333-0.29611zm28.339 0.0619c-2.1264-0.99338-3.1375-3.299-2.6309-5.9992 0.44177-2.3548 3.4602-4.2656 7.1592-4.532 2.5622-0.18451 2.548-0.17717 2.211-1.1438-0.5571-1.5981-2.9892-2.0449-5.7826-1.0623-0.80036 0.28154-1.5304 0.51578-1.6222 0.52053-0.0919 5e-3 -0.29808-0.51182-0.45825-1.1479-0.16018-0.6361-0.36314-1.3439-0.45103-1.573-0.12596-0.32825 0.24877-0.54051 1.77-1.0026 2.3045-0.69997 5.5768-0.81006 7.4997-0.25232 1.7314 0.50219 3.369 2.116 3.7835 3.7286 0.1671 0.65005 0.34766 3.7715 0.40123 6.9366l0.0974 5.7547h-2.2028c-2.1314 0-2.2028-0.02-2.2028-0.61736 0-0.96784-0.21354-0.98001-1.6397-0.0934-1.7218 1.0704-4.2366 1.2753-5.9316 0.48343zm6.1426-3.8472c0.80887-0.80887 0.89958-1.049 0.89958-2.3812 0-1.4129-0.0314-1.4817-0.67659-1.4817-2.5 0-4.5431 1.4572-4.2408 3.0247 0.36656 1.9009 2.5083 2.3477 4.0179 0.8382zm16.907 3.8391c-0.58208-0.26865-1.347-0.80181-1.6998-1.1848-0.87276-0.9475-1.0784-0.87849-1.0784 0.36197v1.0583h-4.2387l0.0688-11.972 0.0688-11.972 4.8948-0.1522v4.7724c0 2.6248 0.0904 4.7724 0.20094 4.7724 0.11051 0 0.3479-0.23533 0.52752-0.52296 0.17963-0.28762 0.77661-0.75253 1.3266-1.0331 3.4156-1.7425 7.5054-0.29766 9.0919 3.2119 0.5428 1.2007 0.62694 1.7952 0.62694 4.4296 0 2.7997-0.0594 3.1637-0.74373 4.5572-1.2993 2.646-3.7463 4.1808-6.6456 4.1682-0.73806-3e-3 -1.8182-0.22561-2.4003-0.49426zm3.0288-3.8583c1.5929-0.82372 2.4125-4.4049 1.5051-6.5765-1.2215-2.9235-4.9766-3.0906-6.1534-0.27395-0.46977 1.1243-0.46977 4.0955 0 5.2198 0.76469 1.8302 2.8487 2.5613 4.6483 1.6306zm-98.94-5.1666v-9.2604h-6.0854v-4.2333h17.463v4.2333h-6.35v18.521h-5.0271zm53.843-2.1166v-11.377l5.0271-2.1e-4v18.389l9.1281 0.1448v4.2208l-14.155 8e-5z" fill="#2c4166"/></svg>
