<?xml version="1.0" encoding="UTF-8"?>
<!-- Created with Inkscape (http://www.inkscape.org/) -->
<svg width="228.21mm" height="163.52mm" version="1.1" viewBox="0 0 228.21 163.52" xmlns="http://www.w3.org/2000/svg">
 <g transform="translate(3.7771 -103.72)">
  <path d="m88.757 266.94c0.60002-2.0851 3.6702-5.4106 5.8856-6.375 0.61211-0.26645 2.3411-0.73245 3.8422-1.0356 1.5011-0.30311 3.3851-0.68262 4.1866-0.84335 1.9232-0.38565 5.0377-1.9236 6.1401-3.032 0.48499-0.48764 1.001-0.88708 1.1468-0.88766 0.14574-5.8e-4 0.6227 0.3694 1.0599 0.82219 1.4563 1.5082 4.6146 2.7787 9.1154 3.6669 2.2445 0.44295 4.5726 1.0229 5.1736 1.2887 2.1699 0.95987 5.2599 4.3367 5.8524 6.3957 0.14532 0.50499-1e-3 0.40163-0.61563-0.43479-0.50021-0.68074-1.3417-1.3589-2.2167-1.7864-1.484-0.72513-5.5711-1.738-7.0524-1.7478-1.7351-0.0114-4.9971-0.83973-6.8539-1.7404-1.3085-0.63473-2.3099-1.3722-3.2292-2.378l-1.3325-1.458-0.43997 0.73172c-0.51859 0.86246-2.4631 2.4215-3.9816 3.1923-1.4786 0.75058-3.7607 1.3092-6.715 1.6438-5.1246 0.58036-7.9595 1.6494-9.3333 3.5196-0.61938 0.84318-0.7759 0.95652-0.63244 0.458zm-51.842-10.696c-2.5958-0.71195-5.9963-3.3309-7.0992-5.4676-0.78593-1.5226-1.6265-5.2629-1.7876-7.9541-0.14803-2.4735 0.24747-7.4319 0.69712-8.7399 0.12526-0.36436 0.4329-1.3779 0.68365-2.2524 0.9996-3.4859 3.6944-7.1116 6.7529-9.0853 3.3629-2.1703 7.5764-2.8573 10.255-1.6721 2.2932 1.0146 5.2865 4.6723 5.0631 6.1868-0.08177 0.55421-0.87128 1.1428-2.5654 1.9124-1.2228 0.55552-1.2387 0.54982-1.9351-0.69679-0.87796-1.5715-1.7152-2.0949-3.6291-2.2684-1.2484-0.1132-1.8868-0.0357-2.6903 0.32668-0.57946 0.2613-1.0536 0.5649-1.0536 0.67466s-0.50677 0.49811-1.1262 0.863c-3.2592 1.9201-5.3378 6.32-5.8284 12.338-0.44314 5.4356 0.40015 8.2587 2.95 9.8758 3.2105 2.0361 6.1768 1.6655 8.7741-1.0962 0.80156-0.85227 1.6557-1.9083 1.898-2.3468 0.33048-0.59797 0.57666-0.76166 0.98489-0.6549 0.29935 0.0783 0.60681 0.33937 0.68324 0.58019 0.07643 0.24081 0.7362 0.82884 1.4662 1.3067 0.95683 0.62641 1.3272 1.0391 1.3272 1.4788 0 1.0335-3.1419 3.8729-6.0945 5.5077-2.211 1.2242-5.6552 1.752-7.7261 1.184zm53.923-7.5953c-1.8155-0.25682-3.0581-1.2405-4.0341-3.1937-0.90905-1.8192-1.0056-2.6986-1.2334-11.24-0.27034-10.132-0.21293-14.751 0.18652-15.004 0.29254-0.18545 1.1472-0.23672 3.8645-0.23186 0.1093 2e-4 0.2026 5.2767 0.20734 11.726 0.0077 10.537 0.05442 11.811 0.4608 12.568 0.53202 0.99111 1.1807 1.2601 2.1501 0.89148 0.83652-0.31806 1.2021-1.1495 1.0256-2.3325-0.07086-0.475-0.0028-1.0155 0.15126-1.2011 0.43138-0.51979 3.0914-0.54886 3.6009-0.0393 0.90457 0.90459 0.20321 4.8268-1.2033 6.7293-0.82811 1.1201-2.8974 1.6515-5.1762 1.3291zm71.488-0.0828c-0.16232-0.19558-0.21667-0.43407-0.12077-0.52997s0.0573-0.17435-0.0858-0.17435c-0.14307 0-0.53131-0.80489-0.86274-1.7886-0.33143-0.98375-0.70777-2.0271-0.83631-2.3186-0.48898-1.1088-1.6573-4.3276-2.3564-6.4921-0.40013-1.2388-1.0398-2.8671-1.4215-3.6184-0.83644-1.6463-0.79051-1.6813 2.2041-1.6813 2.6655 0 2.9148 0.10462 2.9148 1.2236 0 1.5516 1.6621 8.3238 2.3266 9.4795 0.0747 0.12989 0.34959-0.58557 0.61091-1.5899 0.82361-3.1655 1.8082-7.3548 1.9549-8.3182l0.14125-0.92745 2.571 0.0252c3.0851 0.0302 3.4314 0.28547 2.5537 1.8825-0.30446 0.55396-0.76295 1.663-1.0189 2.4646-0.25591 0.80158-0.54849 1.5767-0.65018 1.7224-0.35491 0.50867-2.375 6.3708-2.6701 7.7484-0.16363 0.76383-0.40709 1.4565-0.54103 1.5393-0.13394 0.0828-0.24353 0.38492-0.24353 0.6714 0 0.31532-0.26824 0.62288-0.67969 0.77932-1.0108 0.38433-3.4423 0.32199-3.7902-0.0972zm-86.714-0.17554c-1.8855-0.22801-3.2377-1.2778-4.1699-3.2373-0.9058-1.9039-1.0119-2.8086-1.2359-10.541-0.27991-9.6618-0.21381-15.416 0.17995-15.665 0.19568-0.12403 1.0414-0.24521 1.8794-0.26931s1.6727-0.0557 1.8548-0.0703c0.26032-0.0208 0.33266 2.4977 0.33794 11.765 6e-3 10.623 0.05173 11.875 0.4608 12.634 0.5295 0.98232 1.1823 1.2602 2.1215 0.90307 0.92075-0.35007 1.0711-0.67686 1.0977-2.3853l0.02297-1.4779 1.6332-0.0713c2.0466-0.0893 2.4739 0.26198 2.4739 2.0339 0 2.216-1.4985 5.6204-2.6314 5.9782-1.1257 0.35562-2.9256 0.53571-4.0251 0.40275zm74.234-0.27626c-1.5744-0.67014-2.3075-1.519-2.8936-3.3504-0.51609-1.6127-0.56941-2.2829-0.50199-6.3091l0.0754-4.5047 1.6662-0.22322c0.91642-0.12277 1.8405-0.15632 2.0536-0.0746 0.31667 0.12152 0.38737 0.89445 0.38737 4.2349 0 5.1037 0.11794 5.3374 2.6942 5.3374h1.6779l0.0331 1.9678c0.0435 2.5876-0.24663 2.9168-2.7142 3.08-1.0029 0.0663-2.118-5e-3 -2.478-0.15802zm-26.594-0.49476c-1.7734-0.90418-2.772-1.8451-3.4666-3.2666-2.0851-4.2672-0.35194-9.7321 3.7502-11.825 1.7556-0.89565 5.0202-1.2289 6.7282-0.68683 0.53681 0.17038 0.74835 0.87832 0.47306 1.5832-0.11293 0.28915-0.21371 1.1358-0.22396 1.8815l-0.0186 1.3558-1.8174-0.13003c-4.3469-0.31103-6.5268 2.0221-4.8379 5.1779 0.83729 1.5645 2.2877 2.0548 4.4287 1.4972 2.6017-0.67769 2.8058-0.53058 2.9289 2.1116 0.0516 1.1076 4e-3 1.9923-0.10549 1.9658-0.10962-0.0265-0.84696 0.15232-1.6385 0.39728-1.9923 0.61655-4.9273 0.58727-6.2005-0.0618zm13.921-0.0567c-1.2819-0.63453-2.3328-1.8641-2.722-3.1849-0.21236-0.72064-0.31396-11.435-0.15142-15.968l0.0371-1.0356-1.295-0.11095c-2.3921-0.20495-2.5472-0.34568-2.5472-2.311 0-1.8417 0.0642-1.9152 1.7224-1.9696 0.29148-0.01 0.99056-0.0943 1.5535-0.18837l1.0236-0.17097-0.13779-2.3103c-0.0758-1.2707-0.0594-2.4321 0.0363-2.581 0.23017-0.35789 3.7792 0.0679 4.0365 0.48429 0.10425 0.16868 0.12551 1.241 0.0472 2.3829l-0.1423 2.0762 1.7989-0.16799c2.2364-0.20884 2.5156 0.0658 2.5156 2.4746 0 2.0012-0.22496 2.1874-2.6296 2.1759-0.91044-4e-3 -1.6986 0.0354-1.7516 0.0883-0.0529 0.0529-0.17512 3.3883-0.27155 7.4119-0.17501 7.3019-0.17424 7.3168 0.40923 7.9002 0.59474 0.59476 1.2981 0.6228 3.2376 0.12908 0.8073-0.20551 0.85079-0.10782 1.1396 2.5596l0.16159 1.4924-1.3921 0.69372c-1.6996 0.84695-3.1487 0.88715-4.6788 0.12978zm43.535 0.15663c-2.5178-0.36215-3.5099-0.82805-4.6224-2.1708-1.2393-1.4958-1.6949-3.3852-1.5468-6.4142 0.16315-3.3358 0.67023-4.3042 3.6648-6.9987 1.4488-1.3037 3.9276-1.5977 6.1984-0.73528 1.5831 0.60126 2.6908 1.6406 3.6455 3.4205l0.71516 1.3333-0.69093 0.75281c-0.38001 0.41404-1.6558 1.3723-2.835 2.1294-2.5643 1.6464-5.0438 3.4261-5.442 3.9059-0.36728 0.44256 0.54355 1.0783 2.1587 1.5068 1.3656 0.36227 3.9797-0.19754 5.2263-1.1192 0.90203-0.66692 1.3379-0.49707 1.2816 0.49937-0.0224 0.39605 0.0504 1.1011 0.1617 1.5668 0.18921 0.79151 0.13647 0.87984-0.80913 1.3552-0.92115 0.46306-2.6038 0.92031-4.3238 1.1749-0.36434 0.0539-1.6164-0.0391-2.7823-0.20684zm1.0833-9.6662c1.736-1.1682 3.1885-2.2184 3.2277-2.3339 0.0392-0.11548-0.23834-0.5009-0.61684-0.85649-1.6324-1.5336-5.4513-0.0174-6.3199 2.5092-0.37558 1.0925-0.23694 2.8051 0.22708 2.8051 0.17908 0 1.746-0.95577 3.482-2.1239zm-73.29 9.5091c-2.4679-0.30265-3.8272-0.90148-4.9052-2.161-1.1785-1.3768-1.7192-3.1754-1.7192-5.7186 0-3.1071 0.57667-4.7298 2.3129-6.5081 1.8557-1.9007 3.0841-2.537 4.8972-2.5367 2.8092 4.3e-4 4.9559 1.3167 6.367 3.9039l0.72571 1.3306-0.72571 0.79327c-0.39914 0.4363-2.097 1.6953-3.7729 2.7978-1.676 1.1025-3.4542 2.3482-3.9516 2.7682l-0.90436 0.7637 0.90436 0.55602c0.4974 0.30581 1.3291 0.63472 1.8482 0.73091 1.149 0.2129 4.0265-0.48421 5.0721-1.2288 0.88015-0.62673 1.2603-0.46677 1.2141 0.51084-0.0187 0.39604 0.0555 1.0345 0.16501 1.4187 0.27794 0.97548-0.51471 1.6422-2.5702 2.1619-2.3654 0.59806-3.0287 0.6539-4.9574 0.41737zm0.15427-9.4388c1.4682-0.98375 2.9552-1.9976 3.3046-2.2529l0.63521-0.46424-0.72834-0.72819c-0.62565-0.62552-0.91838-0.72013-2.0764-0.67102-1.6021 0.0679-3.3908 1.2055-4.1623 2.647-0.42455 0.7933-0.40527 3.258 0.0255 3.258 0.18277 0 1.5335-0.80489 3.0017-1.7886zm-50.5 9.0493c-1.687-0.61264-2.5454-1.291-3.3318-2.633-2.0053-3.4219-0.99145-9.0758 2.0685-11.535 1.0742-0.86332 1.2324-0.90754 3.2498-0.90866 1.992-1e-3 2.1968 0.0537 3.3764 0.90285 3.8686 2.7851 4.1848 11.093 0.5189 13.634-1.3592 0.94197-4.0854 1.1922-5.8818 0.5398zm3.8958-4.1328c0.78789-0.76367 0.87379-0.99597 0.87379-2.3629 0-1.6357-0.66073-3.5215-1.4893-4.2505-1.1528-1.0143-2.9532 0.0218-3.6643 2.1089-0.81246 2.3845-0.42538 4.3456 0.97816 4.9556 1.4197 0.61703 2.3276 0.493 3.3016-0.45103zm84.891-11.652c-1.0585-0.39159-1.4484-2.7549-0.64391-3.9035 0.38835-0.55446 0.57772-0.60449 1.7587-0.46462 1.8314 0.21691 2.3107 0.72005 2.3107 2.4255 0 0.9746-0.1351 1.4965-0.46371 1.7914-0.48329 0.43371-1.9902 0.51065-2.9618 0.15122zm11.801-22.162c-0.85402-0.20582-0.88816-0.25325-1.9922-2.7684-0.43183-0.98375-0.94168-1.788-1.133-1.7873-0.19131 7.2e-4 -0.73468 0.82025-1.2075 1.8212-0.4728 1.0009-1.0094 1.9383-1.1924 2.083-0.60057 0.475-4.2238 0.58922-5.2327 0.16497-2.4676-1.0376-2.4672-1.6454 5e-3 -6.8528 0.41516-0.87444 0.99367-2.2025 1.2856-2.9512l0.53074-1.3613-1.3102-0.8145c-1.7381-1.0805-2.0594-1.7957-1.4069-3.1316 0.64042-1.3113 1.8898-1.9424 3.8468-1.9429l1.4958-4.1e-4 0.10182-1.0678c0.0836-0.87702-4e-3 -1.137-0.48974-1.4554-0.34312-0.22482-0.66683-0.78884-0.77078-1.343-0.27168-1.4482 0.51189-2.0639 3.6687-2.8826 2.9623-0.76823 3.6078-0.81424 4.302-0.30661 0.43923 0.32118 0.65669 0.26636 1.8392-0.46372 1.1961-0.73846 1.5529-0.82611 3.3-0.81074 1.8042 0.0159 2.009 0.0755 2.5938 0.75543 0.43738 0.5085 0.55402 0.8357 0.37485 1.0516-0.16198 0.19519-0.16739 0.45998-0.0143 0.70199 0.35584 0.56264 0.30995 0.78607-0.16144 0.78607-0.40008 0-0.38702 0.2723 0.0718 1.4955 0.0625 0.16669-0.24407 0.48154-0.6813 0.69967-0.66211 0.33031-0.87791 0.33851-1.2912 0.049-0.2729-0.19115-0.72285-0.32714-0.9999-0.30219-0.31327 0.0282-0.63885-0.23051-0.8611-0.68425-0.33516-0.68425-1.5348-1.5228-2.1786-1.5228-0.20209 0-0.206 0.15221-0.0132 0.51255 0.33565 0.62717 0.35527 1.7522 0.041 2.3534-0.12829 0.24547-0.17378 0.83786-0.1011 1.3164l0.13215 0.87013 1.3597-0.12502c1.5378-0.14139 2.221 0.13921 3.1155 1.2796 0.80723 1.0292 0.77457 2.9462-0.0609 3.5715-0.31096 0.23277-0.78337 0.62555-1.0498 0.87285-0.26642 0.24729-0.84846 0.63789-1.2934 0.868-0.92988 0.48087-0.94628 0.56891-0.41447 2.2241 1.9206 5.9774 2.0488 6.487 1.9201 7.629-0.073 0.64748-0.18233 1.2269-0.243 1.2876-0.21268 0.21268-5.1268 0.3636-5.8855 0.18075zm-6.9665-1.1918c0.62543-0.0475 0.8963-0.33513 1.6738-1.7772 1.2806-2.3751 1.6467-2.718 2.4649-2.3085 0.64329 0.32202 2.1042 2.8465 2.1257 3.6732 0.0163 0.62653 0.56107 0.75706 3.1597 0.75706 2.4758 0 2.9461-0.20273 2.9461-1.2699 0-0.68745-1.6474-6.2677-2.268-7.6823-0.60908-1.3884-0.49108-1.7824 0.69394-2.3167 1.442-0.65028 2.9012-2.1812 2.8906-3.0325-0.019-1.5136-1.4525-2.1735-3.3038-1.5207-1.4566 0.51358-1.7224 0.35393-1.7224-1.0348 0-1.25-0.0333-1.2814-1.6423-1.5483-0.54062-0.0897-1.4596-0.56337-2.05-1.0567-0.72042-0.6019-1.2461-0.84812-1.6085-0.75335-0.77408 0.20243-1.5372 1.4008-1.8648 2.9284-0.26812 1.2502-0.33785 1.3323-1.2624 1.4851-0.53825 0.089-1.2587 0.16312-1.601 0.16472-1.6399 8e-3 -3.3863 1.681-2.6635 2.552 0.16882 0.20342 0.90005 0.69267 1.625 1.0872 1.2717 0.69218 1.3134 0.75165 1.187 1.6942-0.0721 0.53725-0.84937 2.4493-1.7274 4.249-1.8895 3.8731-2.1202 4.7188-1.4521 5.3224 0.47337 0.42772 2.1229 0.71117 3.1235 0.53674 0.29148-0.0508 0.86574-0.11791 1.2761-0.14911zm8.4884-19.294c0.54985-0.25054 0.61621-0.40516 0.43902-1.023-0.33195-1.1575-0.72399-1.753-1.4804-2.2486-0.67591-0.44288-0.80506-0.43762-3.1242 0.12725-1.3306 0.32407-2.6967 0.71903-3.0359 0.87769-0.85488 0.39986-1.1925 1.1094-0.84066 1.7668 0.36356 0.67933 0.97627 0.68098 1.1914 3e-3 0.20458-0.64459 1.615-1.0695 2.4889-0.74983 0.34818 0.12736 0.98334 0.52631 1.4115 0.88656 0.83733 0.70459 1.9074 0.83511 2.9504 0.35986zm5.6267-0.88203c0.33296-0.33297 0.22713-0.48892-0.82134-1.2103-1.2974-0.89269-3.6872-1.5009-2.646-0.67347 0.29148 0.23164 0.76844 0.62501 1.0599 0.87416 0.29148 0.24915 0.67527 0.42138 0.85287 0.38274 0.1776-0.0386 0.47458 0.1726 0.65994 0.46942 0.4016 0.64308 0.40787 0.64418 0.89459 0.15745zm0.23059-1.9836c0.0836-0.13525-0.0882-0.32215-0.38183-0.41533-0.79462-0.25221-0.66875-0.92867 0.1728-0.92867 0.98074 0 0.59134-0.29261-0.70483-0.52964-1.2633-0.23102-3.2748 0.13597-3.7261 0.6798-0.26718 0.32195-0.0927 0.37981 1.1453 0.37981 1.0635 0 1.6305 0.14164 2.086 0.52115 0.68576 0.57132 1.1739 0.6728 1.4087 0.29288zm-134.51 22.14c-1.7243-0.70926-2.8127-1.5243-3.6588-2.7399-1.5629-2.2454-1.741-4.736-0.51438-7.1908 1.3961-2.7938 3.392-3.8379 5.9277-3.1008 1.6151 0.46954 2.6063 1.4467 3.0837 3.0401 0.76519 2.554-1.4273 4.5274-3.7154 3.3442-0.83808-0.4334-1.0789-0.88398-1.0789-2.0189 0-1.8974-1.656 0.0872-1.698 2.0351-0.0455 2.1083 1.82 3.582 4.7721 3.77 2.3049 0.14677 4.0121-0.42491 9.3136-3.1189 2.514-1.2775 4.5727-2.1909 4.5749-2.0299 0.0022 0.16102-1.4815 1.7416-3.2971 3.5124-4.3025 4.1962-6.1606 5.1141-10.353 5.1146-1.3367 1.3e-4 -2.2742-0.17231-3.3561-0.61732zm149.72 0.0133c-0.96716-0.34975-2.0194-0.81869-2.3384-1.0421-1.9593-1.3724-7.1647-6.4916-7.1647-7.0461 0-0.12677 1.9376 0.75625 4.3059 1.9622 5.0832 2.5886 7.0518 3.2989 9.1334 3.2953 1.8373-3e-3 4.0432-0.92731 4.7356-1.9841 0.60701-0.92644 0.58944-2.7332-0.0369-3.7936-0.66661-1.1285-1.1794-1.0924-1.1794 0.0831 0 2.0742-2.6961 3.001-4.2396 1.4574-1.777-1.777-0.15242-5.328 2.7748-6.0651 1.6481-0.41499 3.0498-0.0167 4.2835 1.217 3.6938 3.6939 2.5737 9.416-2.2887 11.693-2.1485 1.006-5.5575 1.1013-7.9854 0.22327zm-116.82-0.96666c-1.9675-0.2645-4.4715-0.48713-5.5645-0.49473-1.093-8e-3 -2.247-0.0201-2.5643-0.0278-0.4376-0.0106-0.74936-0.38195-1.2908-1.5376-0.39259-0.83801-1.7252-3.5955-2.9614-6.1278-2.5319-5.1866-2.5014-4.7081-0.45856-7.1876 0.66041-0.80158 1.8764-2.3517 2.7021-3.4448 0.82577-1.0931 1.6559-2.145 1.8447-2.3375 0.18883-0.19258 0.3436-0.43107 0.34395-0.52997s0.33706-0.57344 0.74826-1.0546c0.72843-0.85227 0.78734-0.87046 2.293-0.70786 0.84994 0.0918 2.4509 0.3331 3.5576 0.53627 1.8084 0.33196 2.9984 0.52673 6.9003 1.1293 1.1463 0.17704 1.1956 0.22513 1.8146 1.7719 0.34995 0.87445 1.3423 3.069 2.2053 4.8767 0.86299 1.8077 1.6377 3.5602 1.7216 3.8944 0.15644 0.62333-0.3275 2.4883-0.64711 2.4938-0.098 2e-3 -0.40604 0.47865-0.68452 1.0599-0.27849 0.5813-0.6064 1.0569-0.72869 1.0569s-0.22235 0.13025-0.22235 0.28943c0 0.15919-0.20867 0.56274-0.46371 0.89678s-0.64257 0.87747-0.86118 1.2076c-0.21861 0.33016-0.79618 1.1347-1.2835 1.7879-0.48732 0.6532-1.0931 1.5595-1.3461 2.014-0.25303 0.45449-0.689 0.84657-0.96881 0.87129-0.27982 0.0247-2.1185-0.17146-4.0859-0.43596zm3.5024-0.74126c-0.10461-0.2584-0.58552-1.1511-1.0687-1.9837l-0.87851-1.5139-0.97633 0.41786c-0.53698 0.22982-1.1552 0.47745-1.3738 0.55031-0.566 0.18862-1.2754 0.48091-2.7131 1.1179-0.69066 0.306-1.3962 0.55637-1.5678 0.55637-0.17162 0-0.23582 0.0762-0.14266 0.16937 0.09315 0.0932 0.91789 0.22403 1.8328 0.29085 0.91487 0.0668 2.6769 0.27715 3.9157 0.46743 3.1502 0.48385 3.1972 0.4827 2.9725-0.0725zm4.6605-5.8578c0.39259-0.63826 0.9726-1.5537 1.2889-2.0343l0.57511-0.87385-1.3307 0.78461c-0.73186 0.43153-2.2662 1.4364-3.4096 2.233-1.1434 0.79665-2.1917 1.4485-2.3296 1.4485-0.67552 0-0.51423 0.98791 0.413 2.5296l0.99773 1.6589 1.5407-2.293c0.84736-1.2611 1.8619-2.8152 2.2545-3.4534zm-13.926 5.3572c-0.18217-0.0735-0.48027-0.0735-0.66244 0-0.18217 0.0735-0.03312 0.13365 0.33122 0.13365 0.36434 0 0.51339-0.0601 0.33122-0.13365zm2.5835-2.004c1.3845-0.58841 2.915-1.1819 3.4012-1.3188l0.88392-0.24898-1.4139-1.0302c-0.77763-0.56659-1.5927-1.1948-1.8113-1.396-0.60231-0.5543-5.3098-4.2334-6.3229-4.9416l-0.89083-0.62272 0.15616 0.76786c0.2291 1.1265 0.99701 6.882 1.1566 8.6688l0.13768 1.5414 1.093-0.17503c0.60116-0.0963 2.2258-0.65645 3.6103-1.2449zm-5.6865-0.9341c-0.09441-0.83802-0.21426-1.8218-0.26634-2.1861-0.05208-0.36435-0.17021-1.3779-0.2625-2.2524-0.09229-0.87445-0.29375-2.1861-0.44769-2.9148l-0.27989-1.3249-3.0667 0.1766 0.91299 2.1641c0.50214 1.1902 1.2042 2.7826 1.5601 3.5386s0.64711 1.4493 0.64711 1.5408c0 0.28988 1.1196 2.7819 1.2499 2.7819 0.06858 0 0.04745-0.68565-0.04695-1.5237zm11.222-11.011c0.0084-1.4289 0.0946-2.7263 0.19144-2.883 0.09685-0.15671 0.07006-0.23581-0.05953-0.17579-0.12959 0.06-0.53372 0.25059-0.89806 0.4235-1.1098 0.52666-5.5349 2.186-5.8297 2.186-0.3415 0-4.5044 2.0785-4.5044 2.249 0 0.0678 0.92411 0.81171 2.0536 1.6532 1.1295 0.84148 2.0933 1.6194 2.1419 1.7287 0.04858 0.1093 0.20562 0.19874 0.34897 0.19874 0.14335 0 0.93829 0.59033 1.7665 1.3118 0.82823 0.72152 2.1021 1.7058 2.8308 2.1873l1.3249 0.87541 0.30915-3.5784c0.17003-1.9681 0.31606-4.7476 0.32451-6.1765zm3.1747 7.3828c1.0744-0.73698 2.4757-1.6426 3.114-2.0124 2.1468-1.244 2.1467-1.2053 0.01381-3.4483-1.0464-1.1005-2.7073-2.6835-3.6907-3.5178-1.7763-1.5069-1.7882-1.5121-1.8084-0.78145-0.01116 0.40451-0.06721 2.7132-0.12456 5.1304-0.05734 2.4172-0.15752 4.8243-0.22262 5.3492-0.14636 1.18 0.0092 1.1389 2.7184-0.7195zm-16.429-5.8775c0.7616-0.15233 0.86976-0.31385 1.3751-2.0536 0.95319-3.2813 0.91758-3.0322 0.34562-2.4181-0.59096 0.63451-1.812 2.2074-2.806 3.6145-0.79603 1.1269-0.68842 1.2119 1.0852 0.8572zm19.624-1.3583c-0.4105-0.83801-1.174-2.4478-1.6966-3.5773-0.55485-1.1991-1.1123-2.0536-1.3397-2.0536-0.21422 0-0.3895 0.0935-0.3895 0.20786 0 0.11431-0.35772 0.41916-0.79493 0.67744-0.43721 0.25827-0.79493 0.58064-0.79493 0.71638 0 0.13573 0.49889 0.6954 1.1086 1.2437 0.60976 0.5483 1.8916 1.7401 2.8485 2.6484 0.95692 0.90829 1.7545 1.6536 1.7724 1.6562 0.01788 3e-3 -0.30335-0.68093-0.71384-1.519zm-15.794-0.16508c0.6089-0.34584 2.8674-1.3136 5.0188-2.1505 2.1514-0.83692 3.9774-1.628 4.0577-1.7579 0.08031-0.12995-0.07021-0.30695-0.33449-0.39334-1.024-0.33474-3.9319-1.5518-4.0577-1.6982-0.18639-0.21707-3.1575-1.3208-3.5555-1.3208-0.47604 0-1.385 2.1161-2.2481 5.2334-0.84599 3.0557-0.78523 3.169 1.1193 2.0873zm11.034-5.2116 0.91741-0.78419h-0.96721c-0.53197 0-1.7718-0.18659-2.7551-0.41465-3.4399-0.7978-4.1173-0.88368-3.7818-0.47948 0.16622 0.20029 0.44011 0.36417 0.60864 0.36417 0.34882 0 3.4647 1.3041 4.2658 1.7854 0.69849 0.41962 0.65668 0.43113 1.7123-0.47123zm11.262 13.613c-0.29666-0.0606-0.89286-0.39901-1.3249-0.75208l-0.78551-0.64195 1.0068-0.01c0.55375-5e-3 1.3884-0.20083 1.8548-0.43463 1.3115-0.65743 4.3355-3.7464 5.6673-5.789 1.6778-2.5733 4.0972-5.018 5.6101-5.6689 1.4525-0.62484 3.6868-0.9753 4.6603-0.73097 0.87902 0.22063 0.86266 0.58552-0.03638 0.81117-1.3137 0.32973-2.6817 1.7274-4.8819 4.9881-4.4152 6.5433-5.9395 7.7905-10.039 8.2146-0.65582 0.0678-1.4351 0.0738-1.7318 0.0132zm58.202-0.12212c-3.1702-0.52649-4.7961-1.9761-8.7862-7.8332-2.4576-3.6076-3.8289-5.0348-5.0892-5.2968-1.8065-0.37557-0.12817-1.0446 1.9342-0.77098 3.0287 0.40179 5.4506 2.2348 8.0379 6.0835 1.5616 2.3229 4.5208 5.3699 5.9133 6.0888 0.46641 0.24076 1.2117 0.43775 1.6561 0.43775 1.1079 0 1.013 0.41466-0.24126 1.0546-1.1368 0.57994-1.2919 0.59065-3.4249 0.23641zm-38.85-2.0552c-2.0677-0.95123-2.6438-2.5458-2.2196-6.1426 0.43442-3.6827 3.1741-10.89 4.8032-12.636 0.55715-0.59711 1.9604-1.1215 3.0084-1.1243 0.58569-2e-3 1.5389 0.75976 2.2794 1.8206 0.39944 0.5722 0.64667 0.63394 2.7085 0.67631 1.8445 0.0379 2.294-0.0303 2.4031-0.3647 0.25511-0.78217 1.9831-2.3555 2.779-2.5303 1.4163-0.31109 2.3405 0.0861 3.4417 1.4793 0.9234 1.1682 2.6568 4.9971 2.6568 5.8686 0 0.18904 0.24231 0.79582 0.53847 1.3484 0.76152 1.4209 1.6251 5.277 1.6721 7.4661 0.0644 3.0017-1.0886 4.2969-3.8752 4.3529-1.4659 0.0295-2.5867-0.54138-3.652-1.8601-1.0794-1.3362-1.4248-2.1169-1.9234-4.3468l-0.35545-1.5899-2.4955 0.0802c-1.3725 0.0441-2.8754-0.0348-3.3398-0.17538-0.84303-0.25525-0.84422-0.25423-0.83154 0.71472 7e-3 0.53369-0.36594 1.9513-0.82873 3.1502-0.96364 2.4965-2.2647 3.8682-3.9301 4.1436-1.4295 0.23633-1.6675 0.20862-2.8396-0.33062zm4.3269-1.7353c1.237-1.3198 2.4285-4.0667 2.6227-6.0462 0.12893-1.3146 0.2757-1.479 0.8279-0.92744 0.22719 0.22692 1.2552 0.32683 3.2643 0.31727 2.5885-0.0123 2.9768-0.0744 3.309-0.52868 0.32357-0.44252 0.41149-0.45915 0.62682-0.11853 0.13775 0.2179 0.25228 0.88309 0.25451 1.4782 2e-3 0.59511 0.0798 1.1577 0.1723 1.2503 0.0925 0.0925 0.21251 0.65971 0.26662 1.2604 0.10087 1.1199 0.25799 1.4276 1.4408 2.8218 1.215 1.4321 2.4113 1.8334 4.0243 1.3502 1.529-0.45813 2.0493-1.2835 2.0493-3.2514 0-2.1771-0.42774-4.3427-1.3363-6.7656-0.4099-1.0931-1.1182-3.0064-1.5741-4.252-0.90936-2.4846-2.2361-4.2275-3.218-4.2275-1.2215 0-2.3002 0.61349-2.8741 1.6346-0.31383 0.5584-0.6524 1.0154-0.75238 1.0157-0.1 2.1e-4 -1.404 0.0462-2.8978 0.10229-2.0858 0.0782-2.716 0.023-2.716-0.23793 0-0.59197-1.8245-1.9846-2.6-1.9846-1.1456 0-2.3194 0.91106-3.0725 2.3849-1.8878 3.6944-3.5996 9.4701-3.6008 12.15-8.59e-4 1.8622 0.03864 1.9872 0.90002 2.8486 0.80366 0.80368 1.0565 0.90095 2.3417 0.90095 1.3621 0 1.5009-0.0641 2.5417-1.1746zm12.411-8.5415c-0.0972-0.0972-0.17665-0.45489-0.17665-0.79495 0-0.84802 1.1936-0.88377 1.4137-0.0423 0.0828 0.31678 0.0897 0.6745 0.0153 0.79495-0.1622 0.26246-1.0037 0.29092-1.2523 0.0423zm-11.889-0.55677c-0.4651-0.0985-0.8169-0.81607-0.68404-1.3952 0.0415-0.18074-0.27217-0.42652-0.69696-0.54617-1.4822-0.41749-1.487-1.3-7e-3 -1.3 0.86895 0 0.91178-0.0445 0.91178-0.94687 0-0.7586 0.0922-0.92941 0.46371-0.85903 0.3031 0.0574 0.49206 0.37982 0.54555 0.93078 0.0673 0.69294 0.20872 0.85758 0.79493 0.92527 0.56442 0.0652 0.73125 0.24119 0.80014 0.84418 0.0814 0.71263 0.0348 0.75417-0.72197 0.6431-0.72902-0.107-0.79421-0.0598-0.65933 0.47764 0.19123 0.76193-0.16646 1.3492-0.74686 1.2263zm5.3639-0.97624c-0.46898-0.56511-0.22562-1.3251 0.45543-1.4223 0.7264-0.10364 1.3922 1.2084 0.80292 1.5822-0.50643 0.32131-0.9005 0.27122-1.2584-0.15997zm4.4026-0.89479c-0.51132-0.56503-0.54934-0.88852-0.15121-1.2867 0.43364-0.43364 1.2354-0.1117 1.3612 0.5466 0.23601 1.2346-0.40672 1.6277-1.21 0.74006zm3.8541 0.1666c-0.17488-0.17489-0.31797-0.59224-0.31797-0.92744 0-0.8086 1.1751-0.85457 1.5989-0.0626 0.50043 0.93509-0.53536 1.7356-1.281 0.99zm-9.6718-1.6272c-0.18611-0.48501 0.21708-1.0798 0.57995-0.85548 0.42255 0.26116 0.36411 1.2107-0.0745 1.2107-0.20301 0-0.43046-0.15987-0.50544-0.35526zm3.4278-0.0441c-0.23838-0.23839-0.43343-0.60379-0.43343-0.81199 0-0.5944 1.0029-0.44567 1.2009 0.17809 0.24837 0.78258-0.22652 1.1748-0.76744 0.6339zm4.2478-0.83723c-0.0972-0.0972-0.17665-0.51451-0.17665-0.92744 0-0.57719 0.12405-0.75079 0.53651-0.75079 0.48454 0 1.0534 0.86787 1.0534 1.6072 0 0.282-1.1447 0.33957-1.4132 0.0711zm-49.621-15.5c-0.30783-0.49809-0.37066-2.8553-0.37507-14.073l-4e-3 -10.273-0.7247 0.3713c-0.39859 0.20421-1.4998 0.45714-2.4471 0.56206s-2.0692 0.23179-2.493 0.28193c-0.42386 0.0501-1.1691-0.0753-1.6561-0.27881-0.81862-0.34205-0.88544-0.46029-0.88544-1.5667 0-0.65818-0.18743-1.7488-0.4165-2.4235s-0.34909-1.2942-0.26669-1.3766 0.61157-0.0115 1.1759 0.15762c3.0101 0.90189 5.4364-7e-3 8.9401-3.3496 2.5244-2.4083 2.6903-2.5464 3.9614-3.2967 2.6069-1.5389 4.5604-2.2656 6.5831-2.4486 2.3426-0.21202 2.2263-0.36767 1.3824 1.8504-0.22179 0.58297-0.40848 1.6159-0.41488 2.2954l-0.01163 1.2355-1.8346 0.70108c-1.1795 0.45071-2.286 1.1214-3.0985 1.878-0.69512 0.64734-1.3163 1.177-1.3805 1.177-0.06416 0-0.39867 0.32791-0.74336 0.7287-0.71885 0.83585-0.76481 1.7395-0.56269 11.063 0.01264 0.58297 0.0033 4.426-0.02084 8.54l-0.04382 7.4801-1.1749-0.0511c-0.75961-0.0331-1.345 0.0984-1.6561 0.37187-0.70007 0.61544-1.5925 0.83125-1.8324 0.4431zm-60.28-0.2371c-0.31026-0.19165-0.38641-2.216-0.4501-11.966-0.04217-6.4544-0.12945-11.889-0.19396-12.076-0.09401-0.27287-0.23662-0.26734-0.71827 0.0279-0.33053 0.20257-1.7029 0.50686-3.0497 0.67621-2.0559 0.2585-2.5979 0.24557-3.3785-0.0806-0.86201-0.36018-0.92972-0.47286-0.92972-1.5472 0-0.63731-0.19227-1.723-0.42727-2.4127s-0.35501-1.3263-0.26669-1.4146c0.08832-0.0883 0.62233-0.0222 1.1867 0.14685 3.0407 0.91103 5.3208 0.0354 8.9966-3.4549 1.4276-1.3556 3.1855-2.7629 3.9063-3.1272 0.72082-0.36436 1.3743-0.74707 1.4521-0.85047 0.4275-0.56802 3.2651-1.485 5.1302-1.6579 1.9699-0.18257 2.0802-0.1653 1.8892 0.29605-0.55646 1.3447-0.93398 2.9397-0.93398 3.9461 0 1.1165-0.0041 1.1212-1.5236 1.7211-1.693 0.66848-3.6521 2.027-5.1827 3.5939l-1.0093 1.0332 0.03942 5.6972c0.02168 3.1334 0.0287 9.081 0.01561 13.217l-0.02381 7.5197-1.0269-0.16421c-0.77122-0.12333-1.1836-0.044-1.6561 0.3185-0.86875 0.6665-1.4068 0.82925-1.8456 0.55822zm147.95-6.8068c-0.44034-0.45047-0.97735-1.0714-1.1934-1.3798l-0.39276-0.56076-2.0563 0.67126c-1.131 0.36919-2.5732 0.67125-3.2049 0.67125-1.4891 0-3.8226-0.88021-4.6358-1.7486-0.57569-0.61478-0.63738-0.90424-0.61528-2.8874 0.0211-1.8929 0.13587-2.4228 0.81277-3.7522 1.1155-2.1908 2.6196-3.1038 5.1464-3.124 1.0081-8e-3 1.8325-0.0742 1.832-0.14711-5e-4 -0.0729-0.22785-0.50468-0.50523-0.95958-0.68285-1.1199-1.8501-1.3238-3.7786-0.66033-0.80797 0.27799-1.5892 0.42828-1.7362 0.33397-0.44505-0.28566-1.4026-2.369-1.2599-2.7411 0.0734-0.19133 0.87719-0.6089 1.7862-0.92794 1.3104-0.45991 2.082-0.55861 3.7257-0.47652 2.5903 0.12936 3.789 0.50463 4.865 1.523 1.5785 1.494 2.0071 3.0118 2.1096 7.4711 0.10308 4.4806 0.14686 4.7 1.1914 5.9709 0.94764 1.153 0.9542 1.6718 0.0288 2.2741-0.40077 0.26085-0.86148 0.65303-1.0238 0.8715-0.25214 0.33937-0.41169 0.27795-1.0957-0.42182zm-4.3706-5.3819c0.69582-0.55852 0.80778-0.82274 0.80811-1.907 3.5e-4 -1.1778-0.0448-1.2606-0.70288-1.2892-0.38679-0.0168-0.88211-0.0507-1.1007-0.0752-0.55426-0.0623-2.1394 0.57132-2.7011 1.0797-0.63919 0.57847-0.90012 2.0954-0.45309 2.6341 0.54883 0.66131 3.1156 0.38771 4.1497-0.44232zm17.553 5.5277c-2.7447-0.57715-3.5656-0.87512-5.0451-1.8314-2.0463-1.3226-3.0277-2.7167-3.5599-5.057-0.7948-3.4946 0.17654-6.363 2.8117-8.3029 1.4581-1.0734 3.1158-1.6639 3.6845-1.3124 0.14682 0.0907 0.60882 0.0899 1.0267-2e-3l0.75975-0.16687-0.13938-4.1976c-0.0767-2.3087-0.0605-4.5117 0.0358-4.8957 0.17278-0.68843 0.2018-0.69646 2.0892-0.57837 1.0527 0.0659 2.1362 0.1292 2.4079 0.14074 0.46818 0.0199 0.48437 0.23825 0.31088 4.1945-0.10065 2.2954-0.21527 8.0224-0.25469 12.727-0.0675 8.0507-0.10131 8.5756-0.57587 8.9348-0.27729 0.20988-0.76271 0.3854-1.0787 0.39003-0.31599 5e-3 -0.73333 0.0533-0.92742 0.10826-0.19409 0.0549-0.88947-0.013-1.5453-0.1509zm-0.74337-8.3226c-0.08-3.565-0.0874-3.6031-0.66245-3.4489-0.31983 0.0858-0.78445 0.15756-1.0325 0.15955-0.59389 5e-3 -1.9436 2.0036-2.1643 3.2051-0.13663 0.74395-0.0426 1.1449 0.43498 1.8549 0.6273 0.93256 2.0409 1.7977 2.9752 1.821 0.50849 0.0126 0.52668-0.13287 0.44903-3.5916zm48.318 8.1638c-0.0789-0.0789-0.14382-0.69002-0.14423-1.358-2e-3 -3.5664-1.0535-8.2366-1.8541-8.2366-0.39483 0-1.8548 1.6174-1.8548 2.0548 0 0.69753-0.83752 0.68257-1.4169-0.0253-0.31372-0.3833-1.0988-0.97221-1.7446-1.3087s-1.2146-0.73275-1.2638-0.8806c-0.0773-0.23179 0.75549-1.2682 2.968-3.6939 0.71336-0.78209 2.2712-1.7087 2.8747-1.71 0.97602-2e-3 2.2944 0.87244 3.0614 2.0305 0.86647 1.3082 0.73621 1.3506 1.7478-0.5699 0.24521-0.46556 0.50448-0.51631 2.2626-0.44294 1.6314 0.0681 2.1032-7e-3 2.644-0.42278 0.92857-0.71319 1.5086-0.8801 1.7858-0.51386 0.48391 0.63949 1.1096 2.7164 0.97319 3.2303-0.23617 0.88951-2.6828 2.167-5.0732 2.6488-1.064 0.2145-1.1413 0.56553-1.2136 5.5127l-0.0534 3.6568-1.7776 0.086c-0.97768 0.0473-1.8422 0.0215-1.9211-0.0574zm-196.65-0.25795c-0.19841-0.13263-0.3488-3.5733-0.4718-10.794-0.09931-5.8297-0.24618-10.905-0.3264-11.279-0.13683-0.63735-0.04659-0.70689 1.4615-1.1262 0.88402-0.24579 2.0993-0.44688 2.7005-0.44688h1.0932l-0.09977 2.9148-0.09976 2.9148h1.7414c1.0694 0 2.3774 0.21479 3.3897 0.55666 1.8734 0.63267 2.2491 1.1296 2.8798 3.8082 0.47857 2.0327 0.21579 12.151-0.32728 12.602-0.18265 0.15159-0.91845 0.34507-1.6351 0.42995-2.1617 0.25603-2.1859 0.18858-2.1315-5.945 0.02548-2.8735-0.04361-5.4832-0.15354-5.7993-0.23071-0.66353-1.7797-1.0385-3.0958-0.74941-0.75093 0.16494-0.8078 0.258-0.78288 1.281 0.01478 0.60672-0.05783 3.4454-0.16135 6.3081l-0.18823 5.2049-0.95573 0.15809c-1.2915 0.21364-2.4835 0.1973-2.8368-0.0389zm178.42-0.51625c-1.8653-0.48845-3.8132-2.1265-4.7348-3.9815-0.59576-1.1992-0.62716-1.5266-0.6351-6.6224l-8e-3 -5.3608 1.9957 0.15047c1.0976 0.0828 2.0284 0.18278 2.0685 0.22226 0.04 0.0395 0.0997 2.4016 0.13249 5.2491 0.0527 4.573 0.11567 5.2391 0.53937 5.707 0.65576 0.72419 2.0352 0.90933 2.6609 0.35714 1.1631-1.0264 1.3207-1.806 1.3428-6.642l0.0212-4.6177 4.1083-0.1546-0.14829 3.9001c-0.0816 2.1451-0.25098 4.3771-0.3765 4.96-0.12552 0.58297-0.3702 1.7207-0.54374 2.5282-0.34255 1.594-1.3282 3.2444-2.3773 3.9805-0.95904 0.67296-2.3025 0.78066-4.0452 0.3243zm-113.73-0.0207c-0.07892-0.0789-0.14382-0.69002-0.14423-1.358-0.0022-3.5018-1.0711-8.2366-1.8596-8.2366-0.37005 0-1.8054 1.564-2.001 2.1804-0.20186 0.63602-0.50892 0.59055-1.2287-0.18194-0.33381-0.35824-1.1435-0.93706-1.7993-1.2863-1.3895-0.73986-1.4181-1.115-0.18497-2.4285 0.46608-0.49644 1.2462-1.3355 1.7336-1.8646 1.0354-1.124 2.3536-1.9814 3.0485-1.9828 0.97623-2e-3 2.2945 0.87255 3.062 2.0313 0.86788 1.3103 0.7357 1.3528 1.7808-0.57238 0.25181-0.46383 0.51169-0.51702 2.1553-0.44108 1.8349 0.0848 2.666-0.13847 3.4558-0.92823 0.59791-0.59793 0.85123-0.41363 1.5247 1.1093 0.79576 1.7994 0.79591 1.7632-0.01103 2.7222-0.68314 0.81189-2.7245 1.7468-4.4318 2.0297-1.2157 0.20144-1.2735 0.43811-1.3478 5.522l-0.05344 3.6568-1.7776 0.086c-0.97768 0.0473-1.8422 0.0215-1.9211-0.0574zm16.247-0.14102c-2.867-1.0756-4.086-2.6518-4.5111-5.8333-0.22138-1.6568-0.19104-2.2616 0.17691-3.5274 0.67228-2.3126 1.5483-3.8413 2.7577-4.8121 0.93076-0.74714 1.3613-0.89756 2.9092-1.0164 1.4898-0.11439 2.0018-0.0433 2.8445 0.39525 2.0713 1.0778 2.9157 2.2628 3.7109 5.2079 0.94615 3.5042-0.0734 7.5768-2.2589 9.0231-1.266 0.83782-4.1324 1.1245-5.6292 0.56293zm3.6686-4.2059c0.7865-0.76233 0.87379-0.99734 0.87379-2.3525 0-1.6137-0.40772-2.8617-1.3093-4.0077-1.0964-1.3936-3.0601-0.44569-3.8443 1.8557-0.81259 2.3849-0.43196 4.3147 0.97207 4.9283 1.4477 0.63274 2.335 0.51906 3.3077-0.42377zm13.257 4.1033c-1.8653-0.48929-3.8136-2.1278-4.7348-3.9822-0.59576-1.1992-0.62716-1.5266-0.6351-6.6224l-8e-3 -5.3608 1.9957 0.15047c1.0976 0.0828 2.0355 0.1898 2.0841 0.23786 0.0486 0.0481 0.0763 2.2735 0.0615 4.9454-0.0241 4.3609 0.0253 4.9427 0.48344 5.6855 0.624 1.0119 2.0048 1.344 2.7722 0.66678 1.1631-1.0264 1.3207-1.806 1.3428-6.642l0.0212-4.6177 4.1083-0.1546-0.1506 3.9001c-0.14509 3.7577-0.32444 5.181-0.97558 7.7424-0.61064 2.4021-1.7819 3.8484-3.4233 4.2269-0.63174 0.14569-1.2082 0.25598-1.2811 0.24507-0.0729-0.0109-0.82004-0.20017-1.6604-0.4206zm11.168 0.16892c-0.45335-0.2804-0.49627-1.3929-0.46447-12.037 0.0174-5.8297 0.0223-10.957 0.0109-11.394-0.0385-1.4739 0.19564-2.0556 0.76716-1.9062 0.28757 0.0752 1.1814 0.0474 1.9862-0.0618 0.87039-0.11812 1.5265-0.0964 1.6193 0.0537 0.0858 0.13877 0.14997 1.461 0.14268 2.9382-7e-3 1.4772 0.0525 3.4818 0.13286 4.4545l0.1461 1.7686 1.6656-0.01c1.8971-0.0109 4.0091 0.85027 4.3621 1.7787 0.11398 0.29979 0.39242 0.69877 0.61875 0.88662 0.97746 0.81124 1.3306 3.5168 0.84805 6.4977-0.5576 3.4446-1.2071 4.5375-3.596 6.0511-0.95285 0.60369-7.5742 1.3914-8.2391 0.98012zm6.1477-5.0883c1.5033-1.0131 2.4958-2.7461 2.4958-4.3581 0-1.0526-0.13323-1.517-0.55658-1.9404-0.66233-0.66235-2.5444-1.1366-3.595-0.9058l-0.75055 0.16486 3e-3 2.8275c4e-3 3.915 0.17598 4.8149 0.91998 4.8149 0.32373 0 0.99125-0.27136 1.4834-0.60302zm-94.924 4.475c-3.1923-0.85987-4.7351-3.328-4.7244-7.5576 0.0073-2.8836 0.46365-4.3513 1.8591-5.9796 1.8512-2.1601 3.0014-2.8754 4.8371-3.0082 1.9629-0.14199 4.1644 0.55726 5.2717 1.6744 0.43458 0.43845 1.1318 1.4084 1.5495 2.1554l0.75932 1.3582-0.8477 0.93139c-0.46623 0.51227-1.265 1.14-1.7751 1.3949-0.51008 0.25492-0.98704 0.54258-1.0599 0.63924-0.07287 0.0967-0.60945 0.46378-1.1924 0.81582-0.58295 0.35203-1.1791 0.73435-1.3249 0.84959-0.14574 0.11525-0.90334 0.70542-1.6836 1.3115l-1.4186 1.102 0.62206 0.46924c1.6896 1.2745 4.8608 1.1785 6.9029-0.20898 1.1112-0.75495 1.5659-0.63445 1.4984 0.39707-0.02558 0.39121 0.04065 1.0917 0.14717 1.5566 0.17525 0.76489 0.11379 0.88662-0.64598 1.2795-2.2785 1.1783-6.1136 1.5365-8.7748 0.81971zm1.0815-8.4411c0.95745-0.6184 1.8601-1.2178 2.0058-1.3319 0.14574-0.11415 0.83137-0.57337 1.5236-1.0205 0.69225-0.44713 1.2586-0.90018 1.2586-1.0068s-0.30776-0.4829-0.68391-0.83623c-0.97151-0.91255-2.9626-0.82019-4.3137 0.20011-1.2598 0.95127-1.4829 1.1758-1.8499 1.8616-0.4104 0.76685-0.40587 3.258 0.0059 3.258 0.17201 0 1.0961-0.50596 2.0536-1.1244zm139.03 8.1338c-0.85636-0.35219-1.7277-0.78201-1.9364-0.95517-0.8617-0.71516-1.7245-2.6629-1.9726-4.453-0.45991-3.3188 0.92743-7.039 3.2166-8.6254 0.92297-0.63963 1.3278-0.739 3.1125-0.76407 1.9338-0.0272 2.1237 0.0231 3.3073 0.87521 3.8853 2.7971 4.1841 11.094 0.4917 13.653-1.5289 1.0596-4.0344 1.1682-6.2192 0.26969zm4.289-3.861c0.75683-0.73996 0.84524-0.98602 0.84524-2.3525 0-1.6371-0.40497-2.8787-1.3171-4.0382-0.47388-0.60238-0.72706-0.70493-1.497-0.60635-1.0918 0.1398-1.7725 0.86769-2.3421 2.5047-0.81314 2.3369-0.42555 4.2836 0.97474 4.8956 1.4514 0.63438 2.3912 0.5208 3.3363-0.40323zm-123.3-27.898c-2.1245-0.41228-8.7564-2.5582-10.334-3.3438l-1.0599-0.5278 1.4574 0.15263c6.0356 0.6321 12.277 0.56211 15.501-0.17383 1.6512-0.37694 5.3423-1.5163 6.227-1.9221 2.1599-0.99079 4.8053-3.3801 12.836-11.593 3.261-3.3351 7.452-5.404 11.594-5.7234 1.9127-0.1475 2.2618-0.0901 4.5062 0.74081 2.9693 1.0993 5.0879 2.8861 6.3864 5.3861 0.7366 1.4182 0.83508 1.8608 0.82972 3.7291-0.0108 3.7764-0.77326 5.2245-3.6518 6.9362-1.3986 0.83163-1.8455 0.9652-3.1394 0.93823-1.7782-0.0371-3.3623-0.75232-4.166-1.881-0.5861-0.82312-0.72753-1.6212-0.28729-1.6212 0.14574 0 0.26498 0.1644 0.26498 0.36533s0.36389 0.51606 0.80865 0.70029c0.6494 0.269 1.0277 0.2696 1.9211 3e-3 1.8553-0.55353 2.5172-1.017 3.2581-2.2813 0.81257-1.3866 0.90316-2.6869 0.28898-4.1475-0.77821-1.8507-3.8941-3.1116-6.4025-2.5908-2.9991 0.62262-5.7499 2.6036-13.388 9.6414-3.4406 3.1702-7.4681 5.719-10.334 6.5402-0.65582 0.18791-1.3422 0.45522-1.5252 0.59402-0.56233 0.4264-9.487 0.48691-11.591 0.0786zm91.748 0.19229c-0.69225-0.0633-1.2586-0.21455-1.2586-0.33609 0-0.12153-0.3972-0.29549-0.88266-0.38656-1.3291-0.24934-4.8445-2.0484-6.9342-3.5487-1.0202-0.73242-3.0472-2.4299-4.5046-3.7722-9.374-8.6339-13.116-10.455-17.096-8.3224-3.8851 2.0819-3.019 7.1361 1.4315 8.3535 1.2495 0.34177 2.092 0.15972 2.8056-0.60619 0.47678-0.51178 0.53728-0.52349 0.53728-0.10394 0 1.5247-2.3257 3.072-4.6176 3.072-1.6608 0-2.9604-0.50899-4.5945-1.7995-1.3417-1.0596-1.7229-1.7534-2.1786-3.966-0.6429-3.121 0.2178-5.8834 2.6069-8.3667 1.3024-1.3538 2.5589-2.087 5.2883-3.086 4.3838-1.6046 10.996 0.75809 15.599 5.5741 8.9467 9.3596 10.572 10.658 15.247 12.182 1.7689 0.5767 4.2383 1.179 5.4876 1.3384 2.7676 0.35318 9.2342 0.34864 11.943-8e-3 2.838-0.37403 3.2241-0.35309 2.3402 0.12693-0.79268 0.4305-6.9193 2.5122-9.3621 3.181-1.5938 0.43637-9.0239 0.73376-11.858 0.47459zm-111.85-2.4256c-0.93541-1.0336-0.16926-2.4432 1.3515-2.4864 1.1004-0.0313 1.3897 0.22339 1.3897 1.2232 0 1.5439-1.7552 2.3527-2.7412 1.2632zm140.15-0.0206c-0.63694-0.70383-0.46993-2.153 0.27981-2.428 0.80934-0.29688 2.3234 0.51078 2.4351 1.2989 0.19531 1.379-1.7548 2.19-2.7149 1.1291z"/>
 </g>
</svg>
