<?xml version="1.0" encoding="UTF-8" standalone="no"?>
<!-- Created with Inkscape (http://www.inkscape.org/) -->

<svg
   width="262.92953mm"
   height="13.43056mm"
   viewBox="0 0 262.92953 13.43056"
   version="1.1"
   id="svg1"
   xml:space="preserve"
   xmlns:inkscape="http://www.inkscape.org/namespaces/inkscape"
   xmlns:sodipodi="http://sodipodi.sourceforge.net/DTD/sodipodi-0.dtd"
   xmlns="http://www.w3.org/2000/svg"
   xmlns:svg="http://www.w3.org/2000/svg"><sodipodi:namedview
     id="namedview1"
     pagecolor="#ffffff"
     bordercolor="#666666"
     borderopacity="1.0"
     inkscape:showpageshadow="2"
     inkscape:pageopacity="0.0"
     inkscape:pagecheckerboard="0"
     inkscape:deskcolor="#d1d1d1"
     inkscape:document-units="mm"
     showguides="false" /><defs
     id="defs1" /><path
     style="fill:#000000"
     d="m 0.17760845,13.166187 c -0.196506,-0.12145 -0.230704,-0.49465 -0.09884,-1.07865 0.25867,-1.14559 0.257403,-9.3450199 -0.0016,-10.5102399 -0.116503,-0.52408 -0.08679,-0.99622998 0.07274,-1.15575998 0.432654,-0.43265 5.63432305,-0.26232 6.14658905,0.20127 0.234178,0.21193 0.541067,0.38532998 0.681977,0.38532998 0.397694,0 2.102837,1.87975 2.640064,2.91041 0.329048,0.63127 0.4857115,1.51558 0.4921735,2.77813 0.01404,2.74263 -0.9008885,4.4484599 -3.1655205,5.9019399 -0.946031,0.60718 -1.345303,0.68319 -3.762714,0.71626 -1.48741,0.0204 -2.83959005,-0.0466 -3.00484505,-0.14869 z m 4.48042505,-1.05964 c 1.215118,-0.28018 2.194708,-1.09347 3.327303,-2.7624399 0.893153,-1.31614 0.893272,-2.77626 3.72e-4,-4.56807 -0.874687,-1.75527 -2.112407,-2.82628 -3.927393,-3.3984 -2.285703,-0.72049998 -2.272523,-0.75217998 -2.272523,5.46168 0,3.9422099 0.08178,5.2702199 0.330729,5.3706699 0.528578,0.21329 1.304949,0.18169 2.541512,-0.10344 z m 16.9054275,1.09889 c -0.181936,-0.0582 -0.390325,-0.19518 -0.463085,-0.3044 -0.07276,-0.10921 -0.07276,-2.9786299 0,-6.3764699 l 0.132291,-6.17788998 h 3.439584 c 3.365535,0 3.441403,0.0128 3.524131,0.59531 0.06727,0.47365998 -0.04357,0.59530998 -0.542396,0.59530998 -0.344819,0 -0.740053,-0.10929 -0.878298,-0.24288 -0.223953,-0.2164 -1.539472,-0.38560998 -2.434166,-0.31308998 -0.181901,0.0147 -0.568855,0.26492998 -0.859896,0.55596998 -0.421032,0.42103 -0.529167,0.88195 -0.529167,2.25551 0,1.6109 0.04551,1.74364 0.68057,1.98509 0.374313,0.14232 1.356579,0.22867 2.182812,0.19189 1.348142,-0.06 1.502243,-0.0126 1.502243,0.4623 0,0.4863 -0.145178,0.52158 -1.791854,0.43554 -2.432726,-0.12712 -2.573771,0.0243 -2.573771,2.76255 0,1.9114599 0.06858,2.2439599 0.511773,2.4811499 0.824443,0.44123 3.64474,0.33642 4.408197,-0.16381 0.621487,-0.40722 0.698506,-0.40722 1.10572,0 0.407215,0.40721 0.40584,0.46956 -0.01974,0.89514 -0.383996,0.38399 -0.987788,0.45833 -3.760798,0.46302 -1.816849,0.003 -3.452218,-0.042 -3.634155,-0.10024 z m 19.47969,0.0256 c -0.75907,-0.10829 -1.866667,-1.30066 -1.525294,-1.64203 0.170354,-0.17036 0.617386,-0.0779 1.295981,0.26808 3.135292,1.59847 6.382115,-1.05958 4.165182,-3.4098699 -0.415708,-0.44072 -1.533566,-1.06998 -2.607784,-1.46798 -2.363344,-0.87561 -3.051528,-1.57813 -3.215272,-3.28225 -0.115496,-1.20199 -0.05307,-1.3764 0.850595,-2.37665 l 0.975237,-1.07947998 h 2.290053 c 1.730884,0 2.404627,0.10369 2.759289,0.42466 1.053815,0.95368998 0.220455,1.50478998 -1.118264,0.73950998 -1.12704,-0.64426998 -2.482739,-0.49694998 -3.411602,0.37074 -0.869274,0.81202 -1.056709,1.74877 -0.491002,2.4539 0.35832,0.44663 1.116064,0.87985 3.373438,1.92868 2.404013,1.11696 3.174999,2.01867 3.174999,3.71335 0,1.2203899 -0.429384,1.9530199 -1.658401,2.8296399 -0.682218,0.4866 -1.202908,0.60994 -2.574932,0.60994 -0.945885,0 -1.972886,-0.0361 -2.282223,-0.0802 z m 17.932846,-0.0216 c -0.283007,-0.17935 -0.35399,-1.48996 -0.343699,-6.3459499 0.0071,-3.36596 0.01881,-6.23897998 0.02594,-6.38449998 0.0167,-0.34074 1.518582,-0.34655 1.72863,-0.007 0.217176,0.3514 0.229731,12.34165988 0.01329,12.69186988 -0.207105,0.3351 -0.930529,0.3581 -1.42416,0.0453 z m 43.481823,-0.0752 c -0.47522,-0.21779 -0.79192,-0.63782 -1.86145,-2.4688 -0.986097,-1.6881399 -3.891091,-6.3752199 -4.128824,-6.6616699 -0.207768,-0.25035 -0.417743,-0.26553 -0.805117,-0.0582 -0.672155,0.35973 -0.687608,0.3386 -1.0416,-1.42406 -0.353752,-1.76145998 -0.202211,-2.30709998 0.640744,-2.30709998 0.689345,0 1.453727,0.72238 2.206288,2.08506998 0.566074,1.025 0.828101,1.45213 1.535395,2.50279 0.644472,0.95735 1.318514,2.1216 2.060394,3.55888 0.43712,0.84684 0.72252,1.11573 1.12334,1.05833 0.51249,-0.0734 0.53923,-0.27274 0.57813,-4.31028 0.0505,-5.24058998 0.0166,-4.89478998 0.47907,-4.89478998 0.60705,0 1.00821,0.95696998 0.6678,1.59302998 -0.19294,0.36053 -0.23666,2.25236 -0.13419,5.80756 0.14049,4.8745199 0.11643,5.2913599 -0.31846,5.5177499 -0.28691,0.14935 -0.67761,0.14994 -1.00152,10e-4 z m 27.80132,-0.0416 c -0.35987,-0.26314 -0.42729,-0.51125 -0.26963,-0.99218 0.11563,-0.35272 0.21952,-3.1416099 0.23086,-6.1975499 l 0.0206,-5.55624998 2.91041,-0.077 c 3.44349,-0.0911 4.10105,0.0282 4.10105,0.74345998 0,0.55662 -0.88746,0.75008 -1.19063,0.25954 -0.0899,-0.14552 -0.92621,-0.26458 -1.85839,-0.26458 -1.40487,0 -1.74173,0.0876 -1.96876,0.51177 -0.37947,0.70905 -0.34729,3.80691 0.0436,4.19781 0.40821,0.40821 1.64975,0.40578 2.78702,-0.005 0.74613,-0.26981 0.93363,-0.25892 1.13921,0.0661 0.33823,0.53482 0.31746,0.68492 -0.16106,1.16344 -0.30686,0.30686 -0.54404,0.34632 -0.90865,0.15119 -0.73399,-0.39282 -2.53282,-0.32098 -2.89517,0.11563 -0.20875,0.25152 -0.29273,1.28557 -0.2488,3.0634599 0.0518,2.09508 -0.0168,2.73637 -0.3126,2.92355 -0.52296,0.33094 -0.859,0.30655 -1.4191,-0.10301 z m 19.46092,-0.32236 c -1.49933,-0.80194 -1.76393,-1.05334 -2.59029,-2.46101 -0.62149,-1.0586899 -0.72407,-1.5281899 -0.73145,-3.3480299 -0.01,-2.44468 0.5165,-3.7345 2.08691,-5.11333 1.57965,-1.38694998 2.21497,-1.59574998 4.85552,-1.59574998 2.29102,0 2.50049,0.0479 3.67933,0.84099998 0.6875,0.46255 1.60902,1.35452 2.04783,1.98215 0.67823,0.9701 0.81284,1.43854 0.89801,3.12511 0.16144,3.19703 -0.85655,5.0737499 -3.48564,6.4259399 -0.85493,0.43971 -1.47546,0.57428 -2.24054,0.48591 -0.58198,-0.0672 -1.59283,-0.0411 -2.24634,0.0581 -0.95138,0.14439 -1.40449,0.0647 -2.27334,-0.40008 z m 6.22458,-0.78322 c 0.34847,-0.22832 0.99361,-0.97629 1.43366,-1.66214 0.7572,-1.1801799 0.79521,-1.3682299 0.70923,-3.5086999 -0.0795,-1.97902 -0.18846,-2.40892 -0.87182,-3.43959 -1.0221,-1.54159 -3.13068,-2.66873998 -4.56165,-2.43845998 -1.59424,0.25654998 -2.49965,0.92024998 -3.72345,2.72939998 -1.10449,1.63277 -1.14826,1.77162 -1.01727,3.22763 0.22062,2.45238 1.95173,4.8814199 3.8912,5.4600099 1.18969,0.35492 3.32657,0.1649 4.1401,-0.36815 z m 15.48033,1.22299 c -0.28184,-0.17862 -0.35281,-1.50791 -0.3421,-6.4073299 0.0122,-5.5919 0.0581,-6.21453998 0.48032,-6.52328998 0.25673,-0.18773 0.62877,-0.27917000131 0.82675,-0.20319 0.19798,0.076 1.18178,0.13813 2.18623,0.13813 1.61906,0 1.91839,0.0825 2.63824,0.7276 1.55385,1.39239998 1.4875,3.91746998 -0.13081,4.97782998 -1.27155,0.83315 -1.31031,1.40506 -0.20669,3.04976 0.25296,0.37697 0.77115,1.1526199 1.15154,1.7236699 0.38039,0.57106 0.8864,1.19994 1.12448,1.39752 0.46563,0.38644 0.5881,1.0882 0.18991,1.0882 -0.13361,0 -0.42236,0.0689 -0.64165,0.153 -0.43904,0.16847 -2.55499,-1.8289 -2.55499,-2.41181 0,-0.18861 -0.0893,-0.38261 -0.19843,-0.43112 -0.10914,-0.0485 -0.65942,-0.7728099 -1.22285,-1.6095499 -1.03,-1.52967 -1.40222,-1.80193 -1.62776,-1.19062 -0.22632,0.61342 -0.31463,3.7658899 -0.12044,4.2994699 0.38724,1.06401 -0.58849,1.83222 -1.55175,1.22173 z m 3.78482,-7.3397699 c 0.67482,-0.25896 1.50368,-2.10468 1.30344,-2.90252 -0.18945,-0.75482 -1.5049,-1.69252 -2.37654,-1.69407 -0.94507,-0.002 -1.35823,0.77282 -1.31917,2.47291 0.0274,1.19239 0.15189,1.63293 0.54207,1.91823 0.54571,0.39904 1.16618,0.46793 1.8502,0.20545 z m 30.14769,7.3883499 c -0.13442,-0.0449 -0.2342,-2.8756 -0.22754,-6.4550499 0.0104,-5.59241 0.0645,-6.40455998 0.44028,-6.61487998 0.49968,-0.27964 1.25916,-0.0526 1.2867,0.3847 0.0105,0.16633 0.003,2.76459998 -0.0174,5.77391998 -0.0356,5.3440899 -0.0232,5.4785699 0.53171,5.7755499 0.50981,0.27284 2.01076,0.25693 4.86476,-0.0515 0.81034,-0.0876 1.08875,0.21652 0.72454,0.79142 -0.15867,0.25045 -1.19968,0.36318 -3.7912,0.41053 -1.96486,0.0359 -3.6802,0.0293 -3.81186,-0.0146 z m 18.19453,-0.046 c -0.27588,-0.17489 -0.35148,-1.55364 -0.35148,-6.4099599 0,-6.02304998 0.015,-6.19707998 0.5646,-6.56201998 0.48969,-0.32514 0.61682,-0.32265 0.95819,0.0187 0.32488,0.32488 0.39593,1.46134998 0.40697,6.50948998 0.007,3.3637499 -0.0643,6.2416299 -0.1593,6.3952999 -0.20627,0.33375 -0.92999,0.35847 -1.41898,0.0485 z m 13.69737,-0.0998 c -0.31906,-0.27674 -0.35971,-1.34568 -0.24901,-6.5484299 l 0.13229,-6.21770998 h 3.43958 c 3.36554,0 3.44141,0.0128 3.52414,0.59531 0.0872,0.61414998 -0.55393,0.85557998 -0.8783,0.33072998 -0.0899,-0.14552 -0.91195,-0.26458 -1.82669,-0.26458 -2.2021,0 -2.53894,0.36132 -2.53894,2.7235 0,1.46511 0.0847,1.80114 0.51178,2.02969 0.65385,0.34993 2.58103,0.35635 2.79551,0.009 0.0899,-0.14552 0.40217,-0.26459 0.69384,-0.26459 0.43892,0 0.51603,0.14819 0.44741,0.8599 -0.067,0.69494 -0.18442,0.84186 -0.61208,0.76588 -0.29104,-0.0517 -1.09815,-0.15273 -1.79358,-0.22449 -1.9583,-0.20207 -2.1066,0.0417 -2.00308,3.2922699 0.0702,2.20519 0.0105,2.78582 -0.30704,2.9866 -0.53485,0.33815 -0.88345,0.319 -1.33583,-0.0734 z m 17.99615,0.0593 c -0.20333,-0.12567 -0.295,-2.10485 -0.295,-6.3694599 0,-5.71638 0.0368,-6.20817998 0.48377,-6.46372998 0.30188,-0.17259 1.62781,-0.22313 3.52649,-0.13442 2.95742,0.13818 3.0452,0.15984 3.13187,0.77273 0.081,0.57301998 0.0207,0.61280998 -0.66146,0.43609998 -0.41284,-0.10695 -1.38342,-0.25334 -2.15684,-0.32531 -2.01383,-0.18739998 -2.43024,0.25163 -2.43024,2.56224 0,1.59546 0.0617,1.79936 0.63728,2.10743 0.60702,0.32487 1.44744,0.28887 3.15237,-0.13502 0.71914,-0.1788 0.74376,-0.15241 0.66146,0.70873 -0.0696,0.72801 -0.18395,0.87728 -0.61465,0.80226 -1.72306,-0.30013 -2.78796,-0.31806 -3.2791,-0.0552 -0.49909,0.26711 -0.55736,0.53147 -0.55736,2.52863 0,2.0053399 0.0569,2.2607899 0.56389,2.5321299 0.56438,0.30205 3.3128,0.20892 4.79392,-0.16243 0.61711,-0.15472 0.72761,-0.0998 0.72761,0.36197 0,0.29942 -0.129,0.62412 -0.28665,0.72156 -0.38884,0.24031 -7.02708,0.34064 -7.39736,0.1118 z M 75.088346,12.771387 c -3.821142,-2.0959 -4.643199,-7.5146499 -1.607362,-10.5952499 0.633066,-0.6424 1.300395,-1.168 1.482952,-1.168 0.182558,0 0.381385,-0.14882998 0.441839,-0.33072998 0.07652,-0.23024 0.989273,-0.35745 3.004023,-0.41868 2.6495,-0.0805 2.935872,-0.0418 3.388233,0.45806 0.397904,0.43967998 0.431067,0.62197998 0.170306,0.93617998 -0.283094,0.34111 -0.445244,0.32509 -1.289368,-0.12733 -2.54776,-1.36551998 -6.114953,0.24851 -6.914869,3.12873 -1.08888,3.92069 1.304562,7.9500099 4.750857,7.9980099 0.352777,0.005 0.352777,0.034 0,0.26201 -0.564831,0.36502 -2.659808,0.27759 -3.426611,-0.143 z m 4.484944,0.143 c -0.347111,-0.22432 -0.343958,-0.25699 0.02514,-0.26054 0.919748,-0.009 1.272892,-0.86818 1.352782,-3.2918999 0.08095,-2.45577 0.397815,-3.08654 1.364241,-2.71568 0.363864,0.13962 0.432838,0.62276 0.432838,3.0319 0,1.8761799 -0.10964,2.9754399 -0.3175,3.1832999 -0.379472,0.37947 -2.297238,0.41499 -2.8575,0.0529 z m 14.74713,-0.0513 c -0.06795,-0.19007 -0.0011,-0.58243 0.148465,-0.87189 0.149605,-0.28947 0.282344,-1.97622 0.294977,-3.7483499 0.01263,-1.77212 0.112266,-3.3113 0.221407,-3.42039 0.10914,-0.1091 0.202688,0.0894 0.207883,0.44105 0.02626,1.77745 0.228949,6.5423599 0.302945,7.1216999 0.0649,0.50814 -0.04724,0.68023 -0.483825,0.74247 -0.312571,0.0446 -0.623904,-0.0745 -0.691852,-0.26459 z"
     id="path37" /></svg>
