<?xml version="1.0" encoding="UTF-8" standalone="no"?>
<!-- Created with Inkscape (http://www.inkscape.org/) -->

<svg
   width="169.63448mm"
   height="67.271484mm"
   viewBox="0 0 169.63448 67.271484"
   version="1.1"
   id="svg1"
   xml:space="preserve"
   xmlns:inkscape="http://www.inkscape.org/namespaces/inkscape"
   xmlns:sodipodi="http://sodipodi.sourceforge.net/DTD/sodipodi-0.dtd"
   xmlns="http://www.w3.org/2000/svg"
   xmlns:svg="http://www.w3.org/2000/svg"><sodipodi:namedview
     id="namedview1"
     pagecolor="#ffffff"
     bordercolor="#666666"
     borderopacity="1.0"
     inkscape:showpageshadow="2"
     inkscape:pageopacity="0.0"
     inkscape:pagecheckerboard="0"
     inkscape:deskcolor="#d1d1d1"
     inkscape:document-units="mm" /><defs
     id="defs1" /><g
     inkscape:label="Warstwa 1"
     inkscape:groupmode="layer"
     id="layer1"
     transform="translate(-20.182755,-99.738996)"><path
       style="fill:#000000"
       d="m 20.676353,166.69661 c -0.473305,-0.33152 -0.493598,-1.06715 -0.493598,-17.89313 0,-14.86741 0.0576,-17.5952 0.377167,-17.86041 0.282414,-0.23438 4.320481,-0.30144 16.073438,-0.26694 8.632948,0.0253 46.473924,0.0451 84.09106,0.044 45.96579,-0.001 68.50325,0.0861 68.72552,0.26694 0.50777,0.41309 0.48032,35.20491 -0.0281,35.62687 -0.56667,0.47029 -168.074909,0.5524 -168.745477,0.0827 z m 26.688241,-4.28959 c 3.38965,-0.40535 4.475187,-0.69552 4.693244,-1.25453 0.219217,-0.56198 0.219672,-14.62338 4.8e-4,-14.84257 -0.161363,-0.16136 -10.502109,-0.0595 -10.67203,0.10512 -0.05248,0.0508 -0.159049,0.88509 -0.236813,1.85388 -0.171035,2.13073 -0.0686,2.22734 2.367755,2.23291 2.382529,0.005 2.59469,0.30934 2.59469,3.71652 0,1.63987 -0.119405,2.69969 -0.337813,2.99838 -0.487047,0.66608 -2.04513,0.94856 -5.271559,0.95576 -3.502318,0.008 -5.385397,-0.37188 -6.375188,-1.28543 -1.462387,-1.34974 -1.509189,-1.60676 -1.509189,-8.28801 0,-3.39155 0.117119,-6.58239 0.260264,-7.09075 0.420204,-1.4923 2.131572,-2.81011 4.092868,-3.15166 3.238671,-0.56399 11.014204,-0.16069 13.440574,0.69713 1.719855,0.60804 1.911085,0.36446 1.859402,-2.36846 -0.03084,-1.63074 -0.144153,-2.24516 -0.456127,-2.47328 -0.598157,-0.43738 -9.026892,-0.99933 -12.450106,-0.83005 -3.000222,0.14836 -6.539088,0.71851 -7.430535,1.19715 -0.278831,0.14971 -0.922346,0.42741 -1.430034,0.61711 -0.507688,0.18971 -1.548017,0.97994 -2.311843,1.75607 -2.15881,2.19359 -2.240148,2.66577 -2.140168,12.42391 l 0.08341,8.14112 0.656759,0.92604 c 1.532161,2.16038 3.227532,3.19009 6.385539,3.87838 2.122615,0.46262 9.708924,0.86222 10.879126,0.57304 0.397929,-0.0983 1.88621,-0.31784 3.307291,-0.48778 z m 17.598888,-0.0359 c 0.415512,-0.21731 0.463021,-0.74344 0.463021,-5.12764 0,-4.53271 0.03821,-4.92369 0.529167,-5.41465 0.60486,-0.60486 0.919414,-0.6423 2.058913,-0.24507 0.897434,0.31285 1.936705,1.64512 5.686247,7.28938 2.659502,4.0034 2.292836,3.80361 6.980591,3.80361 3.434234,0 3.876329,-0.25995 2.638825,-1.55163 -0.382704,-0.39946 -0.695827,-0.82231 -0.695827,-0.93967 0,-0.11737 -0.455762,-0.7657 -1.012806,-1.44073 -0.557043,-0.67504 -1.475021,-1.94172 -2.039951,-2.81485 -0.564931,-0.87312 -1.536921,-2.22227 -2.159979,-2.9981 -0.930895,-1.15914 -1.084404,-1.50108 -0.861155,-1.91822 0.149422,-0.2792 0.510489,-0.50764 0.802372,-0.50764 0.881142,0 3.604365,-1.56541 4.292348,-2.4674 0.878954,-1.15237 1.050881,-2.13737 1.055459,-6.0469 0.0036,-3.1167 -0.04708,-3.45917 -0.714399,-4.82313 -0.646374,-1.32114 -0.888304,-1.54932 -2.415247,-2.27807 -1.345544,-0.64217 -2.259746,-0.86061 -4.415009,-1.05494 -3.1656,-0.28542 -15.458988,-0.31396 -16.159624,-0.0375 -0.451354,0.17809 -0.476411,0.94034 -0.466879,14.20276 0.0055,7.70801 0.01181,14.09558 0.01393,14.1946 0.0064,0.29746 1.06401,0.42161 3.575733,0.41974 1.309687,-9.8e-4 2.589609,-0.11075 2.84427,-0.24394 z m 0.961869,-15.77914 c -0.446498,-0.31274 -0.498848,-0.7211 -0.498848,-3.89128 0,-4.4123 -0.02937,-4.37782 3.696892,-4.34011 5.440222,0.0551 6.621858,0.82025 6.621858,4.28812 0,1.57995 -0.0998,1.98498 -0.674923,2.739 -0.412713,0.54109 -0.906114,0.88487 -1.27,0.88487 -0.327292,0 -0.727175,0.1321 -0.888628,0.29355 -0.444463,0.44446 -6.357461,0.46634 -6.986351,0.0259 z M 92.7795,162.12482 c 0.186388,-0.20576 0.802467,-1.77357 1.369065,-3.48401 0.656155,-1.9808 1.185622,-3.15923 1.45832,-3.24578 0.650936,-0.2066 9.300055,-0.23294 9.903995,-0.0302 0.59844,0.20094 1.11674,1.22342 2.18965,4.31973 1.05027,3.03096 0.99977,2.99216 3.89509,2.99216 2.8921,0 4.10172,-0.2007 4.10172,-0.68053 0,-0.1924 -0.29766,-0.90962 -0.66146,-1.59384 -0.3638,-0.68422 -0.66146,-1.44206 -0.66146,-1.68409 0,-0.24204 -0.22415,-0.90892 -0.4981,-1.48195 -0.27396,-0.57304 -0.58536,-1.4586 -0.69201,-1.96793 -0.10665,-0.50932 -0.29816,-1.05602 -0.42558,-1.21488 -0.24216,-0.30194 -1.32603,-3.34615 -1.92686,-5.41191 -0.19241,-0.66155 -0.48816,-1.46126 -0.6572,-1.77713 -0.16905,-0.31586 -0.53673,-1.26287 -0.81707,-2.10446 -0.28034,-0.84159 -0.86377,-2.48266 -1.29651,-3.64683 -0.43274,-1.16416 -1.17243,-3.18823 -1.64376,-4.49791 -0.47133,-1.30969 -0.97197,-2.53008 -1.11254,-2.71198 -0.18484,-0.23919 -1.38278,-0.33073 -4.32811,-0.33073 h -4.072539 l -0.524496,0.85989 c -0.288472,0.47295 -0.713805,1.51474 -0.945183,2.31511 -0.231378,0.80036 -0.586697,1.81239 -0.789599,2.24896 -0.202902,0.43656 -0.595718,1.44859 -0.872924,2.24896 -1.031287,2.97758 -1.162605,3.33053 -1.624246,4.36562 -0.259604,0.58208 -0.65401,1.59412 -0.876456,2.24896 -0.222447,0.65484 -0.838018,2.38125 -1.367936,3.83646 -0.529919,1.45521 -1.124308,3.15738 -1.320865,3.7826 -0.196558,0.62523 -0.465582,1.28007 -0.597831,1.45521 -0.13225,0.17514 -0.39053,0.85422 -0.573957,1.50906 -0.183426,0.65485 -0.56146,1.58439 -0.840074,2.06565 -0.592334,1.02316 -0.628674,1.40909 -0.175842,1.86745 0.475486,0.48128 5.91506,0.26686 6.384768,-0.25169 z m 5.073681,-11.84299 c -0.406529,-0.0782 -0.452604,-0.26972 -0.311905,-1.29623 0.0908,-0.66243 0.271844,-1.3355 0.402327,-1.4957 0.130482,-0.1602 0.429695,-0.94612 0.664917,-1.74649 0.934922,-3.18116 1.77201,-5.02708 2.27967,-5.02708 0.63972,0 0.74613,0.20231 1.07041,2.03521 0.14952,0.84516 0.49485,2.01291 0.76738,2.595 0.6542,1.39725 1.09484,2.96205 1.15147,4.08913 l 0.0459,0.91414 -2.7966,0.0119 c -1.538137,0.007 -3.011254,-0.0294 -3.273599,-0.0799 z m 27.071579,12.15632 c 0.28468,-0.18032 0.38187,-1.40327 0.44653,-5.61834 0.0455,-2.96332 0.0901,-5.46441 0.0991,-5.55799 0.0415,-0.42798 1.33827,-0.52524 6.76337,-0.50726 3.20145,0.0106 6.17802,-0.0789 6.61458,-0.19901 0.77889,-0.21421 0.79521,-0.25432 0.87198,-2.14282 0.0484,-1.19075 -0.0396,-2.0665 -0.23083,-2.29692 -0.25011,-0.30136 -1.5298,-0.3724 -6.70839,-0.3724 -4.9124,0 -6.51133,-0.0819 -6.88137,-0.35247 -0.40777,-0.29818 -0.48831,-0.77711 -0.52278,-3.10886 -0.0304,-2.056 0.056,-2.87403 0.34018,-3.2194 0.34527,-0.41967 1.03519,-0.46302 7.36878,-0.46302 4.31092,0 7.18389,-0.10492 7.49961,-0.27389 0.43548,-0.23306 0.51178,-0.56695 0.51178,-2.23965 0,-1.6727 -0.0763,-2.00659 -0.51178,-2.23965 -0.79427,-0.42508 -21.49947,-0.37157 -21.99338,0.0568 -0.32487,0.28178 -0.3702,2.4131 -0.30628,14.40255 l 0.075,14.07183 0.58644,0.11349 c 1.11755,0.21629 5.61521,0.17639 5.9774,-0.053 z m 28.04877,-0.12206 c 0.21638,-0.26072 0.28034,-4.27452 0.23083,-14.48594 l -0.0685,-14.12528 -2.97775,-0.0748 c -1.76375,-0.0443 -3.19394,0.0409 -3.50804,0.20898 -0.52181,0.27927 -0.5292,0.50902 -0.46184,14.35043 l 0.0685,14.06662 0.66146,0.18396 c 1.27831,0.35551 5.73312,0.26433 6.05536,-0.12395 z m 10.4005,-0.11437 c 0.18683,-0.18683 0.4833,-0.90053 0.65882,-1.58598 0.63321,-2.47294 1.59113,-4.89934 2.07345,-5.25202 0.57979,-0.42396 8.94339,-0.52212 9.96496,-0.11695 0.60933,0.24166 1.02093,1.0649 2.32582,4.65185 0.93106,2.55933 0.611,2.37252 4.20715,2.45558 2.70302,0.0624 3.2431,0.009 3.37474,-0.3341 0.0862,-0.22463 -5.2e-4,-0.59791 -0.19273,-0.8295 -0.35567,-0.42856 -1.27904,-2.8698 -1.9898,-5.26073 -0.2163,-0.7276 -0.58181,-1.66624 -0.81223,-2.08586 -0.23043,-0.41962 -0.51187,-1.13399 -0.62543,-1.5875 -0.11356,-0.45351 -0.64251,-2.01518 -1.17545,-3.47039 -0.53293,-1.45521 -1.15042,-3.24115 -1.37219,-3.96875 -0.22177,-0.7276 -0.49437,-1.44198 -0.60579,-1.5875 -0.11142,-0.14552 -0.40328,-0.91943 -0.64858,-1.71979 -0.2453,-0.80037 -0.56429,-1.67089 -0.70886,-1.93449 -0.14458,-0.26361 -0.48632,-1.15658 -0.75942,-1.98438 -0.64862,-1.96603 -1.15169,-3.27751 -1.41464,-3.6879 -0.154,-0.24035 -1.29128,-0.33073 -4.16173,-0.33073 h -3.94981 l -0.66478,1.05307 c -0.36563,0.5792 -0.66478,1.20595 -0.66478,1.3928 0,0.18685 -0.25156,0.99289 -0.55902,1.7912 -1.48632,3.8591 -1.91536,4.99901 -2.37791,6.31781 -0.27523,0.78472 -0.59914,1.55862 -0.7198,1.71979 -0.12065,0.16117 -0.37283,0.82882 -0.56038,1.48366 -0.18756,0.65485 -0.55599,1.66688 -0.81873,2.24896 -0.26275,0.58208 -0.55716,1.35599 -0.65425,1.71979 -0.19029,0.71299 -1.5896,4.55629 -1.97482,5.42396 -0.12921,0.29104 -0.4886,1.23714 -0.79864,2.10245 -0.31004,0.8653 -0.75629,1.89929 -0.99167,2.29775 -0.36649,0.62042 -0.37538,0.78782 -0.0619,1.16552 0.31127,0.37505 0.81138,0.42691 3.34238,0.34657 1.95731,-0.0621 3.09264,-0.21079 3.31604,-0.43419 z m 7.69937,-11.67749 c -3.17568,-0.17714 -3.49847,-0.3677 -3.05872,-1.80563 1.16971,-3.82486 2.68724,-7.8105 3.065,-8.04996 0.64812,-0.41082 1.18118,0.3263 1.51196,2.09073 0.18491,0.98638 0.48627,2.03154 0.66968,2.32258 0.18341,0.29105 0.59543,1.51283 0.91561,2.71509 0.46767,1.7561 0.51788,2.26334 0.25533,2.57968 -0.17974,0.21658 -0.40152,0.37225 -0.49284,0.34595 -0.0913,-0.0263 -1.38103,-0.11561 -2.86602,-0.19844 z M 43.201504,129.67882 c -0.509323,-0.0466 -1.938073,-0.3337 -3.175,-0.6379 -1.857703,-0.45687 -2.485261,-0.7542 -3.607237,-1.70906 -0.747054,-0.63578 -1.699554,-1.78367 -2.116667,-2.55087 l -0.758388,-1.3949 v -8.59896 -8.59896 l 1.023441,-1.67356 c 0.580098,-0.94859 1.325091,-1.80643 1.719791,-1.9803 0.382994,-0.16871 0.845328,-0.50751 1.02741,-0.75288 0.182081,-0.24538 0.700513,-0.5273 1.15207,-0.62647 0.451557,-0.0992 1.355368,-0.4167 2.008469,-0.7056 2.418857,-1.069974 12.084742,-0.893374 15.064423,0.27525 l 1.287729,0.50503 0.06768,2.08239 c 0.09332,2.87131 0.06643,2.89741 -2.624739,2.54687 -1.212993,-0.15801 -2.741223,-0.41126 -3.396067,-0.56279 -1.755869,-0.40632 -5.718197,-0.36656 -6.706888,0.0673 -0.458555,0.20122 -1.230706,0.51747 -1.71589,0.70278 -0.496707,0.18971 -0.988036,0.61541 -1.12448,0.97429 -0.133278,0.35055 -0.242325,3.94597 -0.242325,7.98983 0,7.34685 4.76e-4,7.35299 0.620601,8.02212 0.34133,0.3683 1.189903,0.92147 1.885717,1.22926 1.829691,0.80936 6.676457,0.79516 9.996177,-0.0293 l 2.371299,-0.58891 0.531106,0.65506 c 0.449056,0.55385 0.50997,0.91916 0.394292,2.3646 -0.176484,2.20522 -0.584888,2.56072 -3.166959,2.75671 -2.52447,0.19161 -9.34106,0.34652 -10.515565,0.23897 z m 28.045832,-0.25347 c -0.363802,-0.072 -0.764489,-0.22985 -0.890416,-0.35073 -0.125927,-0.12088 -0.209445,-2.52728 -0.185597,-5.34756 0.04111,-4.86209 0.01149,-5.19571 -0.571655,-6.43855 -0.338259,-0.72091 -0.969115,-1.79464 -1.401903,-2.38605 -0.432788,-0.59141 -1.025012,-1.54391 -1.316053,-2.11667 -0.291042,-0.57275 -0.599005,-1.1009 -0.684362,-1.17366 -0.08536,-0.0728 -0.502077,-0.7056 -0.926042,-1.4063 -0.423966,-0.70071 -0.892342,-1.47461 -1.040836,-1.71979 -0.148494,-0.24518 -0.594978,-0.94943 -0.992187,-1.56501 -0.397209,-0.61557 -0.722198,-1.22607 -0.722198,-1.35666 0,-0.1306 -0.176764,-0.38415 -0.392808,-0.56345 -0.216044,-0.1793 -0.653867,-0.84872 -0.97294,-1.4876 -0.319073,-0.63888 -0.65898,-1.16161 -0.755348,-1.16161 -0.152057,0 -0.789321,-1.16966 -0.789321,-1.44876 0,-0.0555 0.187098,-0.28804 0.415774,-0.51671 0.330971,-0.33097 1.052226,-0.415784 3.536193,-0.415784 3.637603,0 3.956122,0.150104 5.143331,2.423714 0.405734,0.77701 1.074279,2.00806 1.485655,2.73567 0.411376,0.7276 0.947298,1.73963 1.190937,2.24896 0.243639,0.50932 0.548843,1.10463 0.67823,1.32291 0.129388,0.21829 0.430702,0.78383 0.669587,1.25677 0.736876,1.45886 1.333388,1.14117 2.637218,-1.40456 2.289063,-4.46938 3.898774,-7.36486 4.384724,-7.88704 0.459044,-0.49327 0.875203,-0.57555 3.313325,-0.65507 1.533589,-0.05 3.193909,-0.0149 3.689601,0.0781 0.774007,0.1452 0.901258,0.27516 0.901258,0.92041 0,0.50945 -0.212942,0.89085 -0.661459,1.18473 -0.363802,0.23837 -0.661458,0.59139 -0.661458,0.78448 0,0.1931 -0.357187,0.84416 -0.79375,1.44682 -0.436562,0.60266 -0.79375,1.15034 -0.79375,1.21706 0,0.0667 -0.327422,0.6333 -0.727604,1.25906 -0.400182,0.62576 -0.870325,1.37587 -1.044762,1.66691 -1.511356,2.52165 -2.638092,4.29079 -2.918804,4.58296 -0.184752,0.1923 -0.335913,0.46813 -0.335913,0.61297 0,0.14484 -0.296262,0.65176 -0.658361,1.12649 -0.362098,0.47474 -0.970266,1.44906 -1.351485,2.16516 -0.684862,1.28649 -0.692632,1.36378 -0.651808,6.48455 0.03657,4.58746 -0.01036,5.22546 -0.408711,5.55625 -0.456784,0.37932 -4.037035,0.59664 -5.396302,0.32755 z m 20.108333,-0.0522 -0.661458,-0.18933 -0.226675,-13.81471 c -0.124671,-7.5981 -0.153477,-14.10636 -0.06401,-14.46281 0.118005,-0.47017 0.398144,-0.69159 1.020424,-0.80653 0.47177,-0.0871 5.416341,-0.122114 10.98794,-0.0777 8.65652,0.069 10.16663,0.13843 10.38084,0.47757 0.36675,0.58065 0.32071,4.06557 -0.0587,4.445 -0.23106,0.23106 -2.23691,0.3175 -7.36733,0.3175 -6.378218,0 -7.089712,0.0441 -7.468536,0.46302 -0.314334,0.3476 -0.435607,1.14845 -0.486482,3.21259 -0.09691,3.93211 -0.492951,3.73272 7.414158,3.73272 4.52216,0 6.3562,0.0884 6.58527,0.3175 0.18417,0.18417 0.3175,1.06676 0.3175,2.10167 0,2.66001 0.14686,2.60792 -7.3523,2.60792 -3.39693,0 -6.386256,0.1124 -6.642947,0.24977 -0.420595,0.2251 -0.469787,0.77797 -0.497836,5.59523 -0.01712,2.94 -0.142392,5.45673 -0.278387,5.59272 -0.308116,0.30812 -4.703882,0.49481 -5.601444,0.2379 z m 27.780661,-0.10767 -0.79316,-0.206 V 114.773 100.48651 l 0.67868,-0.25803 c 0.90913,-0.345654 12.08627,-0.330274 14.4839,0.0199 3.69947,0.54035 5.86322,1.12068 6.95875,1.86638 1.04123,0.70874 1.29184,1.11333 1.93305,3.12067 0.37557,1.17574 0.36803,5.33865 -0.0133,7.32472 -0.41332,2.15293 -1.81459,3.63816 -4.01499,4.25556 -1.11907,0.31399 -1.63268,0.60732 -1.83292,1.04678 -0.30811,0.67624 -0.35512,0.58718 1.71669,3.2517 0.69122,0.88897 1.25677,1.68246 1.25677,1.7633 0,0.1563 0.41053,0.72178 3.044,4.19283 1.26951,1.67328 1.35249,1.8722 0.89816,2.153 -0.43442,0.26848 -6.69562,0.23002 -7.18515,-0.0442 -0.23263,-0.13028 -1.53636,-1.90375 -2.89719,-3.94104 -2.75844,-4.12964 -3.62591,-5.37391 -4.11243,-5.89873 -0.1819,-0.19623 -0.33073,-0.4581 -0.33073,-0.58194 0,-0.37691 -1.75392,-0.83009 -2.49388,-0.64437 -0.38229,0.096 -0.811,0.39106 -0.95268,0.65579 -0.14168,0.26474 -0.2576,2.69556 -0.2576,5.40183 0,3.69317 -0.0825,4.95174 -0.33073,5.0458 -0.59063,0.22378 -4.93974,0.26077 -5.75528,0.0489 z m 15.75895,-16.95329 c 0.83801,-0.94173 0.87721,-1.07725 0.79941,-2.76341 -0.16342,-3.54171 -0.84184,-3.9784 -6.5036,-4.18632 -3.86841,-0.14206 -3.78993,-0.2258 -3.87071,4.13008 -0.0553,2.97893 -0.004,3.47231 0.38214,3.71302 0.27726,0.17262 1.93304,0.24343 4.3787,0.18726 l 3.93284,-0.0903 z m 19.90833,16.65717 c -3.13186,-0.82912 -4.46879,-1.77849 -5.84107,-4.1478 l -0.67816,-1.17089 -0.0878,-8.46666 -0.0878,-8.46667 0.70397,-1.32292 c 1.27112,-2.38867 3.05156,-3.71363 6.43978,-4.7923 2.23194,-0.710564 2.66326,-0.758284 6.87916,-0.761024 4.59011,-0.003 5.12921,0.0802 8.76123,1.351944 0.59856,0.20958 1.80413,1.02885 2.67903,1.82059 2.45203,2.21895 2.51184,2.51563 2.46559,12.23046 -0.0422,8.85572 -0.0728,9.04546 -1.7666,10.92024 -1.18474,1.31137 -2.53216,2.15918 -4.06807,2.55965 -0.65561,0.17094 -1.66826,0.436 -2.25034,0.589 -0.58209,0.15301 -3.26099,0.27535 -5.95313,0.27187 -4.25344,-0.006 -5.19629,-0.0862 -7.19581,-0.61549 z m 12.1827,-4.80752 c 0.82299,-0.4336 1.51485,-1.00811 1.65364,-1.37317 0.13125,-0.34521 0.23543,-3.86436 0.23152,-7.82033 l -0.007,-7.19267 -0.72048,-0.86695 c -0.91692,-1.10331 -2.83458,-1.698 -5.93849,-1.84159 -1.87604,-0.0868 -2.63,0.002 -4.03167,0.47562 -2.88412,0.9742 -2.63796,0.18936 -2.78887,8.89188 -0.0728,4.1957 -0.0334,7.94997 0.0874,8.34283 0.14889,0.48411 0.60781,0.90217 1.42417,1.29736 1.67504,0.81088 2.43293,0.9261 5.76296,0.87619 2.63667,-0.0395 3.04571,-0.11413 4.32696,-0.78917 z"
       id="path1" /></g></svg>
