<?xml version="1.0" encoding="UTF-8" standalone="no"?>
<!-- Created with Inkscape (http://www.inkscape.org/) -->

<svg
   width="63.27977mm"
   height="26.659615mm"
   viewBox="0 0 63.27977 26.659615"
   version="1.1"
   id="svg1"
   xml:space="preserve"
   xmlns:inkscape="http://www.inkscape.org/namespaces/inkscape"
   xmlns:sodipodi="http://sodipodi.sourceforge.net/DTD/sodipodi-0.dtd"
   xmlns="http://www.w3.org/2000/svg"
   xmlns:svg="http://www.w3.org/2000/svg"><sodipodi:namedview
     id="namedview1"
     pagecolor="#ffffff"
     bordercolor="#666666"
     borderopacity="1.0"
     inkscape:showpageshadow="2"
     inkscape:pageopacity="0.0"
     inkscape:pagecheckerboard="0"
     inkscape:deskcolor="#d1d1d1"
     inkscape:document-units="mm" /><defs
     id="defs1" /><g
     inkscape:label="Warstwa 1"
     inkscape:groupmode="layer"
     id="layer1"
     transform="translate(-113.55879,-153.07302)"><g
       id="g21"
       transform="rotate(-15.8,145.15461,166.40951)"><path
         style="fill:#dde1dd"
         d="m 138.47298,173.63245 c -0.25566,0.003 -0.3094,-0.19522 -0.18615,-0.68628 l 0.17326,-0.69032 -0.72119,0.56728 c -0.60852,0.47867 -0.77747,0.511 -1.08149,0.20699 -0.26746,-0.26746 -0.29169,-0.52552 -0.094,-1.00144 0.14645,-0.35263 0.50198,-0.91413 0.79007,-1.24779 0.33342,-0.38616 0.88973,-0.63928 1.53054,-0.69642 0.66683,-0.0594 1.03563,-0.23428 1.09229,-0.51782 0.0471,-0.23544 0.18143,-0.42807 0.29863,-0.42807 0.11719,0 0.36331,-0.36269 0.54693,-0.80599 0.18697,-0.45138 0.49826,-0.7715 0.70754,-0.7276 0.20552,0.0431 0.39715,0.14913 0.42585,0.2356 0.0287,0.0865 -0.4718,1.03566 -1.11221,2.10931 -0.6404,1.07366 -1.33381,2.12154 -1.5409,2.32863 -0.30958,0.30959 -0.31425,0.41674 -0.0263,0.60267 0.28501,0.184 0.27633,0.27468 -0.0466,0.48667 -0.21828,0.14329 -0.55861,0.26235 -0.75629,0.26458 z m -0.83121,-1.05428 c 0.14552,0 0.26458,-0.11104 0.26458,-0.24676 0,-0.13571 0.23204,-0.3204 0.51563,-0.41041 0.2836,-0.09 0.59213,-0.40466 0.68562,-0.69922 0.0935,-0.29457 0.0983,-0.60722 0.0108,-0.69478 -0.0876,-0.0876 -0.51515,0.1818 -0.9502,0.5986 -0.43504,0.4168 -0.79099,0.91414 -0.79099,1.10519 0,0.19106 0.11906,0.34738 0.26458,0.34738 z m -4.74842,0.26458 c -0.0951,0 -0.31571,-0.14287 -0.49033,-0.3175 -0.17463,-0.17462 -0.3175,-0.64385 -0.3175,-1.04272 0,-0.39887 -0.11906,-0.7988 -0.26459,-0.88874 -0.14552,-0.0899 -0.26458,-0.0416 -0.26458,0.10737 0,0.14899 -0.2309,0.39446 -0.51311,0.5455 -0.30474,0.16309 -0.57404,0.17601 -0.66316,0.0318 -0.0825,-0.13354 0.2596,-0.77948 0.76029,-1.43543 0.5007,-0.65594 1.12654,-1.57402 1.39077,-2.04018 0.26423,-0.46616 0.63574,-1.13022 0.82559,-1.47571 0.18984,-0.34548 0.51023,-0.62815 0.71199,-0.62815 0.20175,0 0.43706,0.11366 0.52292,0.25257 0.0858,0.13891 -0.27595,0.85395 -0.80401,1.58897 -0.92362,1.28561 -0.93653,1.33382 -0.33978,1.26878 0.46467,-0.0507 0.64145,0.0794 0.70451,0.51835 0.0643,0.44778 -0.083,0.62791 -0.62464,0.76386 -0.6707,0.16834 -0.70216,0.24708 -0.58518,1.46456 0.068,0.70766 0.0459,1.28666 -0.0492,1.28666 z m -0.14637,-2.91042 c 0.21828,0 0.39687,-0.11906 0.39687,-0.26458 0,-0.14552 -0.17859,-0.26458 -0.39687,-0.26458 -0.21828,0 -0.39688,0.11906 -0.39688,0.26458 0,0.14552 0.1786,0.26458 0.39688,0.26458 z m 2.14232,2.89365 c -0.0141,-0.009 -0.29355,-0.12445 -0.62097,-0.25606 -0.39457,-0.1586 -0.59531,-0.4621 -0.59531,-0.90006 0,-0.36343 0.36952,-1.08164 0.82116,-1.59603 0.57143,-0.65083 1.0456,-0.93525 1.55919,-0.93525 0.43751,0 0.80529,0.17526 0.9032,0.43041 0.0908,0.23673 0.0295,0.59392 -0.13638,0.79375 -0.16585,0.19984 -0.62035,0.36334 -1.00999,0.36334 -0.38964,0 -0.85131,0.14288 -1.02593,0.3175 -0.17463,0.17463 -0.3175,0.42764 -0.3175,0.56224 0,0.13461 0.35719,0.17331 0.79375,0.086 0.43656,-0.0873 0.79375,-0.0864 0.79375,0.002 0,0.0884 -0.25634,0.38311 -0.56965,0.65484 -0.31331,0.27174 -0.5812,0.48651 -0.59532,0.47729 z m 0.42175,-2.37289 c 0.24607,0.005 0.52589,-0.11857 0.62181,-0.27378 0.0959,-0.1552 0.12402,-0.33256 0.0624,-0.39414 -0.0616,-0.0616 -0.34139,0.0616 -0.62181,0.27377 -0.44764,0.33866 -0.45526,0.38676 -0.0625,0.39415 z m -6.52421,0.27299 c -0.17791,0 -0.52828,-0.2263 -0.77859,-0.5029 -0.35084,-0.38766 -0.37897,-0.54996 -0.12277,-0.7083 0.1885,-0.1165 0.37728,-0.0706 0.43616,0.10603 0.0571,0.17128 0.20248,0.31142 0.32309,0.31142 0.1206,0 0.30273,-0.50601 0.40474,-1.12448 0.102,-0.61846 0.30564,-1.2733 0.45253,-1.4552 0.14688,-0.1819 0.49434,-0.33073 0.77214,-0.33073 0.27779,0 0.57557,0.18373 0.66174,0.40828 0.0862,0.22456 0.0661,0.49245 -0.0445,0.59532 -0.11066,0.10286 -0.25435,0.0382 -0.31931,-0.14371 -0.065,-0.1819 -0.21374,-0.33073 -0.33062,-0.33073 -0.11687,0 -0.29668,0.56555 -0.39958,1.25677 -0.10291,0.69123 -0.3096,1.4056 -0.45932,1.5875 -0.14972,0.18191 -0.41778,0.33073 -0.59569,0.33073 z m -1.86777,-0.8973 c -0.14163,0.0375 -0.55081,-0.0485 -0.90928,-0.1911 -0.35847,-0.14258 -0.69221,-0.29968 -0.74165,-0.34911 -0.0494,-0.0494 0.33259,-0.54989 0.84895,-1.11212 0.51635,-0.56223 0.93939,-1.11154 0.94008,-1.22068 7e-4,-0.10914 -0.21556,-0.19844 -0.48057,-0.19844 -0.26501,0 -1.03762,0.53254 -1.71692,1.18343 -0.78729,0.75436 -1.38314,1.1266 -1.64345,1.02671 -0.31192,-0.11969 -0.1095,-0.43365 0.85702,-1.32929 0.69597,-0.64493 1.62258,-1.50668 2.05914,-1.91501 0.43657,-0.40833 1.2974,-1.05706 1.91297,-1.44162 0.61558,-0.38457 1.30392,-0.69922 1.52966,-0.69922 0.22574,0 0.48765,0.20122 0.58203,0.44716 0.0947,0.24668 0.0346,0.49282 -0.13402,0.54902 -0.16809,0.056 -0.85967,0.89446 -1.53686,1.86319 -0.71174,1.01815 -1.24777,2.08993 -1.27042,2.54014 -0.0215,0.42835 -0.15505,0.80947 -0.29668,0.84694 z m 0.12016,-3.33603 c 0.13496,0 0.49215,-0.31371 0.79375,-0.69714 0.3016,-0.38343 0.54837,-0.82242 0.54837,-0.97554 0,-0.15312 -0.35719,0.0638 -0.79375,0.48206 -0.43656,0.41825 -0.79375,0.85724 -0.79375,0.97554 0,0.11829 0.11042,0.21508 0.24538,0.21508 z m 35.82954,1.85208 c -0.35055,0 -0.70786,-0.18373 -0.79404,-0.40828 -0.0862,-0.22456 -0.0853,-0.47965 0.002,-0.56687 0.0872,-0.0872 0.32125,-0.0236 0.52006,0.1414 0.1988,0.165 0.43981,0.22165 0.53556,0.1259 0.0957,-0.0957 0.17409,-0.56246 0.17409,-1.03714 0,-0.47467 0.1871,-1.05014 0.41577,-1.27882 0.22868,-0.22867 0.70493,-0.41577 1.05834,-0.41577 0.39251,0 0.64256,0.15323 0.64256,0.39376 0,0.25062 -0.2164,0.37084 -0.59532,0.33073 -0.51639,-0.0547 -0.60669,0.0768 -0.68117,0.99195 -0.0472,0.58024 -0.21063,1.20531 -0.36313,1.38906 -0.15249,0.18375 -0.56407,0.33408 -0.91463,0.33408 z m -2.25882,-0.52916 c -0.26323,0 -0.47809,-0.0893 -0.47747,-0.19844 6.3e-4,-0.10914 0.35133,-0.72631 0.77935,-1.37148 0.42802,-0.64518 0.71965,-1.26782 0.64806,-1.38365 -0.0716,-0.11583 -0.333,-0.0837 -0.58091,0.0713 -0.24792,0.15506 -0.80102,0.74793 -1.22911,1.3175 -0.4281,0.56958 -0.93412,1.03559 -1.12448,1.03559 -0.19037,0 -0.34612,-0.16946 -0.34612,-0.37657 0,-0.20712 0.32548,-0.76339 0.72329,-1.23616 0.49798,-0.59182 0.61817,-0.89463 0.38583,-0.97208 -0.25895,-0.0863 -0.26579,-0.19883 -0.0294,-0.48363 0.16942,-0.20413 0.54546,-0.37114 0.83566,-0.37114 0.38634,0 0.49275,0.13334 0.3974,0.49796 -0.12386,0.47367 -0.0937,0.47698 0.61913,0.0679 0.61224,-0.35138 0.81185,-0.36756 1.09098,-0.0884 0.27914,0.27913 0.2381,0.53068 -0.2243,1.37486 -0.38451,0.70196 -0.46915,1.07429 -0.26402,1.16134 0.19214,0.0815 0.11518,0.27846 -0.21167,0.54161 -0.28247,0.22742 -0.72895,0.4135 -0.99218,0.4135 z m -3.98677,-1.05834 c -0.0522,0 -0.30705,-0.15516 -0.5664,-0.34479 -0.34704,-0.25377 -0.43534,-0.57445 -0.33445,-1.21461 0.0754,-0.4784 0.33313,-1.08644 0.57273,-1.3512 0.23961,-0.26476 0.73593,-0.55675 1.10295,-0.64887 0.37159,-0.0933 0.83194,-0.0308 1.03886,0.14089 0.20436,0.16961 0.37156,0.52632 0.37156,0.7927 0,0.26637 -0.14224,0.79651 -0.31609,1.17807 -0.17385,0.38156 -0.64419,0.86341 -1.04519,1.07078 -0.40101,0.20737 -0.77179,0.37703 -0.82397,0.37703 z m -0.2149,-0.52916 c 0.13513,0 0.44099,-0.1953 0.67969,-0.434 0.2387,-0.2387 0.62209,-0.72106 0.85198,-1.07192 0.32018,-0.48866 0.34523,-0.71067 0.10706,-0.94884 -0.23817,-0.23817 -0.49486,-0.0957 -1.09704,0.6089 -0.43237,0.5059 -0.78641,1.12817 -0.78675,1.38284 -3.4e-4,0.25466 0.10994,0.46302 0.24506,0.46302 z m -1.90934,-0.44214 c -0.28479,0.10153 -0.52801,0.0254 -0.61117,-0.19132 -0.076,-0.19798 0.10096,-0.7531 0.39318,-1.23362 0.29222,-0.48051 0.46269,-0.98468 0.37883,-1.12037 -0.0839,-0.1357 0.0116,-0.35064 0.21215,-0.47767 0.20055,-0.12702 0.57299,-0.23277 0.82765,-0.235 0.25466,-0.002 0.46302,0.12296 0.46302,0.27819 0,0.15523 -0.31905,0.70053 -0.70899,1.21177 -0.54008,0.70808 -0.62791,0.97966 -0.36863,1.1399 0.1872,0.1157 0.23836,0.26642 0.11368,0.33493 -0.12468,0.0685 -0.43955,0.20045 -0.69972,0.29319 z m -2.11042,-0.66462 c -0.44086,0.0509 -0.78252,-0.0612 -0.86834,-0.28487 -0.0778,-0.2028 0.15954,-0.89539 0.52748,-1.53907 0.36794,-0.64369 0.67416,-1.34894 0.68048,-1.56722 0.006,-0.21828 0.29828,-0.60541 0.64879,-0.86029 0.39068,-0.28408 0.70066,-0.36087 0.80105,-0.19843 0.0901,0.14573 0.0985,0.37054 0.0188,0.49957 -0.0797,0.12904 0.0323,0.38174 0.24897,0.56157 0.21668,0.17983 0.39396,0.43371 0.39396,0.56418 0,0.13048 -0.28078,0.16676 -0.62395,0.0806 -0.51289,-0.12873 -0.72482,0.0143 -1.19063,0.80383 -0.31166,0.52824 -0.56667,1.00943 -0.56667,1.0693 0,0.0599 0.19067,0.0357 0.42371,-0.0537 0.31179,-0.11964 0.39855,-0.0301 0.32847,0.33904 -0.0607,0.31959 -0.359,0.53205 -0.82209,0.58549 z m -2.53231,-0.74533 c -0.25682,0 -0.60982,-0.14287 -0.78444,-0.3175 -0.17463,-0.17462 -0.3175,-0.49609 -0.3175,-0.71437 0,-0.30868 0.0705,-0.32632 0.3175,-0.0794 0.17462,0.17463 0.47228,0.3175 0.66146,0.3175 0.22202,0 0.34395,-0.35727 0.34395,-1.00776 0,-0.55427 0.1555,-1.22042 0.34556,-1.48034 0.20884,-0.2856 0.59318,-0.43646 0.97146,-0.38129 0.34425,0.0502 0.68125,0.25907 0.74888,0.46416 0.0881,0.26714 -0.0126,0.32088 -0.355,0.18948 -0.28243,-0.10838 -0.56614,-0.0444 -0.6935,0.15627 -0.11855,0.18683 -0.21737,0.67494 -0.21959,1.08469 -0.002,0.40975 -0.12731,0.9753 -0.27795,1.25677 -0.15064,0.28148 -0.48401,0.51177 -0.74083,0.51177 z m -2.09413,-0.99635 c -0.32649,0.2881 -0.63855,0.34172 -1.05833,0.18182 -0.44337,-0.16887 -0.59532,-0.43946 -0.59532,-1.06015 0,-0.61532 0.26881,-1.10221 1.02721,-1.86061 0.56496,-0.56496 1.22364,-1.02721 1.46373,-1.02721 0.2401,0 0.53805,0.26789 0.66212,0.59532 0.13583,0.35846 0.11955,0.72689 -0.0409,0.92604 -0.14658,0.1819 -0.49788,0.33073 -0.78067,0.33073 -0.28279,0 -0.74447,0.12325 -1.02594,0.27389 -0.28148,0.15064 -0.51177,0.4483 -0.51177,0.66146 0,0.21316 0.15478,0.38756 0.34396,0.38756 0.18917,0 0.48683,-0.14287 0.66145,-0.3175 0.24695,-0.24694 0.3175,-0.22666 0.3175,0.0913 0,0.22483 -0.20836,0.59264 -0.46302,0.81736 z m -0.006,-2.17865 c 0.24088,0 0.51644,-0.12698 0.61236,-0.28218 0.0959,-0.15521 0.10011,-0.35648 0.009,-0.44727 -0.0908,-0.0908 -0.36636,0.0362 -0.61236,0.28218 -0.41247,0.41247 -0.41319,0.44727 -0.009,0.44727 z m -3.38393,1.85209 c -0.3391,0 -0.39873,-0.15479 -0.26496,-0.68777 l 0.17261,-0.68776 -0.78009,0.55547 c -0.42905,0.30551 -0.91054,0.55547 -1.06997,0.55547 -0.15944,0 -0.28989,-0.18998 -0.28989,-0.42217 0,-0.2322 0.24071,-0.76023 0.53491,-1.17339 0.2942,-0.41317 0.50256,-0.89685 0.46302,-1.07484 -0.0395,-0.17799 0.24878,-0.51 0.64071,-0.73779 0.39194,-0.22779 0.79037,-0.33641 0.8854,-0.24137 0.095,0.095 -0.20734,0.72531 -0.67196,1.40061 -0.46461,0.67529 -0.79633,1.27623 -0.73715,1.33541 0.0592,0.0592 0.69126,-0.48497 1.40462,-1.20922 0.71336,-0.72425 1.39079,-1.31682 1.5054,-1.31682 0.11461,0 0.20838,0.13759 0.20838,0.30576 0,0.16816 -0.27632,0.67418 -0.61406,1.12447 -0.33773,0.4503 -0.71538,0.99732 -0.83923,1.2156 -0.14129,0.24904 -0.0105,0.20858 0.3511,-0.10862 0.31695,-0.27802 0.6477,-0.43406 0.735,-0.34676 0.0873,0.0873 -0.14614,0.4636 -0.51876,0.83622 -0.37262,0.37262 -0.87441,0.6775 -1.11508,0.6775 z M 138.1709,162.764 c -0.21828,-0.009 -0.75406,-0.15544 -1.19063,-0.32627 -0.43656,-0.17083 -1.06164,-0.48807 -1.38906,-0.70498 -0.32742,-0.2169 -0.59531,-0.54433 -0.59531,-0.7276 0,-0.18328 0.0674,-0.33323 0.14969,-0.33323 0.0823,0 0.35876,0.11189 0.6143,0.24865 0.41314,0.22111 0.46305,0.1112 0.45056,-0.99219 -0.008,-0.68246 0.16233,-1.59803 0.37789,-2.03459 0.23165,-0.46913 0.87474,-1.03721 1.57248,-1.38906 0.6825,-0.34417 1.66425,-0.59531 2.32713,-0.59531 0.86459,0 1.30631,0.15972 1.79602,0.64943 0.417,0.417 0.64943,0.95031 0.64943,1.49012 0,0.46238 -0.25012,1.2454 -0.55583,1.74005 -0.30571,0.49464 -1.04086,1.14679 -1.63367,1.44922 -0.82082,0.41875 -1.41385,0.52201 -2.48688,0.43303 -0.77497,-0.0643 -1.40904,-0.089 -1.40904,-0.0549 0,0.0341 0.38696,0.30975 0.8599,0.61263 0.47294,0.30288 0.6813,0.54364 0.46302,0.53502 z m 0.0746,-1.30638 c 0.11381,0.004 0.60413,-0.15791 1.0896,-0.36075 0.48547,-0.20284 1.18546,-0.76839 1.55555,-1.25678 0.37008,-0.48838 0.73656,-1.3002 0.8144,-1.80404 0.0778,-0.50384 0.0143,-1.06939 -0.14124,-1.25677 -0.15551,-0.18738 -0.51807,-0.3407 -0.80568,-0.3407 -0.28761,0 -0.93193,0.19409 -1.43183,0.43131 -0.53021,0.2516 -1.18075,0.89516 -1.56134,1.5446 -0.35884,0.61231 -0.65244,1.42434 -0.65244,1.8045 0,0.38017 0.20836,0.81257 0.46302,0.9609 0.25466,0.14833 0.55614,0.27331 0.66996,0.27773 z m 18.49028,-0.25654 c -0.12126,0 -0.29986,-0.0794 -0.39687,-0.17639 -0.097,-0.097 -0.17639,-0.26286 -0.17639,-0.36856 0,-0.1057 0.17859,-0.26071 0.39687,-0.34448 0.26996,-0.10359 0.39688,0.0143 0.39688,0.36857 0,0.28648 -0.0992,0.52086 -0.22049,0.52086 z"
         id="path20" /><path
         style="fill:#a0a0a0"
         d="m 132.95576,173.10733 c -0.15195,0 -0.43969,-0.20836 -0.63941,-0.46302 -0.33589,-0.42829 -0.32344,-0.43391 0.16604,-0.0749 0.29104,0.21349 0.57878,0.42185 0.63941,0.46302 0.0606,0.0412 -0.0141,0.0749 -0.16604,0.0749 z m 4.7859,0 c -0.0549,0 -0.0999,-0.045 -0.0999,-0.0999 0,-0.0549 0.20836,-0.2633 0.46302,-0.46302 0.41965,-0.32911 0.42901,-0.31975 0.0999,0.0999 -0.19972,0.25466 -0.40808,0.46302 -0.46302,0.46302 z m -4.48113,-6.87916 c -0.0642,0 -0.11668,-0.11907 -0.11668,-0.26459 0,-0.14552 0.12609,-0.26458 0.2802,-0.26458 0.15411,0 0.20661,0.11906 0.11668,0.26458 -0.0899,0.14552 -0.21603,0.26459 -0.2802,0.26459 z m 3.99998,-4.23334 c -0.0642,0 -0.19026,-0.11906 -0.2802,-0.26458 -0.0899,-0.14552 -0.0374,-0.26458 0.11668,-0.26458 0.15411,0 0.28019,0.11906 0.28019,0.26458 0,0.14552 -0.0525,0.26458 -0.11667,0.26458 z m 14.68437,-0.26458 c -0.13693,0 -0.32171,-0.1177 -0.41062,-0.26155 -0.0927,-0.14998 0.0135,-0.19434 0.24897,-0.10399 0.22584,0.0867 0.41062,0.20436 0.41062,0.26156 0,0.0572 -0.11204,0.10398 -0.24897,0.10398 z"
         id="path19" /><path
         style="fill:#645e52"
         d="m 128.28146,170.72608 c -0.0549,0 -0.26331,-0.20836 -0.46302,-0.46302 -0.32911,-0.41964 -0.31975,-0.429 0.0999,-0.0999 0.25466,0.19972 0.46302,0.40808 0.46302,0.46302 0,0.0549 -0.045,0.0999 -0.0999,0.0999 z"
         id="path18" /><path
         style="fill:#5c4b37"
         d="m 169.78864,183.3745 c -0.43656,-0.005 -0.58312,-0.0647 -0.32569,-0.13177 0.25743,-0.0671 0.61462,-0.0627 0.79375,0.01 0.17913,0.0725 -0.0315,0.12737 -0.46806,0.12197 z m -2.4033,-0.23389 c -0.30822,-0.0127 -0.37092,-0.0754 -0.15985,-0.15985 0.191,-0.0764 0.4192,-0.067 0.50712,0.0209 0.0879,0.0879 -0.0683,0.15045 -0.34727,0.13896 z m -7.67291,-11.37708 c -0.30823,-0.0127 -0.37092,-0.0754 -0.15986,-0.15985 0.191,-0.0764 0.4192,-0.067 0.50712,0.0209 0.0879,0.0879 -0.0684,0.15046 -0.34726,0.13897 z m 7.14375,-1.32292 c -0.30823,-0.0127 -0.37092,-0.0754 -0.15986,-0.15985 0.191,-0.0764 0.4192,-0.067 0.50712,0.0209 0.0879,0.0879 -0.0683,0.15045 -0.34726,0.13896 z m -22.75417,-5.29166 c -0.30822,-0.0127 -0.37092,-0.0754 -0.15985,-0.15986 0.19099,-0.0764 0.4192,-0.067 0.50712,0.0209 0.0879,0.0879 -0.0683,0.15045 -0.34727,0.13897 z m -3.81441,-0.50828 c -0.14552,0 -0.26458,-0.12609 -0.26458,-0.2802 0,-0.15411 0.11906,-0.20661 0.26458,-0.11668 0.14552,0.0899 0.26458,0.21603 0.26458,0.2802 0,0.0642 -0.11906,0.11668 -0.26458,0.11668 z m -23.44393,-1.5875 c -0.0572,0 -0.10398,-0.11204 -0.10398,-0.24897 0,-0.13693 0.11769,-0.32171 0.26155,-0.41062 0.14998,-0.0927 0.19434,0.0135 0.10398,0.24897 -0.0867,0.22584 -0.20436,0.41062 -0.26155,0.41062 z m 1.01444,-2.05077 c -0.25381,0.20614 -0.29573,0.16653 -0.17013,-0.16077 0.10136,-0.26414 0.44064,-0.42227 0.86595,-0.4036 0.55166,0.0242 0.58757,0.0581 0.17013,0.16076 -0.29104,0.0715 -0.68072,0.25316 -0.86595,0.40361 z m 3.22515,-0.0868 c -0.30822,-0.0127 -0.37092,-0.0754 -0.15985,-0.15985 0.191,-0.0764 0.4192,-0.067 0.50712,0.0209 0.0879,0.0879 -0.0684,0.15045 -0.34727,0.13896 z m 39.6875,0 c -0.30822,-0.0127 -0.37092,-0.0754 -0.15985,-0.15985 0.19099,-0.0764 0.4192,-0.067 0.50712,0.0209 0.0879,0.0879 -0.0684,0.15045 -0.34727,0.13896 z m -25.24566,-6.37089 c -0.3638,0 -0.51263,-0.0601 -0.33073,-0.13345 0.1819,-0.0734 0.47956,-0.0734 0.66146,0 0.1819,0.0734 0.0331,0.13345 -0.33073,0.13345 z"
         id="path17" /><path
         style="fill:#6b1b1a"
         d="m 171.58288,187.63676 c -0.25923,-0.0125 -2.01913,-0.47166 -3.9109,-1.02044 -1.89178,-0.54878 -5.64224,-1.61553 -8.33438,-2.37057 -2.69214,-0.75503 -5.19245,-1.47625 -5.55625,-1.60269 -0.3638,-0.12645 -1.85208,-0.55031 -3.30729,-0.94191 -1.45521,-0.39161 -5.08661,-1.40562 -8.06979,-2.25336 -2.98318,-0.84774 -7.38849,-2.09018 -9.78959,-2.76098 -2.40109,-0.6708 -5.02046,-1.40294 -5.82083,-1.62698 -0.80036,-0.22403 -1.75286,-0.50346 -2.11667,-0.62096 -0.3638,-0.1175 -1.43536,-0.42162 -2.38125,-0.67582 -0.94588,-0.2542 -2.85088,-0.79512 -4.23333,-1.20203 -1.38245,-0.40692 -3.49773,-1.00545 -4.70064,-1.33008 -1.72418,-0.4653 -2.16031,-0.67919 -2.06058,-1.01056 0.0696,-0.23119 0.4807,-1.73003 0.91358,-3.33075 0.43288,-1.60073 1.98091,-7.12291 3.44006,-12.2715 1.45915,-5.14859 2.68708,-9.39402 2.72873,-9.43428 0.0416,-0.0403 1.92119,0.43682 4.17677,1.06016 2.25557,0.62334 5.58932,1.57212 7.40833,2.1084 1.81901,0.53627 4.14073,1.20919 5.15938,1.49536 1.01864,0.28618 2.68552,0.74716 3.70416,1.02441 1.01865,0.27725 5.48349,1.52891 9.92188,2.78147 4.43838,1.25255 9.73666,2.7631 11.77395,3.35677 2.0373,0.59366 4.77573,1.37066 6.08542,1.72666 1.30969,0.356 3.00633,0.81791 3.77031,1.02647 0.76399,0.20856 2.01414,0.54675 2.77813,0.75153 0.76398,0.20478 2.34156,0.63359 3.50573,0.9529 1.16417,0.31932 2.20685,0.66463 2.31707,0.76735 0.11022,0.10272 -0.039,1.01337 -0.33162,2.02366 -0.29261,1.01029 -1.35559,4.75392 -2.36218,8.31918 -1.00659,3.56526 -2.32394,8.26823 -2.92746,10.45104 -0.60351,2.18281 -1.14502,4.11758 -1.20335,4.29948 -0.0583,0.1819 -0.31816,0.32053 -0.57739,0.30807 z m -0.54767,-1.06177 c 0.3213,0.0185 0.53269,-0.30053 0.72775,-1.09839 0.15121,-0.61846 0.38794,-1.48166 0.52607,-1.91823 0.13812,-0.43656 1.45205,-5.08 2.91983,-10.31874 1.46778,-5.23875 2.72733,-9.71883 2.799,-9.95573 0.088,-0.29093 -0.0654,-0.47193 -0.47258,-0.55768 -0.33159,-0.0698 -2.44836,-0.67148 -4.70393,-1.33701 -2.25557,-0.66553 -7.13714,-2.06296 -10.84792,-3.1054 -3.71078,-1.04243 -9.90203,-2.78684 -13.75833,-3.87646 -3.8563,-1.08962 -7.54724,-2.13887 -8.20208,-2.33166 -0.65484,-0.19279 -3.39328,-0.9603 -6.08542,-1.70558 -2.69213,-0.74528 -5.90682,-1.64904 -7.14375,-2.00836 -1.23692,-0.35933 -3.48819,-1.01175 -5.00281,-1.44984 -1.51462,-0.43808 -2.78306,-0.76575 -2.81875,-0.72815 -0.0357,0.0376 -1.04056,3.52118 -2.23304,7.74128 -1.19248,4.22011 -2.69158,9.5131 -3.33133,11.76221 -0.63975,2.24911 -1.07456,4.17539 -0.96623,4.28063 0.10832,0.10523 2.99492,0.97396 6.41466,1.93052 3.41974,0.95656 6.81302,1.91104 7.54063,2.12108 0.7276,0.21003 2.6326,0.75456 4.23333,1.21007 1.60073,0.4555 3.56526,1.00312 4.36563,1.21693 0.80036,0.21381 2.21146,0.62139 3.13577,0.90575 0.92432,0.28436 1.93635,0.56724 2.24896,0.62863 0.31262,0.0614 2.89011,0.77379 5.72777,1.58311 2.83765,0.80932 5.54117,1.59851 6.00782,1.75375 0.46665,0.15524 1.12149,0.33443 1.45521,0.3982 0.33371,0.0638 2.69035,0.71171 5.23696,1.43986 2.54662,0.72815 6.23756,1.78948 8.20209,2.35851 1.96453,0.56903 3.77564,1.04635 4.02469,1.0607 z m -6.27365,-4.21534 c -0.14552,0 -0.44318,-0.11542 -0.66146,-0.25648 -0.21828,-0.14107 -0.27781,-0.25648 -0.13229,-0.25648 0.14552,0 0.44318,0.11541 0.66146,0.25648 0.21828,0.14106 0.27781,0.25648 0.13229,0.25648 z m -2.39428,-0.74349 c -0.13836,0.0765 -1.14452,-0.1426 -2.23593,-0.48683 -1.09141,-0.34423 -2.15024,-0.68547 -2.35297,-0.75829 -0.20273,-0.0728 -0.30584,-0.19518 -0.22913,-0.27189 0.0767,-0.0767 0.95696,0.11469 1.9561,0.42533 0.99914,0.31064 2.10842,0.65206 2.46505,0.75872 0.35664,0.10665 0.53523,0.25649 0.39688,0.33296 z m -7.01166,-1.89829 c -0.211,-0.002 -0.55655,-0.11344 -0.76789,-0.24713 -0.21133,-0.13369 -0.47922,-0.18437 -0.59531,-0.11263 -0.11609,0.0718 -0.21107,0.002 -0.21107,-0.15479 0,-0.17635 0.27775,-0.21977 0.7276,-0.11374 0.40019,0.0943 0.84072,0.27518 0.97896,0.40191 0.15316,0.14041 0.10148,0.22884 -0.13229,0.22638 z m -4.81541,-1.39392 c -0.40019,-0.0222 -0.72761,-0.13346 -0.72761,-0.24724 0,-0.11378 0.0893,-0.19851 0.19844,-0.18828 0.10914,0.0102 0.43656,0.12149 0.7276,0.24724 0.45663,0.19731 0.42942,0.22312 -0.19843,0.18828 z m -2.06375,-0.47798 c -0.0655,-0.0131 -0.50602,-0.13559 -0.97896,-0.27215 -0.47295,-0.13655 -0.8599,-0.30668 -0.8599,-0.37805 0,-0.0714 0.32742,-0.0526 0.72761,0.0417 0.40018,0.0943 0.84071,0.27519 0.97895,0.40192 0.13825,0.12673 0.19778,0.21969 0.1323,0.20656 z m 23.82572,-5.08991 c -0.21828,0.028 -0.87312,-0.10554 -1.4552,-0.29688 -0.58209,-0.19134 -1.56435,-0.48574 -2.18282,-0.65424 -0.6695,-0.1824 -1.12448,-0.46263 -1.12448,-0.6926 0,-0.21244 0.20836,-0.38559 0.46302,-0.38478 0.25467,8.1e-4 0.87974,0.10937 1.38907,0.24125 0.50932,0.13188 1.49877,0.31818 2.19877,0.41401 1.11262,0.15231 1.26241,0.24644 1.19063,0.74823 -0.0452,0.3157 -0.26071,0.59696 -0.47899,0.62501 z m -6.54843,-1.95985 c -0.10914,0.0558 -0.43657,0.05 -0.72761,-0.0129 -0.29104,-0.0628 -0.67799,-0.23504 -0.85989,-0.38272 -0.18191,-0.14768 -0.33073,-0.41986 -0.33073,-0.60485 0,-0.26079 0.23775,-0.276 1.05833,-0.0677 0.58208,0.14775 1.05833,0.42571 1.05833,0.61771 0,0.19199 -0.0893,0.39468 -0.19843,0.45043 z m -4.49792,-1.16449 c -0.10914,-0.0198 -0.46633,-0.0876 -0.79375,-0.1507 -0.32742,-0.0631 -0.59531,-0.21841 -0.59531,-0.34522 0,-0.12682 0.0984,-0.29138 0.21866,-0.36571 0.12027,-0.0743 0.47746,-0.0675 0.79375,0.0152 0.3163,0.0827 0.57509,0.31509 0.57509,0.5164 0,0.20131 -0.0893,0.34981 -0.19844,0.32999 z m -4.56406,-1.3117 c -0.50933,-0.005 -1.19394,-0.11641 -1.52136,-0.24801 -0.32742,-0.13161 -0.59531,-0.31312 -0.59531,-0.40337 0,-0.0902 0.50602,-0.0807 1.12448,0.0213 0.61846,0.10194 1.30307,0.28738 1.52135,0.41209 0.27589,0.15762 0.11456,0.22408 -0.52916,0.21802 z m -40.29946,-1.09658 c -0.0662,0.25296 -0.118,-0.0163 -0.11507,-0.5984 0.003,-0.58208 0.0571,-0.78905 0.12041,-0.45993 0.0633,0.32911 0.0609,0.80536 -0.005,1.05833 z m 58.02654,-0.99527 c -0.14106,0.21828 -0.24994,0.27781 -0.24194,0.13229 0.008,-0.14552 0.11688,-0.50271 0.24194,-0.79375 0.14993,-0.34892 0.23235,-0.39398 0.24194,-0.13229 0.008,0.21828 -0.10088,0.57547 -0.24194,0.79375 z m -56.86064,-3.96875 c -0.1319,0 -0.17755,-0.23813 -0.10144,-0.52917 0.0761,-0.29104 0.18403,-0.52917 0.23982,-0.52917 0.0558,0 0.10143,0.23813 0.10143,0.52917 0,0.29104 -0.10792,0.52917 -0.23981,0.52917 z m 12.80752,-1.51897 c -0.29104,0.0605 -0.83179,0.0643 -1.20165,0.008 -0.36987,-0.0558 -0.99872,-0.36386 -1.39746,-0.68454 -0.45074,-0.36251 -0.78181,-0.93911 -0.87523,-1.52435 -0.0951,-0.59544 0.0594,-1.64532 0.42036,-2.85734 0.46556,-1.56323 0.72619,-2.01364 1.41543,-2.44604 0.60329,-0.37848 1.13688,-0.49427 1.86651,-0.40502 0.63234,0.0773 1.31295,0.40399 1.78593,0.85714 0.56787,0.54405 0.76423,0.97905 0.76423,1.69299 0,0.52844 -0.18466,1.58265 -0.41037,2.34268 -0.2257,0.76003 -0.73172,1.72482 -1.12448,2.14399 -0.39276,0.41917 -0.95223,0.81159 -1.24327,0.87205 z m -0.50403,-1.42214 c 0.15935,0.0169 0.46623,-0.17767 0.68196,-0.43233 0.21573,-0.25466 0.53184,-0.95308 0.70246,-1.55205 0.17063,-0.59897 0.31023,-1.37883 0.31023,-1.73302 0,-0.3542 -0.14287,-0.78687 -0.3175,-0.96149 -0.17462,-0.17463 -0.65695,-0.3175 -1.07183,-0.3175 -0.60099,0 -0.82734,0.1748 -1.11346,0.85989 -0.19752,0.47295 -0.44087,1.29603 -0.54079,1.82908 -0.0999,0.53306 -0.10524,1.21001 -0.0118,1.50435 0.0934,0.29434 0.37261,0.58854 0.62044,0.65377 0.24782,0.0652 0.58096,0.13242 0.74031,0.1493 z m -5.43075,0.0139 c -0.0828,-0.009 -0.44394,-0.13385 -0.80241,-0.27694 -0.35847,-0.1431 -0.69256,-0.30097 -0.74242,-0.35082 -0.0499,-0.0499 -0.32203,-1.37376 -0.60484,-2.942 -0.2828,-1.56824 -0.55819,-2.89534 -0.61197,-2.94912 -0.0538,-0.0538 -0.42634,1.10025 -0.82793,2.56451 -0.67291,2.45358 -0.77415,2.64879 -1.29144,2.4901 -0.30871,-0.0947 -0.61051,-0.21654 -0.67066,-0.27074 -0.0601,-0.0542 0.28323,-1.49792 0.76306,-3.20828 0.47983,-1.71035 0.9693,-3.36899 1.08771,-3.68586 0.17739,-0.47473 0.34223,-0.54219 0.93649,-0.38326 0.39666,0.10609 0.81007,0.36535 0.91868,0.57614 0.10861,0.21079 0.40253,1.551 0.65315,2.97826 0.25062,1.42725 0.54152,2.49882 0.64644,2.38125 0.10492,-0.11757 0.47265,-1.25556 0.81719,-2.52887 0.34453,-1.2733 0.74778,-2.30673 0.89611,-2.2965 0.14834,0.0102 0.46007,0.0995 0.69273,0.19843 0.37222,0.15824 0.29496,0.63277 -0.64311,3.95016 -0.58638,2.07367 -1.13393,3.76276 -1.21678,3.75354 z"
         id="path16" /><path
         style="fill:#161615"
         d="m 169.15518,183.13492 c -0.67024,-0.0146 -1.69487,-0.13383 -2.27695,-0.26492 -0.58209,-0.13109 -1.47506,-0.40675 -1.98438,-0.61258 -0.50932,-0.20584 -1.9976,-0.69125 -3.30729,-1.07871 -1.30969,-0.38745 -2.67891,-0.80714 -3.04271,-0.93264 -0.3638,-0.1255 -1.79255,-0.53163 -3.175,-0.90251 -1.38245,-0.37088 -4.57798,-1.21995 -7.10119,-1.88681 -2.5232,-0.66686 -5.79742,-1.44459 -7.27604,-1.72829 -1.47862,-0.2837 -3.75996,-0.81177 -5.06964,-1.17347 -1.30969,-0.36171 -2.79797,-0.77558 -3.3073,-0.91972 -0.50932,-0.14413 -2.35479,-0.67072 -4.10104,-1.1702 -1.74625,-0.49947 -4.42515,-1.20778 -5.95312,-1.57401 -1.52797,-0.36624 -3.5818,-0.80353 -4.56406,-0.97176 -1.6823,-0.28812 -1.78536,-0.34652 -1.776,-1.00631 0.005,-0.38525 0.16222,-1.93624 0.34835,-3.44665 0.23429,-1.90115 0.46757,-2.84062 0.7581,-3.05307 0.23083,-0.16878 0.46102,-0.59987 0.51154,-0.95797 0.0874,-0.61916 0.17767,-0.65015 1.84189,-0.63193 0.96251,0.0105 2.74845,0.29361 3.96875,0.62906 1.2203,0.33545 3.17122,0.8883 4.33539,1.22855 1.16416,0.34024 2.77151,0.79286 3.57187,1.00581 0.80037,0.21295 2.7649,0.76145 4.36563,1.21889 1.60073,0.45745 3.50573,0.99159 4.23333,1.187 0.7276,0.19541 2.8112,0.792 4.63021,1.32577 1.81901,0.53376 5.8076,1.68317 8.86354,2.55422 3.05594,0.87106 6.43698,1.81987 7.51343,2.10846 1.07645,0.2886 2.62426,0.74427 3.43958,1.0126 0.81532,0.26833 2.49444,0.79841 3.73136,1.17796 1.23693,0.37954 2.39779,0.68955 2.57969,0.6889 0.1819,-6.4e-4 0.33251,0.14765 0.33469,0.32956 0.002,0.1819 -0.19358,2.02737 -0.43502,4.10104 l -0.43899,3.77031 z m -30.73313,-9.49842 c 0.17206,0 0.55922,-0.13186 0.86036,-0.29302 0.38115,-0.20399 0.4516,-0.3523 0.23186,-0.48811 -0.22059,-0.13633 0.12471,-0.89646 1.14651,-2.52391 0.8042,-1.28085 1.39938,-2.43042 1.32263,-2.5546 -0.0768,-0.12418 -0.37064,-0.22578 -0.65309,-0.22578 -0.33082,0 -0.51355,0.18156 -0.51355,0.51027 0,0.28065 -0.17859,0.68886 -0.39688,0.90714 -0.21828,0.21829 -0.39687,0.52445 -0.39687,0.68036 0,0.15592 -0.42343,0.28348 -0.94096,0.28348 -0.72344,0 -1.12324,0.19878 -1.72951,0.8599 -0.43371,0.47294 -0.85882,1.1365 -0.94468,1.47458 -0.0859,0.33808 -0.0168,0.75401 0.1535,0.92429 0.23642,0.23642 0.48674,0.20794 1.05895,-0.12046 0.71279,-0.40909 0.74299,-0.40577 0.61912,0.0679 -0.0733,0.28021 0.007,0.49796 0.18261,0.49796 z m -0.91028,-1.05833 c -0.074,0 -0.13459,-0.14232 -0.13459,-0.31625 0,-0.17394 0.31994,-0.65019 0.71096,-1.05834 0.39103,-0.40814 0.80775,-0.74208 0.92605,-0.74208 0.11829,0 0.21508,0.15891 0.21508,0.35314 0,0.19423 -0.35616,0.67048 -0.79146,1.05833 -0.4353,0.38786 -0.85202,0.7052 -0.92604,0.7052 z m -4.5779,0.52916 c 0.11734,0 0.16723,-0.64549 0.11086,-1.43442 -0.095,-1.32944 -0.0564,-1.44601 0.52748,-1.59255 0.4457,-0.11186 0.62998,-0.34474 0.62998,-0.79612 0,-0.43922 -0.16894,-0.66436 -0.54216,-0.72257 -0.51267,-0.08 -0.49724,-0.14543 0.28352,-1.20365 0.45412,-0.61551 0.7506,-1.24058 0.65883,-1.38906 -0.0918,-0.14848 -0.46269,-0.26996 -0.82428,-0.26996 -0.38395,0 -0.63063,0.13758 -0.59298,0.33073 0.0355,0.1819 -0.18708,0.80698 -0.49453,1.38906 -0.30744,0.58209 -0.80748,1.32125 -1.1112,1.64258 -0.30371,0.32134 -0.55221,0.66915 -0.55221,0.77292 0,0.10377 -0.19025,0.3989 -0.42279,0.65585 -0.23254,0.25695 -0.34057,0.60022 -0.24008,0.76281 0.12914,0.20896 0.36673,0.17506 0.81036,-0.11561 0.34521,-0.22619 0.69137,-0.41126 0.76925,-0.41126 0.0779,0 0.1416,0.39291 0.1416,0.87313 0,0.48022 0.14287,1.016 0.3175,1.19062 0.17462,0.17463 0.41351,0.3175 0.53085,0.3175 z m -0.18689,-3.3439 c -0.21828,0.0838 -0.39688,0.037 -0.39688,-0.10398 0,-0.14096 0.1786,-0.25628 0.39688,-0.25628 0.21828,0 0.39687,0.0468 0.39687,0.10398 0,0.0572 -0.17859,0.17252 -0.39687,0.25628 z m 2.08025,3.07932 c 0.14263,0 0.47706,-0.19705 0.74318,-0.43788 0.26612,-0.24084 0.48386,-0.54795 0.48386,-0.68248 0,-0.1362 -0.36568,-0.16429 -0.8251,-0.0634 -0.63066,0.13852 -0.79789,0.0967 -0.70964,-0.17741 0.0635,-0.19725 0.61258,-0.47063 1.22016,-0.60752 0.68285,-0.15383 1.16242,-0.43077 1.25588,-0.72523 0.0832,-0.262 0.077,-0.59649 -0.0138,-0.74332 -0.0907,-0.14682 -0.49909,-0.26695 -0.90744,-0.26695 -0.40835,0 -1.05174,0.24329 -1.42976,0.54063 -0.40513,0.31868 -0.761,0.9335 -0.86682,1.49757 -0.14233,0.75866 -0.0791,1.03038 0.30531,1.31145 0.26666,0.19499 0.60154,0.35452 0.74417,0.35452 z m 0.83016,-2.55015 c -0.21828,0.0838 -0.39687,0.11108 -0.39687,0.0607 0,-0.0504 0.17859,-0.23981 0.39687,-0.42097 0.22876,-0.18985 0.39688,-0.21556 0.39688,-0.0607 0,0.14777 -0.1786,0.3372 -0.39688,0.42097 z m -6.74873,0.37871 c 0.57575,-0.0673 0.69574,-0.26 0.90891,-1.45979 0.22901,-1.2889 0.28901,-1.37137 0.88838,-1.22093 0.58871,0.14775 0.61735,0.11379 0.34041,-0.40367 -0.16631,-0.31075 -0.49717,-0.565 -0.73526,-0.565 -0.23808,0 -0.65061,0.19704 -0.91673,0.43788 -0.30893,0.27958 -0.48385,0.80566 -0.48385,1.45521 0,0.55953 -0.11906,1.01732 -0.26459,1.01732 -0.14552,0 -0.26458,-0.11906 -0.26458,-0.26458 0,-0.14552 -0.17859,-0.26458 -0.39687,-0.26458 -0.21828,0 -0.39688,0.15478 -0.39688,0.34396 0,0.18917 0.14799,0.49195 0.32887,0.67282 0.18088,0.18088 0.62737,0.29399 0.99219,0.25136 z m -2.01998,-0.75986 c 0.38369,0.0163 0.45826,-0.11238 0.33945,-0.58574 -0.1101,-0.43867 0.18184,-1.11625 1.05448,-2.44739 0.6637,-1.01243 1.45281,-2.0716 1.75359,-2.35372 l 0.54686,-0.51294 -0.58097,-0.25924 c -0.42129,-0.18798 -0.81479,-0.14636 -1.43159,0.15144 -0.46783,0.22587 -1.44109,0.93053 -2.16278,1.56593 -0.7217,0.63539 -1.65513,1.48421 -2.07428,1.88626 -0.41916,0.40206 -0.98954,0.85273 -1.26751,1.0015 -0.27798,0.14877 -0.50541,0.37487 -0.50541,0.50246 0,0.12759 0.30731,0.19824 0.68292,0.15701 0.3756,-0.0412 1.18378,-0.56653 1.79595,-1.16732 0.61217,-0.6008 1.32108,-1.09237 1.57535,-1.09237 0.3599,0 0.40649,0.10257 0.21033,0.46302 -0.13858,0.25467 -0.62236,0.83894 -1.07506,1.2984 l -0.82308,0.83537 0.73502,0.26822 c 0.40427,0.14752 0.95629,0.27762 1.22673,0.28911 z m 0.32813,-3.4187 c -0.0386,0 -0.14389,-0.0737 -0.23397,-0.16379 -0.0901,-0.0901 -0.0202,-0.29844 0.15538,-0.46302 0.17554,-0.16458 0.55217,-0.47783 0.83696,-0.69611 0.44725,-0.3428 0.43564,-0.27972 -0.0852,0.46302 -0.33165,0.47295 -0.63457,0.8599 -0.67317,0.8599 z m 45.52514,4.99596 c -0.46015,-0.0171 -1.37242,-0.1222 -2.02727,-0.23352 -0.65484,-0.11133 -1.66687,-0.34183 -2.24895,-0.51223 -0.58209,-0.1704 -2.17818,-0.60856 -3.54687,-0.9737 -1.3687,-0.36514 -5.47635,-1.30567 -9.12813,-2.09007 -3.65177,-0.78439 -7.71115,-1.71493 -9.02084,-2.06786 -1.30968,-0.35293 -3.25229,-0.72858 -4.3169,-0.83478 -1.71111,-0.17069 -1.96356,-0.2665 -2.17626,-0.82594 -0.15555,-0.40913 -0.45338,-0.63429 -0.84248,-0.63691 -0.33102,-0.002 -0.78045,-0.11947 -0.99873,-0.26053 -0.21828,-0.14107 -0.29439,-0.25831 -0.16913,-0.26053 0.12527,-0.002 -0.0521,-0.23065 -0.3941,-0.5076 l -0.62184,-0.50354 1.35131,0.0176 c 0.95608,0.0124 1.6285,-0.15374 2.29899,-0.56813 0.52122,-0.32213 1.1918,-0.9807 1.49018,-1.46349 0.29838,-0.48278 0.54068,-1.28045 0.53845,-1.7726 -0.002,-0.49214 -0.0915,-1.02581 -0.19843,-1.18593 -0.10692,-0.16011 -0.45445,-0.428 -0.77231,-0.59531 -0.31785,-0.16731 -1.09176,-0.29847 -1.71979,-0.29148 -0.62803,0.007 -1.54806,0.21534 -2.04451,0.46302 -0.49645,0.24767 -1.1513,0.78646 -1.45521,1.19731 -0.39776,0.53773 -0.55257,1.14195 -0.55257,2.15673 0,1.23963 -0.0538,1.38094 -0.44563,1.17122 -0.24509,-0.13117 -0.51298,-0.23849 -0.59531,-0.23849 -0.0823,0 -0.14763,0.14883 -0.14511,0.33073 0.002,0.1819 0.38946,0.60921 0.85989,0.94958 0.55021,0.39809 0.66656,0.56774 0.32616,0.47558 -0.29104,-0.0788 -0.86693,-0.22395 -1.27975,-0.32257 -0.67064,-0.16021 -0.73511,-0.26723 -0.60522,-1.00475 0.0799,-0.454 0.28521,-2.10537 0.45613,-3.66972 l 0.31077,-2.84427 1.22049,0.0115 c 0.67128,0.006 1.69675,0.10923 2.27883,0.22864 0.58208,0.11941 2.48708,0.60097 4.23333,1.07014 1.74625,0.46917 3.29407,0.95077 3.43959,1.07022 0.14552,0.11945 0.97896,0.4515 1.85208,0.73788 0.87313,0.28638 2.24234,0.71511 3.04271,0.95272 0.80036,0.23762 2.39869,0.64913 3.55183,0.91447 1.15314,0.26534 1.95682,0.56885 1.78594,0.67446 -0.17088,0.10561 -0.31069,0.36358 -0.31069,0.57327 0,0.2097 0.17859,0.38126 0.39687,0.38126 0.22049,0 0.39688,-0.23518 0.39688,-0.52916 0,-0.29104 0.14883,-0.52999 0.33073,-0.531 0.1819,-0.001 1.46182,0.24411 2.84427,0.54471 1.38245,0.3006 3.5851,0.78512 4.89479,1.07671 1.30969,0.29158 3.86953,0.94707 5.68854,1.45664 1.81901,0.50956 3.40827,1.02577 3.53169,1.14712 0.12342,0.12136 0.0893,1.33411 -0.0757,2.695 -0.16509,1.3609 -0.36583,2.92084 -0.44609,3.46655 -0.13464,0.91536 -0.21072,0.98977 -0.98258,0.96106 z m -9.65294,-2.88734 c 0.0987,0.004 0.35224,-0.16465 0.56331,-0.37572 0.21107,-0.21107 0.46311,-0.91288 0.56009,-1.55958 0.15302,-1.0204 0.24821,-1.15703 0.72015,-1.03361 0.42769,0.11184 0.52169,0.0353 0.44015,-0.35864 -0.0723,-0.34931 -0.29409,-0.47939 -0.733,-0.42989 -0.34612,0.039 -0.78773,0.20244 -0.98134,0.36313 -0.19361,0.16068 -0.35202,0.7468 -0.35202,1.30247 0,0.55568 -0.11084,1.07882 -0.2463,1.16255 -0.13547,0.0837 -0.32109,0.0312 -0.41249,-0.11668 -0.0914,-0.1479 -0.27823,-0.2689 -0.41516,-0.2689 -0.13693,0 -0.24897,0.17268 -0.24897,0.38373 0,0.21105 0.20836,0.50508 0.46302,0.65341 0.25467,0.14833 0.54382,0.27331 0.64256,0.27773 z m -2.54339,-0.7857 c 0.22785,0 0.6538,-0.1282 0.94656,-0.28488 0.32531,-0.1741 0.47165,-0.44291 0.37634,-0.69129 -0.0858,-0.22352 0.0987,-0.81842 0.4099,-1.32199 0.42379,-0.6857 0.49008,-0.99136 0.26403,-1.21741 -0.22199,-0.22199 -0.50482,-0.2252 -1.06926,-0.0122 -0.66111,0.24954 -0.78485,0.2231 -0.8931,-0.19085 -0.0891,-0.34086 -0.28916,-0.43777 -0.6882,-0.33342 -0.30939,0.0809 -0.63547,0.26511 -0.7246,0.40934 -0.0891,0.14422 -0.0244,0.34734 0.14395,0.45136 0.20952,0.12948 0.0545,0.50558 -0.4914,1.19256 -0.43859,0.55189 -0.73261,1.10831 -0.65339,1.2365 0.0792,0.12818 0.27941,0.23306 0.44485,0.23306 0.16543,0 0.7883,-0.55402 1.38415,-1.23115 0.59585,-0.67714 1.22273,-1.18315 1.39307,-1.12448 0.19837,0.0683 0.0281,0.52526 -0.47373,1.27097 -0.43089,0.64036 -0.78344,1.26544 -0.78344,1.38906 0,0.12362 0.18642,0.22477 0.41427,0.22477 z m -3.80806,-1.07922 c 0.24347,0.0115 0.81528,-0.35173 1.2707,-0.80715 0.67344,-0.67344 0.81308,-1.00686 0.74796,-1.78593 -0.0678,-0.81073 -0.18619,-0.97023 -0.77073,-1.03807 -0.44626,-0.0518 -0.98461,0.16719 -1.52136,0.61884 -0.66479,0.55938 -0.8307,0.90125 -0.8307,1.71175 0,0.56265 0.14699,1.07207 0.33073,1.14622 0.1819,0.0734 0.52993,0.14285 0.7734,0.15434 z m 0.0573,-0.69772 c -0.16161,0.0963 -0.36997,0.0989 -0.46302,0.006 -0.0931,-0.093 -0.16865,-0.29818 -0.16798,-0.45582 6.8e-4,-0.15765 0.36585,-0.67568 0.81151,-1.15117 0.44565,-0.4755 0.91611,-0.79913 1.04546,-0.71919 0.12936,0.0799 0.15114,0.35373 0.0484,0.60841 -0.10274,0.25468 -0.36539,0.70467 -0.58367,0.99996 -0.21828,0.2953 -0.5291,0.61568 -0.6907,0.71196 z m -2.52161,-0.0751 c 0.25335,0 0.60351,-0.14287 0.77814,-0.3175 0.17462,-0.17462 0.3175,-0.41977 0.3175,-0.54478 0,-0.125 -0.13746,-0.14233 -0.30546,-0.0385 -0.20571,0.12713 -0.23474,0.0674 -0.0889,-0.18283 0.1191,-0.20438 0.43515,-0.68764 0.70234,-1.07391 0.26718,-0.38626 0.48578,-0.84066 0.48578,-1.00976 0,-0.17932 -0.30325,-0.27257 -0.7276,-0.22374 -0.52415,0.0603 -0.73546,0.23878 -0.75567,0.63824 -0.0154,0.30498 -0.29735,0.91874 -0.62648,1.36391 -0.32912,0.44516 -0.51782,0.93977 -0.41934,1.09913 0.0985,0.15935 0.38636,0.28973 0.6397,0.28973 z m -1.88243,-0.84217 c 0.53411,-0.0614 0.75275,-0.25094 0.81751,-0.70855 0.0563,-0.39768 -0.0158,-0.56026 -0.19844,-0.4474 -0.15776,0.0975 -0.28683,0.1048 -0.28683,0.0162 0,-0.0886 0.18233,-0.51364 0.40519,-0.9446 0.33285,-0.64365 0.52182,-0.7543 1.05834,-0.61964 0.38367,0.0963 0.65313,0.0494 0.65313,-0.11373 0,-0.1527 -0.11906,-0.35123 -0.26458,-0.44117 -0.14552,-0.0899 -0.26458,-0.45415 -0.26458,-0.80936 0,-0.40358 -0.15199,-0.64585 -0.40518,-0.64585 -0.22285,0 -0.47371,0.1786 -0.55748,0.39688 -0.0838,0.21828 -0.33089,0.39687 -0.54917,0.39687 -0.23907,0 -0.33799,0.15345 -0.24878,0.38593 0.0815,0.21226 -0.15563,0.92935 -0.52685,1.59353 -0.37122,0.66419 -0.60439,1.39146 -0.51817,1.61617 0.10141,0.26426 0.4143,0.37894 0.88589,0.3247 z m -2.69877,-0.74533 c 0.32173,0 0.71274,-0.15396 0.86892,-0.34214 0.15617,-0.18817 0.34085,-0.81325 0.41041,-1.38906 0.0696,-0.57581 0.13494,-1.16003 0.14532,-1.29828 0.0104,-0.13824 0.16173,-0.10847 0.33636,0.0662 0.17462,0.17463 0.41275,0.3175 0.52916,0.3175 0.11642,0 0.21167,-0.22424 0.21167,-0.49831 0,-0.27407 -0.23042,-0.55856 -0.51205,-0.63221 -0.28163,-0.0736 -0.75788,0.0383 -1.05833,0.24873 -0.39256,0.27496 -0.54629,0.67183 -0.54629,1.41035 0,0.56524 -0.11083,1.09621 -0.2463,1.17993 -0.13546,0.0837 -0.32108,0.0312 -0.41249,-0.11667 -0.0914,-0.1479 -0.27822,-0.2689 -0.41515,-0.2689 -0.13694,0 -0.24897,0.21828 -0.24897,0.48507 0,0.26678 0.0794,0.56444 0.17639,0.66145 0.097,0.097 0.43962,0.17639 0.76135,0.17639 z m -2.63751,-0.53321 c 0.15654,0.002 0.54458,-0.27268 0.86232,-0.61089 0.31774,-0.33822 0.50425,-0.6884 0.41447,-0.77818 -0.0898,-0.0898 -0.38311,-0.0259 -0.65185,0.1419 -0.26873,0.16783 -0.56826,0.22549 -0.66562,0.12813 -0.0974,-0.0974 -0.10732,-0.3586 -0.0222,-0.58055 0.0852,-0.22194 0.62831,-0.47925 1.20698,-0.57178 0.57867,-0.0925 1.12171,-0.34957 1.20675,-0.57119 0.085,-0.22162 0.0844,-0.62429 -0.001,-0.89483 -0.0943,-0.29726 -0.40434,-0.4919 -0.78342,-0.4919 -0.34501,0 -0.9686,0.32743 -1.38574,0.72761 -0.41714,0.40018 -0.89755,1.05361 -1.06756,1.45207 -0.17002,0.39846 -0.23171,0.93424 -0.13709,1.19063 0.0946,0.25638 0.29979,0.55363 0.45592,0.66054 0.15614,0.10691 0.41196,0.19621 0.5685,0.19844 z m 1.03831,-2.81069 c -0.21828,0.0838 -0.39687,0.0497 -0.39687,-0.0757 0,-0.12538 0.17859,-0.2965 0.39687,-0.38026 0.21828,-0.0838 0.39688,-0.0497 0.39688,0.0757 0,0.12539 -0.1786,0.29651 -0.39688,0.38027 z m -3.59108,2.02099 c 0.28048,0 0.7584,-0.31584 1.06204,-0.70185 0.30364,-0.38602 0.49375,-0.76017 0.42247,-0.83146 -0.0713,-0.0713 -0.3343,0.0362 -0.5845,0.23883 -0.2502,0.20264 -0.0745,-0.1888 0.39048,-0.86986 0.46496,-0.68106 0.84538,-1.30614 0.84538,-1.38906 0,-0.0829 -0.16682,-0.15077 -0.37071,-0.15077 -0.2039,0 -0.91827,0.5554 -1.58751,1.23422 -0.66923,0.67882 -1.21678,1.14875 -1.21678,1.04429 0,-0.10445 0.29766,-0.62796 0.66146,-1.16334 0.3638,-0.53538 0.66146,-1.06485 0.66146,-1.17659 0,-0.11174 -0.21967,-0.20316 -0.48816,-0.20316 -0.26849,0 -0.70366,0.23812 -0.96705,0.52916 -0.26339,0.29105 -0.39941,0.52917 -0.30227,0.52917 0.0971,0 -0.13266,0.48993 -0.51067,1.08874 -0.49791,0.78873 -0.60747,1.16856 -0.3976,1.37843 0.20987,0.20986 0.50769,0.16091 1.08084,-0.17766 0.77352,-0.45692 0.79116,-0.45521 0.79116,0.0768 0,0.36091 0.17171,0.54413 0.50996,0.54413 z m -4.96839,-2.15088 c -0.5978,0.29626 -1.21745,0.41459 -1.62699,0.31068 -0.45487,-0.11541 -0.67964,-0.37073 -0.71967,-0.81746 -0.032,-0.3573 0.20554,-1.15916 0.5279,-1.78192 0.40628,-0.78486 0.91659,-1.29226 1.66311,-1.65365 0.59234,-0.28674 1.27049,-0.52136 1.507,-0.52136 0.23651,0 0.52195,0.14876 0.63432,0.33057 0.11237,0.18182 0.16827,0.68783 0.12423,1.12448 -0.044,0.43665 -0.31954,1.18457 -0.61223,1.66203 -0.29268,0.47747 -0.96664,1.08345 -1.49767,1.34663 z"
         id="path15" /></g></g></svg>
