<svg xmlns="http://www.w3.org/2000/svg" xmlns:xlink="http://www.w3.org/1999/xlink" version="1.1" x="0px" y="0px" width="160.432px" height="39.818px" viewBox="0 0 160.432 39.818" enable-background="new 0 0 160.432 39.818" xml:space="preserve">
<g id="Направляющие_для_монтажной_области">
</g>
    <g id="Слой_1">
	<g>
		<g>
			<circle fill-rule="evenodd" clip-rule="evenodd" fill="#F26322" cx="28.643" cy="33.753" r="4.903"/>
            <path fill-rule="evenodd" clip-rule="evenodd" fill="#1E4066" d="M22.456,33.783c0-0.159,0.008-0.316,0.02-0.472     c-0.717,0.118-1.454,0.179-2.204,0.179c-7.5,0-13.582-6.08-13.582-13.582c0-7.5,6.081-13.58,13.582-13.58     c7.501,0,13.582,6.08,13.582,13.58c0,3.079-1.024,5.917-2.75,8.194c2.069,0.897,3.55,2.891,3.713,5.246     c3.264-3.529,5.261-8.251,5.261-13.44c0-10.937-8.868-19.804-19.806-19.804S0.468,8.971,0.468,19.908     c0,10.939,8.866,19.806,19.804,19.806c1.77,0,3.483-0.233,5.117-0.669C23.629,37.954,22.456,36.005,22.456,33.783z"/>
            <g>
				<path fill-rule="evenodd" clip-rule="evenodd" fill="#F26322" d="M20.176,29.415c-5.349,0-9.313-3.713-9.313-9.007      c0-5.431,4.213-10.004,9.672-10.004c5.293,0,9.146,3.853,9.146,9.035c0,1.552-0.361,2.854-0.998,3.796      c-0.583,0.859-1.608,1.357-2.495,1.357c-1.191,0-2.022-0.582-2.633-1.496c-0.277-0.389-0.803-1.385-0.969-1.69l-4.462,0.11      c-0.223,0.415-1.081,2.245-1.276,2.66l-1.662-0.942c0.775-1.303,4.601-8.453,4.961-9.006h0.415      c1.108,1.885,3.547,6.347,4.24,7.482c0.5,0.831,0.942,1.302,1.525,1.302c1.08,0,1.468-1.358,1.468-3.408      c0-4.268-3.242-7.676-7.29-7.676c-4.544,0-7.647,3.796-7.647,8.34c0,4.406,3.187,7.621,7.344,7.621      c1.884,0,3.436-0.583,4.767-1.385l0.72,1.551C24.083,28.943,22.338,29.415,20.176,29.415L20.176,29.415z M21.922,20.02      L21.922,20.02c-0.194-0.416-1.498-2.855-1.607-3.104c-0.195,0.333-1.386,2.743-1.608,3.159L21.922,20.02z"/>
			</g>
		</g>
        <path fill-rule="evenodd" clip-rule="evenodd" fill="#F26322" d="M64.804,18.073c-1.29-0.269-2.701-0.559-3.966-0.925V17.05    c2.214-0.998,3.892-3.649,3.892-7.274c0-4.671-2.796-8.321-7.711-8.321c-4.817,0-8.053,3.526-8.053,8.563    c0,5.5,3.504,8.103,7.128,8.37c0.244,0.025,0.731,0.074,1.168,0.244c1.971,0.778,3.893,1.556,6.471,2.311L64.804,18.073    L64.804,18.073z M56.824,15.444c-2.604,0-3.942-2.53-3.942-5.498c0-2.92,1.338-5.547,3.991-5.547c2.676,0,3.941,2.675,3.941,5.523    C60.814,12.939,59.45,15.444,56.824,15.444z"/>
        <path fill-rule="evenodd" clip-rule="evenodd" fill="#F26322" d="M75.29,13.912l1.265,4.21h3.99L75.46,1.723h-4.865l-5.012,16.399    h3.844l1.168-4.21H75.29L75.29,13.912z M71.129,11.139l0.974-3.479c0.268-0.949,0.512-2.19,0.754-3.163h0.049    c0.243,0.973,0.535,2.19,0.827,3.163l1.022,3.479H71.129z"/>
        <polygon fill-rule="evenodd" clip-rule="evenodd" fill="#1E4066" points="83.878,18.122 87.6,18.122 87.6,4.838 92.077,4.838     92.077,1.723 79.474,1.723 79.474,4.838 83.878,4.838   "/>
        <path fill-rule="evenodd" clip-rule="evenodd" fill="#1E4066" d="M100.519,13.352c0.049-0.268,0.122-0.826,0.122-1.46    c0-2.943-1.46-5.936-5.304-5.936c-4.136,0-6.009,3.333-6.009,6.35c0,3.723,2.311,6.082,6.35,6.082c1.605,0,3.09-0.267,4.307-0.754    l-0.488-2.506c-0.997,0.316-2.019,0.488-3.283,0.488c-1.728,0-3.236-0.73-3.358-2.264H100.519L100.519,13.352z M92.832,10.822    c0.098-0.998,0.729-2.41,2.287-2.41c1.704,0,2.092,1.51,2.092,2.41H92.832z"/>
        <path fill-rule="evenodd" clip-rule="evenodd" fill="#1E4066" d="M102.174,17.537c0.899,0.487,2.286,0.851,3.843,0.851    c3.407,0,5.159-1.654,5.159-3.868c-0.025-1.752-0.974-2.895-3.235-3.674c-1.46-0.51-1.923-0.803-1.923-1.362    c0-0.609,0.512-0.975,1.412-0.975c1.021,0,2.043,0.39,2.579,0.682l0.657-2.554c-0.73-0.366-1.97-0.681-3.357-0.681    c-2.944,0-4.842,1.679-4.842,3.916c-0.024,1.388,0.925,2.726,3.382,3.553c1.387,0.461,1.752,0.754,1.752,1.362    s-0.462,0.998-1.582,0.998c-1.095,0-2.505-0.487-3.187-0.9L102.174,17.537z"/>
        <path fill-rule="evenodd" clip-rule="evenodd" fill="#1E4066" d="M113.925,3.645v2.579h-1.581v2.726h1.581v4.865    c0,1.679,0.341,2.822,1.021,3.528c0.583,0.607,1.582,1.046,2.774,1.046c1.046,0,1.922-0.146,2.408-0.34l-0.024-2.798    c-0.268,0.048-0.632,0.097-1.095,0.097c-1.119,0-1.458-0.657-1.458-2.092V8.949h2.65V6.224h-2.65V2.817L113.925,3.645z"/>
        <polygon fill-rule="evenodd" clip-rule="evenodd" fill="#1E4066" points="122.464,18.122 132.707,18.122 132.707,15.006     126.187,15.006 126.187,1.723 122.464,1.723   "/>
        <path fill-rule="evenodd" clip-rule="evenodd" fill="#1E4066" d="M144.799,11.09c0-2.797-1.265-5.133-5.23-5.133    c-2.166,0-3.796,0.583-4.623,1.045l0.681,2.385c0.778-0.487,2.069-0.899,3.285-0.899c1.825,0,2.165,0.899,2.165,1.531v0.171    c-4.209-0.025-6.982,1.46-6.982,4.549c0,1.897,1.436,3.649,3.844,3.649c1.411,0,2.627-0.51,3.406-1.459h0.074l0.219,1.193h3.332    c-0.121-0.657-0.169-1.752-0.169-2.896V11.09L144.799,11.09z M141.198,13.79c0,0.218-0.024,0.438-0.073,0.633    c-0.243,0.754-0.998,1.362-1.922,1.362c-0.828,0-1.459-0.462-1.459-1.41c0-1.436,1.509-1.898,3.454-1.875V13.79z"/>
        <path fill-rule="evenodd" clip-rule="evenodd" fill="#1E4066" d="M147.718,14.569c0,1.337-0.048,2.773-0.097,3.553h3.138    l0.146-1.655h0.049c0.851,1.411,2.189,1.921,3.576,1.921c2.725,0,5.449-2.141,5.449-6.423c0.024-3.649-2.068-6.008-4.914-6.008    c-1.654,0-2.896,0.656-3.601,1.679h-0.049V0.848h-3.698V14.569L147.718,14.569z M151.416,11.308c0-0.244,0.024-0.461,0.074-0.68    c0.243-1.071,1.167-1.826,2.165-1.826c1.728,0,2.555,1.46,2.555,3.309c0,2.141-0.973,3.358-2.555,3.358    c-1.07,0-1.922-0.754-2.165-1.751c-0.049-0.195-0.074-0.415-0.074-0.659V11.308z"/>
        <path fill-rule="evenodd" clip-rule="evenodd" fill="#8694A3" d="M57.063,38.896h-2.408v-4.663h-0.028    c-0.543,0.842-1.345,1.265-2.4,1.265c-0.981,0-1.769-0.341-2.367-1.025c-0.596-0.684-0.895-1.641-0.895-2.876    c0-1.3,0.327-2.337,0.982-3.116c0.656-0.778,1.509-1.165,2.56-1.165c0.954,0,1.662,0.365,2.119,1.097h0.028v-0.907h2.408V38.896    L57.063,38.896z M54.702,31.58v-0.624c0-0.507-0.148-0.934-0.442-1.28c-0.293-0.346-0.673-0.516-1.134-0.516    c-0.535,0-0.954,0.207-1.258,0.625c-0.305,0.422-0.458,1.001-0.458,1.743c0,0.666,0.147,1.186,0.447,1.561    c0.296,0.376,0.683,0.564,1.162,0.564c0.507,0,0.916-0.19,1.222-0.571C54.548,32.701,54.702,32.202,54.702,31.58z"/>
        <path fill-rule="evenodd" clip-rule="evenodd" fill="#8694A3" d="M66.504,35.308h-2.401v-1.189h-0.036    c-0.596,0.919-1.389,1.379-2.385,1.379c-1.811,0-2.712-1.095-2.712-3.286v-4.707h2.4v4.494c0,1.103,0.436,1.655,1.311,1.655    c0.432,0,0.775-0.151,1.035-0.454c0.261-0.301,0.388-0.712,0.388-1.229v-4.466h2.401V35.308z"/>
        <path fill-rule="evenodd" clip-rule="evenodd" fill="#8694A3" d="M75.022,35.308h-2.278v-1.122h-0.031    c-0.523,0.875-1.297,1.312-2.325,1.312c-0.756,0-1.352-0.214-1.786-0.644c-0.434-0.43-0.65-1.004-0.65-1.719    c0-1.514,0.897-2.387,2.689-2.622l2.12-0.281c0-0.853-0.464-1.279-1.389-1.279c-0.928,0-1.812,0.275-2.65,0.829v-1.812    c0.336-0.175,0.793-0.326,1.376-0.459c0.58-0.131,1.11-0.197,1.589-0.197c2.223,0,3.336,1.11,3.336,3.329V35.308L75.022,35.308z     M72.761,32.136v-0.524l-1.418,0.182c-0.783,0.102-1.172,0.455-1.172,1.062c0,0.272,0.093,0.498,0.283,0.673    c0.192,0.174,0.45,0.262,0.775,0.262c0.453,0,0.819-0.157,1.105-0.468C72.618,33.011,72.761,32.615,72.761,32.136z"/>
        <rect x="76.93" y="23.757" fill-rule="evenodd" clip-rule="evenodd" fill="#8694A3" width="2.404" height="11.55"/>
        <path fill-rule="evenodd" clip-rule="evenodd" fill="#8694A3" d="M82.58,26.27c-0.405,0-0.738-0.12-0.995-0.362    c-0.261-0.242-0.39-0.536-0.39-0.886c0-0.362,0.129-0.656,0.39-0.885c0.257-0.229,0.59-0.343,0.995-0.343    c0.414,0,0.747,0.114,1.004,0.343c0.255,0.229,0.385,0.523,0.385,0.885c0,0.364-0.13,0.665-0.385,0.898    C83.326,26.152,82.993,26.27,82.58,26.27L82.58,26.27z M83.768,35.308h-2.406v-7.803h2.406V35.308z"/>
        <path fill-rule="evenodd" clip-rule="evenodd" fill="#8694A3" d="M90.512,35.216c-0.356,0.187-0.892,0.281-1.607,0.281    c-1.696,0-2.546-0.883-2.546-2.643v-3.573h-1.263v-1.777h1.263v-1.682l2.401-0.687v2.369h1.752v1.777h-1.752v3.153    c0,0.812,0.322,1.218,0.967,1.218c0.255,0,0.518-0.073,0.786-0.221V35.216z"/>
        <path fill-rule="evenodd" clip-rule="evenodd" fill="#8694A3" d="M99.297,27.505l-3.17,8.426c-0.763,2.026-1.91,3.04-3.444,3.04    c-0.582,0-1.063-0.066-1.44-0.197v-1.919c0.322,0.186,0.668,0.28,1.045,0.28c0.619,0,1.051-0.291,1.296-0.876l0.411-0.968    l-3.17-7.786h2.667l1.454,4.747c0.091,0.292,0.164,0.641,0.214,1.044h0.032c0.045-0.296,0.128-0.64,0.252-1.028l1.468-4.763    H99.297z"/>
        <path fill-rule="evenodd" clip-rule="evenodd" fill="#8694A3" d="M105.787,26.27c-0.406,0-0.739-0.12-0.995-0.362    c-0.26-0.242-0.391-0.536-0.391-0.886c0-0.362,0.13-0.656,0.391-0.885c0.256-0.229,0.589-0.343,0.995-0.343    c0.415,0,0.747,0.114,1.004,0.343c0.254,0.229,0.385,0.523,0.385,0.885c0,0.364-0.13,0.665-0.385,0.898    C106.534,26.152,106.202,26.27,105.787,26.27L105.787,26.27z M106.976,35.308h-2.405v-7.803h2.405V35.308z"/>
        <path fill-rule="evenodd" clip-rule="evenodd" fill="#8694A3" d="M108.492,35.102v-1.951c0.397,0.239,0.793,0.417,1.186,0.532    c0.393,0.118,0.765,0.174,1.115,0.174c0.427,0,0.766-0.056,1.01-0.174c0.247-0.116,0.369-0.293,0.369-0.532    c0-0.153-0.055-0.281-0.167-0.383c-0.112-0.101-0.255-0.189-0.432-0.265c-0.173-0.077-0.366-0.146-0.574-0.206    c-0.208-0.063-0.408-0.131-0.601-0.206c-0.31-0.117-0.582-0.244-0.819-0.377c-0.236-0.135-0.433-0.291-0.595-0.47    c-0.16-0.177-0.281-0.382-0.365-0.616c-0.084-0.235-0.127-0.51-0.127-0.831c0-0.437,0.097-0.813,0.286-1.128    c0.19-0.315,0.444-0.573,0.763-0.773c0.317-0.199,0.681-0.348,1.089-0.441c0.408-0.093,0.835-0.14,1.277-0.14    c0.346,0,0.694,0.026,1.05,0.082c0.356,0.051,0.707,0.128,1.053,0.23v1.86c-0.307-0.181-0.632-0.312-0.98-0.401    c-0.348-0.087-0.689-0.132-1.025-0.132c-0.158,0-0.306,0.013-0.443,0.042c-0.141,0.026-0.266,0.068-0.373,0.122    c-0.106,0.052-0.189,0.119-0.249,0.206c-0.063,0.084-0.091,0.179-0.091,0.287c0,0.14,0.043,0.262,0.135,0.363    c0.093,0.103,0.211,0.189,0.358,0.263c0.149,0.076,0.313,0.141,0.493,0.197c0.178,0.061,0.358,0.119,0.537,0.18    c0.321,0.112,0.609,0.234,0.87,0.366c0.256,0.132,0.48,0.287,0.665,0.466c0.185,0.177,0.328,0.384,0.427,0.624    c0.098,0.24,0.148,0.522,0.148,0.852c0,0.464-0.099,0.858-0.302,1.187c-0.2,0.328-0.466,0.592-0.798,0.798    c-0.332,0.206-0.718,0.356-1.152,0.45c-0.434,0.094-0.885,0.142-1.353,0.142C110.018,35.498,109.225,35.364,108.492,35.102z"/>
        <path fill-rule="evenodd" clip-rule="evenodd" fill="#8694A3" d="M126.665,35.308h-2.278v-1.122h-0.031    c-0.522,0.875-1.296,1.312-2.324,1.312c-0.757,0-1.354-0.214-1.788-0.644c-0.435-0.43-0.65-1.004-0.65-1.719    c0-1.514,0.897-2.387,2.689-2.622l2.12-0.281c0-0.853-0.463-1.279-1.389-1.279c-0.928,0-1.813,0.275-2.65,0.829v-1.812    c0.335-0.175,0.794-0.326,1.376-0.459c0.58-0.131,1.11-0.197,1.59-0.197c2.222,0,3.335,1.11,3.335,3.329V35.308L126.665,35.308z     M124.402,32.136v-0.524l-1.418,0.182c-0.783,0.102-1.172,0.455-1.172,1.062c0,0.272,0.093,0.498,0.283,0.673    c0.193,0.174,0.451,0.262,0.775,0.262c0.453,0,0.819-0.157,1.105-0.468C124.259,33.011,124.402,32.615,124.402,32.136z"/>
        <path fill-rule="evenodd" clip-rule="evenodd" fill="#8694A3" d="M137.964,29.676c-0.291-0.158-0.629-0.235-1.015-0.235    c-0.523,0-0.931,0.191-1.227,0.574c-0.294,0.385-0.443,0.905-0.443,1.565v3.728h-2.405v-7.803h2.405v1.449h0.031    c0.382-1.06,1.067-1.586,2.057-1.586c0.255,0,0.453,0.031,0.596,0.091V29.676z"/>
        <path fill-rule="evenodd" clip-rule="evenodd" fill="#8694A3" d="M146.543,35.308h-2.401v-1.189h-0.036    c-0.595,0.919-1.388,1.379-2.385,1.379c-1.809,0-2.712-1.095-2.712-3.286v-4.707h2.401v4.494c0,1.103,0.437,1.655,1.311,1.655    c0.431,0,0.775-0.151,1.034-0.454c0.261-0.301,0.388-0.712,0.388-1.229v-4.466h2.401V35.308z"/>
        <rect x="148.572" y="23.757" fill-rule="evenodd" clip-rule="evenodd" fill="#8694A3" width="2.406" height="11.55"/>
        <path fill-rule="evenodd" clip-rule="evenodd" fill="#8694A3" d="M160.014,32.092h-5.089c0.081,1.131,0.796,1.699,2.14,1.699    c0.858,0,1.612-0.204,2.263-0.607v1.736c-0.721,0.384-1.657,0.579-2.811,0.579c-1.26,0-2.237-0.349-2.935-1.049    c-0.694-0.696-1.043-1.672-1.043-2.92c0-1.295,0.375-2.323,1.129-3.079c0.752-0.757,1.675-1.134,2.772-1.134    c1.136,0,2.018,0.338,2.639,1.012c0.622,0.676,0.934,1.594,0.934,2.75V32.092L160.014,32.092z M157.782,30.613    c0-1.117-0.451-1.676-1.356-1.676c-0.385,0-0.72,0.16-1.001,0.479c-0.284,0.32-0.452,0.721-0.514,1.197H157.782z"/>
	</g>
</g>
</svg>