<?xml version="1.0" encoding="UTF-8" standalone="no"?>
<svg
   version="1.1"
   width="214.56781"
   height="81.787422"
   viewBox="0 0 214.56781 81.787422"
   id="svg16"
   sodipodi:docname="marekszumny.svg"
   xmlns:inkscape="http://www.inkscape.org/namespaces/inkscape"
   xmlns:sodipodi="http://sodipodi.sourceforge.net/DTD/sodipodi-0.dtd"
   xmlns="http://www.w3.org/2000/svg"
   xmlns:svg="http://www.w3.org/2000/svg">
  <defs
     id="defs16" />
  <sodipodi:namedview
     id="namedview16"
     pagecolor="#ffffff"
     bordercolor="#666666"
     borderopacity="1.0"
     inkscape:showpageshadow="2"
     inkscape:pageopacity="0.0"
     inkscape:pagecheckerboard="0"
     inkscape:deskcolor="#d1d1d1" />
  <path
     d="M 45.393604,36.799916 V 12.653269 h -0.15816 l -2.68882,5.377639 -7.17019,13.022318 -7.01202,-12.969596 -2.79426,-5.799414 h -0.15816 v 24.5157 h -7.53924 V 2.5981445e-6 h 8.48823 L 35.376434,17.240078 h 0.10545 L 44.391894,2.5981445e-6 h 8.54095 V 36.799916 Z m 46.65892,0 h -8.33006 l -2.6361,-8.75184 h -12.28421 l -2.6361,8.75184 h -8.11918 L 70.172924,2.5981445e-6 h 9.91172 z M 79.135654,21.246946 75.023344,7.2756306 h -0.26361 l -4.05959,13.9713154 z m 26.044636,2.056156 V 36.799916 H 97.166554 V 2.5981445e-6 h 17.450966 q 2.53065,0 4.5868,0.8435510018555 2.05617,0.843551 3.50075,2.393576 1.45511,1.56057 2.24594,3.722169 0.79083,2.1616 0.79083,4.7976974 v 0 q 0,3.743258 -1.66601,6.537521 -1.65547,2.794263 -5.02967,4.05959 v 0 l 7.2229,14.445809 h -8.91 l -6.43208,-13.496814 z m 0,-6.748409 h 8.43551 q 1.79255,0 2.81535,-0.927906 1.03335,-0.917362 1.03335,-2.709908 v 0 -2.319766 q 0,-1.7925464 -1.03335,-2.7204524 -1.0228,-0.917362 -2.81535,-0.917362 v 0 h -8.43551 z m 52.55324,20.245223 H 132.69061 V 2.5981445e-6 h 25.04292 V 7.1174646 h -17.02919 v 7.5392384 h 14.60398 v 7.064741 h -14.60398 v 7.961012 h 17.02919 z m 29.52428,0 -9.75356,-16.027467 -4.7977,5.799417 v 10.22805 h -8.01373 V 2.5981445e-6 h 8.01373 V 17.503688 h 0.31633 L 178.24236,10.386226 186.51971,2.5981445e-6 h 9.06818 L 183.19822,15.131201 196.69504,36.799916 Z"
     fill="#e30022"
     data-fill-palette-color="primary"
     id="path1"
     style="stroke-width:1.05444" />
  <path
     d="m 13.971324,81.787426 v 0 q -4.8504198,0 -8.2246298,-1.66602 -3.37419,-1.65546 -5.7466900007812,-4.29156 v 0 L 5.2721942,70.504926 q 3.74326,4.21776 9.2263498,4.21776 v 0 q 2.95243,0 4.37593,-1.21261 1.42349,-1.2126 1.42349,-3.21604 v 0 q 0,-1.52893 -0.84355,-2.56228 -0.84356,-1.02281 -3.42694,-1.39186 v 0 l -3.63781,-0.4745 q -5.8521198,-0.73811 -8.5620498,-3.53237 -2.72045,-2.79426 -2.72045,-7.4338 v 0 q 0,-2.47793 0.94901,-4.53408 0.94899,-2.05616 2.72044,-3.53237 1.76092,-1.47622 4.3232,-2.29868 2.5517398,-0.81192 5.8205098,-0.81192 v 0 q 4.16503,0 7.32835,1.31805 3.16332,1.31805 5.43035,3.8487 v 0 l -5.32491,5.37764 q -1.31804,-1.52894 -3.18441,-2.50956 -1.8769,-0.97009 -4.72389,-0.97009 v 0 q -2.68881,0 -4.00685,0.949 -1.3180598,0.94899 -1.3180598,2.63609 v 0 q 0,1.89799 1.0333498,2.74155 1.0228,0.84355 3.34258,1.2126 v 0 l 3.63781,0.57994 q 5.69396,0.89627 8.4355,3.50074 2.74154,2.61501 2.74154,7.4127 v 0 q 0,2.6361 -0.94899,4.85043 -0.949,2.21432 -2.76263,3.79598 -1.82418,1.58165 -4.513,2.44629 -2.68882,0.87519 -6.11574,0.87519 z m 46.8698,-7.75013 v 7.11746 h -27.8899 v -7.11746 l 18.13634,-22.56499 h -17.24007 v -7.11746 h 26.57186 v 7.11746 l -18.18907,22.56499 z m 5.90486,-29.68245 h 7.79232 v 22.56499 q 0,3.90142 1.53947,5.8205 1.52893,1.92963 5.11403,1.92963 v 0 q 3.58509,0 5.11402,-1.92963 1.52894,-1.91908 1.52894,-5.8205 v 0 -22.56499 h 7.7923 v 21.72144 q 0,4.05959 -0.75919,7.03311 -0.7592,2.98406 -2.49902,4.90314 -1.75036,1.92962 -4.48137,2.84698 -2.74154,0.92791 -6.69568,0.92791 v 0 q -3.95415,0 -6.69569,-0.92791 -2.74154,-0.91736 -4.48136,-2.84698 -1.75038,-1.91908 -2.50957,-4.90314 -0.7592,-2.97352 -0.7592,-7.03311 v 0 z m 64.310236,36.79991 v -24.14665 h -0.15817 l -2.68882,5.37764 -7.17018,13.02232 -7.01203,-12.9696 -2.79426,-5.79941 h -0.15816 v 24.5157 h -7.53922 v -36.79991 h 8.48822 l 9.01545,17.24007 h 0.10545 l 8.91,-17.24007 h 8.54095 v 36.79991 z m 36.95808,0 -10.06989,-17.39824 -3.53237,-7.38107 h -0.15817 v 24.77931 h -7.53924 v -36.79991 h 8.75185 l 10.06988,17.39824 3.53238,7.38107 h 0.15817 v -24.77931 h 7.53923 v 36.79991 z m 33.95294,0 h -8.06646 v -14.39309 l -12.60055,-22.40682 h 8.96273 l 7.9083,14.6567 h 0.10545 l 7.59195,-14.6567 h 8.69912 l -12.60055,22.3541 z"
     fill="#ff851b"
     data-fill-palette-color="secondary"
     id="path2"
     style="stroke-width:1.05444" />
  <rect
     width="997.21527"
     height="235.91997"
     fill="none"
     stroke="none"
     visibility="hidden"
     id="rect14"
     x="-349.88336"
     y="-74.237808"
     style="stroke-width:2.52128" />
</svg>
