<?xml version="1.0" encoding="UTF-8"?>
<!-- Created with Inkscape (http://www.inkscape.org/) -->
<svg width="671.1" height="377.46" version="1.1" viewBox="0 0 671.1 377.46" xmlns="http://www.w3.org/2000/svg">
 <defs>
  <clipPath id="clipPath16">
   <path d="M 0,283.46 H 2834.65 V 0 H 0 Z"/>
  </clipPath>
 </defs>
 <g transform="matrix(1.3333 0 0 -1.3333 -1553.3 377.46)">
  <g clip-path="url(#clipPath16)">
   <g transform="translate(1175.8 36.85)">
    <path d="m0 0s-0.416 0.13-0.78 0.416c-0.365 0.286-0.104 0.702 0.39 0.702s1.794-0.13 1.794-0.13-0.026-0.311-0.467-0.467c-0.443-0.157-0.937-0.521-0.937-0.521m-3.928 23.906s-0.234 0.338-0.702 0.573c-0.469 0.234-1.041 1.169-0.65 1.196 0.389 0.026 0.91 0.078 0.962-0.13s-0.052-0.469 0.598-0.599 0.806-0.259 0.885-0.858c0.077-0.598-0.079-1.145-0.573-1.04-0.494 0.104-0.52 0.858-0.52 0.858m11.13-1.64s0.573-1.616 2.502-1.564c1.928 0.053 6.463 6.307 7.192 10.111 0.73 3.806-0.26 14.282-0.417 14.699-0.156 0.417-2.554 5.473-5.003 7.089-2.45 1.616-4.43 0.574-4.43 0.574zm9.074 44.713c-0.311 0.311-0.363 0.455-0.518 0.649-0.156 0.194-0.428-0.26-0.415-0.959 0.013-0.701 0.155-1.192 0.545-1.127 0.388 0.063 0.53 0.557 0.453 0.815-0.078 0.259-0.065 0.622-0.065 0.622m2.773-2.461c-0.35-0.157-0.311-0.571-0.492-0.622-0.182-0.053 0.051-0.428 0.959-0.351 0.907 0.078 0.622 0.492 0.362 0.687-0.258 0.195-0.829 0.286-0.829 0.286m2.747-0.87s-0.051-1.385 0.104-1.424 0.324 0.155 0.272 0.557-0.376 0.867-0.376 0.867m-18.139-63.169s0.209 1.356 0.73 1.721c0.522 0.364 1.199 0.521 1.199 0.521s0.157 0.365 0.678-0.366c0.521-0.728 1.094-1.146 0.521-1.563-0.574-0.416-0.521-0.729-0.261-0.678 0.261 0.053 1.877 0.053 1.877 0.053l0.052-0.678-0.626-0.209c0.156-0.676 0.939-1.145 1.512-1.562s0.938-0.365 0.99 0.052 0.521 0 0.052 0.99-1.198 1.303-1.251 1.562c-0.052 0.262 1.825 0.887 2.554 0.991 0.73 0.105 0.938 0 0.938 0l0.157 0.833s6.15 2.086 10.007 7.089c3.857 5.005 7.453 11.729 8.6 16.21 1.147 4.484 2.085 18.659-0.886 25.331s-10.32 15.793-10.945 16.106c-0.626 0.313-0.73-0.886-1.46-1.199-0.73-0.312-1.199-0.416-1.199 0 0 0.417 1.72 1.72 1.72 2.033s-3.127 3.492-9.903 4.222c-6.775 0.73-17.356 0.157-17.356 0.157l0.156-3.545h2.137s0.104-0.678-0.313-0.886c-0.417-0.209-1.668-0.417-1.668-0.417l-0.104-2.293 0.157-11.468s0.417-0.781 0.364-1.093c-0.052-0.314-0.469-0.626-0.469-0.626s-0.019-1.848 0.163-2.264 0.411-19.523 0.411-19.523l0.729-0.417-0.729-0.468v-6.412s-0.073-0.936-0.411-1.352-0.91-1.301-0.91-1.301 0.962 0.677 1.248 0.573 0.13-1.068 0.312-1.249c0.182-0.182 1.093-0.052 1.093-0.052l0.104-0.676-1.093-0.104 0.13-5.619s-0.832 0.052-0.936-0.131c-0.104-0.181 0.208-1.457-0.156-1.378s-0.339 0.651-0.598 1.118c-0.261 0.469-1.067-0.077-1.015-0.546 0.052-0.468 0.156-0.443-0.26-0.468-0.417-0.025-0.781-0.963-0.182-1.066 0.598-0.105 0.545-0.235 0.858-0.365 0.312-0.13 0.989 0.442 1.301 0.442s0.832-0.39 0.832-0.884v-1.404l-1.561-0.131s0.183-0.832 0.469-1.04 0.286-0.572-0.026-0.599c-0.312-0.025-0.339 0.105-0.624 0.443-0.287 0.337-0.599 0.312-0.651 0.078-0.053-0.235 0.624-0.598 0.624-0.598l-0.121-1.973s0.997-1.088 1.153-1.114c0.155-0.026 0.363 1.127 0.791 1.309 0.427 0.181 1.169-0.122 1.897-0.095 0.728 0.025 1.249-0.131 1.223-0.807-0.026-0.675 0.234-1.353-0.182-1.353-0.417 0-0.723-0.182-0.892 0.233-0.168 0.414-0.129 0.479-0.427 0.441-0.298-0.039 0.207-0.428-0.013-0.739s-0.207-1.154 0.454-1.244c0.661-0.092 0.648 1.05 1.218 1.011s0.882-0.378 0.882-0.847c0-0.467-0.078-0.467-0.078-0.467l0.417-0.027 0.025-1.82s0.547 0.468 1.717 0.468c1.171 0 1.223-0.651 0.911-0.806-0.312-0.156-0.651-0.261-0.651-0.261s-0.39-0.832 0.027-0.832c0.416 0 1.326-0.468 1.352-0.754s0.52-0.703 1.639-0.781c1.119-0.077 2.081 0.495 2.081 0.495l0.234-0.131v-1.508l1.249-0.027s2.991-3.511 3.251-4.136c0.26-0.624 0.26-0.65 0.26-0.65l0.391 0.053s-0.156 0.65 0.364 0.675c0.521 0.027 1.587 0.495 1.587 1.171s-0.469 0.443-0.469 0.443 0.729-0.417-0.546-0.417-1.275 0.131-1.275 0.131v0.91l0.469 0.025-0.078 2.446s-1.223 0.468-1.561 0.468-0.651 0.411-0.315 0.463c0.337 0.053 0.803 0.105 0.803 0.105s-1.112 1.462-1.944 1.929c-0.833 0.469-1.588 0.313-1.588 0.313s0.391 0.858-0.13 1.144c-0.52 0.286-1.207 0.661-1.207 0.661" fill="#ed1c24" fill-rule="evenodd"/>
   </g>
   <g transform="translate(1191.3 28.161)">
    <path d="m0 0-2.003 0.078s0.234 1.483-0.13 1.717c-0.365 0.234-1.795 0-2.055 0.416s0.338 1.458-0.234 1.847c-0.572 0.391-1.197 0.442-1.197 0.442v0.573s0.156-0.234 0.521 0.313c0.364 0.546 1.17 1.352 1.639 1.352 0.467 0 0.78-0.286 0.78 0.286 0 0.573-0.052 0.703-0.052 0.703l-0.963 0.078v1.248s1.535-0.052 2.081 0.442c0.547 0.494 1.665 1.326 2.342 1.561 0.676 0.234 1.222 0.209 1.3 0.494 0.078 0.286 0.625 0.286 0.625 0.286s-0.494-1.117 1.014-1.534 2.185-0.078 2.419-1.276c0.234-1.196-0.286-1.664-0.286-1.664h0.962s0-0.39-0.494-0.494-0.52-0.52-1.274-0.52c-0.755 0-1.431 0.546-1.535-0.104s0.78-0.417 0.78-0.858c0-0.443-0.052-0.417-0.26-0.208-0.208 0.208-0.364 0.077-0.208-0.235s-0.468-0.182-0.52 0.182-0.937 0.183-1.092-0.417c-0.157-0.597-1.145-2.705-1.666-2.757-0.52-0.052-0.65-0.338-0.286-0.806s0.312-1.041 0.312-1.041 0.313-0.234 0.807 0c0.494 0.235 0.988 0.39 1.222-0.208s-0.208-1.43-0.728-1.508-1.639-0.078-1.639 0.416-0.182 1.196-0.182 1.196" fill="#ed1c24" fill-rule="evenodd"/>
   </g>
   <g transform="translate(1180.4 25.925)">
    <path d="m0 0c0.156 0.182 0.884 0.988 0.468 1.145-0.416 0.156-0.104 0.337-0.806 0.753-0.703 0.416-1.639-0.597-1.561-1.118 0.078-0.52 0.572-1.144 0.885-1.144 0.311 0 1.014 0.364 1.014 0.364" fill="#ed1c24" fill-rule="evenodd"/>
   </g>
   <g transform="translate(1184.7 24.676)">
    <path d="m0 0s-0.599-0.053-0.521-0.703c0.078-0.651 0.599-1.508 1.041-1.222s0.572 0.937 0.286 1.196c-0.286 0.26-0.806 0.729-0.806 0.729" fill="#ed1c24" fill-rule="evenodd"/>
   </g>
   <g transform="translate(1193.9 25.717)">
    <path d="m 0,0 c 0,0 -0.546,-0.651 0.027,-1.119 0.572,-0.468 1.222,0 1.222,0.39 0,0.391 -0.156,0.651 -0.52,0.754 C 0.365,0.13 0,0 0,0" fill="#ed1c24" fill-rule="evenodd"/>
   </g>
   <g transform="translate(1196.6 23.322)">
    <path d="m0 0s-1.119-0.649-1.093-1.17c0.027-0.52 0.676-1.196 1.327-1.196 0.65 0 1.274 0.208 1.3 0.78 0.027 0.572-1.534 1.586-1.534 1.586" fill="#ed1c24" fill-rule="evenodd"/>
   </g>
   <g transform="translate(1199.9 19.291)">
    <path d="m0 0s-0.364 0.364-1.041 0.364c-0.676 0-0.572-0.468-0.312-0.858s0.234-1.196 0.807-1.196c0.572 0 1.43 0.234 1.3 0.675-0.13 0.443-0.754 1.015-0.754 1.015" fill="#ed1c24" fill-rule="evenodd"/>
   </g>
   <g transform="translate(1201.2 17.444)">
    <path d="m0 0s-1.145-0.286-1.145-0.938c0-0.649 0.885-1.352 1.431-1.376 0.547-0.028 1.509 0.961 1.119 1.481s-1.405 0.833-1.405 0.833" fill="#ed1c24" fill-rule="evenodd"/>
   </g>
   <g transform="translate(1203.4 17.573)">
    <path d="m 0,0 c 0,0 -0.546,0.105 -0.208,-0.754 0.338,-0.858 0.78,-0.962 1.17,-0.858 0.391,0.104 0.859,0.52 0.52,1.066 C 1.145,0 0,0 0,0" fill="#ed1c24" fill-rule="evenodd"/>
   </g>
   <g transform="translate(1203.7 14.478)">
    <path d="m0 0s0.13-0.546-0.312-0.546-1.222-0.234-1.066-0.858c0.156-0.625 0.962-0.937 1.196-1.587 0.234-0.651 0.182-0.702 0.468-0.702s0.339 0.78 0.651 0.78 0.65 1.196 0.182 1.95c-0.469 0.755-1.119 0.963-1.119 0.963" fill="#ed1c24" fill-rule="evenodd"/>
   </g>
   <g transform="translate(1198.8 43.51)">
    <path d="m0 0s-0.572-0.131-0.65-0.807c-0.079-0.676 0.39-0.65 1.144-0.676 0.755-0.026 1.223 0.052 1.223 0.546 0 0.495-0.468 0.26-0.755 0.651-0.286 0.39-0.962 0.286-0.962 0.286" fill="#ed1c24" fill-rule="evenodd"/>
   </g>
   <g transform="translate(1204.9 42.911)">
    <path d="m0 0s-1.327-0.624-1.43-1.535c-0.105-0.911-0.443-1.847 0.884-2.653 1.327-0.807 1.899-0.833 2.757-1.769 0.859-0.937 1.925-0.261 1.925-0.261s-1.144 0.339-1.301 0.937c-0.155 0.598 0.365 3.252-0.155 4.007-0.52 0.753-1.067 0.442-1.535 0.65-0.469 0.208-1.145 0.624-1.145 0.624" fill="#ed1c24" fill-rule="evenodd"/>
   </g>
   <g transform="translate(1224 97.31)">
    <path d="m0 0c-0.052-0.091-0.35-1.271 0.078-1.606 0.427-0.337 0.57 0.375 0.441 0.699-0.131 0.324-0.519 0.907-0.519 0.907m-7.723 1.244s-0.688-0.635-0.726-0.959c-0.039-0.324 0.375-0.686 0.687-0.713 0.31-0.025 0.699 0.584 0.867 0.713 0.169 0.13-0.828 0.959-0.828 0.959m16.848-20.266s-0.675-0.728-0.259-0.911c0.416-0.181 0.806-0.311 0.858 0.105s-0.599 0.806-0.599 0.806m4.163-0.546s-0.546-0.573-0.364-0.781 0.208-0.572 0.598-0.546 0.598 0.416 0.598 0.416l-0.338 0.573zm-24.063-30.407 0.99-0.208 0.053-1.146 4.795-0.053s0.469 1.096 0.99 1.199c0.522 0.105 1.355-1.043 1.355-1.043l7.715 0.106-0.053 1.562 0.938-1.615 13.135 0.053s0.73 0.52 0.73 2.396c0 1.877 1.094 6.672 1.668 7.559 0.573 0.886 1.302 6.254 1.302 7.296 0 1.043-0.26 1.512-0.26 1.512l-18.034-0.625s-0.365 1.042-0.73 2.033c-0.365 0.99-0.313 4.273 0.313 5.003 0.625 0.729 0.625 0.99 0.625 0.99h6.099s0.156 0.677 0.833 0.73c0.678 0.052 1.283 6e-3 1.283 6e-3l0.065 1.763s0.453-0.026 0.453 0.194 0.493 0.195 0.493 0.195l0.013-3.267 1.737 0.018 0.052 10.379-1.717-0.026s0.936 0.494 1.249 0.91c0.312 0.417 0.26 0.807 0.26 0.807s-1.093-0.26-1.327-0.026 0.096 0.043-0.203 0.237c-0.297 0.194-0.713 0.427-0.713 0.427s0.532 0.259 0.804 0.688c0.272 0.426 0.35 0.867 0.22 0.983-0.129 0.118-1.879-0.025-1.879-0.025l0.221 1.671s1.93 1.142 2.164 1.737c0.233 0.596 0.388 1.27 0.388 1.27l-9.191 0.197s-0.161-0.447-0.707-0.447-0.833-0.235-1.145 0.494c-0.312 0.728-0.182 2.835-0.624 3.537s-0.936 1.171-0.936 1.171 1.17 2.489 1.743 4.262c0.574 1.772 1.824 0.99 1.824 0.99l11.102-0.625h3.962s-1.355 12.249-1.824 13.603c-0.469 1.355-0.469 3.076-0.469 3.076l-2.555 0.26-0.052-0.73s-1.98 0.679-3.075 0.679-2.867-0.209-2.867-0.209l-1.146-0.625-1.668-0.157-0.521 0.677-1.042 0.156-16.992 0.469-0.052-46.335 0.331-0.515z" fill="#ed1c24" fill-rule="evenodd"/>
   </g>
   <g transform="translate(1268.8 66.778)">
    <path d="m0 0h9.591l0.052 4.951-5.004 13.238-4.013-14.385zm-22.464-26.583 3.127-0.312s0.052-0.522 0.522-0.522c0.468 0 1.667 1.043 1.667 1.043h2.763l0.573-0.886 1.72 1.042 4.639-0.052 3.023 8.079 14.907-0.209-0.052 0.678h1.146l0.209-0.678s1.876 0.782 2.606 0.157c0.729-0.626 2.293-3.492 2.606-4.795 0.312-1.304 0.26-3.024 0.26-3.024l6.776-0.104s1.199 0.573 2.189 0.521c0.99-0.051 1.199-0.573 1.199-0.573l6.098 0.314s-0.73 3.752-1.147 4.065c-0.416 0.313-0.469 1.251-0.469 1.251l-0.521 2.241-1.094 2.136-0.104 1.877s-1.616 4.065-1.929 6.411c-0.312 2.345-1.095 5.682-1.824 6.724-0.73 1.042-0.938 1.511-0.938 1.511s-0.053 3.701-0.886 4.795c-0.834 1.095-1.147 1.355-1.147 2.451 0 1.093-4.639 18.294-5.421 19.805s-0.914 2.07-0.836 2.356c0.078 0.287 0.286 0.313 0.286 0.313s0.39 0.624-0.104 1.275c-0.494 0.65-0.91 1.352-0.937 1.898-0.026 0.546-1.04 3.745-2.392 4.031-1.354 0.286-1.64 0.209-1.64 0.209s-0.026 3.876 0.209 4.136c0.234 0.261 0.286 0.286 0.286 0.286l-0.104 2.575h-1.535s-1.119-1.248-1.405-1.222-0.338 2.003-1.43 2.211c-1.093 0.209-1.093-0.078-1.093-0.078l-0.546-0.26-0.382 0.721-10.997 0.156-4.639-19.492 0.938-0.262v-1.146h-0.678v-1.147l-1.042-0.052-6.505-24.83z" fill="#ed1c24" fill-rule="evenodd"/>
   </g>
   <g transform="translate(1321.3 95.966)">
    <path d="m0 0s2.867 0.833 5.16-2.346 4.326-8.078 4.326-8.078 0.938-11.05-1.147-15.48c-2.085-4.431-5.368-6.307-5.368-6.307l-2.711-0.052zm-15.792-54.884 4.377-0.104-0.625 0.782 1.929 0.052s0.26-0.417 1.719-0.417c1.46 0 5.89 1.199 7.193 1.459 1.303 0.261 4.17 0.261 4.17 0.261s11.396 4.445 17.865 16.548c6.469 12.104 3.548 28.068 3.026 31.198s-1.461 4.59-1.461 4.59 0.116-0.736-0.354-0.84c-0.469-0.105-0.513 0.2-0.513 0.2l-0.219 3.404s-3.959 7.602-8.962 11.198c-5.004 3.597-7.764 4.357-7.764 4.357s0.755-0.624 0.547-0.806c-0.208-0.183-1.067-0.053-1.067-0.053v-0.338l0.442-0.234s0.131-1.977-0.26-1.82c-0.39 0.156-0.91 1.69-0.91 2.367 0 0.676 1.795 1.64 1.795 1.64s2.523 0.702 3.069 0.702 0.885 0.208 0.885 0.208-3.096 0.078-3.304 0.025c-0.208-0.052-0.52-0.468-0.52-0.468l-1.821-0.676-1.925-0.052-0.234 0.624 1.041 0.053v0.675s-1.119-0.442-1.327 0.13c-0.208 0.573 0.832 0.573 0.832 0.573l-0.13 1.119-1.693-0.016s0-0.907-0.324-0.907-0.792 0.246-0.792 0.246l-2.342 0.026-0.65-0.806h-0.806l0.026 0.936h-0.677l-0.467 0.832h-0.625l-0.208-1.898-0.469 1.274s0.078-0.598-0.182-0.988c-0.26-0.391-0.806-0.624-1.248-0.338s-0.625 0.312-0.625 0.936c0 0.625-0.468 1.041-0.494 1.561s-0.572-0.209-0.546-0.807-0.26-1.092-0.963-1.092c-0.702 0-2.419-0.026-3.277 0.078-0.859 0.104-0.833-0.078-0.729-0.624s0-2.082 0-2.082l-1.742-1.561-0.599 0.052v0.678l-0.818-1.347s0.116-0.441 0.777-0.777c0.662-0.338 0.986-0.597 0.234-0.959-0.752-0.364-1.114-0.597-1.114-0.597s0.531-0.285 1.036-0.194c0.506 0.089 1.568 0.298 1.568 0.298s0.285-1.206-0.389-1.283c-0.673-0.078-1.996 0.233-1.996 0.233s0.325-0.843 0.778-1.153c0.454-0.311 2.203-0.44 2.203-0.44s0.297-4.421 0.089-5.54c-0.209-1.118-0.521-3.199-0.521-3.199l-0.208-27.886 0.755-0.807v-0.546l-0.509-0.661z" fill="#ed1c24" fill-rule="evenodd"/>
   </g>
   <g transform="translate(1326.8 90.723)">
    <path d="m0 0s-1.066 0.963-1.925 0.78c-0.858-0.181-0.754-0.78 0.52-1.716 1.275-0.936 1.587-0.104 1.587 0.233 0 0.339-0.182 0.703-0.182 0.703" fill="#ed1c24" fill-rule="evenodd"/>
   </g>
   <g transform="translate(1311.2 120.61)">
    <path d="m0 0s0-0.599 0.754-0.702c0.755-0.105 1.198-0.027 0.755 0.806-0.442 0.834-0.468 1.353-0.468 1.639s-0.703-0.363-0.729-0.649c-0.025-0.286-0.312-1.094-0.312-1.094" fill="#ed1c24" fill-rule="evenodd"/>
   </g>
   <g transform="translate(1310.9 200.13)">
    <path d="m0 0c-0.65 0-1.43 0.494-0.572 0.624s1.118-0.078 1.509 0.625c0.39 0.702 0.598 0.962 0.598 0.962s-0.416-0.702 0.078-0.729c0.494-0.025 1.769 0.053 2.498 0.547 0.727 0.494 3.017 0.416 3.277 0.364s0.26-0.624-0.156-0.78-0.911-0.26-1.197-0.39c-0.285-0.131-3.745-0.208-3.745-0.208s-0.677-0.313-0.573-0.807-0.104-1.3-0.286-0.988 0.234 1.014-0.182 1.092-1.249-0.312-1.249-0.312m23.164 5.079s-3.388 2.97-2.659 6.515c0.731 3.544 2.503 5.316 5.734 5.42 3.232 0.105 5.185-0.99 5.185-0.99l5.879-2.211-2.159-0.182s-5.307 2.627-6.425 2.627c-1.119 0-1.145-0.416-0.963-0.598s7.205-2.862 7.205-2.862l0.989-0.468h-1.821s-4.63 2.237-5.437 2.237c-0.806 0-0.234-0.806 0.391-1.223 0.624-0.416 2.991-0.78 2.991-0.78s-3.121 0.26-3.459-0.286-1.067-1.665-1.067-1.665 0.677 1.847 0.208 2.602c-0.468 0.754-1.249-0.209-1.561-1.379s-0.363-1.795-0.442-2.549c-0.078-0.755-0.286-4.631-0.286-4.631s-0.806 0.182-0.937 1.171c-0.13 0.988 0.182 6.815-0.26 7.621-0.442 0.807-0.65 0.859-0.988 0.261s-0.806-3.304-0.573-4.89c0.235-1.588 0.455-3.74 0.455-3.74m5.239 16.633 2.696-0.298-5.793 5.378 0.259-1.84 0.817-0.817-0.026-0.686s-0.117-0.208 0.181-0.338c0.298-0.129 1.801-0.194 1.801-0.194zm25.044-7.512s-2.502 11.988-7.089 18.242c-4.587 6.255-8.496 7.766-8.496 7.766l0.105-1.146s3.732-3.138 4.122-3.944c0.39-0.807 0.13-1.197 0.13-1.197l-1.977-0.234c0.339-0.287 2.237-0.052 2.237-0.052s0.573 0.598 0.833 0.338 0.208-2.576 1.821-4.76c1.613-2.186 4.5-6.556 4.5-6.556l0.13-1.04-1.118-0.052s-6.035 3.667-7.258 4.083c-1.223 0.417-2.809 0.365-2.809 0.365s8.818-3.824 10.717-6.113 4.152-5.7 4.152-5.7m13.459-40.109c-0.208 0.677-1.353 1.326-1.795-0.26-0.443-1.587-1.015-3.07-1.015-3.07l0.91 0.052s0.99 0.442 1.406 1.405 0.494 1.873 0.494 1.873m22.469 53.09-2.773-0.208-0.169-1.633s1.542-0.09 2.514 0.454 1.244 1.438 1.244 1.438zm71.646-49.24 0.39-0.754-0.494-0.339h-1.353s-1.093 0.989-3.018 1.9c-1.924 0.91-4.578 2.523-4.578 2.523s-0.416 0.156 0.91 0.104c1.328-0.052 3.434-1.275 3.434-1.275l3.382-1.873zm-150.95 38.967s-2.887 0.781-3.823 1.405c-0.937 0.625-1.717 0.885-2.498 0.885-0.78 0-1.456-0.052-1.456-0.052s1.456-0.781 2.237-1.119c0.78-0.338 3.147-1.795 3.745-1.795 0.599 0 1.77 0.026 1.77 0.026zm-3.251-0.624-3.252 1.379-0.807-0.052 0.625-0.807s1.509-0.702 2.237-0.962 1.171-0.442 1.171-0.442l-1.873-0.13c0.234-0.234 2.263-0.365 2.627-0.573s2.315-1.405 2.81-1.977c0.494-0.572 1.873-0.468 1.873-0.468s-1.509 0.936-1.509 2.029 0.13 0.937 0.13 0.937-2.264-0.339-2.914 0.156c-0.65 0.494-0.572 0.676-0.572 0.676zm62.84-202.23s-5.42-1.043-7.193-1.407c-1.772-0.365-1.876-0.782-2.606 0.052-0.729 0.834-0.26 2.45-0.26 2.45h-1.304s0.678 0.208-0.625 1.303c-1.302 1.094-1.251 1.928-1.251 1.928s0.574-1.042-1.303-0.73c-1.876 0.313-2.553 0.938-2.553 1.668v1.252s-2.98 0.148-3.318 0.434c-0.339 0.287 0.182 1.379 0.338 1.536 0.156 0.156 0.052 0.467 0.052 0.467s-0.963 0.157-0.963-0.286c0-0.442 0.338-1.846 0.157-2.236-0.182-0.391-0.443-0.78-1.223-0.78s-2.185 0.285-2.185 0.285-1.171 0.598-1.171 1.275c0 0.676 1.041 0.858 1.405 0.858s2.393 0.703 2.029 2.732c-0.364 2.028-2.315 1.093-3.044 1.665-0.728 0.572-1.17 0.416-1.352-0.208-0.182-0.625-1.237-0.681-1.237-0.681s-0.298-2.151-0.143-2.294c0.156-0.141-7.022 6.408-7.022 6.408l6.893-7.44s-0.104-0.471 0.117-0.782c0.22-0.311 1.14-0.22 1.14-0.22s-0.026-0.687-0.221-0.687c-0.194 0-0.311-0.492-0.323-0.712-0.013-0.221-0.636-0.649-1.154-0.649s-0.518 0.364-0.518 0.364l-1.772 0.345s-2.263-0.364-2.679 0.026c-0.417 0.39-0.677 1.144-1.457 1.301-0.781 0.156-1.041-0.052-0.573-0.443 0.469-0.39 1.613-0.962 1.483-1.431-0.13-0.467-0.442-0.935-0.182-1.04 0.26-0.103 2.55 0.26 3.018-0.337 0.468-0.6 0.286-1.171-0.26-1.171-0.547 0-1.769 0.286-2.602 0.833-0.833 0.546-1.3 0.832-1.3 0.832s0.416-1.379 0.858-1.613c0.442-0.235 2.965-0.573 3.018-0.912 0.051-0.338-0.053-0.649-0.911-1.04-0.859-0.389-1.405-0.676-1.405-0.676l-9.234 0.338s0.988-0.988 1.534-1.014c0.547-0.026 6.556-0.26 6.738-0.521 0.182-0.26-0.461-1.439-2.494-1.439s-15.324-0.261-15.324-0.261l-0.312-0.678h-4.014l-0.156 0.574s-48.181-2.261-53.711-3.096c-5.53-0.834-18.885-0.731-18.885-0.731s-5.113-0.938-9.495-2.399-6.26-2.608-7.304-2.608c-1.043 0 1.983-0.209 3.339-0.731 1.357-0.522 119.34-0.588 119.34-0.588l83.718-0.834h79.75s6.368 0.02 6.914-0.579c0.545-0.599 1.82 0.155 3.667 0.209 1.846 0.051 10.849 0.099 12.622 0.619 1.772 0.522 2.327 1.155 2.327 1.155s0.492-0.556 0.479-0.854c-0.012-0.299 0.804 0.09 0.648 0.881-0.156 0.79-1.586 3.14-2.446 3.661-0.857 0.52-0.91 0.286-0.91 0.286s0.131 1.223-0.103 1.223c-0.235 0-2.783-0.027-2.783-0.027l-0.158 1.665s-0.936-0.417-1.872 0.235c-0.936 0.65-2.003 0.624-2.003 0.624s-2.081 0.156-2.654-0.208c-0.572-0.364-1.015-1.535-2.445-1.432-1.431 0.106-2.729 0.866-2.729 0.866l0.026 0.947s-0.273-0.739-0.675-0.843-1.243 0.052-1.646 0.35c-0.401 0.298-1.049 0.375-1.282-0.233-0.232-0.609-0.976-0.8-3.371-0.8-2.393 0-4.188 0.261-4.188 0.261l-1.691 0.832s0.832-0.39 0.365-0.728c-0.468-0.338-2.706-0.052-3.252-0.052-0.547 0-0.832 0.546-0.832 0.546l-45.945 1.08-0.261-0.522-2.293 0.052-1.042 0.626s-27.865 1.39-31.933 1.39c-4.071 0-18.156 1.565-18.156 1.565s1.46 6.218-1.772 9.971c-3.231 3.753-7.713 3.075-7.713 3.075s-2.815 5.056-4.796 6.099c-1.98 1.042-2.554 1.251-2.554 1.251s-1.511 6.828-5.003 12.196c-3.493 5.368-3.493 6.358-3.493 6.358l1.408 0.105s0.313 0.312-1.304 0.886c-1.615 0.573-1.826 0.505-1.852 0.922-0.026 0.416 0 0.676 0.624 0.676s0.728 0.208 0.988 0.494c0.261 0.286 0.495 0.807-0.181 1.172-0.677 0.363-3.539 0.389-3.539 0.389s0.339 0.964-0.364 1.458c-0.702 0.494-0.572 0.468-0.572 0.468l0.052 1.249s1.612-0.313 1.743-0.807c0.13-0.494 0.416-1.196 0.416-1.196l0.416 0.233s0.208 1.457-0.104 1.873-3.537 0.651-3.537 0.651 1.795 2.002 1.821 2.497c0.025 0.494-0.339 3.98-0.339 3.98l-5.696-0.338 0.442-1.977 4.188 0.026 0.052-1.952-5.958-0.285 0.079-0.573 0.702-0.26-1.847-0.494-0.39 1.092-1.041 0.157v0.675l4.839 0.417-4.448 0.729v5.774l6.945 0.234-0.39 0.572-1.066 0.156-0.208 0.364h-0.729l-0.155 0.338 3.069 0.184-1.925 0.571-0.052 0.26-7.779 0.053s0 3.407 0.053 4.526c0.052 1.118-0.443 2.133-0.469 2.471-0.025 0.338 2.315 0.338 2.315 0.338s0.703 0.208 1.536-0.13c0.832-0.338 2.093-1.123 3.117-0.928 1.024 0.194 1.011 1.192 0.739 1.879s-1.516 0.647-1.802 0.363c-0.284-0.285-0.168-0.687-0.622-0.739-0.453-0.052-0.362 1.529-0.362 1.529l-1.697 0.052-0.467 0.362-0.817 0.066-0.337 0.402 0.117 0.609 0.713-0.066 0.272 0.246 1.542-0.025v-0.284s1.711-0.247 2.047-0.247c0.338 0 0.86-0.175 0.105 1.126-0.754 1.3-6.997 0.65-6.997 0.65l-0.312 0.572-0.728 0.026-0.078 0.598 7.361-0.026 0.195 0.57-0.051 0.99-2.085 0.47-0.157 0.73s1.825 1.771 0.834 3.908c-0.99 2.138-0.677 3.023-0.677 3.023l4.378 0.208s1.639 2.565 0.387 6.634c-1.252 4.068-5.426 6.886-5.426 6.886s1.224 1.267 0.755 2.074c-0.468 0.807-2.419 0.832-2.419 0.832s1.535 0.468 1.691 0.676c0.156 0.209-0.617 7.292 0.529 12.296 1.147 5.003 3.076 10.789 3.076 10.789s2.71 0.625 2.918 2.345c0.209 1.72-0.052 5.524 1.095 5.681 1.146 0.156 2.137-1.251 2.137-1.251l1.772 0.052-1.199 1.616v0.677l2.189 0.105s0.88 0.467-1.019 3.224c-1.899 2.758-3.252 4.475-3.59 6.035-0.338 1.561-0.39 3.148-0.39 3.148l-2.331-0.067c0.11 0.434 0.305 1.034 0.642 1.588 0.622 1.023 2.599 4.02 4.472 6.101s1.717 0.858 1.717 0.858l0.104-1.768 0.962 0.104c0.963 0.104 1.614 0.936 1.614 0.936v2.289s0.259 1.223 1.43 1.092c1.171-0.129 0.442-1.742-0.208-4.161-0.65-2.42 1.353-2.706 1.353-2.706s0.052 3.174 0.885 2.862c0.832-0.312 1.144-2.758 1.144-2.758s0.702 1.743 1.3 2.94c0.598 1.196 1.821 1.378 2.446 0.156 0.624-1.223-0.443-3.174-0.443-3.174s-0.13-0.65 0.807-0.312c0.936 0.338 1.196 2.159 1.248 2.732 0.052 0.571 0.807 0.363 1.821-0.313 1.015-0.676 0.806-1.04 1.509-1.04 0.702 0 0.39 0.546 1.665 0.546 1.274 0 1.378-0.676 2.029-1.873 0.65-1.197 1.898-0.104 1.898-0.104l-0.026-4.916-0.451-24.71s-1.251 1.772-2.606 2.085c-1.355 0.312-3.805 0.208-5.16-0.834-1.355-1.043-1.303-3.283-0.886-4.013 0.417-0.731 2.085-1.929 2.241-2.451 0.157-0.521 2.779-3.114 3.377-3.114s1.041-0.468 1.015-0.806-2.315-5.541-3.304-6.608c-0.989-1.066-1.87-5.003-1.974-8.495-0.104-3.493-0.834-7.089 0.209-9.747 1.042-2.658 1.72-4.69 1.563-5.682-0.156-0.99-0.938-1.928-0.938-1.928l0.313-9.069s0.469-2.762 0.834-2.762 1.042-1.147 1.042-2.034c0-0.885 1.147-4.795 2.242-7.869 1.094-3.075 1.876-10.477 1.615-12.561-0.26-2.085-0.573-6.256-1.042-7.298s-3.336-4.117-3.336-4.117-0.469 0-0.469-0.886c0-0.887 0.365-1.564 0.73-1.564 0.364 0 1.407 1.408 2.033 1.459 0.625 0.052 2.762 0.887 2.762 0.887s0.477-1.534 0.165-1.69c-0.312-0.157-1.624-1.177-1.989-2.064-0.365-0.885 0.625-1.719 0.625-1.719s0.574-0.939 1.251-1.095c0.678-0.156 3.961 0.887 6.723 3.701 2.763 2.814 3.597 3.961 3.91 4.222 0.313 0.26 0.781 2.032 0.364 2.814s-1.511 2.346-1.355 4.848 2.398 6.932 1.408 11.258c-0.991 4.326-1.616 6.15-1.981 6.306s-0.313 0.522-0.313 0.522l0.157 4.846 1.25 0.314s-0.26 4.951 0.052 5.629c0.313 0.677 0.731 0.729 1.095 0.26 0.365-0.468 0.417-0.938 0.782-0.677s0.73 0.938 0.73 2.814v8.548s1.043 2.19 1.406 3.962l0.366 1.771s0.27 17.435-1.713 20.983c-1.982 3.547-2.718 5.703-4.594 6.329s-4.222 1.355-4.222 1.355 1.095 0.783-0.052 1.459c-1.147 0.679-1.72 0.679-1.72 0.679l-0.521 2.97-0.469 0.261 0.501 23.355v4.604l0.208 2.835s2.159-1.847 3.251-1.769c1.093 0.078 2.341 1.925 2.341 1.925h-1.664s0.13 1.691 0.962 2.133c0.833 0.442 2.133 0.156 3.277-1.144 1.145-1.301 1.405-1.821 1.405-1.821s0.598 0.312 0.859 0.884c0.26 0.572 0.676 1.509 1.3 0.755 0.625-0.755-0.103-2.94-0.103-2.94s-0.078-0.39 0.884-0.104c0.963 0.286 1.821 2.965 2.731 3.876s2.16-0.078 2.16-0.078l0.155 0.676-1.17 1.145s-0.416 1.171 0.416 1.352c0.833 0.183 2.706-1.821 2.706-1.821l0.181 2.602s1.379 0.208 2.784-0.858c1.404-1.067 3.46-5.047 3.46-5.047s0.285 1.327-0.547 2.732c-0.832 1.404-3.459 4.031-3.459 4.031l0.111 0.385 3.868 0.213s0.208-2.028 1.171-2.731c0.963-0.702 1.197 0 1.197 0s-0.703 1.171-0.626 1.769c0.079 0.598 1.224 1.665 1.224 1.665l-0.494 0.286 0.104 0.572 1.17-0.208s1.223-2.887 3.954-3.615c2.732-0.729 3.85 1.925 3.85 1.925s-0.598 0-1.274 0.364-0.781 0.91-0.781 0.91 1.587 0.468 4.397-1.457c2.808-1.925 5.306-2.705 5.306-2.705l-0.129 1.04 0.649 0.157s1.093-0.989 1.457-1.301 1.171-0.208 1.482 0c0.313 0.208 0.13 0.469-0.416 0.832-0.546 0.364-0.65 0.989-0.65 0.989s2.576-0.312 4.215-1.613c1.639-1.3 2.263-0.962 2.263-0.962l-0.13 0.676s0.988-0.547 1.144-0.989 0.832-1.014 0.832-1.014l0.105 2.081 2.522 0.312s0.028-0.91 0.286-1.821c0.261-0.91 2.342-1.301 3.122-0.936 0.781 0.364 1.041 2.107 1.041 2.107l1.691 0.338s0.468-1.405 0.676-2.185 1.822-2.185 2.341-2.263c0.521-0.078 0.677 0.988 2.81-0.286 2.133-1.275 2.289-4.708 2.289-4.708l0.39 0.857s0.598 0.547 0.65 1.9c0.052 1.352-0.234 3.902-1.82 6.087-1.587 2.185-7.233 7.986-7.233 7.986s2.577-1.119 7.102-4.735c4.527-3.615 6.582-8.818 6.582-8.818s1.17 1.066 1.95 1.197c0.78 0.13 0.937 0.546 0.547 2.289-0.391 1.742 0.416 3.511 0.416 3.511l-7.804 3.434 7.102-2.081 2.445 0.416-9.053 3.538 5.931-1.093v0.547l-0.519 0.234-0.755 0.364 0.858 0.546-0.39 0.651s-4.656 0.39-5.983 0.442-2.888 0.52-2.991 0.937c-0.105 0.416 0.597 0.546 1.82 0.181 1.223-0.364 7.778-0.312 7.778-0.312s-0.129 0.911-1.404 1.925c-1.275 1.015-5.151 0.546-5.723 0.546l-0.027 0.417 7.102 0.078-2.549 0.884-6.269 0.027s-0.26 0.415 0.598 0.415 4.786 0.521 4.786 0.521-0.234 0.286-0.988 0.624c-0.755 0.338-9.364 0.806-9.364 0.806l-0.599 0.286-0.39 0.729s-9.209-0.286-9.547-0.13 0.468 0.546 0.468 0.546 11.082 0.494 12.227 0.651c1.144 0.156 1.604 0.568 1.604 0.568l-15.183-0.673 0.329 0.933s6.359 0.574 10.319 0.991c3.962 0.417 2.399 0.312 2.399 0.782 0 0.469-1.876 0.833-1.876 0.833l-1.043-0.521-6.985-0.573 0.156 0.573 7.61 1.147-0.208 0.574-5.109 0.208 4.64 1.407-7.766-0.781 1.616 0.989-8.548-0.625 6.098 2.241 0.209 0.522-9.017-2.033 4.221 2.137s-7.766-1.564-9.382-2.033c-1.615-0.469-16.365-2.867-18.92-2.867-2.554 0-14.229-2.71-18.45-3.231-4.222-0.521-15.116 1.094-15.116 1.094l14.542 0.574-1.824 0.104 0.156 0.521 2.71 1.147-7.036 0.469s7.61 1.042 9.487 1.146c1.876 0.104 2.553 0.991 2.553 0.991s-19.076-0.469-19.389-0.469c-0.312 0 0.834 0.99 0.834 0.99l17.825 1.355-5.055 0.469 0.313 0.521 8.756 1.095 2.894-0.274s6.217-4.839 6.503-4.709 0.338 0.937 0.338 0.937l-1.04 1.821-0.027 1.586s0.832 0.131 1.639-0.572c0.807-0.702 1.067-1.639 1.196-2.653 0.13-1.014 0.469-1.691 1.146-1.977s1.143 0.52 1.143 1.405c0 0.884-0.805 1.69-1.664 2.445-0.858 0.754-1.873 2.419-1.873 2.419s1.327 0.182 2.341-0.442c1.016-0.625 1.196-1.067 1.196-1.067l0.417 0.104 0.079 1.691-5.177 3.694s-0.052 0.364 0.677 0.364c0.727 0 1.351-0.988 1.351-0.988l3.253 0.312s-0.391 1.014-1.196 1.456c-0.808 0.443-3.097 0.963-4.345 1.275-1.249 0.312-1.535 1.379-1.535 1.379s0.261 0.052 1.665 0.052 2.627-0.52 3.225-0.91 0.936 0.181 0.936 0.181l-2.288 1.327-3.434 0.208s-0.286 0.261 0.235 0.573c0.519 0.311 8.193 0.494 8.193 0.494l-0.311 0.807h-1.692s-0.572-0.027-1.014-0.365c-0.443-0.338-3.122-0.026-2.914 0.416 0.208 0.443 0.754 0.547 4.163 0.494 3.407-0.051 3.823 0.573 3.823 0.573s-2.627 0.312-3.043 0.312-1.534 0.494-0.963 0.65c0.572 0.156 3.434 0.209 5.333 0.884 1.899 0.677 12.643 1.561 12.643 1.561l-7.623 1.327s5.307-0.078 6.244-0.546c0.936-0.469 4.889 0.026 4.889 0.026s-1.716 0.286-2.938 0.286c-1.223 0-4.475 1.587-7.857 1.795-3.38 0.208-9.078 1.353-9.572 1.509s-0.494 0.468 0.494 0.468c0.989 0 8.584-1.379 9.755-1.483 1.17-0.104 8.584-0.702 8.584-0.702s-8.845 1.535-9.702 1.612c-0.859 0.079-8.923 1.093-10.302 1.536-1.379 0.442-3.641 0.754-4.917 0.624-1.273-0.13-5.957-1.769-8.609-2.705-2.653-0.937-5.463-1.483-5.463-1.483s2.472 2.419 5.774 3.927c3.304 1.51 7.466 0.859 9.495 0.859s5.645-0.442 8.871-0.755c3.225-0.312 12.226-2.262 18.13-3.667 5.906-1.405 16.364-2.393 18.367-2.393 2.002 0 3.51-0.651 3.51-0.651s-3.745 2.289-4.109 2.628c-0.364 0.338-0.208 1.014 0.416 1.092s1.925-0.988 2.211-0.988 0.416 0.156 0.416 0.156l-2.861 1.743-3.279 0.104-1.196 1.586s-2.258-0.159-2.583 0.138c-0.324 0.299 1.788 0.973 1.996 1.128 0.207 0.156 0.221 0.402-0.583 0.259-0.804-0.142-3.965 0.817-3.965 0.817l-0.311 0.324-2.8 0.092-0.116 0.737s0.545 0.324 1.205 0.233c0.661-0.091 1.581 0.545 1.348 1.179-0.234 0.636-1.038 1.115-1.75 1.154s-2.721-1.011-3.641-1.037-0.635 0.35-0.635 0.35 3.849 0.933 4.587 1.594c0.739 0.661 2.67 1.464 2.67 1.464s-0.608 0.104-1.672 0.039c-1.062-0.065-4.16-1.516-5.494-2.008-1.335-0.493-1.49-0.518-0.959 0.207 0.53 0.726 5.862 2.227 5.862 2.227s-4.214-0.469-5.722-1.327c-1.509-0.858-4.605-0.572-4.605-0.572s2.289 0.936 4.189 2.289c1.898 1.353 2.355 2.494 2.355 2.494s-4.17-0.73-10.008-3.335c-5.838-2.606-10.997-6.307-10.997-6.307l-2.292-0.239-0.363 0.286s-0.78 0.494-1.509 0.572c-0.728 0.078-2.42-0.65-2.42-0.65l1.77 0.026 0.078-0.755s-0.391-0.052-1.249-0.078c-0.859-0.026-2.758 0.338-3.278 0.703-0.52 0.364 0.312 0.676 1.535 0.806 1.222 0.13 0.962 0.468 4.657 1.378 3.693 0.911 8.141 2.992 11.158 4.605 3.018 1.612 4.398 3.043 4.398 3.043l-13.632-6.373-0.468 0.182 7.622 6.608-1.041 1.222s-6.971-5.931-7.985-6.659c-1.015-0.728-1.691-1.119-1.9-0.703-0.208 0.417 0.729 1.067 1.249 1.353 0.521 0.286 1.613 1.509 1.456 1.899-0.155 0.391-0.754 0.182-0.883 0.677-0.13 0.494 1.196 0.338 1.976 0.338s4.379 3.495 4.379 3.495l0.014 0.441s-0.701 0-1.205-0.325c-0.506-0.323-3.357-2.889-3.448-2.474-0.091 0.414 2.216 2.397 2.242 2.578 0.026 0.182 0.073 0.369-0.37 0.343-0.441-0.026-3.043-2.316-3.043-2.316s-4.344-5.28-5.306-5.983c-0.963-0.702-0.91-0.572-0.937-0.104-0.026 0.469 0.729 1.795 0.729 1.795s4.794 5.138 4.858 5.786c0.065 0.648-0.376 0.868-1.438-0.493-1.063-1.36-1.841-1.826-1.918-1.451-0.078 0.376 0.739 0.959 0.959 1.244s0 0.557-0.273 0.519c-0.271-0.039-1.122-0.74-2.085-2.379-0.962-1.639-2.158-2.316-2.158-2.316l-0.053 1.406 3.018 3.927s-1.196-0.78-2.471-2.054c-1.274-1.275-3.849-3.564-3.849-3.564v0.962l3.615 3.616 0.078 1.509s-0.026 0.078-0.546-0.338c-0.52-0.417-5.177-6.998-5.177-6.998l-1.119-0.052 3.174 7.023 0.104 1.171s-3.251-3.069-3.824-3.59c-0.572-0.52-3.095-5.072-3.043-5.853 0.052-0.78-0.156-2.003-0.806-1.977-0.652 0.026-0.624 1.457-0.624 2.576 0 1.118 0.31 0.26 0.936 1.196 0.624 0.936 1.04 4.006 0.754 4.683-0.286 0.676-0.754 0.051-0.754 0.051l0.104-2.237-1.379-0.025 0.182 2.913 2.862 0.208-0.053 0.702s0.65 0.547 1.431 0.755c0.78 0.208 0.622 1.097 1.351 1.462 0.73 0.364 15.584 0.521 15.584 0.521s-4.273 1.355-5.732 1.668c-1.46 0.312-10.53 0.73-20.589-1.929-10.059-2.658-14.208-5.806-14.182-4.844 0.027 0.963 2.29 2.861 2.29 2.861s-0.885-0.025-1.379 0.443-0.104 3.72-0.104 3.72-0.807 0.182-0.858-0.183c-0.052-0.363-0.495-0.988-1.093-1.56-0.599-0.572 0.059-2.075-0.084-2.801-0.142-0.725-0.596-0.686-0.596-0.686s-0.233 0.349-0.635 0.544c-0.401 0.194-0.453 1.192-0.376 2.19 0.078 0.998 0.765 1.633 0.765 1.633l0.091 2.864-0.454-0.143c-0.453-0.143-1.416-1.416-1.365-2.196 0.053-0.781-0.572-3.278-1.066-3.85-0.495-0.573-1.561-0.26-1.561-0.26s0.624 2.028 0.365 3.147c-0.261 1.118-0.391 2.758-0.391 2.758s-3.59-3.226-6.139-5.229-4.136-3.486-4.656-3.304-1.301 2.472-1.301 2.472-4.734-2.914-6.971-4.969c-2.238-2.055-2.159-3.199-2.367-3.694-0.208-0.494-0.287-0.703-0.599 0.182s0.547 3.226 2.757 5.827c2.212 2.601 3.72 5.593 3.72 5.593s0.287 0.026 0.963 0.156 3.875 2.237 4.11 2.601c0.234 0.365 1.743 0.546 1.743 0.546l-1.015 0.052-1.352 1.223-0.755-0.104-0.156-1.015s-1.014-0.728-2.991-1.82c-1.977-1.093-2.966-0.806-2.966-0.806l-0.026 0.806 2.342 3.225h-1.171l-2.94-3.277h-0.936l1.977 3.459-0.807-0.051-2.679-3.46-0.676-0.208s-0.286 0.52-0.182 1.43c0.104 0.911 2.211 3.876 2.211 3.876l-1.405-1.275s-1.327-0.363-1.561 0.287 0.416 1.794 0.416 2.185c0 0.39-0.39 0.65-0.598 0.572s-1.04-1.353-1.04-1.353l-0.651-0.208s-1.04 0-0.702 0.755c0.338 0.754 1.327 1.925 1.327 1.925l-3.928 0.052 0.052-0.572 0.858-0.183 0.052-1.014s0-0.338-0.598-0.338-1.119 1.535-1.119 1.535 0.027 1.846-0.286 2.548c-0.312 0.703-1.613 1.665-4.344 2.212-2.732 0.546-3.33 1.326-3.33 1.326l-0.13-1.326-0.624-0.104s0.104 2.133 0.364 2.783-2.315 0.026-2.315 0.026l0.026-3.069-1.197-0.026-0.051 3.823s-2.342-0.39-3.122-0.051c-0.781 0.337-1.769 0.286-1.769 0.286l0.078-1.067s-0.438-0.087-0.827-0.087-0.298 0.09-0.544 1.153-0.208 0.79-0.479 0.583c-0.272-0.207-0.324-1.957-0.324-1.957h-0.324l-0.156 0.622-0.868 0.557s-0.506 0-1.4 0.091-0.775 0.495-0.957 1.197c-0.182 0.703 0.156 1.249-0.39 0.911-0.546-0.339-1.301-2.809-1.301-2.809h-0.884l-0.208 0.962-1.925-0.026s-0.365 0.364-1.379 1.04c-1.015 0.677-3.98 1.379-4.526 0.104-0.546-1.274 0.442-1.535 0.91-1.69 0.468-0.157-0.208-0.39-1.509-0.443-1.3-0.052-2.367 0.13-3.746 0.677-1.378 0.546-3.225 1.144-3.771 0.884s-0.052-0.468 1.092-1.769c1.145-1.3 3.382-2.341 4.292-2.705 0.911-0.364 2.056-1.457 2.056-1.457s-1.952 0.39-3.097 0.884c-1.144 0.495-1.586-0.39-1.586-0.39s2.393-0.572 3.096-1.249c0.702-0.676-0.235-1.482-0.235-1.482s0.39 0.208 1.067 0.676 0.494 0.234 1.353 0.234c0.858 0 0.13-0.884 0.832-1.508 0.702-0.625 4.24-1.327 4.24-1.327s-0.885-0.156-2.081-0.13-2.966 1.301-2.966 1.301l-1.508 0.156s0-0.911 0.52-1.509c0.52-0.599 1.431-1.353 3.512-2.393 2.081-1.041 4.344-0.209 4.344-0.209l0.052-1.795s0.313 0 0.911-0.65 1.014-0.78 2.757-1.17 0.338-1.171-0.624-1.171c-0.963 0-1.561 0.729-2.16 1.041-0.598 0.312-1.43-0.339-1.43-0.339s0.286-0.494 1.196-0.52c0.911-0.025 0.833-0.78-0.078-1.04-0.91-0.26-1.274 0.624-3.122 1.17-1.846 0.547-1.794-0.572-1.794-0.572s-0.104 0.026 0.885 0.026c0.988 0 2.757-0.78 2.757-0.78s0.182-0.729-0.546-0.729-0.937 0.468-1.536 0.703c-0.598 0.234-1.274-0.052-1.274-0.052s2.263-1.275 3.512-2.003 4.942-4.163 4.942-4.163v-1.014l-1.066 0.182s-0.755 1.04-1.405 1.561c-0.65 0.52-1.456 0.728-1.691 0.442-0.234-0.286-0.806-0.156-0.728-0.442s0.469-0.572 0.963-0.729c0.494-0.155 1.014-0.312 1.014-0.312l0.18-0.762-2.189 0.417-2.346 1.355s-1.616 4.17-5.316 9.121c-3.701 4.952-3.596 3.838-5.391 5.347s-2.263 1.353-2.133 0.781c0.131-0.573 0.963-1.639 1.327-2.081 0.364-0.443 2.471-1.457 3.043-2.758 0.573-1.301-0.051-0.884-0.832-1.509-0.78-0.624-1.196-0.572-0.442-0.442s1.196 0.26 1.535 0.624c0.337 0.364 1.092-0.026 1.092-0.026s0.677-1.352 1.197-2.679c0.521-1.327 4.474-6.997 5.28-8.61 0.807-1.613-0.104-0.989-0.936-0.989s-1.587 0.599-2.159 0.962c-0.572 0.365-4.631 2.732-5.541 3.148s-2.419 0.104-2.419 0.104 0.78-0.182 1.665-0.39c0.884-0.208 5.385-2.913 5.046-3.095-0.338-0.183-0.598 0.025-1.352 0.337-0.755 0.313-1.536-0.104-1.536-0.104s1.249-0.416 2.316-0.78c1.066-0.364 1.119-0.234 1.951-0.416 0.833-0.182 0.598-0.91-0.468-1.066-1.067-0.157-1.717 0.39-3.07 0.598-1.352 0.208-1.899-0.156-1.899-0.156s0.312 0 1.093-0.391c0.78-0.39 0.988-0.962 1.274-0.884s1.535-0.416 1.535-0.416 0-0.416-0.806-0.468c-0.807-0.052-2.549 0.025-3.2 0.39-0.65 0.364-2.757-0.052-2.757-0.052s0.702-0.208 0.988-0.832c0.287-0.625 0.755-0.547 1.301-0.859s-0.416-0.676-1.613-0.676c-1.196 0-2.497-0.598-2.497-0.598l1.04 0.129s0.052-0.52-0.312-0.884-1.769-0.885-3.303-0.338c-1.535 0.546-3.902 2.029-4.449 2.367-0.546 0.338-2.939 0.026-4.5-0.416s-1.482-0.546-4.188 0.988c-2.705 1.535-5.775-0.104-6.763-1.014-0.988-0.911-0.338-0.911-1.145-1.066-0.806-0.157-1.613 0.442-3.616 0.312-2.003-0.131-4.682-0.781-4.682-0.781l0.911-0.286c0.91-0.286 5.02-2.939 6.138-3.85 1.119-0.911 2.836-1.041 2.836-1.041s-0.858-0.182-1.509-0.182c-0.65 0-5.827 1.509-7.882 2.602-2.055 1.092-5.619 0.104-5.619 0.104s0.391 0 1.379-0.312c0.989-0.312 3.07-1.951 2.419-2.289-0.65-0.339-2.783 0.442-4.11 0.884-1.326 0.442-2.705-0.417-2.107-0.312 0.599 0.104 2.523-0.729 3.902-0.833s1.769-0.598 1.379-0.91-2.966-0.39-4.422 0.442c-1.457 0.832-7.466 0.364-6.764 0.364s1.535-0.364 1.535-0.364l-0.052-0.937s2.211-0.155 2.185-0.494c-0.026-0.338-1.379-0.259-3.72-0.363-2.341-0.105-2.575-0.833-2.575-0.833s1.275 0.364 4.084 0.26 6.685-0.885 3.85-0.885c-2.836 0-7.752-0.806-7.752-0.806s3.902 0.208 4.5-0.026c0.599-0.234 0.391-1.353-1.171-1.119-1.56 0.235-5.878-0.155-5.878-0.155s0.962-0.339 1.716-0.625c0.755-0.286 0.131-0.677-0.676-0.936-0.806-0.26-2.003-1.015-2.003-1.015l2.341-0.104 0.287-0.442-1.145-0.208-1.301-1.015s0.078-0.78-0.104-1.743c-0.182-0.962-0.416-0.702-0.416-0.702l-0.287-1.228 1.64-0.333s2.159 0.755 2.184 0.026c0.027-0.728-2.366-2.835-2.366-2.835s-0.078-1.379 0.26-1.431 2.992 0.806 4.552 4.032c1.561 3.226 4.864 4.708 4.864 4.708s0.339-0.468-0.39-1.743c-0.728-1.274-3.668-3.823-3.668-3.823l0.598-1.301-0.416-0.572-0.416-2.731h1.431l3.252 2.809 1.483 0.208 0.078-1.093 2.34-0.051s1.197 0.416 2.16 0.884c0.962 0.468 3.277 0.13 3.018-0.39-0.261-0.521-3.643-0.781-3.643-0.781s0.572-0.182 1.041-0.754c0.468-0.573 0.208-1.197-0.728-2.731-0.937-1.535-5.489-7.57-5.489-7.57l-0.339-2.081s1.795 1.066 2.316 1.691c0.52 0.624 4.344 6.243 4.5 6.555s1.119 0.338 1.769-0.651c0.65-0.988 0.65-6.711 0.65-6.711s0.781 1.483 2.705 4.709c1.925 3.225 3.616 3.823 3.902 3.199s-1.197-2.523-1.197-2.523 0.911 0 2.16 0.781c1.249 0.779 4.812 5.722 6.737 8.011 1.926 2.289 4.188 2.55 4.188 2.55l-0.078-1.978-4.968-6.243-0.442-3.668 0.442-0.259s3.564 2.081 4.474 1.872c0.911-0.208 0.937-0.572 0.937-0.572s0.832 0.781 3.537 2.055c2.706 1.275 6.087 0.13 5.463-1.639s-2.731-1.561-2.731-1.561l0.052-0.728 0.988-0.546 1.353 0.937s1.847 1.144 1.847 0.025c0-1.118-2.627-2.133-2.627-2.133l0.052-1.223s0.65 0.417 2.366 1.587c1.718 1.171 10.796 3.148 10.796 3.148l-9.391-3.928 2.42-0.078 5.463 2.471s2.054 0.26 1.691-0.468c-0.365-0.728-5.412-2.861-5.412-2.861l-0.078-1.275 0.963-0.234s2.783 1.847 3.199 2.029c0.417 0.182 2.602-0.338 2.602-0.338l-4.058-1.535 1.197-0.78s0.442 0 0.65 0.364 2.731 1.326 2.575 0.598c-0.156-0.729-3.564-2.601-3.564-2.601s2.862 0.494 3.564 0.26c0.702-0.235-0.754-1.067-0.754-1.067s0.416 0.677 3.694 0.546c3.277-0.13 3.746-4.266 3.746-4.266s1.846-0.312 5.462 0.703c3.616 1.014 5.593 1.248 5.593 1.248l-6.581-2.367 6.347-0.26s5.737 1.059 5.801 0.735c0.065-0.323-2.539-1.308-3.175-2.527-0.635-1.218 0.221-1.27 0.234-0.919 0.013 0.35 0.946 0.543 0.946 0.543s0.22-0.181-0.298-1.217c-0.519-1.037-1.486-2.659-2.163-2.138-0.678 0.521-7.454 2.918-9.904 2.918-2.449 0-30.201 4.348-30.201 4.348s-21.034 2.481-28.591 1.907c-7.558-0.573-7.384-1.829-7.384-1.829s4.161 0.338 4.89 0.338c0.728 0 2.003-0.078 0.858-0.65-1.144-0.573-9.131-0.833-10.873-1.119-1.743-0.286-3.2-1.899-3.2-1.899s2.107 0.39 2.082-0.208c-0.027-0.598-2.992-1.248-4.397-1.587-1.404-0.338-2.081-0.936-2.081-0.936s6.737 0.859 6.556 0.13c-0.182-0.728-1.509-0.468-3.122-0.468s-2.523-1.118-2.523-1.118 4.422 0.415 4.162-0.235c-0.261-0.65-3.564-0.963-5.099-1.144-1.535-0.182-3.199-1.691-3.199-1.691s4.5 0.858 6.555 0.754 0.962-0.624-0.078-0.676c-1.041-0.052-6.087-0.885-5.749-0.858 0.338 0.025 2.419 0.025 2.653-0.573s-1.144-0.755-3.147-0.91c-2.003-0.157-2.03-0.911-2.03-0.911s5.177 0.937 5.49 0.729c0.312-0.208-0.807-1.119-1.873-1.223-1.067-0.104-6.686-1.327-6.686-1.327s6.92 1.041 6.165 0.417c-0.754-0.625-4.344-1.093-4.344-1.093l1.275-0.156-4.111-1.717 3.928 0.807s0.105-0.339-0.832-1.119c-0.936-0.78-3.72-2.237-3.72-2.237s0.104-0.079 0.728-1.015c0.625-0.936-0.624-4.266-0.624-4.266l4.995 0.832v1.015l1.509-0.234 0.26-0.832-3.356-1.561s0.468-0.676 1.353-1.535c0.884-0.859 0.468-2.237 0.468-2.237s1.405 1.17 3.173 1.222c1.769 0.052 2.368-0.676 2.368-0.676s0.13 0.416 0.442 1.197c0.312 0.78 3.122 4.734 3.694 4.343 0.572-0.39-0.469-1.3-1.43-2.756-0.963-1.457-1.926-6.061-1.926-6.061s1.327 1.014 1.457 1.17 0.442 2.081 0.442 2.081 0.833 0.546 2.029-0.182c1.197-0.729 0.676-3.512 0.676-3.512s0.833 0.598 0.859 0.937c0.026 0.338-0.781 1.925-0.781 1.925s0.235 0.26 1.197 0.077c0.963-0.181 2.419-2.913 2.783-3.121 0.365-0.208 0.703 0.182 1.302 1.145 0.597 0.962 0.363 3.173 0.363 3.173l3.721 0.13s-0.183 0.885-0.287 2.419c-0.104 1.535 0.937 2.004 1.379 1.769 0.442-0.234 0.286-4.006 0.286-4.006s0.806 0.755 1.092 1.379 0.469 3.746 0.469 3.746 0.052 0 1.326-1.301c1.275-1.3 0.443-4.604 0.443-4.604s0.754 0.052 0.754 1.483 0.754 2.029 0.754 1.795 0.677-1.899 0.677-1.899 0.104 1.171 0.78 2.159 0.598 0.702 1.535 0.676c0.936-0.026 0.52 0.156 0.52 0.416s-1.066 0.286-1.066 0.286 0.207 0.364 2.08 2.159c1.874 1.795 4.917 3.773 4.917 3.773s0.806-1.431 2.315-2.029c1.509-0.599 3.278 1.716 3.46 2.054s1.248 0.833 1.379 0.417c0.129-0.417-1.327-1.899-1.327-1.899s1.04-0.131 3.252 0.858c2.211 0.989 3.043 2.575 3.043 3.044 0 0.468 0.156 0.806 0.703-0.208 0.546-1.015 1.482-1.145 1.482-1.145l-0.286 0.832s0.728 0.495 1.613-0.312c0.884-0.806-0.26-3.043-0.26-3.043s1.847 2.029 2.522 3.278c0.677 1.248 1.041 1.534 1.431-0.104 0.391-1.639-0.598-3.227-0.155-3.174 0.442 0.051 3.433 4.318 3.694 4.656 0.26 0.338 0.754 0.13 0.754 0.13l-0.65-3.746 0.806-0.052-0.078 2.107 1.066 0.026 0.052-2.367s0.494-0.182 1.249 0.104c0.754 0.286 3.252 3.642 3.642 4.422 0.39 0.781 2.315 2.055 2.315 1.249s-1.795-2.237-1.795-2.237l-0.26-1.951 0.833-0.13s2.574 3.277 2.913 3.693c0.338 0.417 1.665 0.495 1.899 0.157s-0.078-0.937-0.547-1.379c-0.468-0.442-0.416-1.249-0.416-1.249s1.145 1.327 1.873 0.729c0.729-0.598 1.145-1.977 1.145-1.977s1.534 1.534 1.951 1.144c0.416-0.39-0.417-1.274-0.417-1.274s0.443-0.286 1.327 0.52c0.884 0.807 1.873 3.122 2.445 3.225 0.573 0.104 1.64-0.286 1.483-1.404-0.156-1.118-0.962-1.639-0.962-1.639v-1.639l2.939 1.275s-0.884 0.416-1.145 0.858c-0.259 0.443 0.261 1.015 1.067 0.651 0.806-0.365 0.234-0.781 0.234-0.781s0.781 0.755 1.667 2.11 0.886 4.17 1.824 2.815c0.938-1.356-0.886-3.18-0.886-4.118s0.678-1.512 1.877-1.043c1.198 0.47 2.084 7.089 2.397 6.933 0.313-0.157 0.052-8.236 0.052-8.236s0.261 0.052 1.043 0.99c0.782 0.939 1.25 4.274 1.616 3.18 0.364-1.095 0.26-2.762 0.26-2.762s0.521 2.085 0.521 2.919c0 0.833 0.834-0.053 1.094-1.616 0.261-1.564 0.417-2.033 0.887-2.033 0.469 0 0.208 2.189 0.312 3.023 0.105 0.834 1.408 1.095 1.46-0.104s0.834-2.189 1.407-2.189c0.574 0 0.469 2.085 0.469 2.085h0.626l0.023-1.85-0.599-1.144-0.052-2.81 1.483-0.077s2.887 2.6 3.33 2.393c0.442-0.208 0-0.989 0-0.989s-0.312-0.651 0.026-1.196c0.181-0.294 0.093-0.626-0.029-0.87l-1.585-0.353s-1.56-0.469-2.08-0.65c-0.52-0.183-0.963-0.521-0.963-0.521s0.261-0.416 0.598-0.494c0.339-0.078 1.743 0.702 2.654 0.624 0.91-0.078 2.237-0.676 1.613-2.081s-0.859-1.378-1.743-1.405c-0.885-0.025-1.587-0.025-1.587-0.025l0.234-2.212s2.966-3.459 2.731-4.084c-0.234-0.624-2.861-7.101-3.199-8.74s-0.234-1.223-0.234-1.223 3.928 1.249 4.24 0.469-2.081-4.136-2.367-4.943c-0.286-0.806 0.13-2.939 0.13-2.939s0.416-0.26 1.795 1.092c1.379 1.353 2.289 2.523 2.601 1.899 0.312-0.625 0.746-6.076 0.433-8.996-0.313-2.918-2.502-11.206-3.023-13.81-0.522-2.607-1.208-6.016 0.483-8.384 1.691-2.367 3.356-1.612 3.356-1.612l0.07-4.13h0.782l-0.313-2.345 0.059-1.928 0.676-0.259s0.308-6.466 3.018-17.567c2.711-11.102 3.017-12.556 3.017-12.556l2.029 0.104s0.754-2.342 0.39-3.252-0.598-3.096-0.598-3.096 2.615-10.91 3.71-14.871c1.094-3.962 1.303-5.733 1.303-5.733s-1.876-0.886-2.293-3.336c-0.418-2.449 2.084-4.431 2.084-4.431s1.075-0.347-0.668-0.841c-1.742-0.495-1.742-1.925-0.91-4.006 0.832-2.08 2.412-3.231 2.412-3.231" fill="#ed1c24" fill-rule="evenodd"/>
   </g>
   <g transform="translate(1342.1 21.554)">
    <path d="m0 0s-0.442-0.104-0.468-0.572-0.261-1.04-0.261-1.04l-0.78-0.182s-0.364 0.155-0.026 1.014c0.339 0.858 0.755 1.171 0.234 1.327-0.52 0.155-1.196 0.052-1.196 0.052v0.91s1.327 0.313 1.743-0.26c0.416-0.572 1.326-0.572 1.795-0.702 0.468-0.13 0.285-0.572 0.884-0.625 0.598-0.052 0.744-0.276 0.724-0.498s-0.515-0.366-0.932 0.018c-0.418 0.387-1.717 0.558-1.717 0.558" fill="#ed1c24" fill-rule="evenodd"/>
   </g>
   <g transform="translate(1356.8 34.691)">
    <path d="m0 0s-0.988 1.066-1.561 0.312c-0.572-0.754-0.104-1.093-0.598-1.484-0.495-0.39-0.755-0.806-0.521-1.404 0.235-0.599 0.547-1.067 0.937-1.404 0.39-0.339 1.405-0.339 2.107 0.572 0.702 0.91 0.65 2.003 0.442 2.497s-0.806 0.911-0.806 0.911" fill="#ed1c24" fill-rule="evenodd"/>
   </g>
   <g transform="translate(1386.1 272.16)">
    <path d="m0 0s-0.182 0.676-0.884 0.78c-0.703 0.105-0.833 0.599-0.833 0.781s2.549-0.182 3.252 0.468c0.702 0.651 0.077 0.937 0.077 0.937s-6.138 3.46-8.193 5.489c-2.055 2.028-2.16 2.211-1.639 2.445 0.52 0.234 3.382-0.885 4.734-1.769 1.353-0.885 6.087-3.85 7.128-4.136 1.04-0.287 2.575-0.495 3.98-1.197 1.404-0.702 2.471-1.873 2.471-1.873s2.159 0.157 2.861-0.078c0.703-0.234 8.402-3.173 8.402-3.173s4.449-0.156 5.308 0.182c0.857 0.338 1.248 0.442 1.248 0.442s-0.416-0.91-1.769-1.404c-1.353-0.495-9.287-0.417-9.963-0.079-0.677 0.338-5.645 2.185-9.573 2.107s-6.607 0.078-6.607 0.078" fill="#ed1c24" fill-rule="evenodd"/>
   </g>
   <g transform="translate(1308.5 263.17)">
    <path d="m0 0s1.251-0.782 2.606-1.147 1.981-0.417 3.283 1.46c1.303 1.875 1.199 4.378 1.669 4.638 0.468 0.261 0.072-0.537 2.101 1.648s3.486 3.044 4.344 3.122 2.862 0.988 2.862 0.988l0.442 0.885s3.303 1.821 4.084 3.615c0.78 1.795 0.182 1.666 0.182 1.666l-14.281-10.302s-0.41-0.288-0.682-0.171 0.091 0.298-0.492 0.557-1.529-0.467-1.841-0.998c-0.31-0.531-0.569-0.622-0.569-0.622s-2.477 0.09-2.633 0.09-0.885-0.053-1.483 0.338c-0.598 0.39-8.064 3.746-9.261 4.318-1.196 0.572-3.33 0.754-3.33 0.754s2.706-2.029 3.721-2.549c1.014-0.52 7.439-2.549 8.948-4.37s1.353-1.457 1.119-2.003-0.789-1.917-0.789-1.917" fill="#ed1c24" fill-rule="evenodd"/>
   </g>
   <g transform="translate(1293.6 276.79)">
    <path d="m0 0s-0.325 0.415-0.985 0.687c-0.661 0.272-0.221-0.57 0.065-0.791 0.285-0.22 0.725-0.531 0.725-0.531z" fill="#ed1c24" fill-rule="evenodd"/>
   </g>
   <g transform="translate(1503.5 225.96)">
    <path d="m0 0s0.729-1.563 0.052-1.667c-0.677-0.105-2.241-1.512-2.241-1.512s-0.104-0.99 0.573-1.512c0.678-0.521 1.668-1.459 1.668-1.459s3.179-0.886 4.43-0.625c1.251 0.26 3.024 3.44 3.024 3.44l-1.304 1.094s-0.306 0.741 0.084 0.767 2.496-0.807 5.046-1.145c2.549-0.338 4.813-0.078 4.813-0.078l2.314 0.494-2.003 0.573 2.211 0.52-2.314 0.39 1.248 0.365s-2.029 0.052-3.33 0.702c-1.3 0.65-6.633 2.731-6.633 2.731l-4.37 0.156v1.223s-0.599-0.676-0.624-0.286c-0.027 0.39 0.416 1.119-0.027 1.092-0.442-0.026-0.936-0.754-1.404-0.884s-1.847-0.078-3.149 0.728c-1.299 0.807-5.488 1.873-5.488 1.873l-5.411 0.52 1.198-0.624-1.847 0.052 1.768-0.677h-1.925l1.717-0.52-1.066-0.728s1.3 0.052 1.665-0.286c0.364-0.338 2.393-1.353 3.668-2.029 1.274-0.676 4.448-1.977 5.279-2.289 0.834-0.312 2.378-0.399 2.378-0.399" fill="#ed1c24" fill-rule="evenodd"/>
   </g>
   <g transform="translate(1456.7 95.556)">
    <path d="m0 0s-3.756 0.835-4.591 1.565-0.349 0.982-2.016 0.982c-1.669 0-2.034-0.417-2.034-0.417v-0.887l-1.824-1.406v-1.095l-1.824-0.261s-0.625-0.312 0.312-1.355c0.939-1.042 1.042-1.094 1.042-1.094l-1.042-0.47v-0.625l0.574-0.104-1.719-0.417 0.208-2.137 0.78 0.157 0.157 1.302h1.356s0.156-1.511 5.89-7.765c5.733-6.255 6.253-9.591 6.41-12.406s-0.26-9.85-0.26-9.85l-3.075-9.487-1.378-0.293s-0.546-0.208-0.261-0.442c0.287-0.235 0.73-0.495 0.73-0.495s-2.627-0.441-3.357-1.066c-0.728-0.625-0.65-1.015-0.65-1.015l1.093-0.364s-0.209-0.832-0.469-1.118c-0.26-0.287-1.509-0.781-1.509-0.781s-0.338 0.182-0.546 0.365c-0.208 0.181-0.39-0.547-0.39-0.547s-1.768-1.743-2.471-1.743c-0.702 0-1.378-0.963-1.378-0.963l-0.963-0.051-0.208 1.587s-1.51-0.651-1.64-0.937-0.676-0.052-0.676-0.052l-0.572-0.495-0.312 1.484-3.303-0.105-0.184 0.755s1.121-0.599 1.328 0.052c0.209 0.65-0.806 0.884-0.806 0.884s-0.938 0.312-0.938 0.911c0 0.597-1.456 1.066-1.456 1.066s0.806 0.13 1.197 0.416c0.39 0.286 0.312 0.624 0.312 0.624s-2.342-0.052-2.731-0.624c-0.391-0.572-0.26-1.665-0.26-1.665s-1.327 0.469-1.665 1.145-1.301 0.702-1.301 0.702l-0.156-1.534-0.286 0.494 0.135 13.552 8.183 0.052s2.398 0.782 3.336 3.18c0.938 2.397-0.261 4.117-0.261 4.117l-8.34 10.789s-0.625-0.937-0.728-1.303c-0.105-0.365-0.835 0.574-0.835 1.617 0 1.042 0.617 2.099 0.669 2.88 0.052 0.78-2.028 1.43-2.133 3.797-0.104 2.367 0.13 2.627 0.13 2.627s1.457 0.312 2.029-0.156c0.573-0.469 1.067-0.026 1.067-0.026l-0.078 0.573s-1.223 0.546-2.082 0.546h-1.534s-0.078 9.26 0.208 10.379 0.312 0.911 0.312 0.911h1.014l0.027 0.338-0.599 0.156s0.91 4.317 1.925 5.671c1.015 1.353 1.015 2.055 1.015 2.055s2.263 2.392 2.627 2.497c0.364 0.104 0.754-0.624 0.754-0.624h0.313s-0.105 0.832-0.261 0.962c-0.155 0.13 1.301 1.379 1.847 1.768 0.547 0.392 0.728 0.235 0.728 0.235l0.105-0.624c0.286 0 0.442 0.989 0.442 0.989s0.962 0.207 0.936 0c-0.026-0.208 0.104-0.833 0.104-0.833s0.624 1.456 2.16 1.56c1.535 0.104 1.613-0.025 1.613-0.025l0.025-0.547 0.599 0.025 0.91 1.484 0.261-0.91s1.3-0.261 1.508 0.312c0.208 0.572 0.39 0.624 0.39 0.624s0.338-1.197 0.624-1.04c0.286 0.156 0.755 0.546 0.755 0.546s0.884-0.157 1.978-0.781c1.091-0.623 4.941-0.338 4.941-0.338l0.052-13.189s0.261-0.572 0-0.624c-0.26-0.051-0.676-0.389-0.651-0.52 0.027-0.13 0.755-1.118 0.755-1.69 0-0.574-0.113-1.437-0.113-1.437" fill="#ed1c24" fill-rule="evenodd"/>
   </g>
   <g transform="translate(1461.8 37.188)">
    <path d="m0 0 1.899 0.078v1.041l0.781 0.052-0.443 0.494-0.208 0.546 1.275 0.078-0.078-0.91 0.467-0.39 0.495-0.312 0.052-0.599 0.338 0.078s0.443 1.536 0.443 2.29 0.753 0.781 0.883 0.651c0.131-0.131 0.678-1.562 0.678-1.562l0.338-0.858s0.338 0.494 0.624 0.624 1.066 0.416 1.066 0.416l0.885 0.364-0.13-0.728s-1.041-0.495-1.222-0.676c-0.183-0.183-0.338-0.494-0.338-0.494l0.285-0.13 2.42 0.233-0.495 0.417 0.625 0.234s0.936-0.234 0.962-0.365c0.026-0.13 0.078-0.363 0.078-0.363l1.404-0.105-0.025 1.249 1.534-0.573 0.338-0.676 13.2 0.194s1.772 1.199 1.877 1.98c0.103 0.783 0.103 4.43 0.103 4.43l1.2 1.616 0.156 2.711 0.729 3.127v1.512c0 0.261 1.095 1.407 1.095 1.407v1.877l0.678 0.625v0.573l-18.503-0.468-1.512 1.875-0.099 22.928-0.521 6.573 0.417 3.756 0.36 11.568v6.828l-14.907-0.209 0.253-28.411s0.127-1.232 0.283-1.31c0.156-0.077 0.651-1.327 0.286-1.483-0.364-0.156-0.442-0.364-0.442-0.364l0.13-4.11 1.157-0.65 0.314-1.147h0.782s1.094-1.043 0.937-1.824c-0.156-0.782-0.573-1.147-0.573-1.147h-2.554z" fill="#ed1c24" fill-rule="evenodd"/>
   </g>
   <g transform="translate(1518 71.52)">
    <path d="m0 0s0.26 2.555 0 2.763c-0.261 0.209-0.991 0.521-1.095 1.094-0.104 0.574-0.676 1.094 0.209 1.773 0.886 0.677 1.511 0.886 1.511 0.886l-0.104 2.344s-0.677-0.155-0.677 0.991c0 1.147 7e-3 0.868 7e-3 0.868s0.582-1.075 1.036-1.373c0.453-0.299 1.308-0.105 1.374 0.337 0.064 0.44 0.025 1.334-0.208 1.671-0.233 0.336-0.557 0.454-0.557 0.454h-0.843s-0.155 0.907-0.155 0.971c0 0.066 0.428 0.779 0.975 0.779 0.546 0 1.586-0.157 1.742 0.208 0.156 0.364 0.728 4.578 1.196 4.709 0.469 0.129 1.51-0.781 1.51-0.781s0.233-4.865 0.806-5.775 1.717-3.097 2.133-3.981 0.754-2.887 0.754-4.24c0-1.352-0.078-3.408-0.078-3.408l-0.572-0.311-0.052-0.391h-0.65l-0.13 0.391zm16.783-11.466s-0.73-1.199-0.053-1.668c0.678-0.47 0.053 1.668 0.053 1.668m2.554-9.591s-1.512-0.573-1.303-0.938 1.928-0.625 1.616 0.157zm-8.704 9.434s-0.573-1.147 0-1.615c0.573-0.469 1.095 0.051 0.834 0.468s-0.834 1.147-0.834 1.147m-23.976 0s-0.573-0.886-0.261-2.241c0.313-1.356 0.834-1.199 0.834-1.199l0.991 0.73-0.959 0.987zm5.942-14.438-4.535-0.156-0.73 0.313-1.355-1.564s-0.245 0.601-0.245 0.94c0 0.338-0.754 0.338-0.754 0.338l-2.602-0.287-5.28 0.027 3.486 14.02 0.65 0.443-0.078 0.572 0.81 5.265 2.242 7.766 0.26 3.127s1.761 2.233 1.917 4.21c0.156 1.978 0.832 5.437 0.832 5.437l1.352 1.69s1.093 8.507 1.796 10.015c0.702 1.509 1.04 2.29 1.04 2.29s0.027-2.158 0.469-2.158 0.832 0.025 0.832 0.467c0 0.443-0.182 2.627-0.182 2.627l-0.884-0.026s0.364 1.743 0.467 2.861c0.105 1.119 0.573 1.405 0.573 1.666 0 0.26 0.442-0.208 0.468-0.52 0.026-0.313-0.468-3.513-0.052-3.773 0.417-0.259 1.795-0.208 1.795-0.208l-0.468 2.316 0.234 2.289 0.702-0.598s0.312 0.884 0.13 1.04-1.196 0.443-1.457 0.91c-0.26 0.469-0.389 0.651-0.519 0.235s-0.624-0.573-0.624-0.338c0 0.233 0.805 0.988-0.027 1.352-0.833 0.365-2.575 0.468-2.575 0.468s0.416 0.26-0.573 1.404c-0.988 1.145-2.419 1.692-3.459 2.627-1.041 0.938-1.821 1.172-2.212 1.12-0.39-0.052-0.39-0.703-0.39-0.703l-0.858-0.441-0.442 0.389 0.546 0.52s0.573 0.314 0.105 0.703c-0.47 0.391-1.406 1.509-1.51 2.238-0.104 0.727-0.469 0.208-0.598 0.78-0.13 0.572 1.3-0.313 1.353 0.311 0.052 0.624 0.052 1.12 0.623 1.093 0.573-0.026-0.181-0.963 0.365-1.352 0.546-0.391 2.419-0.365 2.419-0.365l0.651-0.312s1.768-1.353 2.237-2.08c0.468-0.729 0.468-1.302 0.468-1.302l1.405 0.053s-0.079-0.781 0.363-1.327c0.443-0.546 1.406-2.341 1.9-2.341s1.352-0.027 1.327 0.468c-0.027 0.494-0.105 0.91 0.494 1.327 0.598 0.416 0.728 0.624 0.598 1.3-0.13 0.677-0.287 1.717-0.287 1.717l-0.961-0.026s-0.391 0.677-0.027 0.885 1.301-0.078 1.587 0.832c0.286 0.911 0.235 2.393 0.235 2.393l0.961 0.182 0.521-0.025 0.078-0.625 15.668-0.049 5.481-19.015 0.624-0.29 0.494-0.052-0.052-0.702-0.806-0.052 5.374-18.311s-0.405-0.211-0.38-0.731c0.027-0.52 1.201-1.868 1.252-2.649 0.053-0.781 0.575-4.222 0.575-4.222s0.729 0.052 1.407-3.023c0.677-3.074 1.355-6.672 2.032-7.766 0.677-1.095 1.199-2.763 1.199-3.805s0.417-2.762 0.417-2.762l0.573-0.053s0.469-3.022 0.782-3.752c0.312-0.73 0.712-3.443 0.738-4.068 0.026-0.624-0.026-0.91-0.026-0.91l-6.581-0.182s-0.546 0.572-0.703 0.598c-0.156 0.026-0.65 0.026-0.65 0.026l-0.286-0.313-0.469-0.181-6.814 0.103s-0.325 5.344-1.524 6.542c-1.198 1.2-1.927 1.512-1.927 1.512l-2.45-0.104-1.668 0.157s-0.468-0.47-1.408-0.626c-0.938-0.156-12.508-0.053-12.508-0.053z" fill="#ed1c24" fill-rule="evenodd"/>
   </g>
   <g transform="translate(1540.6 95.978)">
    <path d="m0 0c-0.858 0.208-1.378 0.208-1.378 0.208l-0.077-0.677 1.3-1.509 0.597 0.079s0.625 0.337 0.261 0.988c-0.364 0.65-0.703 0.911-0.703 0.911" fill="#ed1c24" fill-rule="evenodd"/>
   </g>
   <g transform="translate(1538.2 97.615)">
    <path d="m 0,0 c -0.416,-0.259 -0.598,-0.727 -0.312,-0.935 0.287,-0.209 0.495,-0.13 0.625,-0.027 0.129,0.105 0.312,0.443 0.259,0.677 C 0.521,-0.051 0,0 0,0" fill="#ed1c24" fill-rule="evenodd"/>
   </g>
   <g transform="translate(1498.7 115.2)">
    <path d="m0 0s-1.639 0.364-1.978 0.364c-0.337 0-0.208-0.598 0.391-0.39 0.598 0.208 0.74-0.37 1.415-0.305 0.674 0.064 0.776 0.246 0.776 0.246z" fill="#ed1c24" fill-rule="evenodd"/>
   </g>
   <g transform="translate(1501.9 111.64)">
    <path d="m0 0s-0.261 0.078-0.234-0.572c0.026-0.651 0.208-0.651 0.624-0.651 0.417 0 0.781-0.103 0.728 0.494-0.052 0.599-0.233 0.807-0.416 0.807-0.181 0-0.702-0.078-0.702-0.078" fill="#ed1c24" fill-rule="evenodd"/>
   </g>
   <g transform="translate(1497.2 103.81)">
    <path d="m0 0s-1.482-0.546-0.729-1.353c0.755-0.805 1.509-1.169 1.717-0.389s0 1.43-0.494 1.587z" fill="#ed1c24" fill-rule="evenodd"/>
   </g>
   <g transform="translate(1500.7 107.5)">
    <path d="m0 0c-0.129-0.025-1.015-0.832-0.494-0.962 0.52-0.13 0.702-0.65 1.119 0.026 0.416 0.676 0.521 0.962 0.183 0.962-0.34 0-0.808-0.026-0.808-0.026" fill="#ed1c24" fill-rule="evenodd"/>
   </g>
   <g transform="translate(1498.9 120.68)">
    <path d="m0 0c-0.558 0.117-0.933-0.026-0.778-0.312 0.156-0.284 0.377-0.893 0.74-0.88 0.362 0.012 0.596-0.13 0.737 0.219 0.144 0.351 0.169 0.727-0.116 0.882s-0.583 0.091-0.583 0.091" fill="#ed1c24" fill-rule="evenodd"/>
   </g>
   <g transform="translate(1509.3 121.65)">
    <path d="m 0,0 c -0.208,-0.183 -0.701,-0.572 -0.233,-0.963 0.467,-0.391 0.65,-0.677 1.066,-0.363 0.416,0.311 0.755,0.467 0.416,0.962 C 0.911,0.13 0,0 0,0" fill="#ed1c24" fill-rule="evenodd"/>
   </g>
   <g transform="translate(1579.1 75.898)">
    <path d="m0 0s-0.365-1.406-0.938-1.668c-0.574-0.26-0.209-1.25 0.313-1.25 0.521 0 0.99 0.521 0.99 1.095 0 0.572-0.365 1.823-0.365 1.823m-13.468 3.274s-0.624-0.494-0.597-0.988c0.026-0.494 0.365-0.234 0.416-0.572 0.052-0.338 0.573-0.364 0.52 0.13-0.052 0.494-0.339 1.43-0.339 1.43m9.194-30.169-1.459-0.103-0.939-0.523-1.459 0.262-1.304-0.887-0.729-0.051-0.469 9.747-0.729 1.094s0.416 0.521 0.625 0.782c0.208 0.261 0.34 0.911 0.34 0.911l-0.235 5.333s-0.26 0.312-0.572 0.599c-0.312 0.286-0.624 0.597-0.416 0.858 0.208 0.26 0.91 0.078 0.963 0.416 0.052 0.338 0.103 1.404 0.103 1.404l-0.416 0.027s0.416-0.885-0.103-0.885c-0.521 0-0.703 0.65-0.703 0.65l0.052 0.677 0.676 0.025-0.65 0.495v2.393l0.39 0.053 0.468-1.302s0.313 0.989 0.313 1.118c0 0.131 0.546 0.287 0.546 0.287s0.156-0.781 0.728-1.613 3.937-4.098 4.562-4.774c0.626-0.678 1.616-3.18 2.815-3.91 1.197-0.729 4.586-4.638 4.586-4.638l13.875-18.445s1.031-2.143 3.429-2.143 2.554 0.834 2.554 0.834l0.052 16.053-0.364 0.729-0.454 51.826s0.499 0.263 1.045 0.548c0.547 0.286 0.495 1.041 0.495 1.041s0.884-0.312 1.43 0.052 0.754 1.041 0.754 1.326c0 0.286-0.364 0.131-0.364 0.131s-0.286-0.702-0.546-0.572c-0.261 0.13 0.158 0.841 0.158 0.841l0.855 0.301 0.751 0.033-0.022 0.905-0.575 0.1s0.207-0.415 0-0.454c-0.208-0.039-0.053 0.26-0.26 0.622-0.207 0.364 0.04 0.427-0.57 0.674-0.608 0.246-1.75 0.078-2.164-0.208-0.414-0.285-1.114-0.945-1.179-1.127-0.065-0.18-0.208-0.674-0.208-0.674l-5.11-0.181-0.026-0.365-3.511-0.364-2.056-0.546-1.873-0.234 0.034-7.703 0.678-0.105-0.053-4.378-0.52-0.051-0.035-19.603 0.365-0.156-0.573-1.092v-0.755l-23.23 27.507s-2.639 4.157-4.881 5.669c-2.241 1.512-4.639 3.18-4.639 3.18s-0.261-1.303-0.208-2.242c0.051-0.938 0.13-32.587 0.13-32.587l0.286-0.018 0.078-7.986h-0.391v-20.391s0.573 0.365 0.679-0.313c0.103-0.677-0.731-0.885-0.731-0.885s0.366 0.208 0.678-0.417c0.313-0.625 0.678-1.773 0.053-1.773-0.626 0-0.834-0.569-0.496-1.168 0.338-0.597 0.911-1.144 0.911-1.404 0-0.261-0.208-0.78-0.208-0.78l-1.275 0.623s0.961-0.909 0.961-1.039c0-0.131-0.025-1.458-0.025-1.458l2.366-0.104 0.678-1.326s1.17 0.338 1.301 0.338c0.13 0 0.884-1.015 0.884-1.015s1.43-0.442 1.457-0.884c0.025-0.442 0.233 0.572 1.118 0.728s1.873-1.04 1.873-1.04 0.389-0.104 0.858-0.026 1.248 0.728 1.795 0.755c0.546 0.025 0.364 1.221 0.364 1.221s2.784 0.105 3.148 0.105 0.156-0.859 0.156-0.859l-1.768-1.43v-1.77l3.616 0.157 0.232 2.627s2.941-0.624 4.345-1.379l1.404-0.754s-0.441 1.015-3.146 1.795c-2.706 0.781-3.149 1.067-3.149 1.067s-0.234 0.181-0.597 0.624c-0.365 0.442-0.391 0.806-0.287 1.066s0.312 0.962 0.312 0.962 0.313 0.105 0.599 0.079c0.287-0.025 0.103-0.755 0.103-0.755s0.444 0.989 1.172 0.989 2.757 0.521 2.757 0.521-1.353-0.079-1.404 0.338c-0.053 0.416 1.248 0.52 1.248 0.52s-1.509 0.104-2.081-0.13c-0.572-0.235-1.06-0.086-1.125 0.134s-1.452 0.505 1.1 0.622c2.554 0.116 2.761-0.052 2.761-0.052s-0.375 0.622-2.41 0.622h-2.034s1.032 0.859 0.902 0.989c-0.131 0.13-0.215 0.941 0.316 1.071s6.004 2.05 7.253 2.232l1.249 0.182s-0.729 0.468-3.824-0.416c-3.096-0.884-4.396-1.249-4.396-1.249s0.042 0.832 0.405 0.975c0.362 0.143 1.01 0.506 1.01 0.506l-0.142 0.466s-0.053-0.337-0.493-0.427c-0.441-0.092-1.089 0.362-0.997 0.647 0.091 0.286 0.622-0.077 0.881 0.466 0.259 0.545 0.208 0.946 0.13 1.025-0.079 0.078-0.628-0.036-0.628-0.036" fill="#ed1c24" fill-rule="evenodd"/>
   </g>
   <g transform="translate(1578.6 40.673)">
    <path d="m0 0s1.145-0.233 1.379 0.47c0.234 0.702 0.703 1.04 1.118 0.805 0.416-0.233-0.884-0.962 0.234-0.962 1.12 0 1.744-0.129 1.145-0.313-0.598-0.181-1.04-0.467-1.665-0.285-0.624 0.181-1.561-0.182-1.795-0.104-0.233 0.077-0.416 0.389-0.416 0.389" fill="#ed1c24" fill-rule="evenodd"/>
   </g>
   <g transform="translate(1578.4 49.361)">
    <path d="m0 0s-1.04 0.417-1.456-0.051c-0.416-0.469-0.885-0.755-0.183-0.755 0.703 0 0.108 0.353 0.64 0.489 0.531 0.136 0.999 0.317 0.999 0.317" fill="#ed1c24" fill-rule="evenodd"/>
   </g>
   <g transform="translate(1573.3 29.878)">
    <path d="M 0,0 C 0,0 1.899,-0.494 2.056,0.053 2.212,0.599 2.159,0.78 1.223,0.807 0.287,0.833 0,0 0,0" fill="#ed1c24" fill-rule="evenodd"/>
   </g>
   <g transform="translate(1613.3 42.132)" fill="#ed1c24" fill-rule="evenodd">
    <path d="m0 0s0.312 0.713-0.064 0.972c-0.376 0.258-0.519 0.065-0.532 0.518s0.091 0.48 0.091 0.48l0.79-0.143s-0.492-0.091-0.039-0.349c0.454-0.26 1.012-0.765 1.012-0.765s0.388-0.259 0.246-0.544c-0.144-0.285-0.377-0.648-0.584-0.48s-0.92 0.311-0.92 0.311m2.41 25.801c-0.102-0.026-0.466-0.427-0.466-0.713 0-0.285-0.946-0.557-0.466-0.906 0.479-0.351 0.168-0.234 0.622 0.194 0.454 0.427 0.855 0.337 0.791 0.777-0.066 0.441-0.481 0.648-0.481 0.648m2.359 0.194s-0.415-0.428-0.052-0.725c0.363-0.298 0.816-0.09 0.752 0.129-0.065 0.221-0.116 0.26-0.311 0.428s-0.389 0.168-0.389 0.168m5.211-4.633s0.834-1.199 2.606-0.417c1.773 0.782 6.308 7.088 6.619 10.163 0.315 3.077 0.209 7.455 0.209 7.455s0.99 4.951-1.929 9.38c-2.919 4.431-4.534 5.109-5.784 5.422-1.252 0.312-2.138 0.052-2.138 0.052zm-9.225-22.724s3.127-0.417 4.222 0.416c1.094 0.834 6.462 1.147 8.912 1.981s8.392 3.752 13.865 11.05c5.473 7.297 7.557 18.138 7.61 22.203 0.052 4.066-0.47 6.672-0.73 7.714-0.261 1.043-0.267 1.294 0.329 1.008 0.596-0.284 0.908-0.323 0.921-0.531s0.647-0.531 1.036-0.454c0.39 0.079 1.05 1.426 0.868 1.893s-0.608 0.713-0.635 1.088c-0.025 0.377 0.169 0.299-0.414 0.454-0.584 0.155-0.985 0.155-1.282-0.337-0.299-0.492-0.117-0.675-0.558-0.675-0.44 0-0.48 0.156-0.48 0.156s-0.111 1.307-0.554 1.776c-0.441 0.469-0.338 0.311-0.311 1.223 0.026 0.91 0.077 1.014 0.65 1.327 0.572 0.311 0.962 0.441 1.04 0.702 0.078 0.26-0.286 0.442-0.286 0.442l0.122 0.31 1.581 0.428s-1.789-0.117-1.789 0.065c0 0.181 1.309 0.835 1.309 0.835s-0.13 1.093 0.858 1.743c0.989 0.651 3.773 2.836 3.773 3.694 0 0.859-0.391 0.859-1.015 0.807-0.624-0.053-0.859-1.066-1.613-1.144-0.755-0.079-1.327 0.233-0.911 0.702 0.416 0.467 2.627 2.73 2.627 2.73s-0.363 0.364-1.041-0.155c-0.675-0.521-1.976-1.743-2.808-2.159-0.833-0.416-2.159-0.286-2.159-0.286s-0.208 0.91 0.078 0.988 1.326 0.312 1.482 0.416 0.885 0.364 1.093 0.858-0.026-0.181-0.937-0.389c-0.91-0.208-1.352 0.624-1.352 0.754 0 0.129 0.052 1.535 0.052 1.535s-1.562-0.053-1.77 0c-0.208 0.051-0.857-0.261-0.884 0.884-0.025 1.145-0.649 1.613-0.649 1.613s-0.106-1.354 0.13-1.847c0.233-0.495 0.441-0.911-0.208-1.015-0.652-0.104-0.547-1.119-1.198-0.884-0.65 0.234-0.78 8.584-0.78 8.584l-1.43-7.57s-2.966 3.122-2.966 3.357v1.066l-0.936 0.052s-0.182 1.352 0.078 2.159c0.26 0.806-1.638 0.806-1.769 0.78-0.13-0.026-0.521-0.547-0.078-0.833 0.442-0.286 0.857-0.936 0.519-0.988s-2.73 1.717-2.73 1.717l1.508 1.093-0.39 0.338-0.052 0.702-0.494-0.027s0.025-1.274-0.442-1.482c-0.469-0.208-0.729-0.546-0.729-0.546l-0.364-0.364h-1.015l0.156-0.781-0.832 0.052s-1.249-0.052-1.249 0.364-0.364 0.833 0.104 0.911c0.469 0.078 1.744 0.26 1.874 0.755s-2.238 0.39-2.238 0.39-0.651 0.052-0.495 0.728c0.157 0.676 0 2.471 0 2.471s-0.129-1.222-0.545-1.274-0.521-0.416-0.157-0.469c0.365-0.052 0.365-0.571 0.365-0.571l-3.226-0.261 0.208-0.781h-2.419s2.211-0.571 2.264-0.988c0.052-0.416-1.692-0.468-1.9-0.416-0.208 0.051-0.989 0.65-0.989 0.65l-0.337 2.628-9.99-0.13 0.053 1.847h-0.807l0.105-0.91s-0.521 0.416-1.067 0.441c-0.547 0.026-0.781-0.338-0.364-0.494 0.416-0.155 1.014-0.494 1.014-0.65s-2.757-0.417-2.757-0.417l-0.295-20.358 0.626-1.146-0.313-6.203-0.136-0.532h-0.312s0.052 0.116-0.389 0.454c-0.44 0.336-0.621 0.285-0.674 0.532-0.051 0.245-0.66 0.271-0.893-0.196-0.233-0.466-0.467-1.256-0.298-2.073 0.168-0.816 0.595-0.804 0.726-1.075 0.129-0.273 0.348-0.688 0.44-0.584 0.091 0.104-0.169 1.244 0.311 1.516 0.479 0.273 0.57 0.169 0.634 0.532 0.066 0.363 0.532 0.376 0.532 0.376l0.059-7.863 0.372-0.448-0.164-15.24s1.256 0.126 1.569-0.186c0.312-0.312 0.467-0.494 0.129-0.52-0.337-0.026-1.169-0.052-1.169-0.052l0.181-5.359-0.338-0.025 0.984-13.664s1.565-0.341 1.979-0.327c0.415 0.012-0.336 0.53 0.312 0.583 0.647 0.052 1.399-0.053 1.296-0.389-0.104-0.338 0.816 0.052 1.023-0.117 0.207-0.168 0.133-0.688 0.133-0.688"/>
    <path d="m0 0s0.312 0.713-0.064 0.972c-0.376 0.258-0.519 0.065-0.532 0.518s0.091 0.48 0.091 0.48l0.79-0.143s-0.492-0.091-0.039-0.349c0.454-0.26 1.012-0.765 1.012-0.765s0.388-0.259 0.246-0.544c-0.144-0.285-0.377-0.648-0.584-0.48s-0.92 0.311-0.92 0.311"/>
   </g>
   <g transform="translate(1615.8 67.933)">
    <path d="m0 0c-0.103-0.025-0.466-0.427-0.466-0.713 0-0.285-0.946-0.557-0.467-0.906 0.48-0.351 0.169-0.234 0.622 0.194 0.455 0.427 0.856 0.337 0.791 0.778-0.065 0.44-0.48 0.647-0.48 0.647" fill="#ed1c24" fill-rule="evenodd"/>
   </g>
   <g transform="translate(1618.1 68.127)">
    <path d="M 0,0 C 0,0 -0.414,-0.428 -0.052,-0.726 0.312,-1.023 0.765,-0.815 0.7,-0.596 0.636,-0.375 0.584,-0.336 0.39,-0.168 0.194,0 0,0 0,0" fill="#ed1c24" fill-rule="evenodd"/>
   </g>
   <g transform="translate(1627.6 84.35)">
    <path d="M 0,0 C 0,0 1.587,-0.13 2.16,0.364 2.732,0.858 3.122,2.289 2.967,2.549 2.811,2.81 1.066,2.757 0.364,2.314 -0.338,1.873 -0.649,1.223 -0.624,0.807 -0.598,0.391 0,0 0,0" fill="#ed1c24" fill-rule="evenodd"/>
   </g>
   <g transform="translate(1657.5 100.27)">
    <path d="m0 0s0.885-0.78 1.796-0.702c0.909 0.078 1.82 0.988 1.56 1.56-0.26 0.573-0.599 0.781-1.12 0.546-0.518-0.233-0.597-0.441-0.935-0.441s0.025 0.26-0.625 0.468-0.676-1.431-0.676-1.431" fill="#ed1c24" fill-rule="evenodd"/>
   </g>
   <g transform="translate(1665.1 101.39)">
    <path d="m0 0c0.156 0 0.338-0.26 1.326 0.286 0.988 0.547 1.561 0.443 1.588 1.093 0.025 0.65 0.779 1.196-0.053 1.093-0.832-0.105-0.39-0.599-1.3-0.937s-1.353-0.91-1.353-0.91z" fill="#ed1c24" fill-rule="evenodd"/>
   </g>
   <g transform="translate(1617.6 114.97)">
    <path d="m0 0c-0.131 0-0.599-0.286-0.599 0.339 0 0.624 0.13 0.519 0.677 0.806 0.546 0.286 0.468 0.728 1.04 0.364s1.275-0.91 0.884-1.067c-0.39-0.156-0.676-0.389-0.624-0.52 0.052-0.13-1.378 0.078-1.378 0.078" fill="#ed1c24" fill-rule="evenodd"/>
   </g>
   <g transform="translate(1624.1 114.37)">
    <path d="m0 0s-0.182-0.521 0.156-0.521 0.234 0.859 0.702 0.651 0.807-0.833 0.807-0.234c0 0.598-0.156 0.364-0.339 1.014-0.181 0.651-0.468 1.248-0.676 0.676s-0.234-0.962-0.442-1.274z" fill="#ed1c24" fill-rule="evenodd"/>
   </g>
   <g transform="translate(1625.3 117.24)">
    <path d="m0 0s-0.272-0.207-0.169-0.428c0.104-0.219 0.025-0.544 0.208-0.583 0.181-0.038 0.414-0.078 0.543 0.143 0.13 0.221 0.221 0.545-0.051 0.687s-0.531 0.181-0.531 0.181" fill="#ed1c24" fill-rule="evenodd"/>
   </g>
   <g transform="translate(1607.1 89.225)">
    <path d="m0 0s-0.169-0.025-0.324 0.415 0.012 0.855-0.856 0.272-0.842-1.141-0.453-1.555c0.389-0.415 0.375-1.036 0.971-0.454 0.597 0.583 0.662 1.322 0.662 1.322" fill="#ed1c24" fill-rule="evenodd"/>
   </g>
   <g transform="translate(1643.4 118.69)">
    <path d="m0 0c0 0.26 0.338 1.82-0.026 2.263s-0.391-0.312-0.391-1.145c0-0.832 0.208-1.431 0.208-1.431z" fill="#ed1c24" fill-rule="evenodd"/>
   </g>
   <g transform="translate(1655.3 94)">
    <path d="m0 0c-0.13 0-0.624-0.286-0.442-0.65s0.468-0.26 0.703-0.078c0.233 0.182-0.261 0.728-0.261 0.728" fill="#ed1c24" fill-rule="evenodd"/>
   </g>
   <g transform="translate(1658.7 95.951)">
    <path d="m0 0c-0.676-0.234-1.17-0.572-0.676-0.78s1.118-0.286 1.3 0.181c0.183 0.47-0.624 0.599-0.624 0.599" fill="#ed1c24" fill-rule="evenodd"/>
   </g>
   <g transform="translate(1661.2 97.199)">
    <path d="M 0,0 C 0,0 -0.936,-0.572 -0.416,-0.728 0.105,-0.884 0.547,-0.806 0.755,-0.311 0.964,0.183 0,0 0,0" fill="#ed1c24" fill-rule="evenodd"/>
   </g>
  </g>
 </g>
</svg>
