<?xml version="1.0" encoding="UTF-8" standalone="no"?>
<!-- Created with Inkscape (http://www.inkscape.org/) -->

<svg
   width="45.311829mm"
   height="15.308086mm"
   viewBox="0 0 45.311829 15.308087"
   version="1.1"
   id="svg1"
   xml:space="preserve"
   xmlns:inkscape="http://www.inkscape.org/namespaces/inkscape"
   xmlns:sodipodi="http://sodipodi.sourceforge.net/DTD/sodipodi-0.dtd"
   xmlns="http://www.w3.org/2000/svg"
   xmlns:svg="http://www.w3.org/2000/svg"><sodipodi:namedview
     id="namedview1"
     pagecolor="#ffffff"
     bordercolor="#666666"
     borderopacity="1.0"
     inkscape:showpageshadow="2"
     inkscape:pageopacity="0.0"
     inkscape:pagecheckerboard="0"
     inkscape:deskcolor="#d1d1d1"
     inkscape:document-units="mm"
     showguides="false"><inkscape:page
       x="5.6406711e-06"
       y="-1.1473809e-06"
       width="45.311832"
       height="15.308086"
       id="page1"
       margin="0"
       bleed="0" /></sodipodi:namedview><defs
     id="defs1"><clipPath
       clipPathUnits="userSpaceOnUse"
       id="clipPath36"><path
         d="M 0,841.889 H 595.275 V 0 H 0 Z"
         transform="translate(0,2.5000001e-5)"
         clip-rule="evenodd"
         id="path36" /></clipPath><clipPath
       clipPathUnits="userSpaceOnUse"
       id="clipPath38"><path
         d="M 0,841.889 H 595.275 V 0 H 0 Z"
         transform="translate(0,2.5000001e-5)"
         clip-rule="evenodd"
         id="path38" /></clipPath><clipPath
       clipPathUnits="userSpaceOnUse"
       id="clipPath40"><path
         d="M 0,841.889 H 595.275 V 0 H 0 Z"
         transform="translate(0,2.5000001e-5)"
         clip-rule="evenodd"
         id="path40" /></clipPath><clipPath
       clipPathUnits="userSpaceOnUse"
       id="clipPath42"><path
         d="M 0,841.889 H 595.275 V 0 H 0 Z"
         transform="translate(0,2.5000001e-5)"
         clip-rule="evenodd"
         id="path42" /></clipPath><clipPath
       clipPathUnits="userSpaceOnUse"
       id="clipPath44"><path
         d="M 0,841.889 H 595.275 V 0 H 0 Z"
         transform="translate(0,2.5000001e-5)"
         clip-rule="evenodd"
         id="path44" /></clipPath><clipPath
       clipPathUnits="userSpaceOnUse"
       id="clipPath46"><path
         d="M 0,841.889 H 595.275 V 0 H 0 Z"
         transform="translate(0,2.5000001e-5)"
         clip-rule="evenodd"
         id="path46" /></clipPath><clipPath
       clipPathUnits="userSpaceOnUse"
       id="clipPath48"><path
         d="M 0,841.889 H 595.275 V 0 H 0 Z"
         transform="translate(0,2.5000001e-5)"
         clip-rule="evenodd"
         id="path48" /></clipPath><clipPath
       clipPathUnits="userSpaceOnUse"
       id="clipPath50"><path
         d="M 0,841.889 H 595.275 V 0 H 0 Z"
         transform="translate(0,2.5000001e-5)"
         clip-rule="evenodd"
         id="path50" /></clipPath><clipPath
       clipPathUnits="userSpaceOnUse"
       id="clipPath52"><path
         d="M 0,841.889 H 595.275 V 0 H 0 Z"
         transform="translate(0,2.5000001e-5)"
         clip-rule="evenodd"
         id="path52" /></clipPath><clipPath
       clipPathUnits="userSpaceOnUse"
       id="clipPath54"><path
         d="M 0,841.889 H 595.275 V 0 H 0 Z"
         transform="translate(0,2.5000001e-5)"
         clip-rule="evenodd"
         id="path54" /></clipPath><clipPath
       clipPathUnits="userSpaceOnUse"
       id="clipPath56"><path
         d="M 0,841.889 H 595.275 V 0 H 0 Z"
         transform="translate(0,2.5000001e-5)"
         clip-rule="evenodd"
         id="path56" /></clipPath><clipPath
       clipPathUnits="userSpaceOnUse"
       id="clipPath58"><path
         d="M 0,841.889 H 595.275 V 0 H 0 Z"
         transform="translate(0,2.5000001e-5)"
         clip-rule="evenodd"
         id="path58" /></clipPath><clipPath
       clipPathUnits="userSpaceOnUse"
       id="clipPath60"><path
         d="M 0,841.889 H 595.275 V 0 H 0 Z"
         transform="translate(0,2.5000001e-5)"
         clip-rule="evenodd"
         id="path60" /></clipPath><clipPath
       clipPathUnits="userSpaceOnUse"
       id="clipPath62"><path
         d="M 0,841.889 H 595.275 V 0 H 0 Z"
         transform="translate(0,2.5000001e-5)"
         clip-rule="evenodd"
         id="path62" /></clipPath><clipPath
       clipPathUnits="userSpaceOnUse"
       id="clipPath64"><path
         d="M 0,841.889 H 595.275 V 0 H 0 Z"
         transform="translate(0,2.5000001e-5)"
         clip-rule="evenodd"
         id="path64" /></clipPath><clipPath
       clipPathUnits="userSpaceOnUse"
       id="clipPath66"><path
         d="M 0,841.889 H 595.275 V 0 H 0 Z"
         transform="translate(0,2.5000001e-5)"
         clip-rule="evenodd"
         id="path66" /></clipPath></defs><g
     id="g1"
     inkscape:groupmode="layer"
     inkscape:label="1"
     transform="matrix(0.26458333,0,0,0.26458334,-82.707647,-20.84742)"><path
       id="path35"
       d="m 237.16,779.451 h -1.738 v 3.343 h 8.395 l 2.415,-21.95 h -4.08 l -0.205,2.56 h -2.687 l -0.235,-2.56 h -4.103 z m 4.472,-12.755 -1.057,12.843 -1.05,-12.843 z"
       style="fill:#000000;fill-opacity:1;fill-rule:nonzero;stroke:none"
       transform="matrix(1.3333333,0,0,-1.3333333,0,1122.5187)"
       clip-path="url(#clipPath36)" /><path
       id="path37"
       d="m 249.392,782.794 h 8.928 v -3.345 h -4.68 v -4.08 h 3.767 v -3.37 h -3.767 v -11.155 h -4.248 z"
       style="fill:#000000;fill-opacity:1;fill-rule:nonzero;stroke:none"
       transform="matrix(1.3333333,0,0,-1.3333333,0,1122.5187)"
       clip-path="url(#clipPath38)" /><path
       id="path39"
       d="m 270.867,779.451 h -2.765 v -18.607 h -4.19 v 18.607 h -2.767 v 3.343 h 9.722 z"
       style="fill:#000000;fill-opacity:1;fill-rule:nonzero;stroke:none"
       transform="matrix(1.3333333,0,0,-1.3333333,0,1122.5187)"
       clip-path="url(#clipPath40)" /><path
       id="path41"
       d="m 273.952,782.794 h 8.928 v -3.345 h -4.68 v -4.08 h 3.767 v -3.37 H 278.2 v -7.755 h 4.68 v -3.4 h -8.928 z"
       style="fill:#000000;fill-opacity:1;fill-rule:nonzero;stroke:none"
       transform="matrix(1.3333333,0,0,-1.3333333,0,1122.5187)"
       clip-path="url(#clipPath42)" /><path
       id="path43"
       d="m 286.877,779.451 h -1.205 v 3.343 h 7.538 c 1.187,0 2.147,-0.275 2.88,-0.825 0.732,-0.55 1.1,-1.425 1.1,-2.63 v -6.508 c 0,-0.892 -0.213,-1.607 -0.635,-2.14 -0.423,-0.535 -0.928,-0.815 -1.515,-0.845 l 2.97,-9.002 h -4.495 l -2.418,9.45 v -9.45 h -4.22 z m 5.393,-6.497 c 0.452,0 0.717,0.042 0.792,0.13 0.075,0.087 0.113,0.315 0.113,0.682 v 4.768 c 0,0.362 -0.053,0.615 -0.16,0.755 -0.108,0.14 -0.395,0.21 -0.863,0.21 h -1.055 v -6.545 z"
       style="fill:#000000;fill-opacity:1;fill-rule:nonzero;stroke:none"
       transform="matrix(1.3333333,0,0,-1.3333333,0,1122.5187)"
       clip-path="url(#clipPath44)" /><path
       id="path45"
       d="m 301.475,779.451 h -1.205 v 3.343 h 7.833 c 1.172,0 2.11,-0.298 2.81,-0.89 0.7,-0.593 1.05,-1.478 1.05,-2.653 v -5.065 c 0,-1.317 -0.5,-1.95 -1.5,-1.892 0.467,0.025 0.89,-0.183 1.262,-0.625 0.375,-0.443 0.563,-0.988 0.563,-1.633 v -5.625 c 0,-1.132 -0.263,-2.01 -0.788,-2.632 -0.525,-0.623 -1.462,-0.935 -2.81,-0.935 h -7.215 z m 5.393,-15.237 c 0.537,0 0.852,0.065 0.945,0.197 0.09,0.133 0.137,0.445 0.137,0.94 v 4.003 c 0,0.352 -0.09,0.632 -0.272,0.835 -0.18,0.205 -0.5,0.307 -0.958,0.307 h -1.025 v -6.282 z m -0.235,9.357 c 0.47,0 0.777,0.088 0.922,0.263 0.145,0.175 0.218,0.447 0.218,0.817 v 3.825 c 0,0.358 -0.063,0.618 -0.19,0.78 -0.128,0.163 -0.425,0.243 -0.893,0.243 h -0.995 v -5.928 z"
       style="fill:#000000;fill-opacity:1;fill-rule:nonzero;stroke:none"
       transform="matrix(1.3333333,0,0,-1.3333333,0,1122.5187)"
       clip-path="url(#clipPath46)" /><path
       id="path47"
       d="m 318.968,760.844 c -0.585,0 -1.063,0.032 -1.438,0.097 -0.372,0.063 -0.68,0.21 -0.92,0.438 -0.24,0.227 -0.402,0.525 -0.49,0.897 -0.087,0.37 -0.13,0.845 -0.13,1.43 v 16.25 c 0,0.578 0.043,1.048 0.128,1.413 0.087,0.365 0.25,0.66 0.487,0.887 0.238,0.228 0.55,0.373 0.935,0.438 0.383,0.067 0.86,0.1 1.428,0.1 h 4.56 c 0.565,0 1.042,-0.033 1.432,-0.098 0.393,-0.065 0.715,-0.212 0.965,-0.44 0.253,-0.227 0.423,-0.527 0.51,-0.897 0.085,-0.373 0.13,-0.838 0.13,-1.403 v -16.25 c 0,-0.542 -0.04,-1.002 -0.117,-1.382 -0.078,-0.38 -0.23,-0.683 -0.458,-0.91 -0.227,-0.228 -0.52,-0.378 -0.882,-0.455 -0.36,-0.078 -0.818,-0.115 -1.373,-0.115 z m 2.825,3.222 c 0.302,0 0.47,0.018 0.502,0.05 0.035,0.033 0.05,0.21 0.05,0.53 v 14.358 c 0,0.305 -0.015,0.475 -0.047,0.507 -0.033,0.03 -0.2,0.048 -0.505,0.048 h -1.06 c -0.308,0 -0.478,-0.015 -0.508,-0.045 -0.03,-0.033 -0.045,-0.2 -0.045,-0.51 v -14.358 c 0,-0.325 0.015,-0.5 0.048,-0.532 0.03,-0.03 0.2,-0.048 0.505,-0.048 z"
       style="fill:#000000;fill-opacity:1;fill-rule:nonzero;stroke:none"
       transform="matrix(1.3333333,0,0,-1.3333333,0,1122.5187)"
       clip-path="url(#clipPath48)" /><path
       id="path49"
       d="m 330.27,782.794 h 3.96 l 3.253,-10.575 3.28,10.575 h 3.967 v -21.95 h -4.22 v 10.275 l -3.03,-9.745 -2.962,9.687 v -10.217 h -4.248 z"
       style="fill:#000000;fill-opacity:1;fill-rule:nonzero;stroke:none"
       transform="matrix(1.3333333,0,0,-1.3333333,0,1122.5187)"
       clip-path="url(#clipPath50)" /><path
       id="path51"
       d="m 349.035,779.451 h -1.205 v 3.343 h 7.833 c 1.172,0 2.11,-0.298 2.81,-0.89 0.7,-0.593 1.05,-1.478 1.05,-2.653 v -5.065 c 0,-1.317 -0.5,-1.95 -1.5,-1.892 0.467,0.025 0.89,-0.183 1.262,-0.625 0.375,-0.443 0.563,-0.988 0.563,-1.633 v -5.625 c 0,-1.132 -0.263,-2.01 -0.788,-2.632 -0.525,-0.623 -1.462,-0.935 -2.81,-0.935 h -7.215 z m 5.393,-15.237 c 0.537,0 0.852,0.065 0.945,0.197 0.09,0.133 0.137,0.445 0.137,0.94 v 4.003 c 0,0.352 -0.09,0.632 -0.272,0.835 -0.18,0.205 -0.5,0.307 -0.958,0.307 h -1.025 v -6.282 z m -0.235,9.357 c 0.47,0 0.777,0.088 0.922,0.263 0.145,0.175 0.218,0.447 0.218,0.817 v 3.825 c 0,0.358 -0.063,0.618 -0.19,0.78 -0.128,0.163 -0.425,0.243 -0.893,0.243 h -0.995 v -5.928 z"
       style="fill:#000000;fill-opacity:1;fill-rule:nonzero;stroke:none"
       transform="matrix(1.3333333,0,0,-1.3333333,0,1122.5187)"
       clip-path="url(#clipPath52)" /><path
       id="path53"
       d="m 256.284,743.124 c 0,-0.488 -0.244,-0.891 -0.73,-1.206 l -0.077,0.166 c -0.102,-0.345 -0.457,-0.516 -1.06,-0.516 -0.067,0 -0.155,0.003 -0.268,0.01 -0.114,0.006 -0.232,0.01 -0.359,0.01 -0.781,1.395 -1.516,3.015 -2.205,4.86 -0.306,0.823 -0.838,2.418 -1.593,4.786 -0.177,-0.301 -0.375,-0.82 -0.595,-1.555 -0.303,-1.02 -0.515,-1.648 -0.635,-1.89 -0.353,-0.7 -0.925,-1.211 -1.712,-1.536 -0.175,0.11 -0.333,0.163 -0.478,0.163 -0.038,0 -0.112,-0.008 -0.22,-0.023 -0.11,-0.017 -0.202,-0.025 -0.278,-0.025 -0.33,0 -0.59,0.131 -0.779,0.393 -2.595,0.57 -5.135,1.728 -7.616,3.477 -0.1,-0.319 -0.15,-0.762 -0.15,-1.33 0,-0.255 0.013,-0.605 0.038,-1.052 0.027,-0.447 0.038,-0.768 0.038,-0.968 0,-0.58 -0.051,-1.044 -0.153,-1.392 0.25,-0.313 0.373,-0.672 0.373,-1.077 0,-0.223 -0.08,-0.636 -0.243,-1.241 -0.452,-0.519 -0.942,-0.777 -1.47,-0.777 -0.382,0 -0.793,0.152 -1.233,0.457 0.011,0.165 0.018,0.255 0.018,0.27 0,0.205 -0.118,0.421 -0.353,0.646 0.485,0.514 0.726,1.202 0.726,2.062 0,0.29 -0.031,0.69 -0.095,1.202 -0.07,0.605 -0.111,1.043 -0.125,1.315 l 0.335,0.32 c -0.015,0.055 -0.085,0.433 -0.21,1.136 -0.096,0.572 -0.145,1.037 -0.145,1.399 0,0.185 0.007,0.281 0.02,0.288 -0.223,0.097 -0.335,0.287 -0.335,0.572 0,0.113 0.03,0.251 0.092,0.418 0.06,0.165 0.09,0.282 0.09,0.348 0,0.1 -0.1,0.2 -0.302,0.299 -0.098,0.186 -0.148,0.361 -0.148,0.525 0,0.205 0.092,0.441 0.273,0.71 0.182,0.268 0.274,0.455 0.274,0.563 0,0.077 -0.039,0.212 -0.115,0.403 0.313,0.23 0.613,0.345 0.898,0.345 0.612,0 1.328,-0.55 2.147,-1.648 0.218,-0.742 0.988,-1.575 2.311,-2.498 0.145,-0.107 0.349,-0.252 0.612,-0.435 0.142,-0.069 0.348,-0.179 0.622,-0.33 1.706,-0.985 3.151,-1.479 4.336,-1.479 0.119,0 0.177,0 0.177,0 0.537,0.56 1.062,1.314 1.578,2.262 0.45,1.135 0.892,2.17 1.322,3.105 v 0.037 c 0,0.448 0.132,0.841 0.395,1.181 0.352,0.349 0.652,0.662 0.902,0.944 0.856,-0.279 1.38,-0.472 1.566,-0.579 0.58,-0.335 0.87,-0.783 0.87,-1.346 v -0.154 c -0.101,-0.236 -0.153,-0.473 -0.153,-0.708 0,-0.177 0.025,-0.442 0.077,-0.792 0.05,-0.351 0.076,-0.618 0.076,-0.8 0,-0.335 -0.058,-0.618 -0.173,-0.851 0.238,-1.354 0.74,-2.667 1.505,-3.94 0,-0.357 0.137,-0.765 0.41,-1.222 0.337,-0.567 0.53,-0.975 0.578,-1.223 0.362,-0.36 0.61,-0.629 0.745,-0.802 0.237,-0.295 0.409,-0.618 0.515,-0.973 0.025,-0.075 0.055,-0.175 0.089,-0.304 z"
       style="fill:#000000;fill-opacity:1;fill-rule:nonzero;stroke:none"
       transform="matrix(1.3333333,0,0,-1.3333333,0,1122.5187)"
       clip-path="url(#clipPath54)" /><path
       id="path55"
       d="m 273.345,741.644 c -0.275,-0.731 -0.95,-1.48 -2.027,-2.243 -0.513,0.25 -0.87,0.648 -1.065,1.195 -0.27,0.763 -0.42,1.17 -0.453,1.222 -0.31,0.525 -1.003,1.448 -2.078,2.77 -1.154,-0.14 -2.962,-0.369 -5.425,-0.687 -0.647,-0.093 -1.51,-0.255 -2.589,-0.488 -0.2,-0.059 -0.323,-0.294 -0.371,-0.702 -0.049,-0.41 -0.279,-0.675 -0.692,-0.793 -1.225,0.508 -1.905,1.356 -2.042,2.546 0.139,0.472 0.237,0.77 0.297,0.897 0.147,0.31 0.392,0.572 0.732,0.785 0.468,-0.235 0.766,-0.352 0.896,-0.352 -0.005,0 -0.006,0 -0.006,0 2.183,4.369 3.383,7.999 3.598,10.89 -0.12,0.097 -0.182,0.22 -0.182,0.367 0,0.258 0.209,0.468 0.625,0.628 0.327,0.129 0.544,0.285 0.65,0.472 0.744,-0.218 1.197,-0.368 1.362,-0.45 0.37,-0.178 0.623,-0.482 0.76,-0.908 -0.013,-0.254 -0.018,-0.405 -0.018,-0.452 0,-1.132 0.271,-2.33 0.815,-3.598 0.166,-0.39 0.74,-1.51 1.718,-3.36 0.273,-0.529 0.595,-1.205 0.963,-2.03 0.179,-0.4 0.492,-0.602 0.94,-0.602 0.167,0 0.377,0.028 0.63,0.085 0.385,0.075 0.589,0.115 0.61,0.118 0.082,0.21 0.237,0.315 0.465,0.315 0.102,0 0.362,-0.106 0.777,-0.316 0.517,-0.262 0.773,-0.704 0.773,-1.324 0,-0.281 -0.075,-0.558 -0.226,-0.826 -0.115,-0.074 -0.249,-0.28 -0.4,-0.62 -0.139,-0.332 -0.349,-0.497 -0.627,-0.497 -0.105,0 -0.235,0.028 -0.39,0.083 l -0.27,0.31 c 0.05,-0.005 0.075,-0.056 0.075,-0.155 v -0.065 z m -6.895,5.215 c -0.193,0.615 -0.727,1.58 -1.597,2.892 -0.863,1.297 -1.331,2.295 -1.405,2.997 -0.13,-0.83 -0.548,-1.942 -1.253,-3.335 -0.273,-0.492 -0.562,-1.057 -0.863,-1.694 -0.024,-0.113 -0.074,-0.313 -0.15,-0.598 -0.21,-0.393 -0.43,-0.77 -0.664,-1.128 0.065,0.076 0.467,0.185 1.209,0.325 l 0.126,-0.172 c 0.402,0.212 0.977,0.318 1.722,0.318 0.045,0 0.187,-0.003 0.423,-0.01 0.239,-0.006 0.455,-0.008 0.65,-0.008 0.785,0 1.387,0.137 1.802,0.413 z"
       style="fill:#000000;fill-opacity:1;fill-rule:nonzero;stroke:none"
       transform="matrix(1.3333333,0,0,-1.3333333,0,1122.5187)"
       clip-path="url(#clipPath56)" /><path
       id="path57"
       d="m 289.887,748.123 c 0,-0.664 -0.173,-1.19 -0.518,-1.58 v -0.51 c -2.672,-2.55 -5.498,-3.98 -8.48,-4.29 -0.16,-0.077 -0.48,-0.139 -0.96,-0.184 -0.368,-0.03 -0.652,-0.131 -0.848,-0.308 -0.825,0.027 -1.275,0.048 -1.354,0.067 -0.536,0.085 -0.953,0.331 -1.248,0.736 v 0.125 c 0,0.09 -0.062,0.244 -0.187,0.462 -0.125,0.217 -0.186,0.408 -0.186,0.573 0,0.102 0.02,0.214 0.06,0.332 0.21,0.22 0.536,0.377 0.976,0.473 0.44,0.095 0.715,0.202 0.822,0.317 -0.062,0.832 -0.358,1.885 -0.888,3.158 -0.722,1.732 -1.135,2.782 -1.24,3.152 -0.065,0.047 -0.244,0.293 -0.537,0.742 -0.377,0.383 -0.638,0.575 -0.785,0.575 -0.148,0 -0.523,-0.295 -1.125,-0.882 -0.117,0.025 -0.223,0.038 -0.32,0.038 -0.052,0 -0.137,-0.003 -0.255,-0.01 -0.118,-0.006 -0.208,-0.008 -0.273,-0.008 -0.422,0 -0.709,0.125 -0.862,0.378 -0.152,0.124 -0.222,0.327 -0.208,0.614 0.011,0.285 -0.045,0.496 -0.174,0.633 0.434,0.828 1.045,1.32 1.839,1.477 0.683,0.095 1.365,0.186 2.045,0.273 0.203,0.057 0.45,0.157 0.738,0.302 0.128,0.065 0.283,0.096 0.463,0.096 0.109,0 0.265,-0.016 0.47,-0.048 0.204,-0.032 0.354,-0.047 0.45,-0.047 0.164,0 0.315,0.062 0.455,0.189 0,0 0.79,0 2.37,0 1.2,0 2.015,-0.059 2.447,-0.177 0.347,-0.118 0.822,-0.273 1.425,-0.467 1.318,-0.43 2.31,-0.845 2.975,-1.245 0.988,-0.61 1.722,-1.403 2.198,-2.376 0.477,-0.975 0.715,-1.835 0.715,-2.58 z m -2.183,0.515 c 0.133,-0.147 0.058,-0.129 -0.223,0.056 -0.125,0.529 -0.249,0.917 -0.37,1.165 -0.48,0.954 -1.405,1.657 -2.777,2.112 -0.455,0.152 -1.67,0.412 -3.647,0.777 -0.128,-0.025 -0.276,-0.039 -0.445,-0.039 -0.141,0 -0.348,0.014 -0.615,0.039 -0.268,0.025 -0.46,0.038 -0.573,0.038 -0.387,0 -0.668,-0.077 -0.843,-0.228 0.025,-0.019 0.103,-0.362 0.233,-1.032 0.083,-0.433 0.227,-0.773 0.427,-1.018 0.1,-0.554 0.445,-1.487 1.035,-2.802 0.53,-1.17 0.795,-2.163 0.795,-2.977 -0.065,-0.251 -0.065,-0.411 0,-0.478 0.076,0.033 0.185,0.048 0.326,0.048 0.1,0 0.257,0.037 0.472,0.11 0.213,0.074 0.392,0.11 0.535,0.11 0.117,0 0.212,-0.013 0.288,-0.04 -0.013,-0.008 0.064,0.035 0.23,0.13 0.279,0.164 0.485,0.247 0.622,0.247 0.097,0 0.155,-0.015 0.175,-0.042 0.748,0.379 1.537,0.772 2.367,1.184 0.863,0.48 1.446,1.051 1.75,1.713 -0.109,0.055 -0.164,0.165 -0.164,0.332 0,0.095 0.034,0.205 0.102,0.328 0.067,0.125 0.167,0.213 0.3,0.267 z"
       style="fill:#000000;fill-opacity:1;fill-rule:nonzero;stroke:none"
       transform="matrix(1.3333333,0,0,-1.3333333,0,1122.5187)"
       clip-path="url(#clipPath58)" /><path
       id="path59"
       d="m 310.877,744.054 c 0,-0.563 -0.324,-1 -0.974,-1.308 -0.076,-0.007 -0.226,-0.103 -0.448,-0.293 -0.222,-0.19 -0.44,-0.285 -0.655,-0.285 -0.108,0 -0.248,0.04 -0.418,0.12 -0.272,0.455 -0.644,0.838 -1.112,1.15 -0.292,0.196 -0.763,0.446 -1.413,0.751 -0.65,0.305 -1.102,0.55 -1.355,0.734 -0.04,-0.039 -0.119,-0.059 -0.234,-0.059 -0.211,0 -0.43,0.12 -0.653,0.36 -0.195,0.205 -0.358,0.33 -0.493,0.377 -1.922,0.658 -4.419,2.042 -7.49,4.148 h -0.252 c -0.006,-0.133 -0.008,-0.401 -0.008,-0.805 0,-1.2 0.075,-2.365 0.227,-3.498 0.038,-0.295 0.101,-0.665 0.19,-1.107 -0.194,-0.26 -0.224,-0.441 -0.09,-0.543 0.133,-0.512 -0.062,-0.868 -0.584,-1.068 -0.505,-0.194 -0.83,-0.409 -0.975,-0.644 -0.443,0.015 -0.798,0.2 -1.065,0.554 -0.191,0.298 -0.385,0.6 -0.581,0.908 0.118,0.31 0.178,0.452 0.178,0.423 -0.133,0.725 -0.022,1.255 0.338,1.589 0.1,0.288 0.15,0.655 0.15,1.101 0,0.164 -0.008,0.424 -0.028,0.777 -0.018,0.353 -0.028,0.623 -0.028,0.812 0,0.265 0.018,0.491 0.056,0.68 -0.075,0.208 -0.171,0.725 -0.291,1.553 -0.089,0.68 -0.232,1.158 -0.432,1.437 -0.095,0.081 -0.227,0.208 -0.397,0.378 -0.153,0.187 -0.23,0.398 -0.23,0.633 0,0.205 0.079,0.46 0.234,0.764 0.161,0.306 0.26,0.538 0.293,0.698 0.678,0.38 1.268,0.57 1.772,0.57 0.303,0 0.556,-0.05 0.763,-0.147 0.387,-0.183 0.603,-0.476 0.65,-0.88 0.047,-0.406 0.1,-0.65 0.157,-0.731 0.108,-0.122 0.235,-0.27 0.381,-0.449 0.535,-0.703 0.895,-1.153 1.084,-1.346 0.408,-0.424 0.844,-0.69 1.311,-0.804 1.183,-1.048 2.662,-1.945 4.438,-2.691 0.324,-0.112 0.897,-0.322 1.724,-0.63 0.23,-0.129 0.496,-0.272 0.796,-0.43 0.845,-0.435 1.519,-0.722 2.019,-0.86 0.108,0.17 0.161,0.403 0.161,0.7 0,0.22 -0.083,0.666 -0.248,1.34 -0.153,0.336 -0.222,0.625 -0.202,0.863 -0.255,0.45 -0.475,1.172 -0.658,2.165 -0.193,1.072 -0.355,1.763 -0.487,2.075 -0.313,0.778 -0.808,1.335 -1.485,1.67 -0.13,0.422 -0.195,0.88 -0.195,1.378 0,0.134 0.007,0.33 0.024,0.589 0.016,0.258 0.023,0.45 0.023,0.571 0,0.18 -0.015,0.399 -0.047,0.65 0.209,0.254 0.462,0.439 0.759,0.559 0.251,0.088 0.54,0.176 0.863,0.265 0.208,-0.285 0.448,-0.519 0.718,-0.7 0.269,-0.179 0.564,-0.377 0.885,-0.595 -0.038,-0.33 -0.056,-0.645 -0.056,-0.947 0,-0.748 0.145,-1.578 0.435,-2.487 0.281,-0.8 0.575,-1.648 0.881,-2.543 0.307,-0.895 0.502,-1.758 0.585,-2.588 0.024,-0.234 0.184,-0.575 0.479,-1.022 0.296,-0.448 0.445,-0.812 0.445,-1.093 0,-0.14 -0.034,-0.287 -0.1,-0.44 -0.005,-0.229 0.105,-0.604 0.328,-1.125 0.225,-0.524 0.337,-0.93 0.337,-1.224 z"
       style="fill:#000000;fill-opacity:1;fill-rule:nonzero;stroke:none"
       transform="matrix(1.3333333,0,0,-1.3333333,0,1122.5187)"
       clip-path="url(#clipPath60)" /><path
       id="path61"
       d="m 327.72,744.091 c 0,-0.618 -0.199,-1.168 -0.599,-1.65 -0.29,-0.148 -0.581,-0.223 -0.875,-0.223 -0.365,0 -0.943,0.18 -1.733,0.541 -0.093,0.045 -0.228,0.1 -0.405,0.165 -0.752,0.195 -1.837,0.294 -3.255,0.294 -1.645,0 -3.163,-0.267 -4.557,-0.8 0.01,0.183 0.015,0.28 0.019,0.293 0,-0.008 -0.01,0.003 -0.032,0.037 -0.058,-0.025 -0.162,-0.039 -0.315,-0.039 -0.557,0 -0.907,0.367 -1.052,1.102 -0.05,0.483 -0.098,0.977 -0.143,1.478 -0.045,0.242 -0.14,0.494 -0.285,0.754 -0.032,0.075 -0.067,0.146 -0.105,0.213 -0.17,0.287 -0.317,0.533 -0.44,0.74 -0.195,0.348 -0.292,0.653 -0.292,0.913 0,0.31 0.142,0.6 0.424,0.875 0.16,0.01 0.268,0.074 0.328,0.189 0.085,0.19 0.16,0.341 0.227,0.458 -0.115,0.197 -0.174,0.507 -0.174,0.93 0,0.15 0.014,0.368 0.039,0.652 0.025,0.285 0.038,0.491 0.038,0.623 0,0.583 -0.307,0.898 -0.922,0.942 -0.471,0.231 -0.706,0.56 -0.706,0.983 0,0.153 0.033,0.347 0.101,0.578 0.085,0.285 0.139,0.495 0.164,0.632 0.34,0.058 0.726,0.318 1.158,0.78 0.472,0.507 0.907,0.76 1.305,0.76 0.067,0 0.18,-0.013 0.338,-0.04 0.25,-0.522 0.674,-0.783 1.272,-0.783 0.267,0 0.668,0.051 1.205,0.158 0.535,0.105 0.945,0.157 1.228,0.157 0.027,0 0.077,-0.002 0.149,-0.009 0.073,-0.006 0.135,-0.01 0.186,-0.01 0.209,0 0.525,0.032 0.95,0.095 0.425,0.065 0.75,0.097 0.975,0.097 0.027,0 0.102,-0.003 0.222,-0.01 0.122,-0.007 0.23,-0.01 0.323,-0.01 0.274,0 0.675,0.162 1.202,0.482 0.527,0.32 0.943,0.48 1.252,0.48 0.38,0 0.69,-0.154 0.926,-0.462 l 0.844,-0.97 c -0.177,-0.842 -0.537,-1.577 -1.079,-2.208 -0.28,-0.155 -0.561,-0.234 -0.845,-0.234 -0.301,0 -0.693,0.11 -1.171,0.33 -0.479,0.222 -0.83,0.332 -1.052,0.332 -0.155,0 -0.353,-0.045 -0.595,-0.135 -0.182,0.122 -0.345,0.182 -0.487,0.182 -0.101,0 -0.271,-0.034 -0.51,-0.1 -0.24,-0.067 -0.433,-0.1 -0.581,-0.1 -0.247,0 -0.429,0.066 -0.547,0.2 -0.17,-0.202 -0.573,-0.314 -1.21,-0.335 -0.707,-0.024 -1.115,-0.055 -1.227,-0.092 -0.375,-0.12 -0.561,-0.39 -0.561,-0.81 0,-0.098 0.015,-0.25 0.046,-0.453 0.034,-0.205 0.049,-0.36 0.049,-0.465 0,-0.175 -0.019,-0.27 -0.057,-0.285 0.127,-0.099 0.143,-0.199 0.05,-0.299 0.068,0.077 0.103,-0.183 0.103,-0.778 0,-0.258 0.025,-0.443 0.075,-0.557 0.052,-0.111 0.132,-0.236 0.24,-0.373 0.105,0.117 0.3,0.175 0.587,0.175 0.28,0 0.488,-0.058 0.625,-0.175 0.082,0.007 0.63,0.105 1.645,0.295 0.723,0.132 1.333,0.197 1.83,0.197 0.172,-0.077 0.342,-0.115 0.507,-0.115 0.221,0 0.553,0.113 0.995,0.34 0.44,0.226 0.795,0.34 1.065,0.34 0.353,0 0.713,-0.169 1.081,-0.504 0.012,-0.051 0.059,-0.255 0.137,-0.611 0.068,-0.284 0.102,-0.509 0.102,-0.677 0,-0.375 -0.269,-0.762 -0.804,-1.158 -0.166,-0.224 -0.581,-0.335 -1.245,-0.335 h -0.46 l -0.33,0.338 c -0.195,0.01 -0.481,0.015 -0.858,0.015 -1.8,0 -3.475,-0.215 -5.025,-0.647 0.112,0.125 0.168,0.034 0.168,-0.275 0,-0.483 0.089,-0.766 0.269,-0.851 0.453,-0.184 0.905,-0.275 1.351,-0.275 0.23,0 0.445,0.091 0.64,0.275 0.39,-0.26 0.892,-0.39 1.505,-0.39 0.167,0 0.399,0.008 0.695,0.028 0.297,0.018 0.509,0.028 0.637,0.028 0.113,0 0.28,-0.015 0.497,-0.048 0.218,-0.032 0.378,-0.047 0.48,-0.047 0.285,0 0.716,0.069 1.295,0.205 0.576,0.139 1.023,0.207 1.34,0.207 0.603,0 1.07,-0.253 1.4,-0.757 0.053,-0.078 0.123,-0.205 0.213,-0.378 0.022,-0.073 0.032,-0.212 0.032,-0.415 z"
       style="fill:#000000;fill-opacity:1;fill-rule:nonzero;stroke:none"
       transform="matrix(1.3333333,0,0,-1.3333333,0,1122.5187)"
       clip-path="url(#clipPath62)" /><path
       id="path63"
       d="m 345.61,744.803 c 0,-0.249 -0.098,-0.487 -0.295,-0.712 -1.117,-1.342 -3.082,-2.107 -5.897,-2.297 -0.335,-0.006 -0.841,-0.025 -1.518,-0.056 -0.122,0.241 -0.208,0.3 -0.258,0.171 -0.602,-0.128 -1.099,-0.013 -1.489,0.342 -0.223,-0.022 -0.505,-0.033 -0.848,-0.033 -1.663,0 -3.202,0.38 -4.617,1.138 0.014,0.14 0.02,0.267 0.02,0.382 0,0.085 -0.006,0.226 -0.02,0.428 -0.011,0.2 -0.018,0.357 -0.018,0.47 0,0.513 0.162,0.905 0.487,1.175 0.395,-0.05 0.816,-0.215 1.263,-0.497 0.48,-0.298 0.782,-0.466 0.908,-0.5 0.144,0.117 0.365,0.175 0.664,0.175 0.273,0 0.503,-0.078 0.691,-0.236 0.179,-0.149 0.39,-0.237 0.639,-0.264 0.03,-0.005 0.313,-0.008 0.851,-0.008 0.539,0 0.865,-0.112 0.98,-0.337 0.009,0.124 0.129,0.184 0.364,0.184 0.471,0 0.663,-0.112 0.575,-0.335 l 0.018,0.151 c 0.322,0.124 0.702,0.184 1.14,0.184 0.075,0 0.24,-0.004 0.495,-0.014 0.257,-0.01 0.468,-0.015 0.637,-0.015 0.041,0 0.08,-0.006 0.115,-0.018 0.035,-0.013 0.05,-0.02 0.046,-0.02 0.054,0 0.127,0.038 0.22,0.113 0.175,0.135 0.312,0.227 0.412,0.277 0.118,-0.023 0.233,-0.035 0.347,-0.035 0.668,0 1.163,0.183 1.485,0.552 -0.102,0.481 -0.367,0.866 -0.794,1.153 -0.366,0.252 -0.89,0.473 -1.57,0.66 -0.215,0.052 -0.563,0.153 -1.048,0.308 -0.372,0.132 -0.915,0.319 -1.627,0.557 -1.008,0.242 -2.43,0.595 -4.266,1.06 -0.062,-0.012 -0.175,-0.018 -0.342,-0.018 -0.368,0 -0.937,0.076 -1.708,0.233 -0.114,0.03 -0.329,0.07 -0.649,0.122 0,0 -0.031,0 -0.095,0 -0.763,0 -1.355,0.196 -1.78,0.591 -0.058,0.08 -0.135,0.187 -0.23,0.317 -0.226,0.272 -0.516,0.658 -0.871,1.157 0.115,0.123 0.171,0.2 0.171,0.231 0,0.02 -0.036,0.094 -0.11,0.222 -0.073,0.127 -0.11,0.248 -0.11,0.363 0,0.107 0.03,0.197 0.092,0.27 0.57,0.95 1.598,1.625 3.088,2.029 0.244,0.038 0.592,0.106 1.045,0.203 -0.005,0 0.14,0.068 0.434,0.208 0.726,0.422 1.255,0.634 1.585,0.634 0.038,0 0.085,-0.007 0.14,-0.019 0.055,-0.013 0.088,-0.02 0.1,-0.02 0.088,0 0.496,0.105 1.226,0.314 1.637,0.483 3.025,0.725 4.167,0.725 0.83,0 1.61,-0.125 2.34,-0.377 0.297,-0.588 0.445,-0.948 0.445,-1.082 0,-0.195 -0.09,-0.371 -0.27,-0.531 -0.18,-0.162 -0.29,-0.352 -0.328,-0.572 -0.259,0.017 -0.487,0.08 -0.689,0.19 -0.2,0.11 -0.34,0.165 -0.416,0.165 -0.089,0 -0.219,-0.06 -0.39,-0.182 -0.13,0.07 -0.217,0.105 -0.262,0.105 -0.057,0 -0.158,-0.018 -0.31,-0.053 -0.15,-0.035 -0.277,-0.052 -0.38,-0.052 -0.237,0 -0.393,0.054 -0.47,0.164 -1.383,-0.312 -2.795,-0.622 -4.233,-0.929 -1.709,-0.408 -3.034,-0.946 -3.975,-1.615 0.175,-0.341 0.625,-0.595 1.35,-0.758 0.828,-0.185 1.308,-0.338 1.443,-0.457 0.108,0.105 0.278,0.157 0.512,0.157 0.22,0 0.511,-0.1 0.873,-0.298 0.232,-0.122 0.415,-0.197 0.548,-0.224 0.37,-0.07 0.87,-0.166 1.5,-0.288 1.784,-0.357 3.194,-0.748 4.227,-1.175 0.038,0.027 0.12,0.04 0.247,0.04 0.205,0 0.458,-0.112 0.76,-0.333 0.328,-0.247 0.508,-0.379 0.541,-0.395 h 0.04 c 0.457,0 0.915,-0.185 1.377,-0.557 0.085,-0.077 0.443,-0.44 1.073,-1.092 -0.025,-0.115 -0.038,-0.213 -0.038,-0.298 0,-0.122 0.04,-0.315 0.12,-0.583 0.08,-0.269 0.12,-0.48 0.12,-0.635 z"
       style="fill:#000000;fill-opacity:1;fill-rule:nonzero;stroke:none"
       transform="matrix(1.3333333,0,0,-1.3333333,0,1122.5187)"
       clip-path="url(#clipPath64)" /><path
       id="path65"
       d="m 362.89,744.803 c 0,-0.249 -0.098,-0.487 -0.295,-0.712 -1.117,-1.342 -3.082,-2.107 -5.897,-2.297 -0.335,-0.006 -0.841,-0.025 -1.518,-0.056 -0.122,0.241 -0.208,0.3 -0.258,0.171 -0.602,-0.128 -1.099,-0.013 -1.489,0.342 -0.223,-0.022 -0.505,-0.033 -0.848,-0.033 -1.663,0 -3.202,0.38 -4.617,1.138 0.014,0.14 0.02,0.267 0.02,0.382 0,0.085 -0.006,0.226 -0.02,0.428 -0.011,0.2 -0.018,0.357 -0.018,0.47 0,0.513 0.162,0.905 0.487,1.175 0.395,-0.05 0.816,-0.215 1.263,-0.497 0.48,-0.298 0.782,-0.466 0.908,-0.5 0.144,0.117 0.365,0.175 0.664,0.175 0.273,0 0.503,-0.078 0.691,-0.236 0.179,-0.149 0.39,-0.237 0.639,-0.264 0.03,-0.005 0.313,-0.008 0.851,-0.008 0.539,0 0.865,-0.112 0.98,-0.337 0.009,0.124 0.129,0.184 0.364,0.184 0.471,0 0.663,-0.112 0.575,-0.335 l 0.018,0.151 c 0.322,0.124 0.702,0.184 1.14,0.184 0.075,0 0.24,-0.004 0.495,-0.014 0.257,-0.01 0.468,-0.015 0.637,-0.015 0.041,0 0.08,-0.006 0.115,-0.018 0.035,-0.013 0.05,-0.02 0.046,-0.02 0.054,0 0.127,0.038 0.22,0.113 0.175,0.135 0.312,0.227 0.412,0.277 0.118,-0.023 0.233,-0.035 0.347,-0.035 0.668,0 1.163,0.183 1.485,0.552 -0.102,0.481 -0.367,0.866 -0.794,1.153 -0.366,0.252 -0.89,0.473 -1.57,0.66 -0.215,0.052 -0.563,0.153 -1.048,0.308 -0.372,0.132 -0.915,0.319 -1.627,0.557 -1.008,0.242 -2.43,0.595 -4.266,1.06 -0.062,-0.012 -0.175,-0.018 -0.342,-0.018 -0.368,0 -0.937,0.076 -1.708,0.233 -0.114,0.03 -0.329,0.07 -0.649,0.122 0,0 -0.031,0 -0.095,0 -0.763,0 -1.355,0.196 -1.78,0.591 -0.058,0.08 -0.135,0.187 -0.23,0.317 -0.226,0.272 -0.516,0.658 -0.871,1.157 0.115,0.123 0.171,0.2 0.171,0.231 0,0.02 -0.036,0.094 -0.11,0.222 -0.073,0.127 -0.11,0.248 -0.11,0.363 0,0.107 0.03,0.197 0.092,0.27 0.57,0.95 1.598,1.625 3.088,2.029 0.244,0.038 0.592,0.106 1.045,0.203 -0.005,0 0.14,0.068 0.434,0.208 0.726,0.422 1.255,0.634 1.585,0.634 0.038,0 0.085,-0.007 0.14,-0.019 0.055,-0.013 0.088,-0.02 0.1,-0.02 0.088,0 0.496,0.105 1.226,0.314 1.637,0.483 3.025,0.725 4.167,0.725 0.83,0 1.61,-0.125 2.34,-0.377 0.297,-0.588 0.445,-0.948 0.445,-1.082 0,-0.195 -0.09,-0.371 -0.27,-0.531 -0.18,-0.162 -0.29,-0.352 -0.328,-0.572 -0.259,0.017 -0.487,0.08 -0.689,0.19 -0.2,0.11 -0.34,0.165 -0.416,0.165 -0.089,0 -0.219,-0.06 -0.39,-0.182 -0.13,0.07 -0.217,0.105 -0.262,0.105 -0.057,0 -0.158,-0.018 -0.31,-0.053 -0.15,-0.035 -0.277,-0.052 -0.38,-0.052 -0.237,0 -0.393,0.054 -0.47,0.164 -1.383,-0.312 -2.795,-0.622 -4.233,-0.929 -1.709,-0.408 -3.034,-0.946 -3.975,-1.615 0.175,-0.341 0.625,-0.595 1.35,-0.758 0.828,-0.185 1.308,-0.338 1.443,-0.457 0.108,0.105 0.278,0.157 0.512,0.157 0.22,0 0.511,-0.1 0.873,-0.298 0.232,-0.122 0.415,-0.197 0.548,-0.224 0.37,-0.07 0.87,-0.166 1.5,-0.288 1.784,-0.357 3.194,-0.748 4.227,-1.175 0.038,0.027 0.12,0.04 0.247,0.04 0.205,0 0.458,-0.112 0.76,-0.333 0.328,-0.247 0.508,-0.379 0.541,-0.395 h 0.04 c 0.457,0 0.915,-0.185 1.377,-0.557 0.085,-0.077 0.443,-0.44 1.073,-1.092 -0.025,-0.115 -0.038,-0.213 -0.038,-0.298 0,-0.122 0.04,-0.315 0.12,-0.583 0.08,-0.269 0.12,-0.48 0.12,-0.635 z"
       style="fill:#000000;fill-opacity:1;fill-rule:nonzero;stroke:none"
       transform="matrix(1.3333333,0,0,-1.3333333,0,1122.5187)"
       clip-path="url(#clipPath66)" /></g></svg>
