<?xml version="1.0" encoding="UTF-8" standalone="no"?>
<!-- Created with Inkscape (http://www.inkscape.org/) -->

<svg
   width="93.344101mm"
   height="33.867584mm"
   viewBox="0 0 93.344101 33.867584"
   version="1.1"
   id="svg1"
   xml:space="preserve"
   xmlns:inkscape="http://www.inkscape.org/namespaces/inkscape"
   xmlns:sodipodi="http://sodipodi.sourceforge.net/DTD/sodipodi-0.dtd"
   xmlns="http://www.w3.org/2000/svg"
   xmlns:svg="http://www.w3.org/2000/svg"><sodipodi:namedview
     id="namedview1"
     pagecolor="#ffffff"
     bordercolor="#666666"
     borderopacity="1.0"
     inkscape:showpageshadow="2"
     inkscape:pageopacity="0.0"
     inkscape:pagecheckerboard="0"
     inkscape:deskcolor="#d1d1d1"
     inkscape:document-units="mm"
     showguides="false" /><defs
     id="defs1" /><path
     style="fill:#000000"
     d="m 21.673859,33.073836 c -0.602657,-0.436563 -1.186068,-0.793702 -1.296469,-0.793642 -0.1104,5.9e-5 -0.158917,-1.551189 -0.107815,-3.447218 0.107924,-4.004309 -0.01406,-4.754973 -0.77267,-4.754973 -0.519771,0 -0.534782,0.130095 -0.45798,3.969146 l 0.0794,3.969145 -1.5875,-0.02128 c -0.873125,-0.01171 -1.438672,-0.08134 -1.256771,-0.154736 0.247935,-0.100044 0.330729,-1.364627 0.330729,-5.051507 0,-4.205006 -0.06349,-4.988207 -0.437882,-5.40191 -0.546419,-0.603786 -0.273116,-0.610189 1.772256,-0.04153 1.089743,0.302975 1.505262,0.528035 1.318922,0.714375 -0.624525,0.624525 -0.271651,0.959963 1.009863,0.959963 2.162717,0 2.289966,0.302237 2.289966,5.439065 0,3.106449 0.09313,4.417172 0.330729,4.654779 0.380997,0.381008 0.433361,0.754072 0.105843,0.754072 -0.123687,0 -0.717968,-0.357188 -1.320625,-0.79375 z m 18.21426,0.417952 c 0,-0.04881 0.186057,-0.534043 0.413461,-1.078297 0.317639,-0.760216 0.405325,-1.886774 0.378354,-4.860957 -0.04859,-5.358153 -0.04429,-5.426705 0.376651,-6.003649 0.32458,-0.444859 0.80266,-0.531294 3.57244,-0.645882 2.9494,-0.122019 3.62388,-0.03072 2.93201,0.396875 -0.40048,0.247509 -0.35087,9.994333 0.0529,10.398124 0.24694,0.246945 -0.0785,0.3175 -1.46452,0.3175 -1.67984,0 -1.76631,-0.02934 -1.50813,-0.511772 0.28858,-0.539204 0.38405,-3.787794 0.11911,-4.052733 -0.0851,-0.08513 -0.50904,-0.03129 -0.94202,0.119648 l -0.78724,0.274432 0.0555,2.098284 0.0555,2.098286 -1.62699,0.769443 c -0.894842,0.423193 -1.626986,0.729507 -1.626986,0.680698 z m 4.828646,-7.481606 c 0.10914,-0.06123 0.19844,-1.004811 0.19844,-2.096849 v -1.985524 l -0.8599,0.08291 -0.85989,0.08291 -0.077,2.190571 -0.077,2.19057 0.73843,-0.17663 c 0.40614,-0.09715 0.82773,-0.226727 0.93687,-0.287957 z m 9.75393,6.820885 -1.16014,-0.76967 0.0507,-2.513883 c 0.0475,-2.35571 0.0152,-2.525148 -0.51345,-2.692938 -0.31029,-0.09848 -0.62303,-0.120188 -0.69498,-0.04824 -0.31517,0.315174 -0.41217,4.085275 -0.11919,4.632716 0.30258,0.565378 0.27468,0.576448 -1.45299,0.576448 -1.48141,0 -1.71252,-0.05901 -1.45351,-0.371103 0.21726,-0.261775 0.28526,-1.898751 0.23084,-5.556532 l -0.0772,-5.18543 2.80327,2.83e-4 c 3.45206,3.49e-4 3.73709,0.201112 3.78192,2.66378 0.0251,1.379076 -0.0582,1.685636 -0.57116,2.101873 -0.57107,0.463395 -0.57574,0.495185 -0.0951,0.64773 0.44784,0.142136 0.51656,0.485327 0.60302,3.011452 0.0738,2.155263 0.21147,3.024844 0.56424,3.563241 0.45946,0.701227 0.45738,0.712189 -0.13476,0.711074 -0.33077,-6.23e-4 -1.12347,-0.347484 -1.76154,-0.770803 z m -1.14235,-9.216085 c 0.0787,-1.653196 0.0786,-1.653646 -0.66146,-1.653646 -0.73515,0 -0.74023,0.01187 -0.74023,1.730984 0,1.690616 0.0154,1.729179 0.66146,1.653646 0.61688,-0.07212 0.66677,-0.188803 0.74023,-1.730984 z M 25.084379,32.0208 c -1.456269,-0.358546 -1.600426,-0.768723 -1.600426,-4.553783 0,-2.993999 0.05946,-3.448469 0.510095,-3.899109 0.675845,-0.675844 2.701549,-0.964874 4.011586,-0.572378 1.100837,0.329819 1.338692,0.772605 1.399838,2.605915 0.03144,0.9427 0.02408,0.949113 -1.423602,1.240474 -2.071419,0.416893 -2.116667,0.468828 -2.116667,2.429475 0,1.635041 0.03025,1.718282 0.595313,1.638031 0.51941,-0.07377 0.605561,-0.263178 0.6757,-1.485574 0.06983,-1.217111 0.167609,-1.434186 0.744828,-1.653644 1.448825,-0.550843 1.688326,-0.382014 1.688326,1.190138 0,1.511043 -0.37397,2.674405 -0.928053,2.887026 -0.748936,0.287394 -2.706407,0.382836 -3.556938,0.173429 z m 2.103741,-7.019292 c 0,-0.548357 -0.154603,-0.926216 -0.420752,-1.028347 -0.659433,-0.253049 -0.902165,0.05424 -0.902165,1.1421 0,0.930427 0.04971,0.996526 0.661458,0.879583 0.545239,-0.104229 0.661459,-0.278761 0.661459,-0.993336 z m 7.729446,7.010639 c -1.938626,-0.285584 -2.029231,-0.507283 -2.126227,-5.202612 -0.04693,-2.271612 -0.01292,-4.41866 0.07556,-4.771219 0.243097,-0.968573 1.747064,-1.492177 3.810324,-1.326558 2.123292,0.170437 2.704893,0.682264 2.883133,2.537244 0.140467,1.461863 0.3237,1.293996 -1.921197,1.760084 -0.646453,0.134217 -0.661459,0.101848 -0.661459,-1.426901 0,-1.6165 -0.306688,-2.055727 -1.196883,-1.714127 -0.342895,0.131581 -0.392314,0.812321 -0.330729,4.555758 l 0.0724,4.401061 h 0.661458 c 0.61677,0 0.670397,-0.106538 0.79375,-1.576918 0.140304,-1.672418 0.371306,-1.894189 2.050521,-1.968582 0.547573,-0.02426 0.595313,0.08894 0.595313,1.411609 0,1.688799 -0.31888,2.668013 -0.979523,3.007919 -0.697342,0.358788 -2.429095,0.504358 -3.726447,0.313242 z m -21.9508,-0.171873 c -0.243666,-0.09832 -0.330729,-1.163876 -0.330729,-4.047756 0,-3.156603 -0.07682,-3.978063 -0.396875,-4.243681 -0.493445,-0.409524 -0.512662,-0.79375 -0.0397,-0.79375 0.196447,0 0.851291,-0.357935 1.455208,-0.79541 l 1.098031,-0.79541 v 0.782263 c 0,0.465886 0.187263,0.891333 0.463021,1.051947 0.256965,0.149669 0.315838,0.273265 0.132291,0.277731 -0.461385,0.01122 -0.473873,7.96115 -0.01323,8.421794 0.246945,0.246945 0.05586,0.312859 -0.859896,0.296612 -0.647567,-0.01149 -1.326224,-0.08094 -1.508125,-0.15434 z m 46.183019,-0.142272 c 0.22329,-0.223295 0.3175,-1.722772 0.3175,-5.053724 v -4.736225 l -1.12448,0.113929 c -0.61846,0.06266 -1.33284,0.20645 -1.5875,0.319532 -0.38574,0.171287 -0.46302,0.0684 -0.46302,-0.616453 v -0.822058 h 4.365622 4.36563 v 0.803059 c 0,0.711973 -0.058,0.771993 -0.51177,0.529167 -0.28148,-0.150641 -0.99585,-0.273893 -1.5875,-0.273893 h -1.07573 v 4.709584 c 0,3.31023 0.0943,4.803921 0.3175,5.027082 0.24694,0.246945 -0.0882,0.3175 -1.50813,0.3175 -1.419932,0 -1.755072,-0.07055 -1.508122,-0.3175 z m 6.879172,0 c 0.4619,-0.461908 0.44948,-10.43306 -0.0132,-10.61977 -0.1819,-0.0734 1.36591,-0.142852 3.43958,-0.154341 l 3.77031,-0.02089 v 0.910351 c 0,0.908735 -10e-4,0.909677 -0.7276,0.530797 -0.40018,-0.208755 -1.35268,-0.380288 -2.11667,-0.381184 l -1.38906,-0.0016 v 1.719792 1.719792 h 1.07573 c 0.59165,0 1.30602,-0.123252 1.5875,-0.273892 0.47181,-0.252507 0.51177,-0.177989 0.51177,0.954349 0,1.07169 -0.059,1.202035 -0.46302,1.022637 -0.25466,-0.113082 -0.96904,-0.256871 -1.5875,-0.319532 l -1.12448,-0.113929 v 2.039031 2.039033 l 2.11598,-0.09609 2.11597,-0.09609 -0.0556,0.729535 -0.0556,0.729534 h -3.7008 c -2.8784,0 -3.63025,-0.07055 -3.3833,-0.3175 z m 8.05656,0.03172 c 0.41492,-0.241669 0.46302,-0.78505 0.46302,-5.230703 0,-3.505793 -0.0931,-5.054153 -0.3175,-5.27852 -0.24695,-0.246944 0.0882,-0.3175 1.50812,-0.3175 1.41993,0 1.75507,0.07056 1.50813,0.3175 -0.22316,0.223162 -0.3175,1.716852 -0.3175,5.027084 v 4.709582 h 0.88656 c 1.05165,0 2.55302,-0.482007 2.55302,-0.819633 0,-0.488755 0.55079,-0.216146 0.83832,0.414923 0.5786,1.26989 0.0477,1.463984 -3.97957,1.454998 -2.57895,-0.0058 -3.47378,-0.08484 -3.1426,-0.277731 z m 15.27968,-10.724093 c -1.0914,-0.197954 -2.60945,-0.437747 -3.37343,-0.532872 -0.9419,-0.117278 -1.38907,-0.293829 -1.38907,-0.54843 0.93476,-1.693496 1.63625,-5.557899 2.40251,-7.94526 0.30101,-0.90634 0.47407,-1.878586 0.38458,-2.1605464 -0.0895,-0.281961 -0.0404,-0.588267 0.10916,-0.68068 0.14953,-0.09241 0.45829,-0.846574 0.68613,-1.675913 0.22783,-0.829338 0.63236,-1.984138 0.89893,-2.566221 0.26657,-0.582083 0.54664,-1.564349 0.62238,-2.182812 0.1327,-1.083685 0.1113,-1.12448 -0.58987,-1.12448 -0.83382,0 -1.30817,0.461628 -2.10705,2.050521 -1.08356,2.155127 -1.63275,1.156497 -1.18011,-2.145884 l 0.16826,-1.22755297 h 3.67324 3.67325 l -0.17808,0.727604 c -0.0979,0.40018197 -0.28162,0.79590797 -0.40819,0.87939097 -0.12657,0.08348 -0.34303,0.845507 -0.48102,1.693388 -0.66235,4.069625 -2.39972,5.692234 -1.31237,6.364129 0.171,0.1056834 0.0315,0.4186834 -0.36212,0.8122634 -1.32199,1.321999 -1.70953,6.803224 -2.89391,8.867272 -0.13202,0.08896 0.39513,0.104119 1.17143,0.03368 1.62639,-0.147574 2.0814,-0.467162 2.73792,-1.923065 0.26054,-0.57777 0.54492,-1.048668 0.63196,-1.04644 0.64524,0.01652 0.76959,0.526317 0.62893,2.57847 -0.17252,2.517013 0.0591,2.401406 -3.51339,1.753442 z M 1.6466441,20.915829 C 0.65336514,20.513214 0.35478314,19.867402 0.37440714,18.164067 c 0.06715,-5.828698 0.04024,-6.653787 -0.222291,-6.816042 -0.15613,-0.09649 -0.199224,-0.312407 -0.09577,-0.479807 0.103459,-0.1674 0.235121,-2.1620914 0.292582,-4.4326464 0.115056,-4.54643 0.259514,-5.020482 1.77240896,-5.81634997 0.962869,-0.506523 3.546698,-0.561479 4.420165,-0.09401 0.968063,0.51809097 1.332031,1.66743497 1.332031,4.20631297 v 2.375631 l -1.476192,0.306456 c -0.811905,0.168551 -1.516518,0.266129 -1.565807,0.21684 -0.04929,-0.04929 0.07922,-0.740482 0.285566,-1.535983 0.687264,-2.649472 0.336915,-4.667665 -0.806787,-4.647511 -0.946672,0.01668 -1.191229,1.083112 -1.19538,5.212645 -0.0029,2.859508 0.08312,3.9158664 0.326829,4.0147534 0.262843,0.106652 0.261567,0.183058 -0.0062,0.372237 -0.245349,0.173329 -0.34005,1.275703 -0.348355,4.055039 -0.0063,2.09935 0.06406,4.013008 0.156287,4.252574 0.09223,0.239565 0.450303,0.489598 0.795715,0.555628 1.856054,0.354808 1.264556,-6.179702 1.453095,-6.459554 0.07276,-0.02442 0.64969,0.03834 1.282066,0.139463 l 1.149775,0.183856 -0.09144,2.487603 c -0.103055,2.803535 -0.494723,3.630199 -2.09922,4.430658 -0.948144,0.473015 -3.171774,0.594878 -4.086823,0.223972 z m 6.701404,-0.873011 c 0.175673,-0.211673 0.396707,-1.299329 0.491186,-2.417013 0.258139,-2.339492 1.2155099,-4.732426 0.291074,-7.051067 -0.181901,-0.0052 0.0095,-0.287811 0.42534,-0.6279494 0.7645299,-2.45993 1.4092449,-7.174493 1.1878369,-9.94586996564 h 2.238106 2.238105 L 15.393804,2.0514396 c 0.447327,5.268303 0.760954,7.341721 1.153988,7.629114 0.275831,0.201693 0.309744,0.3506144 0.108206,0.4751714 -0.272917,0.168672 -0.236343,4.658354 0.04187,5.139395 0.0585,0.101159 0.190034,0.987597 0.292288,1.969862 0.10364,0.995587 0.313199,1.785938 0.473536,1.785938 0.726595,0 -0.119665,0.29877 -1.156227,0.408204 -0.636838,0.06723 -1.574606,0.19075 -2.083929,0.274483 -0.749069,0.123146 -0.862837,0.08763 -0.595312,-0.185848 0.342697,-0.350324 0.443328,-2.563255 0.163966,-3.605693 -0.160353,-0.598356 -0.745563,-0.76402 -1.347649,-0.3815 -0.178083,0.113141 -0.403539,1.063818 -0.501015,2.112615 -0.14284,1.536904 -0.105683,1.908467 0.191495,1.914951 0.990909,0.02162 -0.592747,0.474927 -2.2657029,0.648535 -1.594086,0.165423 -1.797887,0.139453 -1.52127,-0.193849 z m 5.3168139,-6.181034 c 0.05653,-0.04819 -0.03312,-1.668546 -0.199212,-3.6008 C 13.299552,8.3287296 13.150311,6.1524816 13.134002,5.4248776 l -0.02965,-1.322917 -0.20734,1.058333 c -0.114037,0.582084 -0.285703,2.546615 -0.381481,4.365626 -0.09578,1.8190104 -0.237448,3.6396274 -0.314821,4.0458154 -0.132791,0.697112 -0.09857,0.728406 0.610346,0.558091 0.413064,-0.09924 0.797277,-0.219856 0.853808,-0.268042 z m 66.506065,6.039372 c -1.92815,-0.218689 -3.50573,-0.499455 -3.50573,-0.623926 0,-0.124471 0.1786,-0.22631 0.39688,-0.22631 0.21828,0 0.40215,-0.148828 0.40859,-0.330729 0.0973,-2.746853 -0.0956,-9.1193744 -0.28169,-9.3054954 -0.15241,-0.152414 -0.14229,-0.372287 0.0265,-0.575668 0.15884,-0.191391 0.27644,-1.915368 0.28108,-4.120567 0.008,-3.707462 -0.006,-3.79874397 -0.61013,-4.11832897 -0.51569,-0.272679 0.0285,-0.327475 3.2845,-0.330729 l 3.90261,-0.0039 0.003,1.12447897 c 0.002,0.618463 0.0767,1.570963 0.16691,2.116667 0.1514,0.915972 0.11533,0.992187 -0.46962,0.992187 -0.50106,0 -0.76636,-0.279601 -1.26818,-1.336589 -0.69457,-1.462974 -1.33317,-1.960988 -2.17282,-1.694494 -0.39715,0.12605 -0.46649,0.252549 -0.25459,0.464449 0.18143,0.181425 0.29122,1.562142 0.29122,3.662269 0,1.858697 0.11349,3.44119 0.25296,3.52739 0.33509,0.207094 1.01944,-0.864693 1.23258,-1.930382 0.0937,-0.468364 0.2705,-0.913494 0.39296,-0.989178 0.38863,-0.240184 0.5738,1.18063 0.29634,2.273752 -0.15541,0.612243 -0.16814,1.114193 -0.0304,1.199305 0.30541,0.188751 0.31075,4.2715724 0.006,4.4600174 -0.12706,0.07852 -0.48919,-0.565326 -0.80475,-1.430775 -0.54546,-1.495975 -0.95235,-2.07252 -1.25153,-1.773348 -0.35747,2.560932 -0.39845,4.528216 -0.094,7.061334 0,0.878443 0.17185,0.94521 1.21248,0.471066 0.4316,-0.196649 0.89783,-0.765032 1.19368,-1.455209 0.34894,-0.814055 0.63991,-1.132523 1.03472,-1.132523 0.51742,0 0.54482,0.125341 0.47243,2.161516 -0.0423,1.188834 -0.19591,2.183976 -0.34143,2.211426 -0.14552,0.02745 -1.84217,-0.129018 -3.77032,-0.347706 z M 18.45687,19.05092 c 0,-0.145521 0.178594,-0.264584 0.396875,-0.264584 0.336743,0 0.396875,-0.661458 0.396875,-4.365625 0,-3.051518 -0.08939,-4.365625 -0.29698,-4.365625 -0.206647,0 -0.214026,-0.1005984 -0.02426,-0.3307294 0.336962,-0.408633 0.438371,-2.061148 0.372247,-6.066016 -0.04448,-2.69427297 -0.110235,-3.10493197 -0.51403,-3.21045397 -0.254661,-0.06655 0.549011,-0.132988 1.785938,-0.147641 1.236927,-0.01465 2.100084,0.06789 1.918128,0.183423 -0.239131,0.151838 -0.349137,1.46152497 -0.396875,4.72503897 -0.05735,3.920757 -0.01381,4.495442 0.33083,4.366556 0.336489,-0.125838 0.34326,-0.08247 0.0445,0.285038 -0.339054,0.4170734 -0.630618,6.2945084 -0.366211,7.3822084 0.198469,0.816449 1.543881,0.04629 2.427315,-1.389469 1.355722,-2.20333 1.81735,-1.704583 1.427365,1.542135 l -0.166597,1.386966 -1.352457,-0.01519 c -0.743851,-0.0084 -2.245425,0.107976 -3.336832,0.258511 -2.50513,0.345526 -2.645833,0.34688 -2.645833,0.02546 z m 54.651887,0.02496 c -0.0815,-0.131791 -0.15467,-1.828431 -0.16271,-3.770312 -0.008,-1.941881 -0.0826,-3.807266 -0.16563,-4.145301 -0.13034,-0.530442 -1.30441,-1.2958494 -1.57408,-1.026178 -0.0516,0.0516 -0.11786,1.889955 -0.14725,4.085242 -0.0422,3.149942 0.0272,4.089402 0.32894,4.456132 0.3548,0.43118 0.31797,0.451939 -0.51059,0.287785 -0.49113,-0.0973 -1.47339,-0.176915 -2.18281,-0.176915 -0.70941,0 -1.28984,-0.119062 -1.28984,-0.264583 0,-0.145521 0.17859,-0.264583 0.39687,-0.264583 0.9373,-2.344801 0.55121,-4.037729 0.49495,-6.422824 -0.0275,-1.524318 -0.16373,-2.7271894 -0.3147,-2.7775104 -0.17164,-0.05721 -0.15696,-0.298715 0.0413,-0.679523 0.20138,-0.386757 0.27984,-1.786241 0.22721,-4.052628 -0.0758,-3.263746 -0.11365,-3.47793197 -0.66146,-3.74261597 -0.93697,-0.452711 5.1665,-0.409554 6.25252,0.04421 1.44792,0.60498297 1.70692,1.28819997 1.73338,4.57249597 0.0217,2.699902 -0.021,2.960709 -0.56756,3.460844 -0.32509,0.297493 -0.88203,0.629457 -1.23765,0.737698 -0.63575,0.193507 -0.63035,0.205126 0.32256,0.6939984 0.53303,0.273458 1.08965,0.722387 1.23696,0.99762 0.1473,0.275233 0.3322,2.13538 0.4109,4.13366 0.0787,1.998281 0.20701,3.736663 0.28513,3.863072 0.0781,0.126409 -0.5128,0.229835 -1.31316,0.229835 -0.80036,0 -1.52185,-0.107829 -1.6033,-0.23962 z M 72.728247,7.6985116 c 0.27284,-1.34448 0.0631,-5.280083 -0.30503,-5.723647 -0.1764,-0.212547 -0.54427,-0.386449 -0.81749,-0.386449 -0.46156,0 -0.49677,0.254418 -0.49677,3.58945 v 3.589449 l 0.71819,-0.08372 c 0.57954,-0.06756 0.75351,-0.257739 0.9011,-0.985083 z m -7.837,10.8793474 -1.85209,-0.07618 v -2.040484 -2.040484 l -0.85989,-0.08291 c -0.67895,-0.06546 -0.86416,0.01805 -0.88014,0.396875 -0.0111,0.263881 -0.0792,0.717909 -0.15131,1.008951 -0.22105,0.892463 -0.0935,2.084859 0.24615,2.300661 0.17725,0.112628 -0.65999,0.206601 -1.860532,0.208829 -1.20055,0.0022 -2.18282,-0.105089 -2.18282,-0.238483 0,-0.133394 0.11277,-0.282222 0.2506,-0.330729 0.25388,-0.08935 0.34779,-0.513486 0.69327,-3.130903 0.10564,-0.800365 0.23455,-1.752865 0.28647,-2.116667 0.26801,-1.877992 0.30397,-3.4395834 0.0792,-3.4395834 -0.37944,0 -0.30132,-0.516828 0.14569,-0.963839 0.476247,-0.476252 0.778424,-4.154245 0.78259,-4.233375 0.0527,-1.001289 0.17933,-2.265597 0.28138,-2.80957297 L 60.055367,9.1763436e-4 h 2.05854 c 2.32945,0 2.20809,-0.12800300436 2.50849,2.64583396564 0.41899,3.868955 0.75485,5.607053 1.10981,5.743263 0.31815,0.122086 0.31648,0.205762 -0.0115,0.573282 -0.31033,0.347767 -0.33785,0.785671 -0.14343,2.2824134 0.13232,1.018646 0.3477,2.897224 0.47864,4.174619 0.13094,1.277394 0.3859,2.500662 0.56658,2.718373 0.18069,0.217711 0.28179,0.422726 0.22467,0.45559 -0.0571,0.03286 -0.93729,0.02547 -1.95593,-0.01643 z m -2.12109,-8.192047 c -0.0885,-1.4188284 -0.20118,-3.1154684 -0.25038,-3.7703124 -0.0492,-0.654844 -0.10882,-1.607344 -0.13252,-2.116667 -0.0864,-1.857256 -0.58293,0.254672 -0.68423,2.910417 -0.0527,1.382448 -0.17231,3.1981514 -0.26574,4.0348964 l -0.16987,1.521354 h 0.83184 0.83184 z M 26.708556,18.21052 c 0.367591,-0.288348 0.47656,-1.0421 0.616736,-4.266055 0.119607,-2.750892 0.08135,-4.0229534 -0.128597,-4.2759244 -0.205609,-0.247743 -0.212293,-0.413595 -0.02142,-0.531559 0.174177,-0.107648 0.277431,-1.695056 0.277431,-4.265193 0,-3.64997 -0.05019,-4.11434097 -0.463021,-4.28386397 -0.276696,-0.113622 0.335512,-0.249644 1.521354,-0.33802 1.091406,-0.08134 2.097485,-0.05157 2.235729,0.06615 0.145181,0.123623 0.06136,0.214032 -0.198437,0.214032 -0.397729,0 -0.45441,0.390473 -0.489691,3.37343797 -0.04875,4.122093 0.0094,4.910298 0.379285,5.139209 0.199051,0.123194 0.171879,0.318246 -0.08795,0.631318 -0.290323,0.3498174 -0.359524,1.2107474 -0.303711,3.7784354 0.03976,1.828964 0.121768,3.374873 0.182249,3.435354 0.06048,0.06048 0.420268,0.03208 0.799529,-0.06311 0.432125,-0.108456 0.955314,-0.611091 1.401384,-1.346329 0.502103,-0.827594 0.889381,-1.175723 1.3145,-1.181622 0.585269,-0.0081 0.597687,0.04323 0.429805,1.777574 -0.09508,0.982266 -0.247226,1.861495 -0.338098,1.953842 -0.09087,0.09235 -1.832096,0.24995 -3.869387,0.350229 -3.098121,0.152494 -3.631118,0.125022 -3.25769,-0.167905 z m 13.878738,-0.211831 c -1.938219,-0.615617 -2.022092,-3.241183 -2.022092,-3.691367 0,-1.049954 0.05099,-1.1179 1.212561,-1.615808 0.666908,-0.28587 1.250962,-0.519764 1.297902,-0.519764 0.0469,0 0.0219,0.925346 -0.0556,2.056325 -0.159339,2.324684 0.15132,2.906307 1.38672,2.596242 l 0.67344,-0.169023 -6.3e-4,-4.953751 c -10e-4,-10.5897334 -0.008,-10.74909937 -0.47653,-11.10531437 -0.35728,-0.271747 -0.0129,-0.325256 1.93085,-0.300037 1.30112,0.01688 2.15731,0.08514 1.90265,0.151692 -0.40553,0.105976 -0.46302,0.481895 -0.46302,3.02763097 -0.07358,2.834429 -0.596083,1.940523 -0.06746,4.132172 0.071,0.327422 0.24887,0.595313 0.39524,0.595313 0.17372,0 0.17062,0.115098 -0.009,0.331423 -0.15128,0.182282 -0.30431,1.8789234 -0.34007,3.7703124 -0.0721,3.811788 -0.31901,4.645961 -1.56625,5.290931 -1.00253,0.518428 -2.8263,0.711915 -3.798821,0.403023 z m 9.958371,-0.04842 c -0.75609,-0.169463 -1.29309,-0.498338 -1.66381,-1.018961 -0.49871,-0.700382 -0.5406,-1.083701 -0.47108,-4.310873 0.056,-2.600256 -0.0146,-3.6516684 -0.26547,-3.9540574 -0.21893,-0.263866 -0.24261,-0.444976 -0.0659,-0.503885 0.33175,-0.110584 0.39934,-1.069451 0.32877,-4.664377 -0.05,-2.54964997 -0.0908,-2.73553297 -0.64871,-2.95979197 -0.41318,-0.166077 0.21417,-0.238027 2.05052,-0.235169 1.91928,0.003 2.46419,0.07105 1.98437,0.247879 l -0.66146,0.243762 0.046,7.68759497 c 0.0331,5.5258414 0.13517,7.7950494 0.36313,8.0697254 0.35092,0.422831 1.72292,0.520788 1.95837,0.139822 0.42233,-0.683348 0.52901,-4.391596 0.30509,-10.6056094 -0.15587,-4.325822 -0.25603,-5.21280797 -0.61992,-5.49010397 -0.35637,-0.271568 0.0128,-0.327729 2.06396,-0.313958 1.76548,0.01185 2.3234,0.08694 1.90266,0.256057 -0.56808,0.228338 -0.59532,0.375951 -0.59532,3.22612197 0,1.642759 0.11663,3.393499 0.25918,3.890534 0.17855,0.622561 0.16957,1.011668 -0.0289,1.250762 -0.19101,0.230149 -0.24011,1.4361354 -0.14577,3.5800194 0.17417,3.957899 -0.0538,4.696151 -1.64678,5.333545 -1.19207,0.476973 -2.70632,0.521548 -4.44897,0.130963 z M 35.919369,13.381277 c 0,-0.498929 -0.17094,-1.078083 -0.379866,-1.287009 -0.245006,-0.245007 -0.288893,-0.470839 -0.123618,-0.636114 0.385319,-0.385319 -0.0108,-1.138484 -0.598771,-1.138484 -0.284061,0 -0.442752,0.119285 -0.352647,0.265078 0.185305,0.299831 -1.115411,0.874957 -1.561739,0.690541 -0.184813,-0.07636 -0.170218,-0.127699 0.04008,-0.140981 0.455492,-0.02877 0.415615,-0.679395 -0.06615,-1.079222 -0.719852,-0.5974244 -0.418248,-0.7017714 1.389062,-0.4805774 1.058964,0.129605 2.574555,0.110352 3.723312,-0.0473 1.065556,-0.146232 2.009044,-0.265876 2.096641,-0.265876 0.0876,0 -0.126257,0.303928 -0.475232,0.675394 -0.53502,0.5695024 -0.573363,0.7140574 -0.244558,0.9219904 0.28791,0.182073 0.164943,0.247657 -0.469955,0.250648 -0.907151,0.0043 -1.06671,-0.212467 -0.542395,-0.736782 0.417123,-0.4171234 -0.130206,-0.4363554 -0.887288,-0.03118 -0.371984,0.19908 -0.492353,0.461091 -0.395038,0.859896 0.07698,0.315465 -0.03163,0.804689 -0.241357,1.087164 -0.209724,0.282474 -0.381317,0.848021 -0.381317,1.25677 0,0.40875 -0.119063,0.743181 -0.264584,0.743181 -0.14552,0 -0.264583,-0.408215 -0.264583,-0.907143 z M 33.591036,8.6792526 c -0.208806,-0.208806 -0.3175,-1.322917 -0.3175,-3.254375 0,-3.243554 0.136636,-3.571875 1.486485,-3.571875 1.680515,0 1.688515,0.01639 1.688515,3.458582 0,2.831049 -0.04997,3.164126 -0.511773,3.411276 -0.691056,0.369842 -1.955789,0.34633 -2.345727,-0.04361 z m 1.741884,-3.363187 c 0.06893,-2.735147 0.0368,-2.968798 -0.396875,-2.885793 -0.408641,0.07821 -0.48211,0.441988 -0.548182,2.714254 -0.08187,2.815477 0.01987,3.429783 0.539458,3.257357 0.232111,-0.07703 0.352934,-0.996254 0.405599,-3.085818 z m 1.66827,0.415235 c 0.03366,-1.794455 -0.02442,-3.401167 -0.129054,-3.570472 -0.136509,-0.220877 0.254579,-0.307826 1.384561,-0.307826 1.689707,0 1.896005,0.1668 1.896005,1.532999 v 0.69597 l -0.767941,-0.916047 c -0.900127,-1.073728 -1.15247,-0.950126 -1.131707,0.554328 0.01803,1.306154 0.232212,1.607698 0.693678,0.976605 0.526767,-0.720396 0.676804,-0.559005 0.676804,0.72802 0,1.219014 -0.357853,1.609725 -0.60583,0.661458 -0.300949,-1.150831 -0.717087,-0.493379 -0.717087,1.132917 0,1.594186 -0.02779,1.664385 -0.680312,1.718389 l -0.680311,0.0563 z"
     id="path92"
     sodipodi:nodetypes="ssssscsssssssssssscsssssssscscccscccscccccsccccssssssccsssscsscccssscsssssssssssssssssssscsssssscsssssssssssscssssssssscssscccssscscsscsscscccccssssscccccccsccsssssscssscsssssssssssssccccssscssssssssssssssscsscscsccsssscsssssscscccsssssssssssssssssscsssssscsscssccsccssssssscssccsssssscsccsssssssssssssssccssscccsccsssccssssscssssssscccssscscccccsccscsssssssscsssssssssccsccsccccsssssssssssssssscsssscssscscccsssssccscccsssscsssccsssssssscssccssssssssssssscsssssssssssssssssssssssscssssssscs" /></svg>
