<?xml version="1.0" encoding="UTF-8" standalone="no"?>
<!-- Created with Inkscape (http://www.inkscape.org/) -->

<svg
   width="273.90283mm"
   height="105.83333mm"
   viewBox="0 0 273.90283 105.83333"
   version="1.1"
   id="svg1"
   xml:space="preserve"
   xmlns:inkscape="http://www.inkscape.org/namespaces/inkscape"
   xmlns:sodipodi="http://sodipodi.sourceforge.net/DTD/sodipodi-0.dtd"
   xmlns="http://www.w3.org/2000/svg"
   xmlns:svg="http://www.w3.org/2000/svg"><sodipodi:namedview
     id="namedview1"
     pagecolor="#ffffff"
     bordercolor="#666666"
     borderopacity="1.0"
     inkscape:showpageshadow="2"
     inkscape:pageopacity="0.0"
     inkscape:pagecheckerboard="0"
     inkscape:deskcolor="#d1d1d1"
     inkscape:document-units="mm"
     showguides="false" /><defs
     id="defs1" /><g
     inkscape:label="Warstwa 1"
     inkscape:groupmode="layer"
     id="layer1"
     transform="translate(-3.9680341,-109.69293)"><g
       id="g13"
       inkscape:export-filename="unitconverter.svg"
       inkscape:export-xdpi="300"
       inkscape:export-ydpi="300"
       transform="matrix(0.7811119,0,0,0.7811119,-34.981375,28.899102)"><path
         style="fill:#feb29a"
         d="m 125.27054,208.65597 c 0,-0.0455 0.38695,-0.43249 0.8599,-0.85989 l 0.85989,-0.77711 -0.7771,0.8599 c -0.72437,0.80154 -0.94269,0.98151 -0.94269,0.7771 z m 4.10104,-4.41512 c 1.44975,-1.45521 2.69544,-2.64584 2.7682,-2.64584 0.0728,0 -1.05387,1.19063 -2.50361,2.64584 -1.44975,1.4552 -2.69544,2.64583 -2.7682,2.64583 -0.0728,0 1.05386,-1.19063 2.50361,-2.64583 z m 5.42396,-5.68855 c 1.3767,-1.38244 2.56262,-2.51354 2.63538,-2.51354 0.0728,0 -0.9941,1.1311 -2.3708,2.51354 -1.3767,1.38245 -2.56262,2.51355 -2.63538,2.51355 -0.0728,0 0.9941,-1.1311 2.3708,-2.51355 z m 5.29166,-5.55625 c 1.3767,-1.38244 2.56262,-2.51354 2.63538,-2.51354 0.0728,0 -0.99409,1.1311 -2.37079,2.51354 -1.3767,1.38245 -2.56263,2.51355 -2.63539,2.51355 -0.0728,0 0.9941,-1.1311 2.3708,-2.51355 z m 5.15938,-5.42396 c 1.44975,-1.45521 2.69543,-2.64583 2.76819,-2.64583 0.0728,0 -1.05386,1.19062 -2.50361,2.64583 -1.44975,1.45521 -2.69544,2.64583 -2.7682,2.64583 -0.0728,0 1.05387,-1.19062 2.50362,-2.64583 z m 5.42396,-5.68854 c 1.3767,-1.38245 2.56262,-2.51354 2.63538,-2.51354 0.0728,0 -0.9941,1.13109 -2.3708,2.51354 -1.3767,1.38245 -2.56262,2.51354 -2.63538,2.51354 -0.0728,0 0.9941,-1.13109 2.3708,-2.51354 z m 3.30729,-3.57187 c 0.26339,-0.29105 0.53842,-0.52917 0.61118,-0.52917 0.0728,0 -0.0832,0.23812 -0.3466,0.52917 -0.26339,0.29104 -0.53842,0.52916 -0.61118,0.52916 -0.0728,0 0.0832,-0.23812 0.3466,-0.52916 z M 82.14346,162.83355 c 0.937478,-0.94588 1.764036,-1.71979 1.836796,-1.71979 0.07276,0 -0.634735,0.77391 -1.572213,1.71979 -0.937477,0.94589 -1.764036,1.71979 -1.836796,1.71979 -0.07276,0 0.634735,-0.7739 1.572213,-1.71979 z m 4.497916,-4.7625 c 1.3767,-1.38245 2.562622,-2.51354 2.635382,-2.51354 0.07276,0 -0.994099,1.13109 -2.370798,2.51354 -1.3767,1.38245 -2.562622,2.51354 -2.635382,2.51354 -0.07276,0 0.994099,-1.13109 2.370798,-2.51354 z m 5.291667,-5.55625 c 1.376699,-1.38245 2.562621,-2.51354 2.635382,-2.51354 0.07276,0 -0.994099,1.13109 -2.370799,2.51354 -1.3767,1.38245 -2.562621,2.51354 -2.635382,2.51354 -0.07276,0 0.994099,-1.13109 2.370799,-2.51354 z m 5.291666,-5.55625 c 1.3767,-1.38245 2.562622,-2.51354 2.635382,-2.51354 0.07276,0 -0.994099,1.13109 -2.370799,2.51354 -1.376699,1.38245 -2.562621,2.51354 -2.635381,2.51354 -0.07276,0 0.994099,-1.13109 2.370798,-2.51354 z m 5.291671,-5.55625 c 1.3767,-1.38245 2.56262,-2.51354 2.63538,-2.51354 0.0728,0 -0.9941,1.13109 -2.3708,2.51354 -1.3767,1.38245 -2.56262,2.51354 -2.63538,2.51354 -0.0728,0 0.9941,-1.13109 2.3708,-2.51354 z m 5.15937,-5.42396 c 1.15734,-1.16416 2.16378,-2.11666 2.23654,-2.11666 0.0728,0 -0.81462,0.9525 -1.97196,2.11666 -1.15733,1.16417 -2.16378,2.11667 -2.23654,2.11667 -0.0728,0 0.81462,-0.9525 1.97196,-2.11667 z"
         id="path11" /><path
         style="fill:#fea588"
         d="m 80.409611,185.98459 c 0,-4.72943 0.03588,-6.66419 0.07973,-4.29948 0.04385,2.36472 0.04385,6.23425 0,8.59896 -0.04385,2.36472 -0.07973,0.42995 -0.07973,-4.29948 z m 18.733327,-8.92966 c 10.150082,-0.0384 26.759292,-0.0384 36.909372,0 10.15007,0.0384 1.84547,0.0698 -18.45469,0.0698 -20.30015,0 -28.604759,-0.0314 -18.454682,-0.0698 z M 88.758043,155.7222 c 0,-0.0549 0.208359,-0.2633 0.463021,-0.46302 0.419644,-0.32911 0.429002,-0.31975 0.0999,0.0999 -0.345644,0.44073 -0.562916,0.58089 -0.562916,0.36312 z m 16.271877,-17.09802 c 0.26339,-0.29104 0.53842,-0.52917 0.61118,-0.52917 0.0728,0 -0.0832,0.23813 -0.3466,0.52917 -0.26339,0.29104 -0.53842,0.52916 -0.61118,0.52916 -0.0728,0 0.0832,-0.23812 0.3466,-0.52916 z"
         id="path10" /><path
         style="fill:#fe8f6c"
         d="m 127.38721,206.5222 c 0,-0.0549 0.20836,-0.2633 0.46302,-0.46302 0.41964,-0.32911 0.429,-0.31975 0.0999,0.0999 -0.34564,0.44073 -0.56292,0.58089 -0.56292,0.36313 z m 5.68854,-5.98552 c 0.26339,-0.29104 0.53842,-0.52917 0.61118,-0.52917 0.0728,0 -0.0832,0.23813 -0.3466,0.52917 -0.26339,0.29104 -0.53842,0.52917 -0.61118,0.52917 -0.0728,0 0.0832,-0.23813 0.3466,-0.52917 z m 5.02708,-5.29167 c 0.26339,-0.29104 0.53842,-0.52916 0.61118,-0.52916 0.0728,0 -0.0832,0.23812 -0.3466,0.52916 -0.26339,0.29104 -0.53842,0.52917 -0.61118,0.52917 -0.0728,0 0.0832,-0.23813 0.3466,-0.52917 z m 5.55625,-5.82083 c 0.26339,-0.29105 0.53842,-0.52917 0.61118,-0.52917 0.0728,0 -0.0832,0.23812 -0.3466,0.52917 -0.26339,0.29104 -0.53842,0.52916 -0.61118,0.52916 -0.0728,0 0.0832,-0.23812 0.3466,-0.52916 z m 5.29166,-5.55625 c 0.26339,-0.29105 0.53842,-0.52917 0.61119,-0.52917 0.0728,0 -0.0832,0.23812 -0.3466,0.52917 -0.26339,0.29104 -0.53842,0.52916 -0.61118,0.52916 -0.0728,0 0.0832,-0.23812 0.34659,-0.52916 z m 4.8948,-5.12698 c 0,-0.0549 0.20835,-0.2633 0.46302,-0.46302 0.41964,-0.32911 0.429,-0.31975 0.0999,0.0999 -0.34564,0.44073 -0.56291,0.58088 -0.56291,0.36312 z M 83.069502,161.64293 c 0.263389,-0.29105 0.53842,-0.52917 0.61118,-0.52917 0.07276,0 -0.08321,0.23812 -0.346597,0.52917 -0.263389,0.29104 -0.538421,0.52916 -0.611181,0.52916 -0.07276,0 0.08321,-0.23812 0.346598,-0.52916 z m 4.894791,-5.12698 c 0,-0.0549 0.208359,-0.2633 0.463021,-0.46302 0.419644,-0.32911 0.429002,-0.31975 0.0999,0.0999 -0.345644,0.44073 -0.562916,0.58089 -0.562916,0.36312 z m 5.688541,-5.98552 c 0.263389,-0.29104 0.538421,-0.52917 0.611181,-0.52917 0.07276,0 -0.08321,0.23813 -0.346597,0.52917 -0.263389,0.29104 -0.538421,0.52916 -0.611181,0.52916 -0.07276,0 0.08321,-0.23812 0.346597,-0.52916 z m 5.291667,-5.55625 c 0.263389,-0.29104 0.53842,-0.52917 0.611181,-0.52917 0.07276,0 -0.08321,0.23813 -0.346598,0.52917 -0.263389,0.29104 -0.53842,0.52916 -0.611181,0.52916 -0.07276,0 0.08321,-0.23812 0.346598,-0.52916 z"
         id="path9" /><path
         style="fill:#fe7247"
         d="m 128.57783,205.29918 c 0.26339,-0.29104 0.53842,-0.52917 0.61118,-0.52917 0.0728,0 -0.0832,0.23813 -0.34659,0.52917 -0.26339,0.29104 -0.53842,0.52917 -0.61119,0.52917 -0.0728,0 0.0832,-0.23813 0.3466,-0.52917 z m 5.15938,-5.39156 c 0,-0.0549 0.20836,-0.2633 0.46302,-0.46302 0.41964,-0.32911 0.429,-0.31975 0.0999,0.0999 -0.34565,0.44073 -0.56292,0.58089 -0.56292,0.36313 z m 5.42395,-5.72094 c 0.26339,-0.29104 0.53842,-0.52917 0.61118,-0.52917 0.0728,0 -0.0832,0.23813 -0.3466,0.52917 -0.26338,0.29104 -0.53842,0.52917 -0.61118,0.52917 -0.0728,0 0.0832,-0.23813 0.3466,-0.52917 z m 5.15938,-5.39157 c 0,-0.0549 0.20836,-0.2633 0.46302,-0.46302 0.41964,-0.3291 0.429,-0.31975 0.0999,0.0999 -0.34564,0.44073 -0.56291,0.58089 -0.56291,0.36313 z m 5.68854,-5.98552 c 0.26339,-0.29104 0.53842,-0.52916 0.61118,-0.52916 0.0728,0 -0.0832,0.23812 -0.3466,0.52916 -0.26339,0.29104 -0.53842,0.52917 -0.61118,0.52917 -0.0728,0 0.0832,-0.23813 0.3466,-0.52917 z M 99.142938,165.41327 c 10.150082,-0.0384 26.759292,-0.0384 36.909372,0 10.15007,0.0384 1.84547,0.0698 -18.45469,0.0698 -20.30015,0 -28.604759,-0.0314 -18.454682,-0.0698 z m 55.614762,-8.92972 c -1e-4,-4.80219 0.0357,-6.80404 0.0795,-4.44857 0.0438,2.35547 0.0439,6.28453 1.8e-4,8.73125 -0.0437,2.44671 -0.0795,0.51951 -0.0797,-4.28268 z m -72.746532,6.21771 c 0.263389,-0.29104 0.538421,-0.52917 0.611181,-0.52917 0.07276,0 -0.08321,0.23813 -0.346597,0.52917 -0.263389,0.29104 -0.538421,0.52917 -0.611181,0.52917 -0.07276,0 0.08321,-0.23813 0.346597,-0.52917 z m 5.159375,-5.39156 c 0,-0.0549 0.208359,-0.2633 0.463021,-0.46302 0.419644,-0.32911 0.429002,-0.31975 0.09989,0.0999 -0.345644,0.44073 -0.562916,0.58088 -0.562916,0.36312 z m 5.423958,-5.72094 c 0.263389,-0.29104 0.538421,-0.52917 0.611181,-0.52917 0.07276,0 -0.08321,0.23813 -0.346598,0.52917 -0.263389,0.29104 -0.53842,0.52917 -0.61118,0.52917 -0.07276,0 0.08321,-0.23813 0.346597,-0.52917 z m 5.291666,-5.55625 c 0.26339,-0.29104 0.538421,-0.52917 0.611181,-0.52917 0.07276,0 -0.08321,0.23813 -0.346597,0.52917 -0.263389,0.29104 -0.538421,0.52917 -0.611181,0.52917 -0.07276,0 0.08321,-0.23813 0.346597,-0.52917 z m 5.556253,-5.82083 c 0.26339,-0.29104 0.53842,-0.52917 0.61118,-0.52917 0.0728,0 -0.0832,0.23813 -0.3466,0.52917 -0.26339,0.29104 -0.53842,0.52916 -0.61118,0.52916 -0.0728,0 0.0832,-0.23812 0.3466,-0.52916 z m 5.02708,-5.29167 c 0.26339,-0.29104 0.53842,-0.52916 0.61118,-0.52916 0.0728,0 -0.0832,0.23812 -0.3466,0.52916 -0.26339,0.29104 -0.53842,0.52917 -0.61118,0.52917 -0.0728,0 0.0832,-0.23813 0.3466,-0.52917 z"
         id="path8" /><path
         style="fill:#fe6534"
         d="m 124.32532,202.65335 c 0,-3.27422 0.038,-4.61368 0.0844,-2.97657 0.0464,1.63711 0.0464,4.31602 0,5.95313 -0.0464,1.63711 -0.0844,0.29765 -0.0844,-2.97656 z m 5.31085,1.5875 c 0.26338,-0.29105 0.53842,-0.52917 0.61118,-0.52917 0.0728,0 -0.0832,0.23812 -0.3466,0.52917 -0.26339,0.29104 -0.53842,0.52916 -0.61118,0.52916 -0.0728,0 0.0832,-0.23812 0.3466,-0.52916 z m 5.29166,-5.55625 c 0.26339,-0.29105 0.53842,-0.52917 0.61118,-0.52917 0.0728,0 -0.0832,0.23812 -0.34659,0.52917 -0.26339,0.29104 -0.53843,0.52916 -0.61119,0.52916 -0.0728,0 0.0832,-0.23812 0.3466,-0.52916 z m 5.29166,-5.55625 c 0.26339,-0.29105 0.53843,-0.52917 0.61119,-0.52917 0.0728,0 -0.0832,0.23812 -0.3466,0.52917 -0.26339,0.29104 -0.53842,0.52916 -0.61118,0.52916 -0.0728,0 0.0832,-0.23812 0.34659,-0.52916 z m 5.42396,-5.68855 c 0.34178,-0.3638 0.68094,-0.66146 0.7537,-0.66146 0.0728,0 -0.14734,0.29766 -0.48911,0.66146 -0.34178,0.3638 -0.68094,0.66146 -0.7537,0.66146 -0.0728,0 0.14734,-0.29766 0.48911,-0.66146 z m 5.42396,-5.68854 c 0.26339,-0.29104 0.53842,-0.52917 0.61118,-0.52917 0.0728,0 -0.0832,0.23813 -0.3466,0.52917 -0.26339,0.29104 -0.53842,0.52917 -0.61118,0.52917 -0.0728,0 0.0832,-0.23813 0.3466,-0.52917 z M 80.952835,163.75959 c 0.263389,-0.29104 0.538421,-0.52916 0.611181,-0.52916 0.07276,0 -0.08321,0.23812 -0.346598,0.52916 -0.263389,0.29104 -0.53842,0.52917 -0.611181,0.52917 -0.07276,0 0.08321,-0.23813 0.346598,-0.52917 z m 5.55625,-5.82083 c 0.263389,-0.29104 0.53842,-0.52917 0.611181,-0.52917 0.07276,0 -0.08321,0.23813 -0.346598,0.52917 -0.263389,0.29104 -0.53842,0.52917 -0.611181,0.52917 -0.07276,0 0.08321,-0.23813 0.346598,-0.52917 z m 5.027083,-5.29167 c 0.263389,-0.29104 0.53842,-0.52916 0.611181,-0.52916 0.07276,0 -0.08321,0.23812 -0.346598,0.52916 -0.263389,0.29105 -0.53842,0.52917 -0.611181,0.52917 -0.07276,0 0.08321,-0.23812 0.346598,-0.52917 z m 5.291666,-5.55625 c 0.263389,-0.29104 0.538421,-0.52916 0.611181,-0.52916 0.07276,0 -0.08321,0.23812 -0.346597,0.52916 -0.26339,0.29105 -0.538421,0.52917 -0.611181,0.52917 -0.07276,0 0.08321,-0.23812 0.346597,-0.52917 z m 5.556246,-5.82083 c 0.26339,-0.29104 0.53842,-0.52917 0.61118,-0.52917 0.0728,0 -0.0832,0.23813 -0.34659,0.52917 -0.26339,0.29104 -0.53842,0.52917 -0.61118,0.52917 -0.0728,0 0.0832,-0.23813 0.34659,-0.52917 z m 4.8948,-5.12698 c 0,-0.0549 0.20835,-0.2633 0.46302,-0.46302 0.41964,-0.32911 0.429,-0.31975 0.0999,0.0999 -0.34565,0.44073 -0.56292,0.58089 -0.56292,0.36313 z"
         id="path7" /><path
         style="fill:#fe5621"
         d="m 80.423668,238.47609 c -3.392753,-0.60537 -7.080659,-1.86523 -10.402466,-3.55368 -10.470426,-5.32204 -17.72292,-15.20587 -19.769592,-26.94235 -0.326726,-1.87359 -0.387315,-7.63037 -0.387315,-36.80017 0,-38.31853 -0.06017,-36.85371 1.737031,-42.28757 1.846743,-5.58364 4.495338,-9.94083 8.665676,-14.25584 4.277801,-4.42621 9.239521,-7.54189 15.092932,-9.47754 5.390797,-1.78266 3.961884,-1.72434 42.249656,-1.72434 37.94578,0 36.47634,-0.0564 41.87591,1.6073 1.42849,0.44015 3.98834,1.50734 5.68854,2.37154 10.47043,5.32205 17.72292,15.20587 19.7696,26.94236 0.57804,3.31475 0.57804,70.30951 0,73.62426 -0.90923,5.2139 -2.9496,10.33118 -5.86825,14.71763 -1.88864,2.83845 -5.63562,6.76312 -8.54595,8.95121 -4.36341,3.28056 -10.4885,5.90391 -15.99096,6.84884 -3.39458,0.58295 -70.836819,0.56325 -74.114812,-0.0217 z m 58.098572,-43.42952 c 7.30914,-7.67622 13.98976,-14.67904 14.84583,-15.56182 2.68507,-2.76886 6.54189,-2.50746 -35.86525,-2.43076 l -37.079152,0.0671 v 8.99583 8.99584 l 21.337412,0.13229 c 20.51072,0.12717 21.35898,0.15182 21.89427,0.63632 0.53486,0.48412 0.55686,0.74075 0.55686,6.49552 0,5.79809 0.10349,6.62649 0.82785,6.62649 0.10606,0 6.17305,-6.28054 13.48218,-13.95677 z m 16.08831,-29.79714 c 0.21424,-0.25815 0.28058,-2.86233 0.23083,-9.06198 l -0.0698,-8.69973 -21.35785,-0.13229 -21.35785,-0.13229 -0.60256,-0.60207 c -0.58394,-0.58346 -0.60666,-0.79208 -0.73486,-6.74688 -0.12054,-5.59873 -0.17299,-6.1448 -0.5902,-6.1448 -0.53446,0 -29.836883,30.64357 -29.836883,31.20248 0,0.20412 0.148828,0.43118 0.330729,0.50458 0.181901,0.0734 16.836071,0.14285 37.009264,0.15434 30.74091,0.0175 36.72721,-0.0377 36.97918,-0.34136 z"
         id="path6" /></g><text
       xml:space="preserve"
       style="font-style:normal;font-variant:normal;font-weight:normal;font-stretch:normal;font-size:28.0244px;line-height:1.25;font-family:Rubik;-inkscape-font-specification:Rubik;letter-spacing:0px;word-spacing:0px;stroke-width:2.33537"
       x="118.41193"
       y="136.41165"
       id="text13"><tspan
         sodipodi:role="line"
         style="font-style:normal;font-variant:normal;font-weight:normal;font-stretch:normal;font-family:Rubik;-inkscape-font-specification:Rubik;stroke-width:2.33537"
         x="118.41193"
         y="136.41165"
         id="tspan14">ULTIMATE</tspan><tspan
         sodipodi:role="line"
         style="font-style:normal;font-variant:normal;font-weight:normal;font-stretch:normal;font-family:Rubik;-inkscape-font-specification:Rubik;stroke-width:2.33537"
         x="118.41193"
         y="171.44215"
         id="tspan16">UNIT</tspan><tspan
         sodipodi:role="line"
         style="font-style:normal;font-variant:normal;font-weight:normal;font-stretch:normal;font-family:Rubik;-inkscape-font-specification:Rubik;stroke-width:2.33537"
         x="118.41193"
         y="206.47266"
         id="tspan15">CONVERTER</tspan></text></g></svg>
